<svg width="32" height="15" viewBox="0 0 32 15" fill="none" xmlns="http://www.w3.org/2000/svg">
<path fill-rule="evenodd" clip-rule="evenodd" d="M25.3431 0.292896L31.7071 6.65686C32.0976 7.04738 32.0976 7.68055 31.7071 8.07107L25.3431 14.435C24.9526 14.8256 24.3195 14.8256 23.9289 14.435C23.5384 14.0445 23.5384 13.4113 23.9289 13.0208L28.5858 8.36396L0.999999 8.36396C0.447714 8.36396 -6.9206e-07 7.91625 -6.43778e-07 7.36396C-5.95496e-07 6.81168 0.447715 6.36396 0.999999 6.36396L28.5858 6.36396L23.9289 1.70711C23.5384 1.31658 23.5384 0.68342 23.9289 0.292895C24.3195 -0.097629 24.9526 -0.0976289 25.3431 0.292896Z" fill="white"/>
</svg>
