<svg width="25" height="25" viewBox="0 0 25 25" fill="none" xmlns="http://www.w3.org/2000/svg">
<path d="M5.22833 11.8374C5.22835 11.7032 5.25483 11.5703 5.30626 11.4464C5.35768 11.3225 5.43303 11.21 5.52798 11.1153C5.62293 11.0206 5.7356 10.9457 5.85954 10.8948C5.98348 10.8439 6.11623 10.818 6.25018 10.8186L7.94432 10.8241C8.21444 10.8241 8.4735 10.9316 8.6645 11.123C8.85551 11.3144 8.96281 11.5739 8.96281 11.8446V18.263C9.15362 18.2064 9.39781 18.146 9.66653 18.0826C9.8527 18.0387 10.0186 17.9331 10.1374 17.7829C10.2561 17.6327 10.3208 17.4467 10.3208 17.2551V9.29401C10.3208 9.02336 10.4281 8.76379 10.6191 8.5724C10.8101 8.381 11.0692 8.27345 11.3393 8.27339H13.0386C13.3087 8.27345 13.5678 8.381 13.7588 8.5724C13.9498 8.76379 14.0571 9.02336 14.0571 9.29401V16.6832C14.0571 16.6832 14.4822 16.5108 14.896 16.3357C15.0498 16.2705 15.1811 16.1615 15.2734 16.0221C15.3657 15.8826 15.4149 15.7191 15.4151 15.5518V6.74287C15.4151 6.47227 15.5224 6.21275 15.7133 6.02139C15.9043 5.83003 16.1633 5.7225 16.4334 5.72245H18.1309C18.4008 5.72271 18.6596 5.83034 18.8504 6.02167C19.0412 6.21301 19.1484 6.47241 19.1484 6.74287V13.9967C20.6201 12.9282 22.1115 11.6429 23.2951 10.0975C23.4669 9.87318 23.5805 9.60977 23.6259 9.33075C23.6713 9.05173 23.6471 8.76579 23.5553 8.49844C23.0075 6.9192 22.1366 5.47195 20.9984 4.24928C19.8601 3.02662 18.4797 2.05547 16.9454 1.39798C15.4111 0.740498 13.7567 0.411153 12.088 0.431024C10.4194 0.450896 8.77323 0.819546 7.25494 1.51339C5.73666 2.20722 4.37966 3.21097 3.27079 4.4604C2.16192 5.70982 1.32559 7.17741 0.815322 8.76925C0.305054 10.3611 0.132086 12.0421 0.307485 13.7048C0.482883 15.3674 1.00279 16.9751 1.83392 18.4249C1.97873 18.675 2.19177 18.8785 2.44801 19.0115C2.70426 19.1445 2.99306 19.2014 3.2805 19.1757C3.60161 19.1474 4.00142 19.1073 4.47676 19.0515C4.68364 19.0279 4.87463 18.9289 5.01337 18.7733C5.15211 18.6178 5.2289 18.4166 5.22912 18.208V11.8374" fill="white"/>
<path d="M5.19225 22.1309C6.98153 23.435 9.09603 24.2178 11.3018 24.3927C13.5076 24.5675 15.7186 24.1276 17.6904 23.1216C19.6621 22.1156 21.3176 20.5828 22.4737 18.6926C23.6299 16.8025 24.2416 14.6287 24.2412 12.4119C24.2412 12.1345 24.2283 11.8615 24.2099 11.5894C19.8277 18.1376 11.7363 21.1988 5.19225 22.1309Z" fill="white"/>
</svg>
