<svg width="27" height="27" viewBox="0 0 27 27" fill="none" xmlns="http://www.w3.org/2000/svg">
<path d="M25.2139 13.3774C25.2243 15.7481 24.5315 18.0687 23.2231 20.0456C21.9147 22.0226 20.0495 23.5672 17.8632 24.484C15.677 25.4009 13.2679 25.6489 10.9407 25.1966C8.61356 24.7443 6.47277 23.6121 4.78908 21.9431C3.1054 20.2741 1.95444 18.1433 1.48176 15.8202C1.00908 13.497 1.23591 11.0859 2.13356 8.89172C3.03122 6.69752 4.55938 4.81878 6.52479 3.49309C8.49021 2.16739 10.8046 1.45429 13.1753 1.44396C16.3542 1.43011 19.4083 2.67958 21.666 4.91752C23.9236 7.15546 25.1998 10.1986 25.2139 13.3774Z" stroke="white" stroke-width="1.65031"/>
<path d="M18.8508 9.55548C18.0465 9.3227 17.2126 8.99263 16.3684 8.6591C16.3197 8.44716 16.1321 8.18311 15.7525 7.86087C15.201 7.38228 14.1648 7.39444 13.2693 7.60638C12.2808 7.3736 11.3045 7.29108 10.3673 7.51952C2.70207 9.63104 7.04846 14.7826 4.23425 19.9611C4.63467 20.8106 8.95066 25.7667 15.1958 24.4369C15.1958 24.4369 13.0599 19.3044 17.8797 16.8411C21.7892 14.8356 24.6138 11.125 18.8508 9.55548Z" fill="white"/>
<path d="M19.7974 12.9264C19.7979 13.0184 19.7712 13.1083 19.7205 13.185C19.6699 13.2618 19.5977 13.3217 19.513 13.3574C19.4283 13.393 19.3349 13.4027 19.2446 13.3853C19.1544 13.3679 19.0713 13.3241 19.006 13.2595C18.9406 13.1948 18.8959 13.1123 18.8775 13.0223C18.8591 12.9322 18.8677 12.8387 18.9024 12.7536C18.9371 12.6685 18.9963 12.5956 19.0724 12.5441C19.1485 12.4926 19.2382 12.4649 19.3301 12.4644C19.3911 12.464 19.4516 12.4757 19.5081 12.4987C19.5647 12.5218 19.6161 12.5557 19.6595 12.5986C19.7029 12.6415 19.7374 12.6926 19.7611 12.7488C19.7847 12.8051 19.7971 12.8654 19.7974 12.9264Z" fill="#0D0D0D"/>
<path d="M13.2692 7.60299C13.8277 7.64294 15.8471 8.29785 16.3683 8.65571C15.934 7.39626 14.4722 7.22863 13.2692 7.60299Z" fill="white"/>
<path d="M13.8009 10.7883C13.801 11.2123 13.6755 11.6269 13.44 11.9795C13.2046 12.3322 12.8698 12.6071 12.4781 12.7694C12.0864 12.9318 11.6553 12.9744 11.2394 12.8917C10.8235 12.8091 10.4415 12.605 10.1416 12.3052C9.84176 12.0054 9.63753 11.6234 9.55477 11.2075C9.47202 10.7917 9.51446 10.3606 9.67672 9.96885C9.83898 9.5771 10.1138 9.24227 10.4664 9.00671C10.8189 8.77116 11.2334 8.64546 11.6575 8.64551C12.2258 8.64558 12.7709 8.87134 13.1728 9.27316C13.5747 9.67498 13.8006 10.22 13.8009 10.7883Z" fill="#0D0D0D"/>
<path d="M13.165 10.8072C13.165 11.1054 13.0766 11.3969 12.9109 11.6449C12.7452 11.8929 12.5097 12.0861 12.2342 12.2003C11.9587 12.3144 11.6555 12.3442 11.363 12.2861C11.0705 12.2279 10.8018 12.0843 10.5909 11.8734C10.3801 11.6625 10.2364 11.3938 10.1783 11.1013C10.1201 10.8088 10.1499 10.5057 10.2641 10.2301C10.3782 9.95462 10.5715 9.71912 10.8194 9.55344C11.0674 9.38775 11.3589 9.29932 11.6572 9.29932C12.0571 9.29932 12.4406 9.45818 12.7234 9.74096C13.0061 10.0237 13.165 10.4073 13.165 10.8072Z" fill="white"/>
<path d="M21.5339 13.8716C19.7967 15.0954 17.8215 16.024 15.0195 16.024C13.7079 16.024 13.4421 14.6342 12.5753 15.3135C12.128 15.6661 10.5506 16.4548 9.29901 16.3948C8.04738 16.3349 6.01837 15.601 5.45292 12.9292C5.22883 15.601 5.11418 17.5692 4.11096 19.8249C6.1087 23.0239 10.872 25.4915 15.1958 24.4284C14.7311 21.1842 17.5662 18.0069 19.1635 16.3809C19.7715 15.7651 20.9267 14.7602 21.5339 13.8699V13.8716Z" fill="white"/>
<path d="M21.4659 13.9517C20.9265 14.4433 20.2846 14.8073 19.6314 15.1287C18.9703 15.4426 18.2811 15.6935 17.5729 15.8782C16.8641 16.0615 16.125 16.1996 15.3762 16.1319C14.6275 16.0641 13.8623 15.8096 13.3663 15.2485L13.3898 15.2216C13.9978 15.6159 14.6996 15.7549 15.3979 15.7749C16.1058 15.7964 16.8138 15.7381 17.5086 15.6012C18.2105 15.4542 18.897 15.242 19.5593 14.9671C20.2221 14.6935 20.8778 14.3765 21.4424 13.9248L21.4659 13.9517Z" fill="#0D0D0D"/>
</svg>
