<svg width="21" height="19" viewBox="0 0 21 19" fill="none" xmlns="http://www.w3.org/2000/svg">
<path d="M19.7883 0.595127C19.5802 0.418809 19.3282 0.302166 19.0591 0.257596C18.7901 0.213026 18.514 0.242194 18.2601 0.342001L0.953886 7.13888C0.650337 7.25453 0.39322 7.46675 0.222126 7.74288C0.0510315 8.019 -0.0245528 8.34371 0.00701133 8.667C0.0351716 8.99017 0.167338 9.2955 0.383691 9.53721C0.600045 9.77892 0.888924 9.94397 1.20701 10.0076L5.60389 10.8795V16.3733C5.60373 16.6705 5.69186 16.961 5.85711 17.208C6.02235 17.4551 6.25726 17.6474 6.53201 17.7608C6.71385 17.8339 6.90788 17.8721 7.10389 17.8733C7.3009 17.8739 7.49606 17.8353 7.67797 17.7597C7.85987 17.684 8.02486 17.5728 8.16326 17.4326L10.6008 15.0045L14.2851 18.2483C14.5571 18.4881 14.9068 18.6214 15.2695 18.6233C15.429 18.6265 15.5878 18.6011 15.7383 18.5483C15.9857 18.47 16.2083 18.3285 16.3843 18.1377C16.5602 17.947 16.6833 17.7137 16.7414 17.4608L20.2664 2.067C20.328 1.80138 20.316 1.52398 20.2318 1.26464C20.1476 1.0053 19.9942 0.773836 19.7883 0.595127ZM6.17576 9.46388L1.50701 8.53575L14.5945 3.38888L6.17576 9.46388ZM7.10389 16.3733V11.9295L9.46638 14.0108L7.10389 16.3733ZM15.2789 17.1233L7.55389 10.3264L18.682 2.292L15.2789 17.1233Z" fill="white"/>
</svg>
