<svg width="23" height="19" viewBox="0 0 23 19" fill="none" xmlns="http://www.w3.org/2000/svg">
<path fill-rule="evenodd" clip-rule="evenodd" d="M10.2859 5.30886C10.2859 2.54566 12.5259 0.305664 15.2891 0.305664C16.9115 0.305664 18.2059 1.07206 19.0731 2.18566C19.9903 1.99765 20.8697 1.65749 21.6747 1.17926C21.3629 2.14919 20.7104 2.97336 19.8379 3.49926L19.8411 3.50406C20.6694 3.40398 21.4783 3.18128 22.2411 2.84326L22.2395 2.84646C21.7003 3.65446 21.0235 4.36646 20.2427 4.94726C20.2843 5.23046 20.3067 5.51366 20.3067 5.79526C20.3067 11.6945 15.8123 18.5553 7.54667 18.5553C5.1094 18.5574 2.72308 17.8575 0.673071 16.5393C0.576558 16.4773 0.494491 16.3954 0.432433 16.2989C0.370374 16.2025 0.329775 16.0938 0.313386 15.9803C0.296998 15.8668 0.305205 15.7511 0.337449 15.6411C0.369693 15.531 0.425222 15.4292 0.50027 15.3425C0.571638 15.2238 0.675705 15.1283 0.8 15.0672C0.924296 15.0062 1.06355 14.9823 1.20107 14.9985C2.66667 15.1713 4.12907 14.9921 5.42027 14.4289C4.7834 14.1475 4.21325 13.7346 3.74723 13.2173C3.28122 12.7 2.92988 12.0899 2.71627 11.4273C2.67677 11.304 2.67124 11.1724 2.70024 11.0462C2.72924 10.9201 2.79171 10.8041 2.88107 10.7105C2.35524 10.249 1.93406 9.68054 1.64571 9.04313C1.35735 8.40572 1.20849 7.71406 1.20907 7.01446V6.96006C1.20903 6.79268 1.26732 6.63051 1.3739 6.50144C1.48048 6.37238 1.6287 6.28448 1.79307 6.25286C1.43032 5.55282 1.24153 4.77571 1.24267 3.98726C1.24267 3.23846 1.24747 2.29446 1.77387 1.44326C1.83011 1.35309 1.90562 1.27648 1.99497 1.21894C2.08432 1.1614 2.18531 1.12436 2.29067 1.11046C2.44345 1.06228 2.60718 1.06107 2.76065 1.107C2.91412 1.15293 3.05027 1.24388 3.15147 1.36806C4.93503 3.56213 7.48602 4.99606 10.2875 5.37926V5.30886H10.2859ZM7.54667 16.9553C6.3225 16.9562 5.10661 16.7545 3.94827 16.3585C5.34153 16.1286 6.65569 15.5557 7.77227 14.6913C7.88929 14.5995 7.97502 14.4737 8.01766 14.3312C8.06031 14.1887 8.05778 14.0365 8.01044 13.8955C7.96309 13.7546 7.87324 13.6317 7.75324 13.5438C7.63324 13.456 7.48898 13.4074 7.34027 13.4049C6.80461 13.3952 6.27842 13.262 5.80273 13.0155C5.32703 12.7691 4.9147 12.4161 4.59787 11.9841C4.90187 11.9601 5.19947 11.9073 5.48747 11.8305C5.64447 11.7885 5.78264 11.6946 5.87954 11.5642C5.97643 11.4337 6.02634 11.2743 6.02115 11.1119C6.01596 10.9495 5.95597 10.7936 5.85094 10.6696C5.74591 10.5456 5.60203 10.4607 5.44267 10.4289C4.83396 10.3055 4.26922 10.0219 3.8068 9.60732C3.34437 9.19271 3.00104 8.66216 2.81227 8.07046C3.13227 8.14726 3.46667 8.19366 3.80907 8.20486C3.96554 8.21013 4.11946 8.16425 4.24752 8.07418C4.37557 7.9841 4.47078 7.85475 4.51871 7.7057C4.56664 7.55666 4.56469 7.39606 4.51314 7.24823C4.4616 7.1004 4.36328 6.97339 4.23307 6.88646C3.75563 6.56839 3.36415 6.13732 3.0934 5.63155C2.82264 5.12577 2.68101 4.56095 2.68107 3.98726C2.68107 3.71846 2.68587 3.48006 2.70187 3.26246C4.94071 5.54724 7.9582 6.9046 11.1531 7.06406C11.2764 7.07034 11.3996 7.04796 11.5129 6.99867C11.6261 6.94939 11.7265 6.87455 11.806 6.78C11.8855 6.68546 11.942 6.57379 11.9711 6.45374C12.0003 6.33369 12.0012 6.20853 11.9739 6.08806C11.8564 5.58847 11.8534 5.06876 11.9651 4.56784C12.0769 4.06693 12.3005 3.59777 12.6192 3.19549C12.9379 2.79322 13.3435 2.46823 13.8056 2.24487C14.2676 2.0215 14.7742 1.90554 15.2875 1.90566C17.2619 1.90566 18.7051 3.73446 18.7051 5.79686C18.7051 11.0065 14.7435 16.9553 7.54507 16.9553H7.54667Z" fill="white"/>
</svg>
