<svg width="25" height="25" viewBox="0 0 25 25" fill="none" xmlns="http://www.w3.org/2000/svg">
<path d="M21.511 14.857C21.1164 15.1285 20.6031 15.1624 20.1746 14.9461C19.6825 14.6661 19.4152 14.0127 19.4152 13.1261V10.3982C19.4152 9.08727 18.8976 8.15818 18.0279 7.90364C16.5643 7.47515 15.4697 9.2697 15.0497 9.94424L12.4576 14.14V9.01939C12.4279 7.84 12.0461 7.13152 11.3164 6.91939C10.837 6.77939 10.1158 6.83455 9.41581 7.90364L3.62066 17.2073C2.84853 15.7352 2.4455 14.0933 2.45399 12.4303C2.45399 6.82182 6.93399 2.26121 12.4576 2.26121C17.9813 2.26121 22.474 6.82182 22.474 12.4303V12.46C22.474 12.46 22.474 12.4812 22.474 12.4897C22.5291 13.5715 22.177 14.437 21.511 14.857ZM24.714 12.4303V12.3752C24.6673 5.54485 19.1861 0 12.4576 0C5.72914 0 0.213989 5.57454 0.213989 12.4303C0.213989 19.2861 5.70369 24.8606 12.4576 24.8606C15.5546 24.8606 18.5328 23.6727 20.7813 21.543C21.2352 21.1145 21.2607 20.4018 20.8407 19.9436C20.4334 19.4939 19.7419 19.46 19.2879 19.8673L19.2837 19.8715C15.317 23.6345 9.05096 23.4691 5.28793 19.5024C5.1946 19.4048 5.1055 19.3073 5.01641 19.2055L10.2304 10.8182V14.6873C10.2304 16.5455 10.9516 17.1479 11.554 17.3261C12.1564 17.5042 13.0855 17.3812 14.0528 15.8073L16.9376 11.1406C17.0267 10.9921 17.1116 10.8606 17.1922 10.7503V13.1218C17.1922 14.8612 17.8879 16.2485 19.114 16.9358C20.2467 17.5467 21.6213 17.4915 22.7031 16.7915C24.0479 15.9176 24.7819 14.3352 24.7055 12.4303H24.714Z" fill="white"/>
</svg>
