<svg width="268" height="94" viewBox="0 0 268 94" fill="none" xmlns="http://www.w3.org/2000/svg">
<path fill-rule="evenodd" clip-rule="evenodd" d="M54.5924 3.58944L54.2932 0C63.9577 1.48766 73.061 6.03005 80.0838 13.1322L76.8146 14.8131C70.6443 8.89154 62.8592 5.0321 54.5897 3.59209L54.5924 3.58944Z" fill="#FDFDFD"/>
<path fill-rule="evenodd" clip-rule="evenodd" d="M47.9111 4.64331C60.5404 5.23361 72.6163 11.4437 80.3432 22.0505L76.6876 23.9299C69.7946 14.7922 59.2803 9.39217 48.25 8.72511L47.9111 4.64331Z" fill="#FF00FF"/>
<path fill-rule="evenodd" clip-rule="evenodd" d="M7.10374 57.5422C7.07726 57.4443 7.04815 57.349 7.02432 57.251C5.40166 51.0277 5.32754 44.4683 6.74638 38.2026L8.43257 38.965C7.01638 45.4795 7.27315 52.3883 9.42787 58.9981C10.0552 60.9252 10.8414 62.8258 11.797 64.684C19.4524 79.5739 35.5466 87.351 51.2623 85.1963L53.5944 86.6548C45.2694 88.2483 36.4546 87.1233 28.7383 83.473C20.6753 79.6586 14.2588 73.4485 10.1796 65.5152C8.87463 62.974 7.83962 60.2925 7.10109 57.5422H7.10374Z" fill="#FF00FF"/>
<path fill-rule="evenodd" clip-rule="evenodd" d="M0.417236 53.3572L4.7161 56.0493C5.4811 59.5725 6.71199 63.0534 8.43789 66.4099C17.5438 84.1242 37.4393 92.6663 55.9742 88.1451L60.2783 90.8398C39.1864 97.7381 15.5453 88.4919 5.08139 68.1385C2.63284 63.3764 1.10283 58.384 0.417236 53.3572Z" fill="#FDFDFD"/>
<path fill-rule="evenodd" clip-rule="evenodd" d="M1.4258 35.7991L4.64465 37.2523C3.30522 42.8509 3.08816 48.7671 4.15758 54.6622L0.279611 52.2348C-0.337159 46.6865 0.0757855 41.1171 1.4258 35.7991Z" fill="#9968FD"/>
<path fill-rule="evenodd" clip-rule="evenodd" d="M86.9159 26.0659C96.6175 44.9396 91.9612 67.4689 76.9761 81.1199L72.627 78.1816C81.6085 70.6401 87.3209 59.3291 87.3209 46.684C87.3209 39.3172 85.3806 32.403 81.987 26.4259L85.9921 24.3665C86.3097 24.925 86.6194 25.4888 86.9159 26.0659Z" fill="white"/>
<path fill-rule="evenodd" clip-rule="evenodd" d="M22.8353 69.6367C21.3186 68.6626 19.958 67.4767 18.7985 66.1187C17.6232 64.7396 16.6915 63.1646 16.0297 61.4387C15.7094 60.6101 15.45 59.734 15.2567 58.8419C15.0741 57.9842 14.9497 57.0895 14.8835 56.1789C14.7644 54.4874 14.8517 52.7086 15.1482 50.8927C15.2753 50.1065 15.4526 49.2859 15.675 48.4521C15.667 48.423 15.6618 48.3939 15.6565 48.3647C15.1456 47.5997 14.8862 46.5568 14.8862 45.265C14.8862 44.1797 15.3388 43.2109 16.17 42.4935C16.1118 41.0376 16.1038 39.5923 16.1462 38.1629C16.8185 37.2126 17.5915 36.2835 18.4782 35.3967C17.5941 36.2835 16.8212 37.2099 16.1488 38.1602C16.207 36.1352 16.3659 34.142 16.6226 32.199C17.2924 27.196 18.6265 22.5292 20.5853 18.3283C21.6706 16.0068 22.9095 13.8865 24.2648 12.0309C24.4527 11.7688 24.6486 11.5121 24.8154 11.295L25.0827 10.9562L25.1648 10.8635C25.2468 10.7735 25.3501 10.6597 25.4904 10.5485L25.6465 10.4215L25.8265 10.3077C26.0754 10.1515 26.3533 10.035 26.6789 9.95295L26.7027 9.94765L26.7265 9.94236C26.9542 9.89736 27.1633 9.87354 27.3618 9.87354C27.4466 9.87354 27.5313 9.87883 27.6133 9.88677C27.8833 9.90795 28.1639 9.97412 28.4683 10.0906L28.4948 10.0985L28.5186 10.1118C28.823 10.2468 29.0692 10.403 29.273 10.5803C29.4928 10.7603 29.6833 10.9853 29.8607 11.2633C29.9322 11.3744 29.9825 11.4803 30.0248 11.565L30.0619 11.6444L30.5145 12.6689C30.6575 13.0077 30.8189 13.3412 30.9936 13.6933C31.0757 13.86 31.1551 14.0268 31.2345 14.1936C32.169 16.0783 33.294 17.9948 34.6731 20.0383C34.8928 20.3719 35.1125 20.6842 35.3454 21.0151C35.446 21.158 35.5466 21.2983 35.6472 21.4413L35.8431 21.7086C36.1078 22.0739 36.3831 22.4472 36.661 22.8045C36.8516 23.0586 37.0422 23.2995 37.1852 23.4795C37.3493 23.6887 37.5213 23.9057 37.7172 24.1466C37.8708 24.3372 38.019 24.5172 38.1646 24.6892C39.0646 24.4378 40.0467 24.2366 41.1955 24.0698C42.5005 23.8792 43.8717 23.7813 45.2641 23.776C46.6644 23.7813 48.0329 23.8792 49.3406 24.0698C50.492 24.2366 51.4715 24.4351 52.3715 24.6892C52.5144 24.5172 52.6627 24.3398 52.8162 24.1492C53.0147 23.9084 53.1868 23.6913 53.3456 23.4875C53.4938 23.2995 53.6844 23.0586 53.8671 22.8151C54.1503 22.4498 54.4203 22.0766 54.685 21.7166L54.8862 21.4413C54.9868 21.2983 55.0847 21.1554 55.1853 21.0151C55.4209 20.6842 55.6406 20.3719 55.855 20.0489C57.2395 17.9974 58.3671 16.0809 59.3042 14.1803C59.3783 14.0268 59.4604 13.86 59.5424 13.6933C59.7145 13.3412 59.8786 13.0103 60.0189 12.6715L60.4689 11.6444L60.506 11.565C60.5457 11.4803 60.5986 11.3744 60.6727 11.2606C60.8474 10.9853 61.0407 10.763 61.2577 10.5803C61.4615 10.4003 61.7104 10.2468 62.0121 10.1091L62.036 10.0985L62.0598 10.0906C62.3668 9.97412 62.6474 9.90795 62.9148 9.88677C62.9969 9.87883 63.0816 9.87354 63.1663 9.87354C63.3648 9.87354 63.5713 9.89736 63.8016 9.94236L63.8254 9.94765L63.8492 9.95295C64.1775 10.035 64.4554 10.1515 64.7016 10.305L64.8816 10.4215L65.0404 10.5512C65.1781 10.6597 65.2786 10.7709 65.3607 10.8609L65.4454 10.9562L65.7075 11.2924C65.8795 11.5121 66.0754 11.7715 66.266 12.0336C67.616 13.8865 68.8548 16.0042 69.9401 18.3283C71.899 22.5292 73.2331 27.196 73.9028 32.199C74.1596 34.1393 74.3184 36.1299 74.3767 38.1576C74.0378 37.6785 73.6725 37.2046 73.2808 36.7388C73.6725 37.2046 74.0378 37.6785 74.3793 38.1602C74.4217 39.5897 74.4137 41.0376 74.3555 42.4935C75.1867 43.2109 75.6393 44.1797 75.6393 45.265C75.6393 46.5568 75.3799 47.5971 74.8664 48.3621C74.8611 48.3912 74.8531 48.4203 74.8478 48.4494C75.0675 49.2806 75.2449 50.1012 75.3746 50.8927C75.6711 52.7112 75.7611 54.4901 75.6393 56.1763C75.5731 57.0869 75.4487 57.9816 75.2661 58.8366C75.0755 59.7287 74.8134 60.6022 74.4931 61.4387C73.8287 63.1672 72.8969 64.7396 71.7243 66.1161C70.5702 67.4687 69.2096 68.6546 67.6769 69.6393C68.2063 72.4505 67.4837 80.4738 45.7326 80.4738C22.6712 80.4738 22.4489 72.8608 22.838 69.6314L22.8353 69.6367Z" fill="#9968FD"/>
<path fill-rule="evenodd" clip-rule="evenodd" d="M63.9259 74.2929C63.2959 72.1832 63.0259 71.3837 62.793 70.6664H27.7271C27.4915 71.389 27.203 72.2493 26.565 74.3855C26.1918 74.1738 25.8186 73.9541 25.44 73.7238C26.2818 70.9179 26.6603 69.8511 26.6656 69.8326C26.753 69.5731 26.9939 69.3984 27.2665 69.3984H63.2509C63.5236 69.3984 63.7671 69.5731 63.8518 69.8326C63.8571 69.8511 64.2092 70.8411 65.0377 73.5914C64.6618 73.8349 64.2939 74.0705 63.9259 74.2955V74.2929Z" fill="#433B72"/>
<path fill-rule="evenodd" clip-rule="evenodd" d="M63.9605 74.4016C63.3278 72.284 63.0261 71.3787 62.7958 70.664H27.7325C27.4996 71.3866 27.2402 72.1384 26.5996 74.2825C26.2263 74.0734 25.8531 73.851 25.4746 73.6207C26.3137 70.8228 26.6552 69.8778 26.6711 69.8301C26.7558 69.5707 26.9993 69.396 27.2719 69.396H63.2564C63.529 69.396 63.7726 69.5707 63.8573 69.8301C63.8731 69.8778 64.249 70.9551 65.0749 73.7002C64.699 73.9437 64.3311 74.1793 63.9631 74.4043L63.9605 74.4016Z" fill="black"/>
<path fill-rule="evenodd" clip-rule="evenodd" d="M45.2615 68.4829H65.6572C65.6572 68.4829 70.0196 78.3883 45.2615 78.3883C20.5033 78.3883 24.8657 68.4829 24.8657 68.4829H45.2615Z" fill="#9968FD"/>
<path fill-rule="evenodd" clip-rule="evenodd" d="M45.2614 68.4829H65.6572C65.6572 68.4829 65.6996 68.5809 65.7525 68.7556C64.9028 71.6647 60.8686 75.6009 45.2614 75.6009C29.6543 75.6009 25.6227 71.6647 24.7704 68.7556C24.8233 68.5809 24.8657 68.4829 24.8657 68.4829H45.2614Z" fill="black"/>
<path fill-rule="evenodd" clip-rule="evenodd" d="M25.3263 69.118C25.1622 69.7639 24.9954 71.151 25.9643 72.6175C27.5128 74.9602 32.1161 77.7555 45.2615 77.7555C58.4069 77.7555 63.0102 74.9602 64.5587 72.6175C65.5275 71.151 65.3608 69.7666 65.1966 69.118H25.3263ZM63.3093 75.5637C62.036 76.289 60.7548 76.8925 59.3281 77.3849C55.8869 78.4649 51.2545 79.0128 45.4547 79.0261C44.0729 79.0234 42.7865 78.9996 41.5767 78.9467C39.8455 78.8699 38.2388 78.7349 36.759 78.5443C33.1934 78.0625 30.2949 77.1758 27.391 75.6775C26.3137 74.9866 25.4798 74.1899 24.8895 73.2872C23.2219 70.7301 24.2436 68.3292 24.2887 68.2286C24.3892 67.9983 24.6169 67.8501 24.8684 67.8501H65.6572C65.9087 67.8501 66.1364 67.9983 66.2369 68.2286C66.2819 68.3292 67.3064 70.7275 65.6361 73.2872C65.0802 74.1396 64.3019 74.8993 63.3093 75.5637Z" fill="black"/>
<path fill-rule="evenodd" clip-rule="evenodd" d="M52.8823 72.8925C50.3491 73.144 47.8105 73.2684 45.2693 73.2684H45.2587C42.7149 73.2684 40.171 73.144 37.6351 72.8925C35.1627 72.5961 32.9683 72.1593 31.0174 71.614C9.76665 65.6581 17.9805 46.3847 17.9805 46.3847C16.0588 27.1642 23.01 16.0068 26.258 11.9382C26.9277 11.1017 28.2406 11.2976 28.6536 12.285C31.9413 20.1839 37.6431 26.4574 37.6431 26.4574C38.5245 26.1477 39.5119 25.9148 40.4781 25.7427C43.6387 25.1762 46.8761 25.1762 50.0367 25.7427C51.0029 25.9148 51.9902 26.1451 52.8717 26.4574C52.8717 26.4574 58.5709 20.1839 61.8612 12.285C62.2742 11.2976 63.5871 11.1017 64.2568 11.9382C67.5048 16.0068 74.4587 27.1642 72.5342 46.3847C72.5342 46.3847 82.3231 69.3507 52.8823 72.8899V72.8925Z" fill="#FBA329"/>
<path fill-rule="evenodd" clip-rule="evenodd" d="M29.0454 70.4255C28.7807 70.3276 28.516 70.2243 28.2539 70.1184L27.6954 69.8881C27.5101 69.8087 27.3275 69.7214 27.1448 69.6393C26.7769 69.4778 26.4195 69.2899 26.0622 69.1099C25.3554 68.7314 24.6592 68.3343 24.0054 67.879C22.6845 66.9869 21.488 65.9255 20.4848 64.7078C19.4868 63.4875 18.6927 62.111 18.1394 60.6392C17.5862 59.1648 17.2712 57.603 17.1574 56.0227C17.0515 54.4398 17.1336 52.8383 17.3797 51.258C17.4883 50.5512 17.6259 49.8497 17.798 49.1562C17.925 50.6544 18.3512 52.6821 19.2936 54.6515C19.2883 54.8262 19.283 55.001 19.283 55.173C19.283 62.9263 25.7022 68.2072 29.0428 70.4308L29.0454 70.4255ZM19.9289 41.7576C19.9183 41.7258 19.9077 41.6941 19.8945 41.665C19.4815 40.5744 20.8977 39.0841 22.0915 39.0841C22.1921 39.0841 22.2927 39.0946 22.388 39.1158C22.388 39.1158 22.6633 35.7964 25.2813 35.7964C25.403 35.7964 25.5274 35.8043 25.6598 35.8176L26.2289 35.5608C26.2289 35.5608 27.1819 36.3284 26.8748 36.9982C26.4407 37.9485 24.1668 36.9955 23.9154 39.9417C23.8995 40.1164 23.8466 40.2832 23.7592 40.4288C22.0439 40.8655 20.7362 41.387 19.9289 41.755V41.7576Z" fill="#BE6F00"/>
<path fill-rule="evenodd" clip-rule="evenodd" d="M61.4721 70.4281C64.8815 68.1596 71.5072 62.6986 71.2292 54.6727C71.2292 54.6647 71.2292 54.6541 71.2292 54.6462C71.2345 54.8209 71.2398 54.9956 71.2398 55.1677C71.2398 62.9236 64.8127 68.2072 61.4747 70.4308L61.4721 70.4281ZM29.0453 70.4228C25.7047 68.1993 19.2882 62.9157 19.2856 55.165C19.2856 54.993 19.2882 54.8183 19.2961 54.6436C19.2961 54.6515 19.2961 54.6621 19.2961 54.67C19.0182 62.6907 25.6359 68.149 29.0453 70.4202V70.4228Z" fill="#4A4A8E"/>
<path fill-rule="evenodd" clip-rule="evenodd" d="M45.272 73.2683H45.2509C42.7335 73.2683 40.2161 73.1439 37.7067 72.8977C37.7093 72.8606 37.6855 72.8262 37.6484 72.8156C36.039 72.4318 34.4428 72.0771 32.8731 71.6377C31.5787 71.2803 30.2948 70.8886 29.0481 70.4227C25.636 68.1515 19.0183 62.6932 19.2989 54.6725C19.3783 54.8949 19.4656 55.1173 19.5583 55.3423C21.2445 56.4381 30.406 62.2088 33.0584 60.1679C35.8061 58.0529 36.2931 50.7125 38.5882 46.7419C39.7608 44.7142 42.3047 43.2239 44.6394 43.1471C47.7497 43.0466 50.4365 44.5263 51.8712 47.2422C54.0524 51.3716 54.7406 58.2805 57.438 60.1652C61.5622 63.0479 68.254 58.0502 71.232 54.6699C71.232 54.662 71.232 54.6514 71.232 54.6434C71.232 61.6185 67.039 66.722 61.4775 70.4253C60.2307 70.8912 58.9495 71.275 57.6577 71.635C57.2633 71.7356 56.8715 71.8521 56.4745 71.95C56.0774 72.0453 55.683 72.1565 55.2833 72.2492C54.8836 72.3365 54.4865 72.445 54.0842 72.535C53.6845 72.6277 53.2821 72.7203 52.8797 72.8262C52.8533 72.8342 52.8321 72.858 52.8321 72.8897V72.895C50.32 73.1412 47.7973 73.2656 45.2773 73.2656L45.272 73.2683ZM19.8177 55.9378L19.8309 55.967L19.823 55.9511L19.815 55.9378H19.8177ZM20.0401 56.3878L20.048 56.4011L20.0559 56.417L20.0401 56.3878ZM20.1353 56.5678L20.1406 56.5784L20.1512 56.597L20.1353 56.5678ZM38.9032 63.032C39.1758 63.617 39.5755 64.1994 40.1579 64.7023C40.0917 65.2212 40.0493 65.7559 40.0493 66.2853C40.0493 69.0038 41.1267 71.6112 45.2614 71.6112H45.2826C50.2194 71.6112 50.7991 67.8921 50.3862 64.705C50.9474 64.2206 51.3391 63.6647 51.6091 63.1008L51.5827 63.0347C51.7468 62.6429 51.8209 62.4973 51.9453 62.005C52.4086 61.727 53.0121 61.2744 53.4515 60.6258C53.155 60.4299 52.8771 60.2208 52.6177 60.0011C52.5859 60.0276 52.5542 60.0567 52.5197 60.0832C52.6283 59.9958 52.7315 59.9005 52.8294 59.7999C53.7877 58.802 53.7533 57.4996 53.7506 57.444C53.7374 57.0946 53.4462 56.822 53.0942 56.8326C52.7447 56.8458 52.4721 57.1396 52.4827 57.489C52.4827 57.4917 52.4933 58.3255 51.9056 58.9317C51.8421 58.9979 51.7733 59.0561 51.7018 59.1143C51.4371 58.8179 51.1909 58.5082 50.9685 58.1879C50.6853 58.397 50.3253 58.5293 49.87 58.5293C48.4776 58.5293 47.5485 57.3726 47.0429 56.4964C47.9006 55.8664 48.5544 54.8128 48.5544 53.5025C48.5544 52.4199 47.7232 51.8296 46.8894 51.5093C46.36 51.3055 45.8014 51.2049 45.2429 51.2022C44.6844 51.2022 44.1232 51.3081 43.5964 51.5093C42.7626 51.8296 41.9314 52.4199 41.9314 53.5025C41.9314 54.8128 42.5852 55.8664 43.4429 56.4964C42.94 57.3726 42.0108 58.5293 40.6158 58.5293C40.1605 58.5293 39.8005 58.397 39.5173 58.1879C39.2923 58.5082 39.0487 58.8179 38.784 59.1143C38.7099 59.0588 38.6437 58.9979 38.5802 58.9317C37.9899 58.3282 38.0031 57.4943 38.0031 57.489C38.0164 57.1396 37.7437 56.8458 37.3917 56.8326C37.0396 56.822 36.7484 57.092 36.7352 57.444C36.7352 57.4996 36.6981 58.7993 37.6564 59.7999C37.7543 59.9005 37.8576 59.9958 37.9661 60.0832C37.9343 60.0567 37.8999 60.0302 37.8681 60.0011C37.6061 60.2208 37.3281 60.4299 37.0343 60.6258C37.4737 61.2744 38.0773 61.727 38.5405 62.005C38.6649 62.4973 38.739 62.6429 38.9032 63.0347V63.032Z" fill="white"/>
<path fill-rule="evenodd" clip-rule="evenodd" d="M38.5378 62.0026C38.0745 61.7246 37.471 61.272 37.0316 60.6235C37.3281 60.4276 37.6034 60.2185 37.8654 59.9988C38.011 60.1258 38.1672 60.237 38.3366 60.3376C38.3366 60.7717 38.3763 61.3646 38.5378 62.0026ZM52.0088 61.9867C52.1676 61.3514 52.2073 60.7691 52.2047 60.3376C52.3688 60.2396 52.5223 60.1311 52.6652 60.0093C52.9247 60.2264 53.1973 60.4329 53.4885 60.6235C53.057 61.2614 52.4667 61.7088 52.0088 61.9867ZM49.899 59.6255H49.8752C46.5187 59.6255 45.9205 56.2372 45.8967 56.0943C45.8808 55.999 45.8464 55.909 45.7934 55.8349L46.622 55.5305C46.622 55.5305 47.6623 58.527 49.9043 58.527C50.3596 58.527 50.7196 58.3946 51.0055 58.1855C51.2332 58.5084 51.4794 58.8208 51.7494 59.1199C51.3073 59.4508 50.6879 59.6229 49.9017 59.6255H49.899ZM40.666 59.6255H40.6422C39.8481 59.6229 39.2234 59.4482 38.7813 59.1093C39.046 58.8129 39.2922 58.5032 39.5145 58.1829C39.7978 58.392 40.1604 58.5243 40.6131 58.5243C42.8552 58.5243 43.8955 55.5278 43.8955 55.5278L44.7425 55.8375C44.6922 55.9117 44.6578 55.9964 44.6419 56.089C44.6181 56.2346 44.0199 59.6229 40.6634 59.6229L40.666 59.6255Z" fill="white"/>
<path fill-rule="evenodd" clip-rule="evenodd" d="M61.4722 70.4281C64.8101 68.2046 71.2346 62.9237 71.2372 55.1651C71.2372 54.993 71.2346 54.8183 71.2267 54.6436C72.1717 52.6715 72.5978 50.6492 72.7223 49.1483C72.8917 49.8418 73.0293 50.5433 73.1405 51.25C73.3867 52.8304 73.4687 54.4318 73.3628 56.0148C73.249 57.5951 72.934 59.1569 72.3808 60.6313C71.8275 62.1031 71.0334 63.4796 70.0355 64.6999C69.0322 65.9175 67.8384 66.979 66.5148 67.8711C65.861 68.329 65.1648 68.7234 64.4581 69.1046C64.0981 69.2846 63.7434 69.4726 63.3754 69.634C63.1928 69.7161 63.0101 69.8034 62.8248 69.8828L62.2663 70.1158C62.0016 70.2243 61.7369 70.3276 61.4695 70.4255L61.4722 70.4281ZM70.5967 41.7576C69.7893 41.3897 68.4816 40.8682 66.7663 40.4314C66.679 40.2832 66.6234 40.1164 66.6075 39.9391C66.3428 36.969 63.971 37.7658 63.6507 36.9982C63.3675 36.3205 64.2966 35.5608 64.2966 35.5608L64.8631 35.8176C64.9954 35.8017 65.1198 35.7964 65.2416 35.7964C67.8622 35.7964 68.1349 39.1158 68.1349 39.1158C68.2302 39.092 68.3308 39.0841 68.4313 39.0841C69.6252 39.0841 71.0414 40.5717 70.6284 41.665C70.6152 41.6967 70.6046 41.7285 70.594 41.7576H70.5967Z" fill="#BE6F00"/>
<path fill-rule="evenodd" clip-rule="evenodd" d="M26.8692 11.5015C26.8692 11.5015 26.8614 11.5015 26.8562 11.5041C26.8614 11.5041 26.864 11.5041 26.8692 11.5015Z" fill="#A2A2D2"/>
<path fill-rule="evenodd" clip-rule="evenodd" d="M61.8639 12.2904C58.5736 20.1893 52.8744 26.4602 52.8744 26.4602C51.9929 26.1505 51.0056 25.9176 50.0394 25.7455C46.8814 25.179 43.6414 25.179 40.4834 25.7455C39.5172 25.9176 38.5299 26.1505 37.6484 26.4602C37.6484 26.4602 31.9466 20.1866 28.6589 12.2904C28.3518 11.5519 27.5418 11.258 26.8721 11.5042C26.9145 11.491 26.9568 11.5201 26.9992 11.6233C30.0566 18.9663 35.2316 26.2167 36.6134 27.8208C36.8278 28.0723 37.1719 28.1676 37.4869 28.0697C38.3102 27.8155 39.1943 27.6144 40.0625 27.4608C40.4358 27.3946 40.809 27.3364 41.1823 27.2835C41.6217 27.977 43.2814 28.4958 45.2588 28.4958C47.2361 28.4958 48.8959 27.9797 49.3379 27.2835C49.7112 27.3364 50.087 27.392 50.4576 27.4608C51.3259 27.617 52.2126 27.8155 53.0332 28.0697C53.3482 28.1676 53.6897 28.0697 53.9068 27.8208C55.2886 26.2167 60.2624 19.4613 63.3224 12.1183C63.5077 11.6736 63.8624 12.0839 64.2622 11.9516C63.5951 11.1072 62.2768 11.3004 61.8613 12.2904H61.8639Z" fill="#BE6F00"/>
<path fill-rule="evenodd" clip-rule="evenodd" d="M26.2581 11.9491C26.5572 12.0471 26.7186 11.5733 26.8589 11.5071C26.6339 11.5918 26.4275 11.74 26.2581 11.9491Z" fill="#A2A2D2"/>
<path fill-rule="evenodd" clip-rule="evenodd" d="M52.1624 59.6043C47.0879 62.2911 45.2747 57.1372 45.2747 57.1372C45.2747 57.1372 43.4614 62.2911 38.3843 59.6043C38.3843 59.6043 37.3387 66.2485 45.2747 66.2485C53.2106 66.2485 52.1624 59.6043 52.1624 59.6043Z" fill="black"/>
<path fill-rule="evenodd" clip-rule="evenodd" d="M45.2726 56.6292C45.2726 56.6292 45.2672 56.6536 45.2617 56.6671C45.2563 56.6536 45.2536 56.6427 45.2509 56.6292H45.2726Z" fill="#FF6C8B"/>
<path fill-rule="evenodd" clip-rule="evenodd" d="M45.272 71.6114H45.2614C39.2922 71.6114 39.6946 66.1743 40.5152 62.8125C40.8805 61.3063 41.3305 60.2184 41.3305 60.2184C41.3305 60.2184 44.319 60.0172 45.2614 56.6633C46.2037 60.0172 49.1923 60.2184 49.1923 60.2184C49.1923 60.2184 53.8988 71.6008 45.272 71.6087V71.6114Z" fill="#FF00FF"/>
<path fill-rule="evenodd" clip-rule="evenodd" d="M45.2825 71.6113H45.2614H45.2719C50.1902 71.606 50.7752 67.9028 50.3676 64.721C50.3729 64.7157 50.3808 64.7104 50.3861 64.7051C50.7964 67.8922 50.2193 71.6113 45.2825 71.6113Z" fill="#7C7CB5"/>
<path fill-rule="evenodd" clip-rule="evenodd" d="M50.3676 64.7211C50.2803 64.0382 50.1479 63.3764 50.0023 62.7834C50.0103 62.7914 50.0209 62.802 50.0288 62.8126C50.1717 63.3949 50.2988 64.0382 50.3861 64.7052C50.3782 64.7105 50.3729 64.7158 50.3676 64.7211Z" fill="#000072"/>
<path fill-rule="evenodd" clip-rule="evenodd" d="M45.2719 71.6116H45.2614C41.1266 71.6116 40.0493 69.0042 40.0493 66.2856C40.0493 65.0786 40.261 63.8477 40.5151 62.8127C40.576 62.7438 40.6104 62.7068 40.6104 62.7068C40.6104 62.7068 40.0943 69.1895 45.2693 69.1895C50.4443 69.1895 49.9282 62.7068 49.9282 62.7068C49.9282 62.7068 49.952 62.7333 49.997 62.7836C50.1426 63.3765 50.2749 64.0383 50.3623 64.7212C50.7699 67.903 50.1849 71.6063 45.2667 71.6116H45.2719Z" fill="#9800CB"/>
<path fill-rule="evenodd" clip-rule="evenodd" d="M45.8941 58.6223C45.9258 59.3026 45.9232 59.9829 45.9179 60.6658C45.9073 61.3461 45.8861 62.0264 45.8517 62.7094C45.8173 63.3897 45.7855 64.07 45.7141 64.7529C45.6426 65.4332 45.5605 66.1135 45.4123 66.7965C45.3938 66.8812 45.3117 66.9341 45.227 66.9156C45.1661 66.9023 45.1211 66.8547 45.1079 66.7965C44.9596 66.1162 44.8776 65.4359 44.8061 64.7529C44.7346 64.0726 44.7029 63.3897 44.6685 62.7094C44.6367 62.0291 44.6155 61.3488 44.6023 60.6658C44.5943 59.9855 44.5943 59.3052 44.6261 58.6223C44.642 58.2729 44.9385 58.0029 45.2879 58.0187C45.6161 58.0346 45.8755 58.2993 45.8914 58.6223H45.8941Z" fill="black"/>
<path fill-rule="evenodd" clip-rule="evenodd" d="M41.791 60.7901C41.3172 62.0793 39.7554 66.8334 41.4443 69.3561C42.1643 70.4308 43.4481 70.9761 45.2614 70.9761C47.0746 70.9761 48.3611 70.4308 49.0811 69.3561C50.7699 66.8334 49.2082 62.0793 48.7343 60.7901C47.964 60.6339 46.3096 60.0992 45.264 58.3019C44.2184 60.1019 42.564 60.6366 41.7937 60.7901H41.791ZM45.2614 72.244C42.9981 72.244 41.3569 71.5082 40.3881 70.0576C38.0587 66.574 40.6343 60.2422 40.7454 59.9748C40.8381 59.7525 41.0472 59.6016 41.2881 59.5857C41.3887 59.5778 43.779 59.3581 44.6181 56.6104C44.6234 56.3377 44.8061 56.0889 45.084 56.0148C45.1449 55.9989 45.2058 55.9936 45.264 55.991C45.3222 55.991 45.3831 55.9963 45.444 56.0148C45.722 56.0916 45.9046 56.3377 45.9099 56.6104C46.7596 59.3845 49.2135 59.5831 49.2399 59.5857C49.4808 59.6016 49.6899 59.7525 49.7826 59.9748C49.8938 60.2422 52.4694 66.574 50.1399 70.0576C49.1711 71.5082 47.5299 72.244 45.2667 72.244H45.2614Z" fill="black"/>
<path fill-rule="evenodd" clip-rule="evenodd" d="M49.8753 60.8936C47.4479 60.8936 46.0158 59.4933 45.272 58.0983C44.5255 59.4933 43.0934 60.8936 40.6687 60.8936H40.6396C39.3505 60.8883 38.3472 60.5178 37.6537 59.7951C36.6954 58.7972 36.7298 57.4948 36.7325 57.4392C36.7457 57.0898 37.0369 56.8171 37.389 56.8277C37.7384 56.841 38.011 57.1348 38.0004 57.4842C38.0004 57.4869 37.9899 58.3207 38.5775 58.9269C39.0249 59.3848 39.7184 59.6204 40.6449 59.623H40.6687C44.0252 59.623 44.6234 56.2348 44.6473 56.0892C44.6976 55.7821 44.9623 55.5571 45.272 55.5571C45.5843 55.5571 45.8464 55.7821 45.8967 56.0892C45.9205 56.2321 46.5188 59.6204 49.8753 59.6204H49.8991C50.8229 59.6151 51.5191 59.3822 51.9664 58.9242C52.5567 58.3207 52.5462 57.4868 52.5462 57.4789C52.5382 57.1321 52.8135 56.8383 53.1603 56.8304C53.507 56.8224 53.7982 57.0898 53.8115 57.4392C53.8115 57.4948 53.8485 58.7945 52.8903 59.7951C52.1967 60.5178 51.1935 60.8857 49.9044 60.8936H49.8753Z" fill="black"/>
<path fill-rule="evenodd" clip-rule="evenodd" d="M46.9265 51.5096C45.8571 51.0993 44.6659 51.0993 43.5965 51.5096C42.7626 51.8299 41.9315 52.4202 41.9315 53.5029C41.9315 55.6682 43.7156 57.1373 45.2615 57.1373C46.8074 57.1373 48.5915 55.6682 48.5915 53.5029C48.5915 52.4202 47.7577 51.8299 46.9265 51.5096Z" fill="black"/>
<path fill-rule="evenodd" clip-rule="evenodd" d="M47.2096 52.6877C47.2096 52.9206 46.3388 53.1112 45.2614 53.1112C44.184 53.1112 43.3131 52.9233 43.3131 52.6877C43.3131 52.4521 44.184 52.2642 45.2614 52.2642C46.3388 52.2642 47.2096 52.4547 47.2096 52.6877Z" fill="white"/>
<path fill-rule="evenodd" clip-rule="evenodd" d="M20.003 42.5916C19.9925 42.5466 19.9369 42.3004 19.9104 41.9563C19.9395 42.1681 19.9713 42.3798 20.003 42.5916Z" fill="#FF7C88"/>
<path fill-rule="evenodd" clip-rule="evenodd" d="M25.6571 35.8071L25.6598 35.8203C25.5989 35.8097 25.5407 35.8018 25.4824 35.7939C25.1357 35.7462 24.826 35.7489 24.5533 35.7912C24.4183 35.8097 24.2913 35.8415 24.1721 35.8786C24.143 35.8865 24.1113 35.8971 24.0821 35.9077C24.0239 35.9289 23.9683 35.9527 23.9154 35.9765C23.8704 35.9977 23.8254 36.0215 23.783 36.0427C23.6745 36.1036 23.5739 36.1697 23.4812 36.2465C23.4177 36.2968 23.3568 36.3524 23.3012 36.4106C23.243 36.4689 23.1901 36.5271 23.1424 36.5906C23.108 36.6303 23.0789 36.67 23.0498 36.7124C23.018 36.7574 22.9889 36.8024 22.9598 36.85C22.8777 36.985 22.8089 37.1227 22.748 37.263C22.7268 37.3106 22.7083 37.3556 22.6924 37.4059C22.6157 37.615 22.5601 37.8215 22.5177 38.0174C22.5177 38.0201 22.5177 38.0227 22.5177 38.028C22.5098 38.0677 22.5018 38.1074 22.4939 38.1471C22.4939 38.1498 22.4939 38.1524 22.4939 38.1577C22.4754 38.2609 22.4621 38.3562 22.4515 38.4489C22.4489 38.4754 22.4462 38.4992 22.4436 38.5256C22.4409 38.5574 22.4383 38.5892 22.4356 38.6183C22.4145 38.8883 22.4198 39.063 22.4198 39.063C21.2498 39.063 20.6065 39.5104 20.265 40.0848C19.9077 40.6883 19.8786 41.4321 19.9183 41.9536C19.8918 41.7604 19.868 41.5698 19.8468 41.3792C19.7356 40.4527 19.6615 39.5395 19.6192 38.6421C19.0236 25.3167 25.8319 15.2313 27.1686 13.3863C27.1925 13.3572 27.211 13.3281 27.2269 13.3043C27.2957 13.2116 27.346 13.1454 27.3698 13.1137C27.3778 13.1031 27.383 13.0978 27.3857 13.0951L27.391 13.0898C25.5777 16.3325 24.8313 20.1284 24.6274 23.6755C24.2568 29.9782 25.591 35.508 25.6651 35.8097L25.6571 35.8071Z" fill="white"/>
<path fill-rule="evenodd" clip-rule="evenodd" d="M25.6571 35.8071L25.6597 35.8203C25.5988 35.8097 25.5406 35.8018 25.4824 35.7939C25.1356 35.7489 24.8259 35.7489 24.5532 35.7912C24.4182 35.8124 24.2912 35.8415 24.1721 35.8786C24.1429 35.8865 24.1112 35.8971 24.0821 35.9077C24.0238 35.9289 23.9709 35.9527 23.9153 35.9765C23.8703 35.9977 23.8253 36.0215 23.7829 36.0427C23.6744 36.1036 23.5738 36.1697 23.4812 36.2465C23.415 36.2968 23.3568 36.3524 23.3012 36.4106C23.2429 36.4689 23.19 36.5271 23.1423 36.5906C23.1079 36.6303 23.0788 36.67 23.0497 36.7124C23.0179 36.7574 22.9888 36.8024 22.9597 36.85C22.8776 36.9824 22.8062 37.1227 22.7479 37.263C22.7267 37.3106 22.7082 37.3556 22.6923 37.4059C22.6129 37.6124 22.5573 37.8215 22.5176 38.0174C22.5176 38.0201 22.5176 38.0227 22.5176 38.028C22.5097 38.0677 22.5017 38.1074 22.4938 38.1471C22.4938 38.1498 22.4938 38.1524 22.4938 38.1577C22.4753 38.2609 22.462 38.3562 22.4514 38.4489C22.4488 38.4754 22.4462 38.4992 22.4435 38.5256C22.4409 38.5574 22.4382 38.5892 22.4356 38.6183C22.4144 38.8883 22.4197 39.063 22.4197 39.063C21.2867 39.1795 20.6303 39.5871 20.265 40.0848C19.9685 40.4898 19.8626 40.9583 19.8441 41.3792C19.7329 40.4527 19.6588 39.5395 19.6164 38.6421C19.9103 38.2874 20.2861 38.0571 20.5826 37.9142C20.8738 37.7739 21.0591 37.4853 21.0697 37.1598C21.1253 35.1983 22.1762 34.3088 22.8406 33.9435C23.1503 33.7715 23.3276 33.4274 23.2747 33.078C21.6256 22.0105 26.0965 14.9004 27.1633 13.3863C27.1871 13.3572 27.2056 13.3281 27.2215 13.3043C27.2903 13.2116 27.3406 13.1454 27.3644 13.1137C27.3724 13.1031 27.3777 13.0978 27.3803 13.0951L27.3856 13.0898C25.7047 16.7984 24.9159 20.4355 24.6221 23.6755C24.0026 30.4785 25.5724 35.5344 25.6597 35.8097L25.6571 35.8071Z" fill="white"/>
<path fill-rule="evenodd" clip-rule="evenodd" d="M27.4625 13.1269C26.9728 14.4425 26.581 15.7846 26.2342 17.132L25.9854 18.1458C25.9139 18.4873 25.8345 18.8235 25.7657 19.1649C25.6227 19.8452 25.5116 20.5308 25.411 21.2164C25.3157 21.9047 25.231 22.5929 25.1807 23.2838C25.1674 23.4558 25.1489 23.6279 25.1357 23.8026L25.1039 24.3214C25.0774 24.6656 25.0721 25.0123 25.0589 25.3591C25.0245 26.7462 25.0669 28.1306 25.186 29.5124C25.3077 30.8941 25.5142 32.2653 25.7921 33.6206C25.8663 33.9595 25.9298 34.3009 26.0145 34.6345L26.266 35.643V35.6589C26.266 35.643 26.2845 35.7118 26.2872 35.7462C26.2924 35.7886 26.2951 35.8309 26.2924 35.8759C26.2819 36.0507 26.1998 36.2174 26.0727 36.3339C25.9457 36.453 25.7577 36.5192 25.5804 36.5086C25.546 36.5086 25.4745 36.4954 25.4904 36.498H25.4851L25.4719 36.4954L25.366 36.4795C25.2945 36.4689 25.2204 36.4636 25.1463 36.4583C24.998 36.4477 24.8524 36.4504 24.7068 36.4583C24.421 36.4821 24.151 36.543 23.9313 36.6595C23.7062 36.7707 23.5368 36.9295 23.3965 37.128C23.2615 37.3292 23.1662 37.586 23.1133 37.8666C23.0604 38.1498 23.0445 38.4595 23.0577 38.7745L23.063 38.8936V38.9227V38.9386C23.063 38.9572 23.0657 39.0048 23.063 39.0392C23.0551 39.1822 23.0048 39.3277 22.9148 39.4442C22.8248 39.5633 22.6924 39.6586 22.5415 39.7036C22.4754 39.7275 22.3589 39.7354 22.3801 39.7327H22.3536L22.2477 39.746C22.1048 39.7645 21.9592 39.7936 21.8215 39.8333C21.5436 39.9101 21.2895 40.0292 21.0751 40.1748C20.8606 40.323 20.6806 40.5004 20.5456 40.7333C20.408 40.9636 20.3206 41.2469 20.2677 41.5566C20.2148 41.8689 20.2068 42.2025 20.2042 42.5545V42.5598C20.2042 42.6763 20.1089 42.7689 19.9924 42.7689C19.9103 42.7689 19.8389 42.7213 19.8045 42.6525C19.6403 42.3163 19.5212 41.951 19.4709 41.5592C19.4497 41.3607 19.4339 41.1595 19.455 40.9504C19.4603 40.8472 19.4789 40.7413 19.4974 40.6354C19.5239 40.5322 19.5477 40.4236 19.5847 40.3204C19.7197 39.8995 19.9977 39.5157 20.3365 39.2298C20.678 38.9413 21.0751 38.7586 21.4721 38.6395C21.6706 38.5786 21.8718 38.5363 22.0783 38.5071C22.1286 38.4992 22.1815 38.4939 22.2345 38.4886L22.2742 38.4833C22.3165 38.478 22.2212 38.486 22.1789 38.5019C22.0704 38.5336 21.9751 38.6024 21.9115 38.6871C21.848 38.7719 21.8136 38.8698 21.8056 38.9704C21.8056 38.9916 21.8056 39.0286 21.8056 39.0366V39.018L21.803 38.981L21.7951 38.8354C21.7739 38.4489 21.7845 38.0492 21.8559 37.6389C21.9301 37.2313 22.0677 36.8051 22.3218 36.4186C22.4489 36.2254 22.6024 36.0454 22.7798 35.8918C22.9571 35.7357 23.153 35.6112 23.3595 35.5106C23.7698 35.3068 24.2013 35.2195 24.6168 35.1904C24.826 35.1771 25.0298 35.1771 25.2336 35.193C25.3342 35.2009 25.4374 35.2115 25.5407 35.2248C25.591 35.2327 25.6439 35.2406 25.6969 35.2512H25.7154L25.726 35.2565C25.7471 35.2618 25.681 35.2486 25.6519 35.2486C25.4983 35.238 25.3316 35.2989 25.2204 35.3995C25.1066 35.5001 25.0377 35.6483 25.0271 35.7992C25.0271 35.8389 25.0271 35.8733 25.0298 35.9104C25.0298 35.9395 25.0483 36.003 25.043 35.9818V35.9659L24.7916 34.9204C24.7068 34.5736 24.646 34.2189 24.5718 33.8695C24.2992 32.4639 24.1033 31.0424 23.9948 29.613C23.8836 28.1862 23.8598 26.7515 23.9286 25.3194C23.9471 24.962 23.963 24.6047 23.9948 24.2473L24.0398 23.7126C24.0557 23.5353 24.0768 23.3579 24.0954 23.1805C24.1721 22.4685 24.2833 21.7617 24.4051 21.0576C24.6671 19.652 25.0007 18.2596 25.4666 16.907C25.6995 16.232 25.9642 15.5675 26.266 14.919C26.5677 14.2731 26.8986 13.6405 27.3063 13.0475C27.3328 13.0078 27.3857 12.9972 27.4254 13.0263C27.4598 13.0502 27.4704 13.0925 27.4572 13.1269V13.1322L27.4625 13.1269Z" fill="#984200"/>
<path fill-rule="evenodd" clip-rule="evenodd" d="M70.5172 42.5916C70.5278 42.5466 70.5834 42.3004 70.6098 41.9563C70.5807 42.1681 70.5489 42.3798 70.5172 42.5916Z" fill="#FF7C88"/>
<path fill-rule="evenodd" clip-rule="evenodd" d="M64.8657 35.8071L64.8631 35.8203C64.9239 35.8097 64.9822 35.8018 65.0404 35.7939C65.3872 35.7462 65.6969 35.7489 65.9695 35.7912C66.1045 35.8097 66.2316 35.8415 66.3507 35.8786C66.3798 35.8865 66.4116 35.8971 66.4407 35.9077C66.499 35.9289 66.5545 35.9527 66.6075 35.9765C66.6525 35.9977 66.6975 36.0215 66.7398 36.0427C66.8484 36.1036 66.949 36.1697 67.0416 36.2465C67.1051 36.2968 67.166 36.3524 67.2243 36.4106C67.2825 36.4689 67.3328 36.5271 67.3831 36.5906C67.4175 36.6303 67.4466 36.67 67.4757 36.7124C67.5075 36.7574 67.5366 36.8024 67.5657 36.85C67.6478 36.985 67.7166 37.1227 67.7775 37.263C67.7987 37.3106 67.8172 37.3556 67.8331 37.4059C67.9099 37.615 67.9654 37.8215 68.0078 38.0174C68.0078 38.0201 68.0078 38.0227 68.0078 38.028C68.0157 38.0677 68.0237 38.1074 68.029 38.1471C68.029 38.1498 68.029 38.1524 68.029 38.1577C68.0475 38.2609 68.0607 38.3562 68.0713 38.4489C68.0713 38.4754 68.0766 38.4992 68.0793 38.5256C68.0819 38.5574 68.0819 38.5892 68.0872 38.6183C68.111 38.8883 68.1031 39.063 68.1031 39.063C69.2731 39.063 69.9163 39.5104 70.2578 40.0848C70.6152 40.6883 70.6443 41.4321 70.6046 41.9536C70.631 41.7604 70.6575 41.5698 70.676 41.3792C70.7872 40.4527 70.8613 39.5395 70.9037 38.6421C71.4993 25.3167 64.691 15.2313 63.3542 13.3863C63.3304 13.3572 63.3119 13.3281 63.296 13.3043C63.2272 13.2116 63.1769 13.1454 63.153 13.1137C63.1451 13.1031 63.1398 13.0978 63.1372 13.0951L63.1319 13.0898C64.9451 16.3325 65.6916 20.1284 65.8954 23.6755C66.266 29.9782 64.9319 35.508 64.8578 35.8097L64.8657 35.8071Z" fill="white"/>
<path fill-rule="evenodd" clip-rule="evenodd" d="M64.8657 35.8071L64.8631 35.8203C64.924 35.8097 64.9822 35.8018 65.0404 35.7939C65.3872 35.7489 65.6969 35.7489 65.9696 35.7912C66.1046 35.8124 66.2316 35.8415 66.3507 35.8786C66.3799 35.8865 66.4116 35.8971 66.4407 35.9077C66.499 35.9289 66.5519 35.9527 66.6075 35.9765C66.6525 35.9977 66.6949 36.0215 66.7399 36.0427C66.8484 36.1036 66.949 36.1697 67.0416 36.2465C67.1078 36.2968 67.1687 36.3524 67.2243 36.4106C67.2825 36.4689 67.3328 36.5271 67.3831 36.5906C67.4175 36.6303 67.4466 36.67 67.4757 36.7124C67.5075 36.7574 67.5366 36.8024 67.5657 36.85C67.6478 36.9824 67.7193 37.1227 67.7775 37.263C67.7987 37.3106 67.8172 37.3556 67.8331 37.4059C67.9125 37.6124 67.9681 37.8215 68.0078 38.0174C68.0078 38.0201 68.0078 38.0227 68.0078 38.028C68.0158 38.0677 68.0237 38.1074 68.029 38.1471C68.029 38.1498 68.029 38.1524 68.029 38.1577C68.0502 38.2609 68.0634 38.3562 68.0713 38.4489C68.0713 38.4754 68.0766 38.4992 68.0793 38.5256C68.0819 38.5574 68.0846 38.5892 68.0872 38.6183C68.111 38.8883 68.1031 39.063 68.1031 39.063C69.2387 39.1795 69.8925 39.5871 70.2578 40.0848C70.5543 40.4898 70.6575 40.9583 70.6761 41.3792C70.7872 40.4527 70.8614 39.5395 70.9037 38.6421C70.6072 38.2874 70.234 38.0571 69.9349 37.9142C69.6437 37.7739 69.4584 37.4853 69.4478 37.1598C69.3922 35.1983 68.3413 34.3088 67.6769 33.9435C67.3672 33.7715 67.1899 33.4274 67.2428 33.078C68.8919 22.0105 64.421 14.9004 63.3516 13.3863C63.3278 13.3572 63.3092 13.3281 63.2934 13.3043C63.2245 13.2116 63.1742 13.1454 63.1504 13.1137C63.1425 13.1031 63.1372 13.0978 63.1345 13.0951L63.1292 13.0898C64.8101 16.7984 65.599 20.4355 65.8928 23.6755C66.5122 30.4785 64.9425 35.5344 64.8551 35.8097L64.8657 35.8071Z" fill="#E5E5E5"/>
<path fill-rule="evenodd" clip-rule="evenodd" d="M52.8771 72.8293C53.2794 72.7235 53.6791 72.6308 54.0815 72.5382C54.4812 72.4482 54.8783 72.3396 55.2806 72.2523C55.6803 72.1596 56.0748 72.0485 56.4718 71.9532C56.8689 71.8579 57.2606 71.7387 57.6551 71.6382C59.2248 71.204 60.776 70.7276 62.2716 70.1187L62.8301 69.8858C63.0154 69.8064 63.1954 69.719 63.3807 69.637C63.7486 69.4755 64.1033 69.2875 64.4633 69.1075C65.1701 68.729 65.8663 68.332 66.5201 67.874C67.8437 66.9819 69.0375 65.9205 70.0407 64.7028C71.0387 63.4825 71.8328 62.106 72.3861 60.6342C72.9367 59.1598 73.2543 57.598 73.3681 56.0177C73.474 54.4348 73.392 52.8333 73.1458 51.253C73.024 50.4615 72.8652 49.6753 72.6667 48.8997C72.5661 48.5133 72.4602 48.1268 72.3411 47.7456C72.2828 47.555 72.2219 47.3644 72.1584 47.1765C72.0949 46.9912 72.0234 46.7953 71.9599 46.6338L71.9546 46.6206C71.9149 46.5226 71.9017 46.4194 71.9122 46.3215C72.3755 41.7182 72.3622 37.0646 71.7534 32.4878C71.1419 27.9163 69.9216 23.4189 67.976 19.2471C67.0019 17.1665 65.861 15.16 64.511 13.3124C64.3442 13.0794 64.1695 12.8544 63.9975 12.6268L63.8651 12.4574L63.7989 12.3727L63.7672 12.333L63.746 12.3118C63.7169 12.2827 63.6931 12.2482 63.6586 12.2271L63.6136 12.1874C63.5951 12.1768 63.5792 12.1688 63.5633 12.1582C63.431 12.0735 63.2695 12.0391 63.108 12.055C63.026 12.055 62.9492 12.0841 62.8725 12.1106C62.801 12.1477 62.7269 12.1821 62.6713 12.2377C62.6077 12.2853 62.5601 12.3515 62.5151 12.4177C62.4913 12.4521 62.478 12.4918 62.4569 12.5262L62.3695 12.7247L62.0122 13.54C61.7819 14.088 61.5066 14.6121 61.2524 15.1468C60.2015 17.2698 58.9812 19.2974 57.663 21.2536C57.3374 21.746 56.9906 22.2224 56.6545 22.7069C56.305 23.1807 55.9609 23.6598 55.6009 24.1283C55.4236 24.3639 55.2409 24.5969 55.0583 24.8298C54.8783 25.0628 54.693 25.2931 54.505 25.5207C54.1318 25.9813 53.7586 26.4287 53.3509 26.884C53.1788 27.0772 52.9115 27.1381 52.6812 27.0587H52.6732C51.5191 26.6563 50.275 26.4022 49.0309 26.2222C47.7867 26.0395 46.5267 25.9548 45.2694 25.9522C44.012 25.9548 42.752 26.0422 41.5079 26.2222C40.2637 26.4022 39.0223 26.6537 37.8655 27.0534H37.8575C37.6114 27.1407 37.3493 27.064 37.1878 26.8813C36.7828 26.426 36.4069 25.9787 36.0337 25.5181C35.8458 25.2878 35.6605 25.0601 35.4805 24.8272C35.2978 24.5942 35.1152 24.3639 34.9378 24.1283C34.5778 23.6598 34.231 23.1833 33.8816 22.7069C33.5428 22.2224 33.196 21.746 32.8731 21.2536C31.5548 19.2974 30.3345 17.2698 29.2836 15.1468C29.0295 14.6121 28.7542 14.088 28.5239 13.54L28.1666 12.7247L28.0792 12.5262C28.058 12.4918 28.0448 12.4494 28.021 12.4177C27.976 12.3515 27.9283 12.2853 27.8648 12.2377C27.8066 12.1821 27.7351 12.1477 27.6636 12.1106C27.5869 12.0868 27.5101 12.0577 27.428 12.055C27.2666 12.0391 27.1051 12.0762 26.9727 12.1582C26.9569 12.1688 26.9383 12.1794 26.9224 12.1874L26.8774 12.2271C26.843 12.2482 26.8192 12.2827 26.7901 12.3118L26.7689 12.333L26.7371 12.3727L26.671 12.4574L26.5386 12.6268C26.3639 12.8518 26.1918 13.0794 26.0251 13.3124C24.6751 15.16 23.5342 17.1665 22.5601 19.2471C20.6144 23.4163 19.3941 27.9163 18.7827 32.4852C18.1738 37.062 18.1606 41.7129 18.6238 46.3188C18.6318 46.4274 18.6159 46.5279 18.5788 46.6232V46.6312C18.51 46.7953 18.4385 46.9912 18.375 47.1738C18.3115 47.3618 18.248 47.5497 18.1897 47.743C18.0733 48.1241 17.9647 48.5106 17.8668 48.8971C17.6682 49.6727 17.5094 50.4589 17.3877 51.2477C17.1415 52.828 17.0594 54.4295 17.1653 56.0124C17.2791 57.5927 17.5941 59.1545 18.1474 60.6289C18.7006 62.1007 19.4947 63.4772 20.4927 64.6975C21.4959 65.9152 22.6924 66.9766 24.0133 67.8687C24.6671 68.324 25.366 68.7211 26.0701 69.0996C26.4301 69.2796 26.7848 69.4676 27.1527 69.629C27.3354 69.7111 27.518 69.7984 27.7033 69.8778L28.2619 70.1081C29.7575 70.7143 31.3087 71.1987 32.8784 71.6302C34.4481 72.0696 36.0469 72.4243 37.6537 72.8082C37.6934 72.8187 37.7199 72.8585 37.7093 72.8982C37.7014 72.9326 37.6696 72.9564 37.6352 72.9564C35.9781 72.9405 34.3237 72.7605 32.6851 72.464C32.2748 72.3926 31.8698 72.2973 31.4622 72.2099C31.0545 72.1199 30.6522 72.0061 30.2472 71.9055C29.8475 71.7864 29.4451 71.6699 29.048 71.5402L28.4551 71.3364L28.1586 71.2332L27.8648 71.1193L27.2772 70.8917C27.0813 70.8149 26.8907 70.7276 26.6974 70.6455C26.3083 70.4867 25.9298 70.2987 25.5513 70.1187C24.7995 69.7376 24.053 69.3378 23.3462 68.8693C21.9195 67.9534 20.6118 66.8258 19.5 65.5208C18.3883 64.2157 17.5015 62.7069 16.8874 61.1054C16.5777 60.3034 16.3341 59.4775 16.1541 58.641C15.9768 57.8045 15.8603 56.9548 15.7994 56.1051C15.6776 54.403 15.7835 52.6983 16.0562 51.0306C16.1912 50.1968 16.3738 49.3709 16.5962 48.553C16.7047 48.1453 16.8291 47.7403 16.9641 47.338C17.0303 47.1368 17.1018 46.9356 17.1759 46.7371C17.2527 46.5332 17.3241 46.3453 17.4168 46.1282L17.3691 46.4406C16.8979 41.7526 16.9085 37.0011 17.5332 32.3131C18.1606 27.6304 19.41 23.0086 21.4165 18.7071C22.4224 16.5577 23.6004 14.485 25.006 12.5606C25.1807 12.3197 25.3607 12.0815 25.5433 11.8459L25.681 11.6685L25.7498 11.5812L25.7868 11.5362L25.8398 11.4779C25.9086 11.4012 25.9801 11.3218 26.0648 11.2556L26.1892 11.155L26.3242 11.0676C26.5042 10.9538 26.708 10.8797 26.9145 10.8268C27.1236 10.7844 27.3354 10.7632 27.5445 10.7871C27.7563 10.8003 27.9601 10.8585 28.156 10.9353C28.3492 11.0226 28.5345 11.1259 28.6933 11.2688C28.8575 11.4038 28.9925 11.5732 29.1063 11.7506C29.1645 11.8406 29.2042 11.9359 29.2519 12.0285L29.3419 12.2297L29.6886 13.0185C29.911 13.548 30.1784 14.0588 30.4245 14.5803C31.4463 16.645 32.6375 18.6277 33.9293 20.5415C34.2469 21.0233 34.5884 21.4919 34.9166 21.9657C35.2581 22.4316 35.5969 22.9001 35.949 23.358C36.1237 23.5883 36.3011 23.816 36.4784 24.0436C36.6558 24.2713 36.8358 24.4963 37.0184 24.7186C37.3811 25.166 37.7569 25.6134 38.1275 26.0289L37.4472 25.8569C38.7284 25.4148 40.0255 25.1554 41.3279 24.9648C42.6329 24.7742 43.9511 24.6842 45.2694 24.6816C46.5876 24.6842 47.9059 24.7742 49.2109 24.9648C50.5132 25.1528 51.8103 25.4148 53.0915 25.8569L52.4112 26.0289C52.7818 25.6134 53.1577 25.1634 53.5203 24.7186C53.703 24.4963 53.883 24.2713 54.0603 24.0436C54.2403 23.816 54.4177 23.5883 54.5897 23.358C54.9418 22.9001 55.2806 22.4316 55.6221 21.9657C55.953 21.4919 56.2945 21.0233 56.6121 20.5415C57.9039 18.6277 59.0951 16.6424 60.1168 14.5777C60.363 14.0588 60.633 13.548 60.8527 13.0185L61.1995 12.2297L61.2895 12.0285C61.3371 11.9359 61.3769 11.8379 61.4351 11.7506C61.5489 11.5732 61.6839 11.4038 61.848 11.2688C62.0069 11.1259 62.1948 11.0226 62.3854 10.9353C62.5813 10.8585 62.7878 10.8003 62.9969 10.7871C63.206 10.7632 63.4204 10.7871 63.6269 10.8268C63.8333 10.8797 64.0372 10.9538 64.2172 11.0676L64.3522 11.1524L64.4766 11.2529C64.5613 11.3191 64.6301 11.3959 64.7016 11.4753L64.7545 11.5335L64.7916 11.5785L64.8604 11.6659L64.9981 11.8432C65.1807 12.0788 65.3607 12.3171 65.5354 12.558C66.941 14.485 68.119 16.5577 69.1249 18.7045C71.1313 23.006 72.3834 27.6278 73.0108 32.3105C73.6328 36.9985 73.6461 41.75 73.1749 46.4379L73.1272 46.1256C73.2199 46.3426 73.2914 46.5332 73.3681 46.7371C73.4423 46.9356 73.5137 47.1368 73.5799 47.338C73.7123 47.7403 73.8367 48.1453 73.9478 48.553C74.1676 49.3683 74.3528 50.1942 74.4878 51.028C74.7605 52.6956 74.8637 54.403 74.7446 56.1024C74.6837 56.9521 74.5673 57.8019 74.3899 58.6383C74.2099 59.4748 73.9664 60.3007 73.6567 61.1028C73.0399 62.7069 72.1558 64.2131 71.044 65.5181C69.9322 66.8231 68.6246 67.9508 67.1978 68.8667C66.4884 69.3352 65.7419 69.7349 64.9901 70.1161C64.6089 70.2961 64.2304 70.484 63.8413 70.6429C63.6481 70.7249 63.4575 70.8123 63.2616 70.889L62.6739 71.1167L62.3801 71.2305L62.0836 71.3337L61.4907 71.5376C61.0936 71.6673 60.6913 71.7837 60.2916 71.9055C59.8865 72.0114 59.4842 72.1199 59.0792 72.2126C58.6715 72.2973 58.2665 72.3952 57.8562 72.464L57.2421 72.5699C57.0356 72.6043 56.8318 72.6414 56.6253 72.6652C56.2124 72.7182 55.8021 72.7738 55.3892 72.8108C54.9762 72.8505 54.5633 72.8823 54.1503 72.9088C53.7347 72.9246 53.3218 72.9405 52.9062 72.9432C52.8718 72.9432 52.8427 72.914 52.8427 72.8796C52.8427 72.8505 52.8612 72.824 52.8903 72.8188L52.8771 72.8293Z" fill="black"/>
<path fill-rule="evenodd" clip-rule="evenodd" d="M24.5294 34.7641C34.3289 37.0777 40.9096 41.358 40.9096 46.2578C40.9096 48.071 40.0069 49.8022 38.371 51.3772C42.5561 48.7275 47.1911 48.8334 52.2232 51.3772C50.59 49.7996 49.6847 48.071 49.6847 46.2578C49.6847 41.4163 56.1144 37.1756 65.7286 34.8436C65.096 34.1977 64.421 33.5809 63.7089 32.9985H26.4168C25.7524 33.5571 25.1224 34.1474 24.5294 34.7615V34.7641Z" fill="#9355F7"/>
<path fill-rule="evenodd" clip-rule="evenodd" d="M30.181 33.9065C37.5373 33.9065 43.5038 39.8704 43.5038 47.2293C43.5038 54.5881 37.5399 60.552 30.181 60.552C23.3436 60.552 17.708 55.3981 16.9483 48.7646L15.6935 48.619C15.4368 48.5899 15.2515 48.3543 15.2806 48.0975L15.9662 42.2263C15.9953 41.9695 16.2309 41.7842 16.4877 41.8133L17.9356 41.9827C19.9739 37.2365 24.6883 33.9091 30.1837 33.9091L30.181 33.9065Z" fill="black"/>
<path fill-rule="evenodd" clip-rule="evenodd" d="M60.3524 33.9065C52.9961 33.9065 47.0296 39.8704 47.0296 47.2293C47.0296 54.5881 52.9935 60.552 60.3524 60.552C67.1898 60.552 72.8254 55.3981 73.5852 48.7646L74.8399 48.619C75.0966 48.5899 75.2819 48.3543 75.2528 48.0975L74.5672 42.2263C74.5381 41.9695 74.3025 41.7842 74.0457 41.8133L72.5978 41.9827C70.5595 37.2365 65.8451 33.9091 60.3497 33.9091L60.3524 33.9065Z" fill="black"/>
<path fill-rule="evenodd" clip-rule="evenodd" d="M59.0316 33.9727H31.5019C38.2388 34.6371 43.5038 40.3177 43.5038 47.2292C43.5038 49.0425 43.1412 50.7737 42.4847 52.3487C44.1656 49.699 46.0291 49.8048 48.0541 52.3487C47.3977 50.771 47.035 49.0425 47.035 47.2292C47.035 40.3177 52.3001 34.6344 59.0369 33.9727H59.0316Z" fill="black"/>
<path d="M36.7315 57.0403C42.5911 53.8641 44.7663 46.5392 41.5902 40.6797C38.414 34.8202 31.0891 32.6449 25.2296 35.8211C19.3701 38.9972 17.1948 46.3221 20.3709 52.1816C23.5471 58.0412 30.872 60.2165 36.7315 57.0403Z" fill="#333333"/>
<path fill-rule="evenodd" clip-rule="evenodd" d="M59.5531 34.3616C52.8877 34.3616 47.485 39.7643 47.485 46.4296C47.485 53.095 52.8877 58.4977 59.5531 58.4977C66.2184 58.4977 71.6211 53.095 71.6211 46.4296C71.6211 39.7643 66.2184 34.3616 59.5531 34.3616Z" fill="#333333"/>
<path fill-rule="evenodd" clip-rule="evenodd" d="M31.4993 33.9727H44.4515V37.9406H39.7264C37.5929 35.7488 34.7155 34.2903 31.4993 33.9727Z" fill="#4D4D4D"/>
<path fill-rule="evenodd" clip-rule="evenodd" d="M32.746 35.5713H42.8764V36.3416H34.734C34.096 36.0636 33.4316 35.8069 32.746 35.5713Z" fill="white"/>
<path d="M41.0296 47.3086C41.8364 41.8314 38.0503 36.7371 32.5731 35.9302C27.0958 35.1234 22.0015 38.9095 21.1947 44.3867C20.3878 49.864 24.1739 54.9583 29.6512 55.7651C35.1284 56.572 40.2227 52.7859 41.0296 47.3086Z" fill="#666666"/>
<path d="M67.2941 52.0526C70.7208 47.7042 69.9737 41.4011 65.6253 37.9744C61.2769 34.5476 54.9739 35.2947 51.5471 39.6431C48.1203 43.9915 48.8674 50.2946 53.2158 53.7213C57.5642 57.1481 63.8673 56.401 67.2941 52.0526Z" fill="#666666"/>
<path fill-rule="evenodd" clip-rule="evenodd" d="M31.6395 36.1355C36.7113 36.1355 40.8222 40.2464 40.8222 45.3182C40.8222 50.39 36.7113 54.5009 31.6395 54.5009C26.5676 54.5009 22.4567 50.39 22.4567 45.3182C22.4567 40.2464 26.5676 36.1355 31.6395 36.1355Z" fill="#1A1A1A"/>
<path fill-rule="evenodd" clip-rule="evenodd" d="M58.8938 36.1355C53.822 36.1355 49.7111 40.2464 49.7111 45.3182C49.7111 50.39 53.822 54.5009 58.8938 54.5009C63.9656 54.5009 68.0765 50.39 68.0765 45.3182C68.0765 40.2464 63.9656 36.1355 58.8938 36.1355Z" fill="#1A1A1A"/>
<path fill-rule="evenodd" clip-rule="evenodd" d="M58.8409 37.1279C54.3461 37.1279 50.7037 40.7703 50.7037 45.2651C50.7037 49.7598 54.3461 53.4022 58.8409 53.4022C63.3356 53.4022 66.978 49.7598 66.978 45.2651C66.978 40.7703 63.3356 37.1279 58.8409 37.1279Z" fill="url(#paint0_linear_41_514)"/>
<path fill-rule="evenodd" clip-rule="evenodd" d="M31.6925 37.1279C27.1978 37.1279 23.5554 40.7703 23.5554 45.2651C23.5554 49.7598 27.1978 53.4022 31.6925 53.4022C36.1873 53.4022 39.8297 49.7598 39.8297 45.2651C39.8297 40.7703 36.1873 37.1279 31.6925 37.1279Z" fill="url(#paint1_linear_41_514)"/>
<path fill-rule="evenodd" clip-rule="evenodd" d="M23.9763 52.5342C24.7863 52.5342 25.4428 53.1907 25.4428 54.0007C25.4428 54.8107 24.7863 55.4671 23.9763 55.4671C23.1663 55.4671 22.5098 54.8107 22.5098 54.0007C22.5098 53.1907 23.1663 52.5342 23.9763 52.5342Z" fill="#1A1A1A"/>
<path fill-rule="evenodd" clip-rule="evenodd" d="M23.9763 52.7959C24.6407 52.7959 25.1807 53.3359 25.1807 54.0003C25.1807 54.6647 24.6407 55.2047 23.9763 55.2047C23.3119 55.2047 22.7719 54.6647 22.7719 54.0003C22.7719 53.3359 23.3119 52.7959 23.9763 52.7959Z" fill="white"/>
<path fill-rule="evenodd" clip-rule="evenodd" d="M20.9135 54.4848L26.9357 58.7546C27.1395 58.9002 27.1871 59.1834 27.0389 59.3846L26.2527 60.4752C26.1071 60.6763 25.8212 60.724 25.6174 60.581L19.5953 56.3113C19.3915 56.1657 19.3438 55.8825 19.4921 55.6813L20.2782 54.5907C20.4238 54.3895 20.7097 54.3419 20.9135 54.4848Z" fill="#333333"/>
<path fill-rule="evenodd" clip-rule="evenodd" d="M21.3424 55.2552L26.0595 58.6011C26.2183 58.715 26.2554 58.9373 26.1416 59.0935L25.6836 59.7261C25.5698 59.885 25.3448 59.922 25.186 59.8082L20.4662 56.4623C20.3074 56.3485 20.2703 56.1261 20.3842 55.9673L20.8421 55.3346C20.9559 55.1758 21.1809 55.1388 21.3398 55.2526L21.3424 55.2552Z" fill="black"/>
<path fill-rule="evenodd" clip-rule="evenodd" d="M59.0315 33.9727H46.0793V37.9406H50.8044C52.9353 35.7488 55.8153 34.2903 59.0315 33.9727Z" fill="#4D4D4D"/>
<path fill-rule="evenodd" clip-rule="evenodd" d="M57.7848 35.5713H47.6544V36.3416H55.7968C56.4348 36.0636 57.0992 35.8069 57.7848 35.5713Z" fill="white"/>
<path fill-rule="evenodd" clip-rule="evenodd" d="M66.5571 52.5342C65.7471 52.5342 65.0906 53.1907 65.0906 54.0007C65.0906 54.8107 65.7471 55.4671 66.5571 55.4671C67.3671 55.4671 68.0236 54.8107 68.0236 54.0007C68.0236 53.1907 67.3671 52.5342 66.5571 52.5342Z" fill="#1A1A1A"/>
<path fill-rule="evenodd" clip-rule="evenodd" d="M66.5572 52.7959C65.8928 52.7959 65.3528 53.3359 65.3528 54.0003C65.3528 54.6647 65.8928 55.2047 66.5572 55.2047C67.2216 55.2047 67.7616 54.6647 67.7616 54.0003C67.7616 53.3359 67.2216 52.7959 66.5572 52.7959Z" fill="white"/>
<path fill-rule="evenodd" clip-rule="evenodd" d="M69.6172 54.4848L63.5951 58.7546C63.3913 58.9002 63.3437 59.1834 63.4919 59.3846L64.2781 60.4752C64.4237 60.6763 64.7096 60.724 64.9134 60.581L70.9355 56.3113C71.1393 56.1657 71.187 55.8825 71.0387 55.6813L70.2525 54.5907C70.107 54.3895 69.8211 54.3419 69.6172 54.4848Z" fill="#333333"/>
<path fill-rule="evenodd" clip-rule="evenodd" d="M69.1884 55.2552L64.4713 58.6011C64.3125 58.715 64.2754 58.9373 64.3892 59.0935L64.8472 59.7261C64.961 59.885 65.186 59.922 65.3448 59.8082L70.0619 56.4623C70.2208 56.3485 70.2578 56.1261 70.144 55.9673L69.686 55.3346C69.5722 55.1758 69.3472 55.1388 69.1884 55.2526V55.2552Z" fill="black"/>
<path fill-rule="evenodd" clip-rule="evenodd" d="M56.8795 35.3572C56.5804 35.3572 56.3368 35.6007 56.3368 35.8998C56.3368 36.1989 56.5804 36.4425 56.8795 36.4425C57.1786 36.4425 57.4221 36.1989 57.4221 35.8998C57.4221 35.6007 57.1786 35.3572 56.8795 35.3572Z" fill="black"/>
<path fill-rule="evenodd" clip-rule="evenodd" d="M33.7413 35.3572C33.4422 35.3572 33.1986 35.6007 33.1986 35.8998C33.1986 36.1989 33.4422 36.4425 33.7413 36.4425C34.0404 36.4425 34.2839 36.1989 34.2839 35.8998C34.2839 35.6007 34.0404 35.3572 33.7413 35.3572Z" fill="black"/>
<path fill-rule="evenodd" clip-rule="evenodd" d="M34.0537 37.4773L28.0898 52.5657C26.9331 51.9939 25.9325 51.1575 25.1674 50.133L30.2578 37.255C30.7237 37.1729 31.2001 37.1279 31.6899 37.1279C32.5105 37.1279 33.3046 37.2497 34.0511 37.4773H34.0537Z" fill="white"/>
<path fill-rule="evenodd" clip-rule="evenodd" d="M36.6081 38.7823L30.8481 53.3598C30.2287 53.2962 29.6304 53.1639 29.0613 52.968L35.0384 37.8452C35.5996 38.0993 36.1264 38.4143 36.6108 38.7823H36.6081Z" fill="white"/>
<path fill-rule="evenodd" clip-rule="evenodd" d="M61.2392 37.4877L55.2727 52.5814C54.1159 52.0149 53.1127 51.1837 52.345 50.1672L57.4512 37.2495C57.9039 37.1727 58.3671 37.1304 58.8436 37.1304C59.6774 37.1304 60.4821 37.2574 61.2392 37.4904V37.4877Z" fill="white"/>
<path fill-rule="evenodd" clip-rule="evenodd" d="M63.7884 38.8063L58.0336 53.3653C57.4142 53.3044 56.8159 53.1747 56.2442 52.9815L62.2186 37.8613C62.7772 38.1181 63.3039 38.4357 63.7857 38.8063H63.7884Z" fill="white"/>
<path fill-rule="evenodd" clip-rule="evenodd" d="M53.0333 27.0742C55.0927 30.0654 58.6212 31.7542 62.0889 33.001H63.7089C64.0637 33.2895 64.4104 33.5886 64.7439 33.8957C64.7439 33.8957 66.6446 26.6692 65.3713 20.9329C64.0954 15.1994 62.7613 12.1685 62.7613 12.1685C62.7269 12.1896 62.6951 12.2108 62.666 12.2399C62.6025 12.2876 62.5548 12.3538 62.5098 12.4199C62.486 12.4543 62.4728 12.494 62.4516 12.5285L62.3642 12.727L62.0069 13.5423C61.7766 14.0902 61.5013 14.6144 61.2472 15.1491C60.1963 17.272 58.976 19.2997 57.6577 21.2559C57.3321 21.7482 56.9854 22.2247 56.6492 22.7091C56.2998 23.183 55.9556 23.6621 55.5956 24.128C55.4183 24.3636 55.2356 24.5965 55.053 24.8294C54.873 25.0624 54.6877 25.2927 54.4997 25.5203C54.1265 25.9809 53.7533 26.4283 53.3456 26.8836C53.2609 26.9789 53.1524 27.0424 53.0359 27.0715L53.0333 27.0742Z" fill="#333333"/>
<path fill-rule="evenodd" clip-rule="evenodd" d="M65.0616 32.49C65.5407 30.1076 66.3031 25.1232 65.374 20.9328C64.6725 17.7775 63.9525 15.4402 63.4469 13.9763C63.3384 14.196 63.2298 14.4157 63.1266 14.6354C62.0757 16.7584 60.8554 18.7861 59.5371 20.7423C59.2116 21.2346 58.8648 21.7111 58.5286 22.1955C54.7539 26.767 57.1468 28.9403 65.0643 32.4874L65.0616 32.49Z" fill="url(#paint2_linear_41_514)"/>
<path fill-rule="evenodd" clip-rule="evenodd" d="M63.2112 13.0422C63.6189 13.6351 63.9498 14.2678 64.2515 14.9137C64.5533 15.5622 64.818 16.2266 65.051 16.899C65.5195 18.249 65.8504 19.644 66.1124 21.0496C66.2342 21.7537 66.3454 22.4605 66.4221 23.1726C66.4407 23.3499 66.4619 23.5273 66.4777 23.7046L66.5227 24.2393C66.5571 24.5967 66.5704 24.9541 66.5916 25.3114C66.663 26.7408 66.6392 28.1756 66.5254 29.605C66.4168 31.0318 66.221 32.4559 65.9483 33.8615C65.8742 34.2109 65.8133 34.5656 65.7286 34.9124L65.7021 35.0236C65.6174 34.9865 65.5327 34.9494 65.4454 34.915C65.5407 34.8912 65.6333 34.8674 65.7286 34.8436C65.3898 34.4994 65.0404 34.1606 64.6777 33.835C64.6936 33.7635 64.7095 33.6894 64.7254 33.618C65.0033 32.26 65.2098 30.8888 65.3315 29.5097C65.4533 28.1306 65.4957 26.7435 65.4586 25.3564C65.4454 25.0096 65.4401 24.6629 65.4136 24.3188L65.3818 23.7999C65.3712 23.6252 65.3527 23.4558 65.3368 23.2811C65.2865 22.5876 65.1992 21.8993 65.1065 21.2137C65.006 20.5281 64.8948 19.8425 64.7518 19.1622C64.6857 18.8208 64.6062 18.4846 64.5321 18.1431L64.2833 17.1293C63.9365 15.7819 63.5448 14.4399 63.0551 13.1243V13.119C63.0365 13.074 63.0603 13.0263 63.1053 13.0078C63.1424 12.9945 63.1848 13.0078 63.2059 13.0395L63.2112 13.0422Z" fill="#666666"/>
<path fill-rule="evenodd" clip-rule="evenodd" d="M62.5734 27.6568C63.3543 27.6568 63.9922 27.0188 63.9922 26.2379C63.9922 25.457 63.3543 24.8191 62.5734 24.8191C61.7925 24.8191 61.1545 25.457 61.1545 26.2379C61.1545 27.0188 61.7925 27.6568 62.5734 27.6568Z" fill="#666666"/>
<path fill-rule="evenodd" clip-rule="evenodd" d="M62.5733 27.2333C63.1213 27.2333 63.566 26.786 63.566 26.2407C63.566 25.6954 63.1186 25.2454 62.5733 25.2454C62.028 25.2454 61.5807 25.6927 61.5807 26.2407C61.5807 26.7886 62.028 27.2333 62.5733 27.2333Z" fill="white"/>
<path fill-rule="evenodd" clip-rule="evenodd" d="M62.9969 22.9821C63.4893 22.9821 63.889 22.5824 63.889 22.0901C63.889 21.5977 63.4893 21.198 62.9969 21.198C62.5046 21.198 62.1049 21.5977 62.1049 22.0901C62.1049 22.5824 62.5046 22.9821 62.9969 22.9821Z" fill="#666666"/>
<path fill-rule="evenodd" clip-rule="evenodd" d="M62.9968 22.7148C63.341 22.7148 63.6216 22.4342 63.6216 22.09C63.6216 21.7459 63.341 21.4653 62.9968 21.4653C62.6527 21.4653 62.3721 21.7459 62.3721 22.09C62.3721 22.4342 62.6527 22.7148 62.9968 22.7148Z" fill="white"/>
<path fill-rule="evenodd" clip-rule="evenodd" d="M63.2139 18.9346C63.5607 18.9346 63.8439 18.6513 63.8439 18.3046C63.8439 17.9578 63.5607 17.6746 63.2139 17.6746C62.8672 17.6746 62.5839 17.9578 62.5839 18.3046C62.5839 18.6513 62.8672 18.9346 63.2139 18.9346Z" fill="#666666"/>
<path d="M63.2139 18.7464C63.4581 18.7464 63.656 18.5485 63.656 18.3044C63.656 18.0602 63.4581 17.8623 63.2139 17.8623C62.9698 17.8623 62.7719 18.0602 62.7719 18.3044C62.7719 18.5485 62.9698 18.7464 63.2139 18.7464Z" fill="white"/>
<path fill-rule="evenodd" clip-rule="evenodd" d="M37.4869 27.0742C35.4275 30.0654 31.8989 31.7542 28.4313 33.001H26.8112C26.4565 33.2895 26.1098 33.5886 25.7762 33.8957C25.7762 33.8957 23.8756 26.6692 25.1489 20.9329C26.4248 15.1994 27.7589 12.1685 27.7589 12.1685C27.7933 12.1896 27.8251 12.2108 27.8542 12.2399C27.9177 12.2876 27.9654 12.3538 28.0104 12.4199C28.0342 12.4543 28.0474 12.494 28.0686 12.5285L28.156 12.727L28.5133 13.5423C28.7436 14.0902 29.0189 14.6144 29.273 15.1491C30.3239 17.272 31.5442 19.2997 32.8625 21.2559C33.1881 21.7482 33.5348 22.2247 33.871 22.7091C34.2204 23.183 34.5645 23.6621 34.9245 24.128C35.1019 24.3636 35.2846 24.5965 35.4672 24.8294C35.6472 25.0624 35.8325 25.2927 36.0204 25.5203C36.3937 25.9809 36.7669 26.4283 37.1746 26.8836C37.2593 26.9789 37.3678 27.0424 37.4843 27.0715L37.4869 27.0742Z" fill="#333333"/>
<path fill-rule="evenodd" clip-rule="evenodd" d="M25.5909 32.49C25.1118 30.1076 24.3467 25.1232 25.2785 20.9328C25.98 17.7775 26.7 15.4402 27.2056 13.9763C27.3141 14.196 27.4227 14.4157 27.5259 14.6354C28.5768 16.7584 29.7971 18.7861 31.1153 20.7423C31.4409 21.2346 31.7877 21.7111 32.1239 22.1955C35.8986 26.767 33.5057 28.9403 25.5882 32.4874L25.5909 32.49Z" fill="url(#paint3_linear_41_514)"/>
<path fill-rule="evenodd" clip-rule="evenodd" d="M27.3115 13.0422C26.9038 13.6351 26.573 14.2678 26.2712 14.9136C25.9694 15.5622 25.7047 16.2266 25.4718 16.899C25.0032 18.249 24.6724 19.644 24.4103 21.0496C24.2885 21.7537 24.1774 22.4605 24.1006 23.1725C24.0821 23.3499 24.0609 23.5272 24.045 23.7046L24 24.2393C23.9656 24.5967 23.9523 24.954 23.9312 25.3114C23.8597 26.7408 23.8835 28.1755 23.9973 29.6049C24.1059 31.0317 24.3018 32.4558 24.5744 33.8614C24.6485 34.2109 24.7094 34.5656 24.7941 34.9123L24.8206 35.0262C24.9053 34.9891 25.0244 34.9388 25.1091 34.9017C25.0138 34.8779 24.9 34.8515 24.8047 34.8276C25.1435 34.4835 25.4797 34.1606 25.8397 33.8323C25.8238 33.7609 25.808 33.6867 25.7921 33.6153C25.5141 32.2573 25.3077 30.8861 25.1859 29.507C25.0641 28.1279 25.0218 26.7408 25.0588 25.3537C25.0721 25.007 25.0774 24.6602 25.1038 24.3161L25.1356 23.7972C25.1462 23.6225 25.1647 23.4531 25.1806 23.2784C25.2309 22.5849 25.3182 21.8966 25.4109 21.211C25.5115 20.5255 25.6227 19.8399 25.7656 19.1596C25.8318 18.8181 25.9112 18.4819 25.9853 18.1404L26.2341 17.1266C26.5809 15.7792 26.9727 14.4372 27.4624 13.1216V13.1163C27.4809 13.0713 27.4571 13.0236 27.4121 13.0051C27.375 12.9919 27.3327 13.0051 27.3115 13.0369V13.0422Z" fill="#666666"/>
<path fill-rule="evenodd" clip-rule="evenodd" d="M27.9495 27.6568C28.7304 27.6568 29.3683 27.0188 29.3683 26.2379C29.3683 25.457 28.7304 24.8191 27.9495 24.8191C27.1686 24.8191 26.5306 25.457 26.5306 26.2379C26.5306 27.0188 27.1686 27.6568 27.9495 27.6568Z" fill="#666666"/>
<path fill-rule="evenodd" clip-rule="evenodd" d="M27.9495 27.2333C28.4974 27.2333 28.9421 26.786 28.9421 26.2407C28.9421 25.6954 28.4948 25.2454 27.9495 25.2454C27.4042 25.2454 26.9568 25.6927 26.9568 26.2407C26.9568 26.7886 27.4042 27.2333 27.9495 27.2333Z" fill="white"/>
<path fill-rule="evenodd" clip-rule="evenodd" d="M27.526 22.9821C28.0184 22.9821 28.4181 22.5824 28.4181 22.0901C28.4181 21.5977 28.0184 21.198 27.526 21.198C27.0336 21.198 26.6339 21.5977 26.6339 22.0901C26.6339 22.5824 27.0336 22.9821 27.526 22.9821Z" fill="#666666"/>
<path fill-rule="evenodd" clip-rule="evenodd" d="M27.526 22.7148C27.8701 22.7148 28.1507 22.4342 28.1507 22.09C28.1507 21.7459 27.8701 21.4653 27.526 21.4653C27.1818 21.4653 26.9012 21.7459 26.9012 22.09C26.9012 22.4342 27.1818 22.7148 27.526 22.7148Z" fill="white"/>
<path fill-rule="evenodd" clip-rule="evenodd" d="M27.3089 18.9346C27.6557 18.9346 27.9389 18.6513 27.9389 18.3046C27.9389 17.9578 27.6557 17.6746 27.3089 17.6746C26.9621 17.6746 26.6789 17.9578 26.6789 18.3046C26.6789 18.6513 26.9621 18.9346 27.3089 18.9346Z" fill="#666666"/>
<path d="M27.3089 18.7464C27.5531 18.7464 27.751 18.5485 27.751 18.3044C27.751 18.0602 27.5531 17.8623 27.3089 17.8623C27.0648 17.8623 26.8669 18.0602 26.8669 18.3044C26.8669 18.5485 27.0648 18.7464 27.3089 18.7464Z" fill="white"/>
<path fill-rule="evenodd" clip-rule="evenodd" d="M45.2614 80.3995C47.4347 80.3995 49.2082 78.6259 49.2082 76.4527C49.2082 74.2794 47.4347 72.5059 45.2614 72.5059C43.0882 72.5059 41.3146 74.2794 41.3146 76.4527C41.3146 78.6259 43.0882 80.3995 45.2614 80.3995Z" fill="white"/>
<path fill-rule="evenodd" clip-rule="evenodd" d="M45.2615 79.7169C47.0588 79.7169 48.5253 78.2504 48.5253 76.4531C48.5253 74.6557 47.0588 73.1892 45.2615 73.1892C43.4641 73.1892 41.9976 74.6557 41.9976 76.4531C41.9976 78.2504 43.4641 79.7169 45.2615 79.7169Z" fill="#989898"/>
<path fill-rule="evenodd" clip-rule="evenodd" d="M45.2614 78.6552C46.4738 78.6552 47.4638 77.6652 47.4638 76.4529C47.4638 75.2405 46.4738 74.2505 45.2614 74.2505C44.049 74.2505 43.059 75.2405 43.059 76.4529C43.059 77.6652 44.049 78.6552 45.2614 78.6552Z" fill="black"/>
<path fill-rule="evenodd" clip-rule="evenodd" d="M140.958 39.1815L131.201 58.9127L121.523 38.981V57.0913H118.333V31.9479H121.549L131.219 51.8578L140.976 31.9479H144.157V57.0913H140.963V39.1771L140.958 39.1815ZM152.606 53.7838C152.824 53.9102 153.051 54.0235 153.282 54.1194C153.831 54.3416 154.428 54.4244 155.016 54.4244C155.909 54.4244 156.728 54.1847 157.504 53.7446C158.332 53.2696 158.999 52.6204 159.526 51.8229L161.53 48.7857V54.407L161.247 54.7164C160.441 55.6097 159.491 56.3461 158.38 56.8124C157.277 57.2786 156.088 57.466 154.894 57.466C153.412 57.466 152.027 57.0651 150.763 56.2982C149.495 55.5312 148.479 54.5028 147.726 53.2261C146.972 51.9536 146.58 50.5679 146.58 49.0907C146.58 47.6135 146.937 46.1406 147.712 44.842C148.471 43.574 149.512 42.5891 150.811 41.8876C152.144 41.1642 153.6 40.8374 155.112 40.8374C157.609 40.8374 159.692 41.8571 161.347 43.7134L162.036 44.4891L152.61 53.7925L152.606 53.7838ZM166.254 41.1337H170.481V44.1753H166.254V51.0124C166.254 51.9057 166.459 52.7598 167.121 53.3873C167.762 53.9974 168.538 54.237 169.418 54.237H170.507V57.2786H169.418C167.723 57.2786 166.176 56.7688 164.925 55.6097C163.618 54.3939 163.09 52.7729 163.09 51.0124V35.5908H166.254V41.1337ZM184.534 42.5717V41.1337H187.698V57.0956H184.534V55.6315C184.251 55.8581 183.946 56.0629 183.628 56.2546C182.321 57.0303 180.9 57.4312 179.384 57.4312C177.867 57.4312 176.481 57.0564 175.192 56.3025C173.91 55.5574 172.886 54.5421 172.137 53.2653C171.387 51.9885 171.008 50.5984 171.008 49.1168C171.008 47.6353 171.387 46.2452 172.137 44.9684C172.886 43.6916 173.915 42.6719 175.192 41.9311C176.481 41.1816 177.889 40.8025 179.384 40.8025C180.878 40.8025 182.377 41.2209 183.706 42.0139C183.998 42.1882 184.273 42.3756 184.539 42.5761L184.534 42.5717ZM213.987 48.3412H203.163L198.906 57.0956H195.407L208.601 30L221.831 57.0956H218.336L213.987 48.3412ZM225.966 44.598L229.914 41.1381H234.49L226.851 47.8096L235.723 57.0956H231.387L225.966 51.3915V57.0956H222.803V32.0132H225.966V44.598ZM237.501 40.1663C238.072 40.1663 238.59 39.9528 239.004 39.5606C239.44 39.1466 239.667 38.6063 239.667 38.0049C239.667 37.4036 239.431 36.885 239.004 36.4798C238.59 36.0876 238.072 35.8741 237.501 35.8741C236.93 35.8741 236.412 36.0876 235.998 36.4798C235.571 36.885 235.34 37.4167 235.34 38.0049C235.34 38.5932 235.566 39.1466 235.998 39.5606C236.412 39.9528 236.93 40.1663 237.501 40.1663ZM235.919 41.1381H239.083V57.1H235.919V41.1381ZM245.218 41.1381H249.445V44.1797H245.218V51.0168C245.218 51.9101 245.423 52.7642 246.086 53.3917C246.726 54.0017 247.502 54.2414 248.382 54.2414H249.471V57.283H248.382C246.687 57.283 245.14 56.7731 243.889 55.614C242.582 54.3983 242.055 52.7772 242.055 51.0168V35.5952H245.218V41.1381ZM263.499 42.5761V41.1381H266.662V57.1H263.499V55.6358C263.215 55.8624 262.91 56.0672 262.592 56.259C261.285 57.0346 259.864 57.4355 258.348 57.4355C256.831 57.4355 255.446 57.0608 254.156 56.3069C252.875 55.5617 251.851 54.5464 251.101 53.2697C250.352 51.9929 249.973 50.6028 249.973 49.1212C249.973 47.6396 250.352 46.2495 251.101 44.9727C251.851 43.696 252.879 42.6763 254.156 41.9355C255.446 41.186 256.853 40.8069 258.348 40.8069C259.843 40.8069 261.342 41.2252 262.671 42.0183C262.963 42.1926 263.237 42.38 263.503 42.5804L263.499 42.5761ZM150.44 51.6965L157.639 44.5457C157.413 44.4019 157.173 44.2755 156.929 44.1797C156.349 43.9487 155.691 43.8746 155.072 43.8746C154.092 43.8746 153.142 44.0664 152.284 44.5457C151.495 44.9858 150.872 45.5872 150.414 46.3628C149.939 47.1733 149.739 48.0579 149.739 48.9948C149.739 49.9927 149.965 50.8904 150.445 51.6922L150.44 51.6965ZM179.44 54.3983C180.36 54.3983 181.209 54.1629 181.998 53.6836C182.8 53.1956 183.432 52.555 183.902 51.7445C184.373 50.934 184.6 50.0624 184.6 49.1212C184.6 48.18 184.36 47.3259 183.889 46.5197C183.414 45.7048 182.778 45.0512 181.972 44.5631C181.183 44.0838 180.338 43.8485 179.414 43.8485C178.49 43.8485 177.636 44.0925 176.843 44.5762C176.024 45.0773 175.375 45.7353 174.887 46.5589C174.412 47.3607 174.168 48.2192 174.168 49.1561C174.168 50.0929 174.407 50.9383 174.887 51.7314C175.379 52.5506 176.028 53.1955 176.852 53.6792C177.654 54.1542 178.512 54.3983 179.449 54.3983H179.44ZM212.541 45.2734L208.549 37.1901L204.645 45.2734H212.541ZM258.409 54.3983C259.328 54.3983 260.178 54.1629 260.967 53.6836C261.769 53.1956 262.4 52.555 262.871 51.7445C263.342 50.934 263.564 50.0624 263.564 49.1212C263.564 48.18 263.324 47.3259 262.854 46.5197C262.379 45.7048 261.742 45.0512 260.936 44.5631C260.148 44.0838 259.302 43.8485 258.378 43.8485C257.455 43.8485 256.6 44.0925 255.807 44.5762C254.988 45.0773 254.339 45.7353 253.851 46.5589C253.376 47.3607 253.132 48.2192 253.132 49.1561C253.132 50.0929 253.371 50.9383 253.851 51.7314C254.343 52.5506 254.993 53.1955 255.816 53.6792C256.618 54.1542 257.476 54.3983 258.413 54.3983H258.409Z" fill="#FDFDFD"/>
<path fill-rule="evenodd" clip-rule="evenodd" d="M120.621 44.5195L120.599 59.0042H117V44.5195H120.621Z" fill="#9968FD"/>
<path fill-rule="evenodd" clip-rule="evenodd" d="M144.684 31.5469L144.667 44.0707H141.682V31.5469H144.684Z" fill="#989898"/>
<path fill-rule="evenodd" clip-rule="evenodd" d="M174.359 49.9536C175.98 49.9536 177.301 48.6332 177.301 47.0122C177.301 45.3912 175.98 44.0708 174.359 44.0708C172.738 44.0708 171.418 45.3912 171.418 47.0122C171.418 48.6332 172.738 49.9536 174.359 49.9536Z" fill="#989898"/>
<path fill-rule="evenodd" clip-rule="evenodd" d="M202.876 37.9875H206.375L196.731 57.8975H193.228L202.876 37.9875Z" fill="#9968FD"/>
<path fill-rule="evenodd" clip-rule="evenodd" d="M237.501 38.0137C236.93 38.0137 236.412 37.8002 235.998 37.408C235.562 36.994 235.34 36.4537 235.34 35.8523C235.34 35.251 235.575 34.7324 235.998 34.3271C236.412 33.935 236.93 33.7214 237.501 33.7214C238.072 33.7214 238.59 33.935 239.004 34.3271C239.431 34.7324 239.667 35.264 239.667 35.8523C239.667 36.4406 239.44 36.994 239.004 37.408C238.59 37.8002 238.072 38.0137 237.501 38.0137Z" fill="#9968FD"/>
<path fill-rule="evenodd" clip-rule="evenodd" d="M142.697 61.7627H245.061L242.299 63.8935H139.934L142.697 61.7627Z" fill="#989898"/>
<path fill-rule="evenodd" clip-rule="evenodd" d="M268 41.1338L267.983 52.1542H264.993V41.1338H268Z" fill="#989898"/>
<defs>
<linearGradient id="paint0_linear_41_514" x1="56.657" y1="51.2236" x2="61.0247" y2="39.3118" gradientUnits="userSpaceOnUse">
<stop stop-color="#7D5CA3"/>
<stop offset="1" stop-color="#C33C8E"/>
</linearGradient>
<linearGradient id="paint1_linear_41_514" x1="29.5087" y1="51.2236" x2="33.8737" y2="39.3118" gradientUnits="userSpaceOnUse">
<stop stop-color="#7D5CA3"/>
<stop offset="1" stop-color="#C33C8E"/>
</linearGradient>
<linearGradient id="paint2_linear_41_514" x1="56.7736" y1="23.2332" x2="65.8134" y2="23.2332" gradientUnits="userSpaceOnUse">
<stop stop-color="#2A2C2A"/>
<stop offset="1" stop-color="#BFBEBE"/>
</linearGradient>
<linearGradient id="paint3_linear_41_514" x1="33.8789" y1="23.2332" x2="24.8391" y2="23.2332" gradientUnits="userSpaceOnUse">
<stop stop-color="#2A2C2A"/>
<stop offset="1" stop-color="#BFBEBE"/>
</linearGradient>
</defs>
</svg>
