<svg width="231" height="210" viewBox="0 0 231 210" fill="none" xmlns="http://www.w3.org/2000/svg">
<path fill-rule="evenodd" clip-rule="evenodd" d="M128.171 5.47092L127.715 0C142.446 2.26745 156.321 9.19082 167.024 20.0157L162.042 22.5776C152.637 13.5522 140.771 7.66978 128.167 5.47496L128.171 5.47092Z" fill="#FDFDFD"/>
<path fill-rule="evenodd" clip-rule="evenodd" d="M117.988 7.07715C137.237 7.97686 155.643 17.442 167.42 33.6087L161.848 36.4733C151.342 22.5458 135.316 14.3152 118.504 13.2985L117.988 7.07715Z" fill="#FF00FF"/>
<path fill-rule="evenodd" clip-rule="evenodd" d="M55.7903 87.7043C55.75 87.5551 55.7056 87.4098 55.6693 87.2605C53.1961 77.7752 53.0831 67.7774 55.2457 58.2275L57.8157 59.3895C55.6572 69.3187 56.0486 79.849 59.3327 89.9234C60.2889 92.8606 61.4872 95.7574 62.9437 98.5897C74.6118 121.284 99.1422 133.138 123.096 129.854L126.65 132.077C113.961 134.506 100.526 132.791 88.7652 127.227C76.4758 121.413 66.6959 111.948 60.4786 99.8566C58.4895 95.9833 56.912 91.8963 55.7863 87.7043H55.7903Z" fill="#FF00FF"/>
<path fill-rule="evenodd" clip-rule="evenodd" d="M45.599 81.3257L52.1512 85.4289C53.3172 90.7989 55.1933 96.1044 57.8238 101.22C71.7029 128.22 102.027 141.24 130.277 134.348L136.837 138.456C104.69 148.97 68.6567 134.877 52.7079 103.855C48.9759 96.5967 46.6439 88.9874 45.599 81.3257Z" fill="#FDFDFD"/>
<path fill-rule="evenodd" clip-rule="evenodd" d="M47.1362 54.564L52.0423 56.779C50.0008 65.3121 49.6699 74.3295 51.2999 83.3145L45.3892 79.6148C44.4491 71.1583 45.0785 62.6695 47.1362 54.564Z" fill="#9968FD"/>
<path fill-rule="evenodd" clip-rule="evenodd" d="M177.438 39.7289C192.224 68.4956 185.128 102.834 162.288 123.641L155.659 119.162C169.348 107.668 178.055 90.4277 178.055 71.1544C178.055 59.9261 175.098 49.3877 169.925 40.2776L176.03 37.1387C176.514 37.99 176.986 38.8493 177.438 39.7289Z" fill="white"/>
<path fill-rule="evenodd" clip-rule="evenodd" d="M79.768 106.138C77.4561 104.653 75.3824 102.846 73.6152 100.776C71.8238 98.674 70.4037 96.2734 69.395 93.6429C68.9068 92.3801 68.5114 91.0446 68.2169 89.6849C67.9385 88.3777 67.7489 87.014 67.648 85.6261C67.4665 83.048 67.5996 80.3368 68.0515 77.569C68.2451 76.3707 68.5155 75.12 68.8544 73.8491C68.8423 73.8047 68.8342 73.7604 68.8261 73.716C68.0475 72.55 67.6521 70.9603 67.6521 68.9915C67.6521 67.3373 68.342 65.8606 69.6088 64.7672C69.5201 62.5482 69.508 60.3453 69.5725 58.1666C70.5973 56.7182 71.7754 55.3021 73.127 53.9505C71.7795 55.3021 70.6014 56.7142 69.5766 58.1626C69.6653 55.0761 69.9074 52.0381 70.2988 49.0767C71.3195 41.4513 73.353 34.3383 76.3386 27.9353C77.9927 24.397 79.8809 21.1653 81.9467 18.337C82.2331 17.9376 82.5317 17.5462 82.7859 17.2154L83.1933 16.699L83.3184 16.5578C83.4435 16.4206 83.6008 16.2471 83.8147 16.0777L84.0527 15.884L84.3271 15.7105C84.7063 15.4725 85.13 15.2949 85.6262 15.1699L85.6625 15.1618L85.6988 15.1537C86.0458 15.0851 86.3645 15.0488 86.6671 15.0488C86.7962 15.0488 86.9254 15.0569 87.0504 15.069C87.462 15.1013 87.8896 15.2021 88.3536 15.3797L88.394 15.3918L88.4303 15.4119C88.8942 15.6177 89.2695 15.8557 89.5801 16.1261C89.915 16.4004 90.2055 16.7434 90.4758 17.167C90.5847 17.3364 90.6614 17.4978 90.726 17.6269L90.7824 17.748L91.4724 19.3094C91.6902 19.8258 91.9363 20.3342 92.2026 20.8708C92.3277 21.1249 92.4487 21.3791 92.5698 21.6333C93.994 24.5059 95.7087 27.427 97.8107 30.5417C98.1456 31.0501 98.4805 31.5261 98.8355 32.0305C98.9888 32.2483 99.1421 32.4622 99.2954 32.68L99.594 33.0875C99.9975 33.6443 100.417 34.2132 100.841 34.7579C101.131 35.1452 101.422 35.5123 101.64 35.7867C101.89 36.1054 102.152 36.4363 102.451 36.8034C102.685 37.0939 102.91 37.3682 103.132 37.6305C104.504 37.2472 106.001 36.9406 107.752 36.6864C109.741 36.3959 111.831 36.2466 113.953 36.2386C116.087 36.2466 118.173 36.3959 120.166 36.6864C121.921 36.9406 123.414 37.2432 124.786 37.6305C125.004 37.3682 125.23 37.0979 125.464 36.8074C125.766 36.4403 126.029 36.1095 126.271 35.7988C126.497 35.5123 126.787 35.1452 127.066 34.774C127.497 34.2172 127.909 33.6483 128.312 33.0996L128.619 32.68C128.772 32.4622 128.922 32.2443 129.075 32.0305C129.434 31.5261 129.769 31.0501 130.096 30.5578C132.206 27.431 133.924 24.51 135.353 21.6131C135.466 21.3791 135.591 21.1249 135.716 20.8708C135.978 20.3342 136.228 19.8298 136.442 19.3134L137.128 17.748L137.184 17.6269C137.245 17.4978 137.326 17.3364 137.439 17.163C137.705 16.7434 137.999 16.4045 138.33 16.1261C138.641 15.8517 139.02 15.6177 139.48 15.4079L139.516 15.3918L139.553 15.3797C140.021 15.2021 140.448 15.1013 140.856 15.069C140.981 15.0569 141.11 15.0488 141.239 15.0488C141.542 15.0488 141.856 15.0851 142.207 15.1537L142.244 15.1618L142.28 15.1699C142.78 15.2949 143.204 15.4725 143.579 15.7065L143.854 15.884L144.096 16.0817C144.305 16.2471 144.459 16.4166 144.584 16.5537L144.713 16.699L145.112 17.2114C145.375 17.5462 145.673 17.9416 145.964 18.3411C148.021 21.1653 149.91 24.393 151.564 27.9353C154.549 34.3383 156.583 41.4513 157.604 49.0767C157.995 52.034 158.237 55.068 158.326 58.1586C157.809 57.4283 157.253 56.7061 156.655 55.996C157.253 56.7061 157.809 57.4283 158.33 58.1626C158.394 60.3413 158.382 62.5482 158.293 64.7672C159.56 65.8606 160.25 67.3373 160.25 68.9915C160.25 70.9603 159.855 72.5459 159.072 73.7119C159.064 73.7563 159.052 73.8007 159.044 73.8451C159.379 75.1119 159.649 76.3627 159.847 77.569C160.299 80.3408 160.436 83.052 160.25 85.6221C160.149 87.01 159.96 88.3737 159.681 89.6769C159.391 91.0365 158.991 92.368 158.503 93.6429C157.491 96.2775 156.07 98.674 154.283 100.772C152.524 102.834 150.45 104.641 148.114 106.142C148.921 110.427 147.82 122.656 114.667 122.656C79.5178 122.656 79.1789 111.052 79.772 106.13L79.768 106.138Z" fill="#9968FD"/>
<path fill-rule="evenodd" clip-rule="evenodd" d="M142.397 113.235C141.437 110.019 141.025 108.801 140.67 107.707H87.2239C86.8648 108.809 86.425 110.12 85.4527 113.376C84.8838 113.053 84.3149 112.718 83.738 112.367C85.021 108.091 85.5979 106.465 85.606 106.437C85.7391 106.041 86.1063 105.775 86.5219 105.775H141.368C141.784 105.775 142.155 106.041 142.284 106.437C142.292 106.465 142.829 107.974 144.092 112.166C143.519 112.537 142.958 112.896 142.397 113.239V113.235Z" fill="#433B72"/>
<path fill-rule="evenodd" clip-rule="evenodd" d="M142.45 113.4C141.485 110.173 141.026 108.793 140.675 107.704H87.2322C86.8771 108.805 86.4817 109.951 85.5054 113.219C84.9365 112.9 84.3676 112.561 83.7906 112.21C85.0696 107.946 85.5901 106.505 85.6143 106.433C85.7434 106.037 86.1146 105.771 86.5301 105.771H141.377C141.792 105.771 142.163 106.037 142.292 106.433C142.317 106.505 142.889 108.147 144.148 112.331C143.575 112.702 143.015 113.062 142.454 113.404L142.45 113.4Z" fill="black"/>
<path fill-rule="evenodd" clip-rule="evenodd" d="M113.949 104.379H145.036C145.036 104.379 151.685 119.477 113.949 119.477C76.2136 119.477 82.8626 104.379 82.8626 104.379H113.949Z" fill="#9968FD"/>
<path fill-rule="evenodd" clip-rule="evenodd" d="M113.949 104.379H145.036C145.036 104.379 145.1 104.529 145.181 104.795C143.886 109.229 137.737 115.228 113.949 115.228C90.1612 115.228 84.0165 109.229 82.7173 104.795C82.798 104.529 82.8626 104.379 82.8626 104.379H113.949Z" fill="black"/>
<path fill-rule="evenodd" clip-rule="evenodd" d="M83.5646 105.348C83.3145 106.332 83.0603 108.446 84.537 110.681C86.8972 114.252 93.9134 118.513 113.949 118.513C133.985 118.513 141.001 114.252 143.361 110.681C144.838 108.446 144.584 106.336 144.334 105.348H83.5646ZM141.457 115.172C139.517 116.277 137.564 117.197 135.389 117.948C130.144 119.594 123.084 120.429 114.244 120.449C112.138 120.445 110.177 120.409 108.333 120.328C105.694 120.211 103.245 120.005 100.99 119.715C95.5555 118.981 91.1376 117.629 86.7116 115.345C85.0696 114.292 83.7987 113.078 82.8989 111.702C80.3571 107.805 81.9145 104.145 81.9831 103.992C82.1364 103.641 82.4834 103.415 82.8667 103.415H145.036C145.419 103.415 145.766 103.641 145.919 103.992C145.988 104.145 147.549 107.801 145.004 111.702C144.156 113.001 142.97 114.159 141.457 115.172Z" fill="black"/>
<path fill-rule="evenodd" clip-rule="evenodd" d="M125.565 111.1C121.704 111.484 117.834 111.673 113.961 111.673H113.945C110.068 111.673 106.191 111.484 102.325 111.1C98.557 110.649 95.2124 109.983 92.2388 109.152C59.8491 100.074 72.3684 70.6979 72.3684 70.6979C69.4393 41.4027 80.0342 24.3968 84.9846 18.1956C86.0054 16.9207 88.0066 17.2193 88.636 18.7242C93.6469 30.7634 102.337 40.3254 102.337 40.3254C103.681 39.8534 105.186 39.4983 106.659 39.2361C111.476 38.3727 116.41 38.3727 121.227 39.2361C122.7 39.4983 124.205 39.8493 125.549 40.3254C125.549 40.3254 134.235 30.7634 139.25 18.7242C139.879 17.2193 141.881 16.9207 142.901 18.1956C147.852 24.3968 158.451 41.4027 155.518 70.6979C155.518 70.6979 170.438 105.702 125.565 111.096V111.1Z" fill="#FBA329"/>
<path fill-rule="evenodd" clip-rule="evenodd" d="M89.2332 107.34C88.8297 107.191 88.4263 107.034 88.0268 106.872L87.1755 106.521C86.8931 106.4 86.6147 106.267 86.3363 106.142C85.7755 105.896 85.2309 105.61 84.6862 105.335C83.609 104.758 82.5478 104.153 81.5513 103.459C79.538 102.099 77.7144 100.482 76.1853 98.6257C74.6642 96.7657 73.4539 94.6678 72.6106 92.4245C71.7674 90.1772 71.2873 87.7968 71.1138 85.3882C70.9524 82.9755 71.0775 80.5345 71.4527 78.1259C71.6181 77.0486 71.8279 75.9795 72.0902 74.9224C72.2838 77.206 72.9334 80.2965 74.3697 83.2982C74.3616 83.5645 74.3536 83.8308 74.3536 84.0931C74.3536 95.9104 84.1375 103.959 89.2291 107.349L89.2332 107.34ZM75.338 63.6457C75.3219 63.5973 75.3057 63.5489 75.2856 63.5045C74.6562 61.8422 76.8147 59.5707 78.6343 59.5707C78.7876 59.5707 78.9409 59.5869 79.0862 59.6192C79.0862 59.6192 79.5058 54.5598 83.496 54.5598C83.6816 54.5598 83.8712 54.5719 84.0729 54.592L84.9404 54.2007C84.9404 54.2007 86.3928 55.3707 85.9248 56.3915C85.2631 57.8399 81.7974 56.3874 81.4141 60.878C81.3899 61.1442 81.3092 61.3984 81.1761 61.6203C78.5617 62.286 76.5686 63.0808 75.338 63.6417V63.6457Z" fill="#BE6F00"/>
<path fill-rule="evenodd" clip-rule="evenodd" d="M138.657 107.344C143.854 103.887 153.952 95.5634 153.529 83.3305C153.529 83.3184 153.529 83.3023 153.529 83.2902C153.537 83.5565 153.545 83.8227 153.545 84.085C153.545 95.9064 143.749 103.959 138.661 107.349L138.657 107.344ZM89.2331 107.336C84.1414 103.947 74.3615 95.8943 74.3575 84.081C74.3575 83.8187 74.3615 83.5524 74.3736 83.2861C74.3736 83.2982 74.3736 83.3144 74.3736 83.3265C73.95 95.5513 84.0365 103.871 89.2331 107.332V107.336Z" fill="#4A4A8E"/>
<path fill-rule="evenodd" clip-rule="evenodd" d="M113.965 111.673H113.933C110.096 111.673 106.259 111.484 102.434 111.109C102.438 111.052 102.402 111 102.346 110.984C99.8926 110.398 97.4598 109.858 95.0672 109.188C93.0943 108.643 91.1375 108.046 89.2373 107.336C84.0366 103.875 73.9501 95.5552 74.3778 83.3303C74.4988 83.6692 74.632 84.0082 74.7732 84.3511C77.3432 86.0214 91.307 94.8169 95.3497 91.7062C99.5376 88.4825 100.28 77.2946 103.778 71.2427C105.565 68.1522 109.443 65.8807 113.001 65.7637C117.742 65.6104 121.837 67.8657 124.024 72.0052C127.348 78.2992 128.397 88.8295 132.508 91.7021C138.794 96.0958 148.994 88.4785 153.533 83.3263C153.533 83.3142 153.533 83.2981 153.533 83.286C153.533 93.9171 147.142 101.696 138.665 107.34C136.765 108.05 134.812 108.635 132.843 109.184C132.242 109.337 131.645 109.515 131.04 109.664C130.435 109.809 129.833 109.979 129.224 110.12C128.615 110.253 128.01 110.419 127.397 110.556C126.787 110.697 126.174 110.838 125.561 111C125.52 111.012 125.488 111.048 125.488 111.096V111.105C121.659 111.48 117.814 111.669 113.973 111.669L113.965 111.673ZM75.1686 85.2589L75.1888 85.3033L75.1767 85.2791L75.1646 85.2589H75.1686ZM75.5075 85.9448L75.5196 85.9649L75.5317 85.9891L75.5075 85.9448ZM75.6527 86.2191L75.6608 86.2353L75.677 86.2635L75.6527 86.2191ZM104.258 96.0716C104.674 96.9633 105.283 97.8509 106.17 98.6174C106.07 99.4082 106.005 100.223 106.005 101.03C106.005 105.174 107.647 109.148 113.949 109.148H113.981C121.506 109.148 122.39 103.479 121.76 98.6215C122.616 97.8832 123.213 97.0359 123.624 96.1765L123.584 96.0757C123.834 95.4785 123.947 95.2566 124.137 94.5062C124.843 94.0826 125.763 93.3926 126.432 92.4042C125.98 92.1056 125.557 91.7869 125.161 91.452C125.113 91.4923 125.065 91.5367 125.012 91.5771C125.177 91.4439 125.335 91.2987 125.484 91.1454C126.945 89.6243 126.892 87.6393 126.888 87.5546C126.868 87.022 126.424 86.6064 125.888 86.6226C125.355 86.6427 124.939 87.0906 124.956 87.6232C124.956 87.6272 124.972 88.8981 124.076 89.822C123.979 89.9229 123.874 90.0116 123.765 90.1004C123.362 89.6485 122.987 89.1765 122.648 88.6883C122.216 89.007 121.667 89.2088 120.973 89.2088C118.851 89.2088 117.435 87.4456 116.664 86.1102C117.972 85.1499 118.968 83.5442 118.968 81.547C118.968 79.8969 117.701 78.9972 116.43 78.509C115.624 78.1983 114.772 78.045 113.921 78.041C113.07 78.041 112.214 78.2024 111.411 78.509C110.141 78.9972 108.874 79.8969 108.874 81.547C108.874 83.5442 109.87 85.1499 111.177 86.1102C110.411 87.4456 108.995 89.2088 106.868 89.2088C106.175 89.2088 105.626 89.007 105.194 88.6883C104.851 89.1765 104.48 89.6485 104.077 90.1004C103.964 90.0157 103.863 89.9229 103.766 89.822C102.866 88.9021 102.886 87.6312 102.886 87.6232C102.906 87.0906 102.491 86.6427 101.954 86.6226C101.418 86.6064 100.974 87.018 100.954 87.5546C100.954 87.6393 100.897 89.6203 102.358 91.1454C102.507 91.2987 102.664 91.4439 102.83 91.5771C102.781 91.5367 102.729 91.4964 102.681 91.452C102.281 91.7869 101.857 92.1056 101.41 92.4042C102.079 93.3926 102.999 94.0826 103.705 94.5062C103.895 95.2566 104.008 95.4785 104.258 96.0757V96.0716Z" fill="white"/>
<path fill-rule="evenodd" clip-rule="evenodd" d="M103.701 94.5024C102.995 94.0788 102.075 93.3889 101.405 92.4004C101.857 92.1018 102.277 91.7831 102.676 91.4482C102.898 91.6419 103.136 91.8113 103.395 91.9647C103.395 92.6263 103.455 93.5301 103.701 94.5024ZM124.233 94.4782C124.475 93.5099 124.536 92.6223 124.532 91.9647C124.782 91.8154 125.016 91.65 125.234 91.4644C125.629 91.7952 126.045 92.1099 126.489 92.4004C125.831 93.3727 124.931 94.0546 124.233 94.4782ZM121.018 90.8794H120.981C115.866 90.8794 114.954 85.7151 114.917 85.4972C114.893 85.3519 114.841 85.2148 114.76 85.1018L116.023 84.6378C116.023 84.6378 117.608 89.205 121.026 89.205C121.72 89.205 122.268 89.0033 122.704 88.6845C123.051 89.1767 123.426 89.6528 123.838 90.1087C123.164 90.6131 122.22 90.8753 121.022 90.8794H121.018ZM106.945 90.8794H106.909C105.698 90.8753 104.746 90.609 104.072 90.0926C104.476 89.6407 104.851 89.1687 105.19 88.6805C105.622 88.9992 106.174 89.201 106.864 89.201C110.282 89.201 111.867 84.6338 111.867 84.6338L113.158 85.1058C113.082 85.2188 113.029 85.3479 113.005 85.4891C112.969 85.711 112.057 90.8753 106.941 90.8753L106.945 90.8794Z" fill="white"/>
<path fill-rule="evenodd" clip-rule="evenodd" d="M138.657 107.344C143.745 103.955 153.537 95.9064 153.541 84.0809C153.541 83.8187 153.537 83.5524 153.525 83.2861C154.965 80.2804 155.615 77.1979 155.804 74.9103C156.062 75.9674 156.272 77.0365 156.442 78.1138C156.817 80.5224 156.942 82.9634 156.781 85.3761C156.607 87.7847 156.127 90.1651 155.284 92.4124C154.44 94.6556 153.23 96.7536 151.709 98.6136C150.18 100.47 148.36 102.087 146.343 103.447C145.346 104.145 144.285 104.746 143.208 105.327C142.659 105.602 142.119 105.888 141.558 106.134C141.28 106.259 141.001 106.392 140.719 106.513L139.867 106.868C139.464 107.034 139.061 107.191 138.653 107.34L138.657 107.344ZM152.564 63.6457C151.334 63.0849 149.341 62.2901 146.726 61.6244C146.593 61.3984 146.508 61.1442 146.484 60.8739C146.081 56.3471 142.466 57.5615 141.978 56.3915C141.546 55.3586 142.962 54.2007 142.962 54.2007L143.825 54.592C144.027 54.5678 144.217 54.5598 144.402 54.5598C148.397 54.5598 148.812 59.6192 148.812 59.6192C148.957 59.5828 149.111 59.5707 149.264 59.5707C151.084 59.5707 153.242 61.8382 152.613 63.5045C152.593 63.5529 152.576 63.6013 152.56 63.6457H152.564Z" fill="#BE6F00"/>
<path fill-rule="evenodd" clip-rule="evenodd" d="M85.9166 17.5303C85.9166 17.5303 85.9045 17.5303 85.8965 17.5343C85.9045 17.5343 85.9086 17.5343 85.9166 17.5303Z" fill="#A2A2D2"/>
<path fill-rule="evenodd" clip-rule="evenodd" d="M139.254 18.7324C134.239 30.7717 125.553 40.3297 125.553 40.3297C124.209 39.8576 122.704 39.5026 121.232 39.2403C116.418 38.3769 111.48 38.3769 106.667 39.2403C105.194 39.5026 103.689 39.8576 102.346 40.3297C102.346 40.3297 93.6551 30.7676 88.6441 18.7324C88.1761 17.6068 86.9415 17.1589 85.9207 17.5342C85.9853 17.514 86.0498 17.5584 86.1144 17.7157C90.7744 28.9077 98.662 39.9585 100.768 42.4034C101.095 42.7867 101.619 42.932 102.099 42.7827C103.354 42.3954 104.702 42.0887 106.025 41.8547C106.594 41.7539 107.163 41.6651 107.732 41.5844C108.402 42.6415 110.931 43.4323 113.945 43.4323C116.959 43.4323 119.489 42.6455 120.162 41.5844C120.731 41.6651 121.304 41.7498 121.869 41.8547C123.192 42.0928 124.544 42.3954 125.795 42.7827C126.275 42.932 126.795 42.7827 127.126 42.4034C129.232 39.9585 136.813 29.6622 141.477 18.4702C141.76 17.7924 142.3 18.4177 142.91 18.216C141.893 16.929 139.884 17.2235 139.25 18.7324H139.254Z" fill="#BE6F00"/>
<path fill-rule="evenodd" clip-rule="evenodd" d="M84.9848 18.2124C85.4407 18.3616 85.6868 17.6394 85.9006 17.5386C85.5577 17.6677 85.243 17.8936 84.9848 18.2124Z" fill="#A2A2D2"/>
<path fill-rule="evenodd" clip-rule="evenodd" d="M124.467 90.8472C116.733 94.9423 113.969 87.0869 113.969 87.0869C113.969 87.0869 111.206 94.9423 103.467 90.8472C103.467 90.8472 101.874 100.974 113.969 100.974C126.065 100.974 124.467 90.8472 124.467 90.8472Z" fill="black"/>
<path fill-rule="evenodd" clip-rule="evenodd" d="M113.966 86.3125C113.966 86.3125 113.958 86.3497 113.95 86.3704C113.941 86.3497 113.937 86.3332 113.933 86.3125H113.966Z" fill="#FF6C8B"/>
<path fill-rule="evenodd" clip-rule="evenodd" d="M113.965 109.148H113.949C104.851 109.148 105.464 100.861 106.715 95.7371C107.272 93.4414 107.958 91.7832 107.958 91.7832C107.958 91.7832 112.513 91.4766 113.949 86.3647C115.385 91.4766 119.94 91.7832 119.94 91.7832C119.94 91.7832 127.114 109.132 113.965 109.144V109.148Z" fill="#FF00FF"/>
<path fill-rule="evenodd" clip-rule="evenodd" d="M113.981 109.148H113.949H113.965C121.461 109.14 122.353 103.495 121.732 98.6458C121.74 98.6377 121.752 98.6297 121.76 98.6216C122.385 103.479 121.506 109.148 113.981 109.148Z" fill="#7C7CB5"/>
<path fill-rule="evenodd" clip-rule="evenodd" d="M121.732 98.6462C121.599 97.6053 121.397 96.5966 121.175 95.6929C121.187 95.705 121.203 95.7211 121.215 95.7373C121.433 96.6249 121.627 97.6053 121.76 98.622C121.748 98.6301 121.74 98.6381 121.732 98.6462Z" fill="#000072"/>
<path fill-rule="evenodd" clip-rule="evenodd" d="M113.965 109.148H113.949C107.647 109.148 106.005 105.174 106.005 101.03C106.005 99.1907 106.328 97.3146 106.715 95.7371C106.808 95.6322 106.86 95.5757 106.86 95.5757C106.86 95.5757 106.074 105.456 113.961 105.456C121.849 105.456 121.062 95.5757 121.062 95.5757C121.062 95.5757 121.098 95.616 121.167 95.6927C121.389 96.5964 121.591 97.6051 121.724 98.646C122.345 103.496 121.453 109.14 113.957 109.148H113.965Z" fill="#9800CB"/>
<path fill-rule="evenodd" clip-rule="evenodd" d="M114.913 89.3506C114.962 90.3875 114.958 91.4244 114.95 92.4653C114.934 93.5022 114.901 94.5391 114.849 95.58C114.796 96.6169 114.748 97.6538 114.639 98.6947C114.53 99.7316 114.405 100.769 114.179 101.809C114.151 101.939 114.026 102.019 113.897 101.991C113.804 101.971 113.735 101.898 113.715 101.809C113.489 100.773 113.364 99.7357 113.255 98.6947C113.146 97.6578 113.098 96.6169 113.045 95.58C112.997 94.5431 112.965 93.5062 112.945 92.4653C112.932 91.4284 112.932 90.3915 112.981 89.3506C113.005 88.818 113.457 88.4065 113.989 88.4307C114.49 88.4549 114.885 88.8584 114.909 89.3506H114.913Z" fill="black"/>
<path fill-rule="evenodd" clip-rule="evenodd" d="M108.66 92.6546C107.937 94.6194 105.557 101.866 108.131 105.711C109.229 107.349 111.185 108.18 113.949 108.18C116.713 108.18 118.674 107.349 119.771 105.711C122.345 101.866 119.965 94.6194 119.242 92.6546C118.068 92.4165 115.547 91.6015 113.953 88.862C112.359 91.6056 109.838 92.4206 108.664 92.6546H108.66ZM113.949 110.112C110.499 110.112 107.998 108.991 106.521 106.78C102.971 101.47 106.897 91.8194 107.066 91.4119C107.207 91.073 107.526 90.843 107.893 90.8188C108.046 90.8067 111.69 90.4719 112.969 86.2839C112.977 85.8684 113.255 85.4891 113.679 85.3762C113.772 85.3519 113.864 85.3439 113.953 85.3398C114.042 85.3398 114.135 85.3479 114.227 85.3762C114.651 85.4932 114.929 85.8684 114.938 86.2839C116.233 90.5122 119.973 90.8148 120.013 90.8188C120.38 90.843 120.699 91.073 120.84 91.4119C121.01 91.8194 124.935 101.47 121.385 106.78C119.908 108.991 117.407 110.112 113.957 110.112H113.949Z" fill="black"/>
<path fill-rule="evenodd" clip-rule="evenodd" d="M120.981 92.8125C117.282 92.8125 115.099 90.6782 113.965 88.5519C112.827 90.6782 110.645 92.8125 106.949 92.8125H106.905C104.94 92.8044 103.411 92.2396 102.354 91.1381C100.893 89.6171 100.946 87.632 100.95 87.5473C100.97 87.0147 101.414 86.5992 101.95 86.6153C102.483 86.6355 102.898 87.0833 102.882 87.6159C102.882 87.6199 102.866 88.8908 103.762 89.8148C104.444 90.5127 105.501 90.8718 106.913 90.8759H106.949C112.065 90.8759 112.977 85.7116 113.013 85.4897C113.09 85.0216 113.493 84.6787 113.965 84.6787C114.441 84.6787 114.841 85.0216 114.917 85.4897C114.954 85.7075 115.866 90.8718 120.981 90.8718H121.018C122.426 90.8638 123.487 90.5087 124.169 89.8107C125.068 88.8908 125.052 87.6199 125.052 87.6078C125.04 87.0793 125.46 86.6315 125.988 86.6194C126.517 86.6072 126.961 87.0147 126.981 87.5473C126.981 87.632 127.037 89.613 125.577 91.1381C124.52 92.2396 122.991 92.8004 121.026 92.8125H120.981Z" fill="black"/>
<path fill-rule="evenodd" clip-rule="evenodd" d="M116.487 78.5095C114.857 77.8842 113.041 77.8842 111.411 78.5095C110.141 78.9977 108.874 79.8975 108.874 81.5476C108.874 84.8479 111.593 87.0871 113.949 87.0871C116.305 87.0871 119.025 84.8479 119.025 81.5476C119.025 79.8975 117.754 78.9977 116.487 78.5095Z" fill="black"/>
<path fill-rule="evenodd" clip-rule="evenodd" d="M116.919 80.3052C116.919 80.6602 115.591 80.9507 113.949 80.9507C112.307 80.9507 110.98 80.6643 110.98 80.3052C110.98 79.9461 112.307 79.6597 113.949 79.6597C115.591 79.6597 116.919 79.9502 116.919 80.3052Z" fill="white"/>
<path fill-rule="evenodd" clip-rule="evenodd" d="M75.4511 64.9165C75.4349 64.848 75.3502 64.4727 75.3099 63.9482C75.3542 64.271 75.4027 64.5938 75.4511 64.9165Z" fill="#FF7C88"/>
<path fill-rule="evenodd" clip-rule="evenodd" d="M84.0689 54.5761L84.0729 54.5963C83.9801 54.5802 83.8914 54.5681 83.8026 54.556C83.2741 54.4833 82.802 54.4874 82.3865 54.5519C82.1807 54.5802 81.987 54.6286 81.8055 54.6851C81.7611 54.6972 81.7127 54.7133 81.6683 54.7294C81.5795 54.7617 81.4948 54.798 81.4141 54.8343C81.3455 54.8666 81.2769 54.9029 81.2124 54.9352C81.047 55.028 80.8937 55.1289 80.7524 55.2459C80.6556 55.3225 80.5628 55.4073 80.4781 55.496C80.3893 55.5848 80.3086 55.6735 80.236 55.7704C80.1836 55.8309 80.1392 55.8914 80.0948 55.956C80.0464 56.0246 80.002 56.0931 79.9576 56.1658C79.8326 56.3715 79.7277 56.5813 79.6349 56.7952C79.6026 56.8678 79.5743 56.9364 79.5501 57.013C79.4331 57.3318 79.3484 57.6465 79.2839 57.945C79.2839 57.9491 79.2839 57.9531 79.2839 57.9612C79.2717 58.0217 79.2596 58.0822 79.2475 58.1427C79.2475 58.1468 79.2475 58.1508 79.2475 58.1589C79.2193 58.3162 79.1991 58.4615 79.183 58.6027C79.179 58.643 79.1749 58.6793 79.1709 58.7197C79.1668 58.7681 79.1628 58.8165 79.1588 58.8609C79.1265 59.2724 79.1346 59.5387 79.1346 59.5387C77.3513 59.5387 76.3709 60.2205 75.8504 61.096C75.3057 62.0159 75.2614 63.1497 75.3219 63.9445C75.2815 63.65 75.2452 63.3595 75.2129 63.069C75.0435 61.6569 74.9305 60.2649 74.866 58.8972C73.9582 38.587 84.3352 23.2152 86.3727 20.403C86.409 20.3587 86.4372 20.3143 86.4614 20.278C86.5663 20.1368 86.643 20.0359 86.6793 19.9875C86.6914 19.9713 86.6995 19.9633 86.7035 19.9592L86.7116 19.9512C83.9479 24.8936 82.8101 30.6792 82.4994 36.0855C81.9346 45.6919 83.968 54.1202 84.081 54.5802L84.0689 54.5761Z" fill="white"/>
<path fill-rule="evenodd" clip-rule="evenodd" d="M84.0688 54.5761L84.0728 54.5963C83.98 54.5802 83.8913 54.5681 83.8025 54.556C83.274 54.4874 82.8019 54.4874 82.3864 54.5519C82.1806 54.5842 81.9869 54.6286 81.8054 54.6851C81.761 54.6972 81.7126 54.7133 81.6682 54.7294C81.5794 54.7617 81.4987 54.798 81.414 54.8343C81.3454 54.8666 81.2768 54.9029 81.2123 54.9352C81.0469 55.028 80.8935 55.1289 80.7523 55.2459C80.6515 55.3225 80.5627 55.4073 80.478 55.496C80.3892 55.5848 80.3085 55.6735 80.2359 55.7704C80.1835 55.8309 80.1391 55.8914 80.0947 55.956C80.0463 56.0246 80.0019 56.0931 79.9575 56.1658C79.8324 56.3675 79.7235 56.5813 79.6347 56.7952C79.6025 56.8678 79.5742 56.9364 79.55 57.013C79.429 57.3277 79.3443 57.6465 79.2837 57.945C79.2837 57.9491 79.2837 57.9531 79.2837 57.9612C79.2716 58.0217 79.2595 58.0822 79.2474 58.1427C79.2474 58.1468 79.2474 58.1508 79.2474 58.1589C79.2192 58.3162 79.199 58.4615 79.1829 58.6027C79.1788 58.643 79.1748 58.6793 79.1708 58.7197C79.1667 58.7681 79.1627 58.8165 79.1587 58.8609C79.1264 59.2724 79.1345 59.5387 79.1345 59.5387C77.4077 59.7162 76.4071 60.3375 75.8503 61.096C75.3984 61.7133 75.237 62.4275 75.2088 63.069C75.0393 61.6569 74.9264 60.2649 74.8618 58.8972C75.3097 58.3566 75.8826 58.0055 76.3344 57.7877C76.7783 57.5738 77.0607 57.1341 77.0768 56.6378C77.1615 53.6482 78.7633 52.2925 79.776 51.7358C80.248 51.4735 80.5183 50.949 80.4376 50.4165C77.9241 33.5478 84.7385 22.7108 86.3645 20.403C86.4008 20.3587 86.429 20.3143 86.4532 20.278C86.5581 20.1368 86.6348 20.0359 86.6711 19.9875C86.6832 19.9713 86.6913 19.9633 86.6953 19.9592L86.7034 19.9512C84.1414 25.6036 82.9391 31.1472 82.4912 36.0855C81.5472 46.4545 83.9397 54.1606 84.0728 54.5802L84.0688 54.5761Z" fill="white"/>
<path fill-rule="evenodd" clip-rule="evenodd" d="M86.8205 20.0077C86.0741 22.0129 85.477 24.0584 84.9484 26.112L84.5692 27.6573C84.4602 28.1778 84.3392 28.6902 84.2343 29.2106C84.0164 30.2475 83.847 31.2925 83.6937 32.3374C83.5484 33.3864 83.4193 34.4354 83.3427 35.4885C83.3225 35.7507 83.2942 36.013 83.2741 36.2792L83.2257 37.07C83.1853 37.5945 83.1772 38.1231 83.1571 38.6516C83.1046 40.7657 83.1692 42.8758 83.3507 44.9819C83.5363 47.0879 83.851 49.1779 84.2746 51.2436C84.3876 51.76 84.4845 52.2805 84.6136 52.7888L84.9968 54.326V54.3502C84.9968 54.326 85.0251 54.4309 85.0291 54.4834C85.0372 54.5479 85.0412 54.6125 85.0372 54.6811C85.0211 54.9473 84.896 55.2015 84.7023 55.379C84.5087 55.5606 84.2222 55.6615 83.9519 55.6453C83.8994 55.6453 83.7905 55.6252 83.8147 55.6292H83.8066L83.7865 55.6252L83.6251 55.6009C83.5161 55.5848 83.4032 55.5767 83.2902 55.5687C83.0643 55.5525 82.8424 55.5566 82.6205 55.5687C82.1847 55.605 81.7732 55.6978 81.4383 55.8753C81.0954 56.0448 80.8372 56.2868 80.6233 56.5894C80.4176 56.8961 80.2723 57.2874 80.1916 57.7151C80.1109 58.1468 80.0867 58.6188 80.1069 59.0989L80.115 59.2805V59.3249V59.3491C80.115 59.3773 80.119 59.45 80.115 59.5024C80.1029 59.7203 80.0262 59.9422 79.889 60.1197C79.7519 60.3013 79.5501 60.4465 79.3202 60.5151C79.2193 60.5514 79.0418 60.5635 79.074 60.5595H79.0337L78.8723 60.5796C78.6545 60.6079 78.4325 60.6523 78.2227 60.7128C77.7991 60.8298 77.4118 61.0114 77.085 61.2333C76.7582 61.4592 76.4838 61.7295 76.2781 62.0846C76.0683 62.4356 75.9351 62.8673 75.8544 63.3393C75.7737 63.8154 75.7616 64.3238 75.7576 64.8604V64.8684C75.7576 65.046 75.6124 65.1872 75.4348 65.1872C75.3098 65.1872 75.2008 65.1145 75.1484 65.0096C74.8982 64.4972 74.7167 63.9405 74.64 63.3434C74.6077 63.0408 74.5835 62.7341 74.6158 62.4154C74.6239 62.258 74.6521 62.0967 74.6804 61.9353C74.7207 61.7779 74.757 61.6125 74.8135 61.4552C75.0193 60.8137 75.4429 60.2286 75.9593 59.7929C76.4798 59.3531 77.085 59.0747 77.6902 58.8932C77.9928 58.8004 78.2994 58.7358 78.6141 58.6915C78.6908 58.6794 78.7715 58.6713 78.8521 58.6632L78.9127 58.6551C78.9772 58.6471 78.832 58.6592 78.7674 58.6834C78.602 58.7318 78.4568 58.8367 78.3599 58.9658C78.2631 59.0949 78.2106 59.2442 78.1985 59.3975C78.1985 59.4298 78.1985 59.4863 78.1985 59.4984V59.4701L78.1945 59.4136L78.1824 59.1917C78.1501 58.6027 78.1663 57.9935 78.2752 57.3681C78.3882 56.7468 78.598 56.0972 78.9853 55.5082C79.1789 55.2136 79.413 54.9393 79.6833 54.7053C79.9536 54.4672 80.2522 54.2776 80.5669 54.1243C81.1922 53.8136 81.8499 53.6805 82.4833 53.6361C82.802 53.6159 83.1127 53.6159 83.4233 53.6401C83.5767 53.6522 83.734 53.6684 83.8914 53.6886C83.968 53.7007 84.0487 53.7128 84.1294 53.7289H84.1576L84.1738 53.737C84.2061 53.745 84.1052 53.7249 84.0608 53.7249C83.8268 53.7087 83.5726 53.8015 83.4032 53.9548C83.2297 54.1081 83.1248 54.3341 83.1086 54.5641C83.1086 54.6246 83.1087 54.677 83.1127 54.7335C83.1127 54.7779 83.1409 54.8747 83.1329 54.8424V54.8182L82.7496 53.2246C82.6205 52.696 82.5277 52.1554 82.4147 51.6228C81.9991 49.4805 81.7006 47.3139 81.5352 45.1352C81.3657 42.9605 81.3294 40.7738 81.4343 38.5911C81.4625 38.0464 81.4867 37.5017 81.5352 36.9571L81.6037 36.1421C81.628 35.8717 81.6602 35.6014 81.6885 35.3311C81.8055 34.2458 81.9749 33.1686 82.1605 32.0954C82.5599 29.953 83.0683 27.8308 83.7784 25.7691C84.1334 24.7403 84.5369 23.7276 84.9968 22.7391C85.4568 21.7547 85.9611 20.7904 86.5824 19.8866C86.6228 19.8261 86.7035 19.81 86.764 19.8544C86.8165 19.8907 86.8326 19.9552 86.8124 20.0077V20.0158L86.8205 20.0077Z" fill="#984200"/>
<path fill-rule="evenodd" clip-rule="evenodd" d="M152.443 64.9165C152.459 64.848 152.544 64.4727 152.584 63.9482C152.54 64.271 152.492 64.5938 152.443 64.9165Z" fill="#FF7C88"/>
<path fill-rule="evenodd" clip-rule="evenodd" d="M143.829 54.5761L143.825 54.5963C143.918 54.5802 144.007 54.5681 144.096 54.556C144.624 54.4833 145.096 54.4874 145.512 54.5519C145.718 54.5802 145.911 54.6286 146.093 54.6851C146.137 54.6972 146.186 54.7133 146.23 54.7294C146.319 54.7617 146.403 54.798 146.484 54.8343C146.553 54.8666 146.621 54.9029 146.686 54.9352C146.851 55.028 147.005 55.1289 147.146 55.2459C147.243 55.3225 147.335 55.4073 147.424 55.496C147.513 55.5848 147.59 55.6735 147.666 55.7704C147.719 55.8309 147.763 55.8914 147.808 55.956C147.856 56.0246 147.9 56.0931 147.945 56.1658C148.07 56.3715 148.175 56.5813 148.267 56.7952C148.3 56.8678 148.328 56.9364 148.352 57.013C148.469 57.3318 148.554 57.6465 148.618 57.945C148.618 57.9491 148.618 57.9531 148.618 57.9612C148.631 58.0217 148.643 58.0822 148.651 58.1427C148.651 58.1468 148.651 58.1508 148.651 58.1589C148.679 58.3162 148.699 58.4615 148.715 58.6027C148.715 58.643 148.723 58.6793 148.727 58.7197C148.731 58.7681 148.731 58.8165 148.74 58.8609C148.776 59.2724 148.764 59.5387 148.764 59.5387C150.547 59.5387 151.527 60.2205 152.048 61.096C152.593 62.0159 152.637 63.1497 152.576 63.9445C152.617 63.65 152.657 63.3595 152.685 63.069C152.855 61.6569 152.968 60.2649 153.032 58.8972C153.94 38.587 143.563 23.2152 141.526 20.403C141.489 20.3587 141.461 20.3143 141.437 20.278C141.332 20.1368 141.255 20.0359 141.219 19.9875C141.207 19.9713 141.199 19.9633 141.195 19.9592L141.187 19.9512C143.95 24.8936 145.088 30.6792 145.399 36.0855C145.964 45.6919 143.93 54.1202 143.817 54.5802L143.829 54.5761Z" fill="white"/>
<path fill-rule="evenodd" clip-rule="evenodd" d="M143.829 54.5761L143.825 54.5963C143.918 54.5802 144.007 54.5681 144.096 54.556C144.624 54.4874 145.096 54.4874 145.512 54.5519C145.718 54.5842 145.911 54.6286 146.093 54.6851C146.137 54.6972 146.186 54.7133 146.23 54.7294C146.319 54.7617 146.399 54.798 146.484 54.8343C146.553 54.8666 146.617 54.9029 146.686 54.9352C146.851 55.028 147.005 55.1289 147.146 55.2459C147.247 55.3225 147.34 55.4073 147.424 55.496C147.513 55.5848 147.59 55.6735 147.666 55.7704C147.719 55.8309 147.763 55.8914 147.808 55.956C147.856 56.0246 147.9 56.0931 147.945 56.1658C148.07 56.3675 148.179 56.5813 148.268 56.7952C148.3 56.8678 148.328 56.9364 148.352 57.013C148.473 57.3277 148.558 57.6465 148.619 57.945C148.619 57.9491 148.619 57.9531 148.619 57.9612C148.631 58.0217 148.643 58.0822 148.651 58.1427C148.651 58.1468 148.651 58.1508 148.651 58.1589C148.683 58.3162 148.703 58.4615 148.715 58.6027C148.715 58.643 148.723 58.6793 148.727 58.7197C148.731 58.7681 148.736 58.8165 148.74 58.8609C148.776 59.2724 148.764 59.5387 148.764 59.5387C150.495 59.7162 151.491 60.3375 152.048 61.096C152.5 61.7133 152.657 62.4275 152.685 63.069C152.855 61.6569 152.968 60.2649 153.032 58.8972C152.581 58.3566 152.012 58.0055 151.556 57.7877C151.112 57.5738 150.829 57.1341 150.813 56.6378C150.729 53.6482 149.127 52.2925 148.114 51.7358C147.642 51.4735 147.372 50.949 147.453 50.4165C149.966 33.5478 143.152 22.7108 141.522 20.403C141.485 20.3587 141.457 20.3143 141.433 20.278C141.328 20.1368 141.251 20.0359 141.215 19.9875C141.203 19.9713 141.195 19.9633 141.191 19.9592L141.183 19.9512C143.745 25.6036 144.947 31.1472 145.395 36.0855C146.339 46.4545 143.946 54.1606 143.813 54.5802L143.829 54.5761Z" fill="#E5E5E5"/>
<path fill-rule="evenodd" clip-rule="evenodd" d="M125.557 111.004C126.17 110.843 126.779 110.702 127.392 110.561C128.002 110.423 128.607 110.258 129.22 110.125C129.829 109.984 130.431 109.814 131.036 109.669C131.641 109.524 132.238 109.342 132.839 109.189C135.232 108.527 137.596 107.801 139.876 106.873L140.727 106.518C141.009 106.397 141.284 106.264 141.566 106.139C142.127 105.893 142.667 105.606 143.216 105.332C144.293 104.755 145.354 104.15 146.351 103.452C148.368 102.092 150.188 100.474 151.717 98.6182C153.238 96.7583 154.449 94.6603 155.292 92.417C156.131 90.1698 156.615 87.7894 156.789 85.3807C156.95 82.968 156.825 80.5271 156.45 78.1184C156.264 76.9121 156.022 75.7138 155.719 74.5316C155.566 73.9426 155.405 73.3535 155.223 72.7726C155.134 72.4821 155.042 72.1916 154.945 71.9051C154.848 71.6227 154.739 71.3241 154.642 71.078L154.634 71.0579C154.574 70.9086 154.553 70.7512 154.57 70.6019C155.276 63.5858 155.255 56.4929 154.327 49.5171C153.395 42.5494 151.536 35.6946 148.57 29.336C147.085 26.1648 145.346 23.1066 143.289 20.2905C143.035 19.9354 142.768 19.5925 142.506 19.2455L142.304 18.9873L142.203 18.8582L142.155 18.7977L142.123 18.7654C142.078 18.721 142.042 18.6685 141.99 18.6363L141.921 18.5757C141.893 18.5596 141.869 18.5475 141.844 18.5314C141.643 18.4023 141.397 18.3498 141.15 18.374C141.025 18.374 140.908 18.4184 140.791 18.4587C140.682 18.5152 140.569 18.5677 140.485 18.6524C140.388 18.725 140.315 18.8259 140.247 18.9268C140.21 18.9792 140.19 19.0397 140.158 19.0922L140.025 19.3948L139.48 20.6374C139.129 21.4726 138.71 22.2714 138.322 23.0864C136.72 26.3222 134.86 29.4127 132.851 32.3943C132.355 33.1447 131.826 33.8709 131.314 34.6093C130.782 35.3315 130.257 36.0617 129.708 36.7758C129.438 37.1349 129.16 37.49 128.881 37.845C128.607 38.2001 128.324 38.5511 128.038 38.898C127.469 39.6001 126.9 40.2819 126.279 40.9759C126.017 41.2704 125.609 41.3632 125.258 41.2421H125.246C123.487 40.6289 121.591 40.2416 119.694 39.9672C117.798 39.6888 115.878 39.5597 113.961 39.5557C112.045 39.5597 110.124 39.6929 108.228 39.9672C106.332 40.2416 104.44 40.6248 102.676 41.2341H102.664C102.289 41.3672 101.89 41.2502 101.644 40.9718C101.026 40.2779 100.453 39.596 99.8845 38.894C99.5981 38.543 99.3156 38.196 99.0413 37.841C98.7629 37.4859 98.4845 37.1349 98.2142 36.7758C97.6655 36.0617 97.137 35.3355 96.6044 34.6093C96.088 33.8709 95.5594 33.1447 95.0672 32.3943C93.058 29.4127 91.198 26.3222 89.5963 23.0864C89.209 22.2714 88.7894 21.4726 88.4384 20.6374L87.8937 19.3948L87.7605 19.0922C87.7283 19.0397 87.7081 18.9752 87.6718 18.9268C87.6032 18.8259 87.5306 18.725 87.4337 18.6524C87.345 18.5677 87.236 18.5152 87.1271 18.4587C87.0101 18.4224 86.8931 18.3781 86.768 18.374C86.5219 18.3498 86.2758 18.4063 86.0741 18.5314C86.0499 18.5475 86.0216 18.5636 85.9974 18.5757L85.9288 18.6363C85.8764 18.6685 85.8401 18.721 85.7957 18.7654L85.7634 18.7977L85.715 18.8582L85.6141 18.9873L85.4124 19.2455C85.1461 19.5884 84.8839 19.9354 84.6297 20.2905C82.572 23.1066 80.8331 26.1648 79.3484 29.336C76.383 35.6905 74.523 42.5494 73.591 49.5131C72.6631 56.4889 72.6429 63.5777 73.3489 70.5979C73.361 70.7633 73.3368 70.9166 73.2804 71.0619V71.074C73.1755 71.3241 73.0665 71.6227 72.9697 71.9011C72.8729 72.1875 72.776 72.474 72.6873 72.7685C72.5097 73.3495 72.3443 73.9386 72.195 74.5276C71.8924 75.7098 71.6504 76.908 71.4648 78.1103C71.0896 80.519 70.9645 82.9599 71.1259 85.3726C71.2994 87.7813 71.7795 90.1617 72.6227 92.409C73.4659 94.6522 74.6763 96.7502 76.1974 98.6102C77.7265 100.466 79.5501 102.084 81.5634 103.444C82.5599 104.138 83.6251 104.743 84.6983 105.32C85.247 105.594 85.7876 105.881 86.3484 106.127C86.6268 106.252 86.9052 106.385 87.1876 106.506L88.0389 106.857C90.3185 107.781 92.6828 108.519 95.0753 109.177C97.4678 109.847 99.9047 110.387 102.354 110.972C102.414 110.988 102.455 111.049 102.438 111.109C102.426 111.162 102.378 111.198 102.325 111.198C99.7998 111.174 97.2782 110.9 94.7808 110.448C94.1554 110.339 93.5381 110.194 92.9168 110.06C92.2954 109.923 91.6822 109.75 91.0649 109.596C90.4557 109.415 89.8424 109.237 89.2372 109.04L88.3335 108.729L87.8816 108.572L87.4337 108.398L86.5381 108.051C86.2395 107.934 85.949 107.801 85.6545 107.676C85.0614 107.434 84.4844 107.147 83.9075 106.873C82.7617 106.292 81.6239 105.683 80.5467 104.969C78.372 103.573 76.3789 101.854 74.6844 99.8649C72.9899 97.8759 71.6383 95.5761 70.7022 93.1352C70.2302 91.9127 69.859 90.6539 69.5847 89.379C69.3143 88.104 69.1368 86.8089 69.044 85.5138C68.8584 82.9196 69.0198 80.3213 69.4354 77.7795C69.6411 76.5086 69.9195 75.2498 70.2584 74.0031C70.4239 73.3818 70.6135 72.7645 70.8192 72.1512C70.9201 71.8446 71.029 71.538 71.142 71.2354C71.259 70.9247 71.368 70.6383 71.5092 70.3074L71.4365 70.7835C70.7184 63.6382 70.7345 56.3961 71.6867 49.2508C72.6429 42.1136 74.5472 35.0692 77.6054 28.513C79.1386 25.2369 80.934 22.0778 83.0764 19.1446C83.3426 18.7775 83.617 18.4144 83.8954 18.0553L84.1052 17.785L84.2101 17.6518L84.2666 17.5832L84.3473 17.4945C84.4522 17.3775 84.5611 17.2564 84.6902 17.1556L84.8798 17.0023L85.0856 16.8691C85.36 16.6956 85.6706 16.5827 85.9853 16.502C86.3041 16.4374 86.6268 16.4051 86.9456 16.4414C87.2683 16.4616 87.579 16.5504 87.8775 16.6674C88.1721 16.8005 88.4545 16.9579 88.6966 17.1757C88.9467 17.3815 89.1525 17.6397 89.326 17.91C89.4147 18.0472 89.4753 18.1925 89.5479 18.3337L89.685 18.6403L90.2136 19.8426C90.5525 20.6495 90.96 21.4282 91.3352 22.223C92.8926 25.37 94.7081 28.3919 96.677 31.309C97.1612 32.0433 97.6816 32.7574 98.1819 33.4796C98.7024 34.1897 99.2188 34.9038 99.7554 35.6018C100.022 35.9528 100.292 36.2998 100.562 36.6467C100.833 36.9937 101.107 37.3366 101.385 37.6756C101.938 38.3574 102.511 39.0393 103.076 39.6727L102.039 39.4104C103.992 38.7367 105.969 38.3413 107.954 38.0508C109.943 37.7603 111.952 37.6231 113.961 37.6191C115.97 37.6231 117.98 37.7603 119.969 38.0508C121.954 38.3372 123.931 38.7367 125.884 39.4104L124.847 39.6727C125.411 39.0393 125.984 38.3534 126.537 37.6756C126.815 37.3366 127.09 36.9937 127.36 36.6467C127.635 36.2998 127.905 35.9528 128.167 35.6018C128.704 34.9038 129.22 34.1897 129.741 33.4796C130.245 32.7574 130.765 32.0433 131.25 31.309C133.218 28.3919 135.034 25.366 136.591 22.219C136.967 21.4282 137.378 20.6495 137.713 19.8426L138.241 18.6403L138.379 18.3337C138.451 18.1925 138.512 18.0432 138.601 17.91C138.774 17.6397 138.98 17.3815 139.23 17.1757C139.472 16.9579 139.759 16.8005 140.049 16.6674C140.348 16.5504 140.662 16.4616 140.981 16.4414C141.3 16.4051 141.627 16.4414 141.941 16.502C142.256 16.5827 142.567 16.6956 142.841 16.8691L143.047 16.9982L143.236 17.1515C143.365 17.2524 143.47 17.3694 143.579 17.4904L143.66 17.5792L143.716 17.6478L143.821 17.7809L144.031 18.0513C144.31 18.4103 144.584 18.7734 144.85 19.1406C146.993 22.0778 148.788 25.2369 150.321 28.5089C153.379 35.0652 155.288 42.1096 156.244 49.2468C157.192 56.3921 157.212 63.6342 156.494 70.7795L156.421 70.3034C156.563 70.6342 156.672 70.9247 156.789 71.2354C156.902 71.538 157.01 71.8446 157.111 72.1512C157.313 72.7645 157.503 73.3818 157.672 74.0031C158.007 75.2458 158.289 76.5046 158.495 77.7755C158.911 80.3173 159.068 82.9196 158.887 85.5098C158.794 86.8049 158.616 88.1 158.346 89.375C158.072 90.6499 157.7 91.9087 157.228 93.1312C156.288 95.5761 154.941 97.8718 153.246 99.8609C151.552 101.85 149.559 103.569 147.384 104.965C146.303 105.679 145.165 106.288 144.019 106.869C143.438 107.143 142.861 107.43 142.268 107.672C141.974 107.797 141.683 107.93 141.384 108.047L140.489 108.394L140.041 108.568L139.589 108.725L138.685 109.036C138.08 109.233 137.467 109.411 136.858 109.596C136.24 109.758 135.627 109.923 135.01 110.064C134.388 110.193 133.771 110.343 133.146 110.448L132.21 110.609C131.895 110.662 131.584 110.718 131.27 110.754C130.64 110.835 130.015 110.92 129.386 110.976C128.756 111.037 128.127 111.085 127.497 111.125C126.864 111.15 126.235 111.174 125.601 111.178C125.549 111.178 125.504 111.134 125.504 111.081C125.504 111.037 125.532 110.996 125.577 110.988L125.557 111.004Z" fill="black"/>
<path fill-rule="evenodd" clip-rule="evenodd" d="M82.3501 52.9865C97.2862 56.5127 107.316 63.0367 107.316 70.5047C107.316 73.2684 105.94 75.9071 103.447 78.3077C109.826 74.269 116.89 74.4304 124.56 78.3077C122.071 75.903 120.691 73.2684 120.691 70.5047C120.691 63.1254 130.491 56.662 145.145 53.1075C144.18 52.1231 143.152 51.183 142.066 50.2954H85.2268C84.2141 51.1467 83.2538 52.0464 82.3501 52.9825V52.9865Z" fill="#9355F7"/>
<path fill-rule="evenodd" clip-rule="evenodd" d="M90.9641 51.6792C102.176 51.6792 111.27 60.7692 111.27 71.9854C111.27 83.2015 102.18 92.2915 90.9641 92.2915C80.5427 92.2915 71.953 84.4361 70.7951 74.3254L68.8827 74.1035C68.4913 74.0591 68.2089 73.7001 68.2533 73.3087L69.2982 64.36C69.3426 63.9686 69.7017 63.6862 70.0931 63.7306L72.3 63.9888C75.4066 56.7547 82.5923 51.6832 90.9681 51.6832L90.9641 51.6792Z" fill="black"/>
<path fill-rule="evenodd" clip-rule="evenodd" d="M136.95 51.6792C125.738 51.6792 116.644 60.7692 116.644 71.9854C116.644 83.2015 125.734 92.2915 136.95 92.2915C147.372 92.2915 155.961 84.4361 157.119 74.3254L159.032 74.1035C159.423 74.0591 159.706 73.7001 159.661 73.3087L158.616 64.36C158.572 63.9686 158.213 63.6862 157.821 63.7306L155.614 63.9888C152.508 56.7547 145.322 51.6832 136.946 51.6832L136.95 51.6792Z" fill="black"/>
<path fill-rule="evenodd" clip-rule="evenodd" d="M134.937 51.7803H92.9774C103.245 52.793 111.27 61.4512 111.27 71.9856C111.27 74.7493 110.718 77.3879 109.717 79.7885C112.279 75.7498 115.119 75.9112 118.206 79.7885C117.205 77.3839 116.652 74.7493 116.652 71.9856C116.652 61.4512 124.677 52.7889 134.945 51.7803H134.937Z" fill="black"/>
<path d="M100.948 86.9391C109.879 82.0981 113.195 70.9337 108.354 62.0028C103.512 53.0718 92.3481 49.7563 83.4172 54.5973C74.4863 59.4384 71.1708 70.6027 76.0118 79.5337C80.8528 88.4646 92.0172 91.7801 100.948 86.9391Z" fill="#333333"/>
<path fill-rule="evenodd" clip-rule="evenodd" d="M135.732 52.373C125.573 52.373 117.338 60.6077 117.338 70.7668C117.338 80.9259 125.573 89.1606 135.732 89.1606C145.891 89.1606 154.126 80.9259 154.126 70.7668C154.126 60.6077 145.891 52.373 135.732 52.373Z" fill="#333333"/>
<path fill-rule="evenodd" clip-rule="evenodd" d="M92.9733 51.7803H112.715V57.8281H105.513C102.261 54.4875 97.8754 52.2644 92.9733 51.7803Z" fill="#4D4D4D"/>
<path fill-rule="evenodd" clip-rule="evenodd" d="M94.8735 54.2168H110.314V55.3909H97.9035C96.9312 54.9672 95.9185 54.5759 94.8735 54.2168Z" fill="white"/>
<path d="M107.499 72.1061C108.729 63.7578 102.958 55.9933 94.6099 54.7635C86.2616 53.5337 78.4971 59.3044 77.2673 67.6526C76.0375 76.0009 81.8082 83.7655 90.1565 84.9953C98.5048 86.2251 106.269 80.4544 107.499 72.1061Z" fill="#666666"/>
<path d="M147.531 79.3369C152.754 72.7092 151.615 63.1023 144.987 57.8793C138.359 52.6563 128.753 53.7951 123.53 60.4228C118.307 67.0505 119.445 76.6574 126.073 81.8804C132.701 87.1034 142.308 85.9647 147.531 79.3369Z" fill="#666666"/>
<path fill-rule="evenodd" clip-rule="evenodd" d="M93.1869 55.0767C100.917 55.0767 107.183 61.3424 107.183 69.0727C107.183 76.803 100.917 83.0687 93.1869 83.0687C85.4566 83.0687 79.1909 76.803 79.1909 69.0727C79.1909 61.3424 85.4566 55.0767 93.1869 55.0767Z" fill="#1A1A1A"/>
<path fill-rule="evenodd" clip-rule="evenodd" d="M134.727 55.0767C126.997 55.0767 120.731 61.3424 120.731 69.0727C120.731 76.803 126.997 83.0687 134.727 83.0687C142.458 83.0687 148.723 76.803 148.723 69.0727C148.723 61.3424 142.458 55.0767 134.727 55.0767Z" fill="#1A1A1A"/>
<path fill-rule="evenodd" clip-rule="evenodd" d="M134.647 56.5894C127.796 56.5894 122.244 62.141 122.244 68.9917C122.244 75.8425 127.796 81.3941 134.647 81.3941C141.497 81.3941 147.049 75.8425 147.049 68.9917C147.049 62.141 141.497 56.5894 134.647 56.5894Z" fill="url(#paint0_linear_41_515)"/>
<path fill-rule="evenodd" clip-rule="evenodd" d="M93.2679 56.5894C86.4171 56.5894 80.8655 62.141 80.8655 68.9917C80.8655 75.8425 86.4171 81.3941 93.2679 81.3941C100.119 81.3941 105.67 75.8425 105.67 68.9917C105.67 62.141 100.119 56.5894 93.2679 56.5894Z" fill="url(#paint1_linear_41_515)"/>
<path fill-rule="evenodd" clip-rule="evenodd" d="M81.507 80.0708C82.7416 80.0708 83.7421 81.0714 83.7421 82.306C83.7421 83.5406 82.7416 84.5411 81.507 84.5411C80.2724 84.5411 79.2718 83.5406 79.2718 82.306C79.2718 81.0714 80.2724 80.0708 81.507 80.0708Z" fill="#1A1A1A"/>
<path fill-rule="evenodd" clip-rule="evenodd" d="M81.507 80.4697C82.5196 80.4697 83.3427 81.2928 83.3427 82.3055C83.3427 83.3182 82.5196 84.1412 81.507 84.1412C80.4943 84.1412 79.6712 83.3182 79.6712 82.3055C79.6712 81.2928 80.4943 80.4697 81.507 80.4697Z" fill="white"/>
<path fill-rule="evenodd" clip-rule="evenodd" d="M76.8388 83.0442L86.0175 89.552C86.3282 89.7739 86.4008 90.2056 86.1749 90.5122L84.9766 92.1745C84.7547 92.4811 84.319 92.5537 84.0083 92.3359L74.8296 85.828C74.5189 85.6061 74.4463 85.1744 74.6722 84.8678L75.8705 83.2055C76.0924 82.8989 76.5282 82.8263 76.8388 83.0442Z" fill="#333333"/>
<path fill-rule="evenodd" clip-rule="evenodd" d="M77.4925 84.2185L84.6822 89.3182C84.9242 89.4917 84.9807 89.8306 84.8072 90.0687L84.1093 91.0329C83.9358 91.275 83.5928 91.3315 83.3507 91.158L76.157 86.0583C75.915 85.8848 75.8585 85.5459 76.032 85.3038L76.73 84.3395C76.9034 84.0974 77.2464 84.041 77.4885 84.2144L77.4925 84.2185Z" fill="black"/>
<path fill-rule="evenodd" clip-rule="evenodd" d="M134.937 51.7803H115.196V57.8281H122.398C125.645 54.4875 130.035 52.2644 134.937 51.7803Z" fill="#4D4D4D"/>
<path fill-rule="evenodd" clip-rule="evenodd" d="M133.037 54.2168H117.596V55.3909H130.007C130.979 54.9672 131.992 54.5759 133.037 54.2168Z" fill="white"/>
<path fill-rule="evenodd" clip-rule="evenodd" d="M146.407 80.0708C145.173 80.0708 144.172 81.0714 144.172 82.306C144.172 83.5406 145.173 84.5411 146.407 84.5411C147.642 84.5411 148.643 83.5406 148.643 82.306C148.643 81.0714 147.642 80.0708 146.407 80.0708Z" fill="#1A1A1A"/>
<path fill-rule="evenodd" clip-rule="evenodd" d="M146.408 80.4697C145.395 80.4697 144.572 81.2928 144.572 82.3055C144.572 83.3182 145.395 84.1412 146.408 84.1412C147.42 84.1412 148.243 83.3182 148.243 82.3055C148.243 81.2928 147.42 80.4697 146.408 80.4697Z" fill="white"/>
<path fill-rule="evenodd" clip-rule="evenodd" d="M151.072 83.0442L141.893 89.552C141.582 89.7739 141.51 90.2056 141.736 90.5122L142.934 92.1745C143.156 92.4811 143.591 92.5537 143.902 92.3359L153.081 85.828C153.391 85.6061 153.464 85.1744 153.238 84.8678L152.04 83.2055C151.818 82.8989 151.382 82.8263 151.072 83.0442Z" fill="#333333"/>
<path fill-rule="evenodd" clip-rule="evenodd" d="M150.418 84.2185L143.228 89.3182C142.986 89.4917 142.93 89.8306 143.103 90.0687L143.801 91.0329C143.975 91.275 144.318 91.3315 144.56 91.158L151.749 86.0583C151.991 85.8848 152.048 85.5459 151.874 85.3038L151.176 84.3395C151.003 84.0974 150.66 84.041 150.418 84.2144V84.2185Z" fill="black"/>
<path fill-rule="evenodd" clip-rule="evenodd" d="M131.657 53.8901C131.201 53.8901 130.83 54.2613 130.83 54.7172C130.83 55.1731 131.201 55.5443 131.657 55.5443C132.113 55.5443 132.484 55.1731 132.484 54.7172C132.484 54.2613 132.113 53.8901 131.657 53.8901Z" fill="black"/>
<path fill-rule="evenodd" clip-rule="evenodd" d="M96.3905 53.8901C95.9346 53.8901 95.5634 54.2613 95.5634 54.7172C95.5634 55.1731 95.9346 55.5443 96.3905 55.5443C96.8464 55.5443 97.2176 55.1731 97.2176 54.7172C97.2176 54.2613 96.8464 53.8901 96.3905 53.8901Z" fill="black"/>
<path fill-rule="evenodd" clip-rule="evenodd" d="M96.8667 57.1219L87.7767 80.1192C86.0136 79.2477 84.4885 77.9727 83.3225 76.4114L91.0811 56.783C91.7911 56.6579 92.5174 56.5894 93.2638 56.5894C94.5145 56.5894 95.7249 56.775 96.8626 57.1219H96.8667Z" fill="white"/>
<path fill-rule="evenodd" clip-rule="evenodd" d="M100.76 59.1109L91.9808 81.3294C91.0367 81.2326 90.1249 81.0309 89.2574 80.7323L98.3676 57.6826C99.2229 58.0699 100.026 58.5501 100.764 59.1109H100.76Z" fill="white"/>
<path fill-rule="evenodd" clip-rule="evenodd" d="M138.302 57.1374L129.208 80.1427C127.445 79.2793 125.916 78.0125 124.746 76.4632L132.528 56.7743C133.218 56.6573 133.924 56.5928 134.651 56.5928C135.922 56.5928 137.148 56.7864 138.302 57.1415V57.1374Z" fill="white"/>
<path fill-rule="evenodd" clip-rule="evenodd" d="M142.187 59.1474L133.416 81.3377C132.472 81.2449 131.56 81.0472 130.689 80.7527L139.795 57.707C140.646 58.0984 141.449 58.5825 142.183 59.1474H142.187Z" fill="white"/>
<path fill-rule="evenodd" clip-rule="evenodd" d="M125.795 41.2657C128.934 45.8248 134.312 48.3989 139.597 50.2992H142.066C142.607 50.739 143.135 51.1949 143.644 51.6629C143.644 51.6629 146.541 40.6484 144.6 31.9054C142.655 23.1665 140.622 18.5469 140.622 18.5469C140.569 18.5792 140.521 18.6114 140.477 18.6558C140.38 18.7284 140.307 18.8293 140.239 18.9302C140.202 18.9826 140.182 19.0431 140.15 19.0956L140.017 19.3982L139.472 20.6408C139.121 21.476 138.701 22.2748 138.314 23.0898C136.712 26.3256 134.852 29.4161 132.843 32.3977C132.347 33.1481 131.818 33.8743 131.306 34.6127C130.773 35.3349 130.249 36.0651 129.7 36.7752C129.43 37.1343 129.152 37.4893 128.873 37.8444C128.599 38.1994 128.316 38.5504 128.03 38.8974C127.461 39.5994 126.892 40.2813 126.271 40.9752C126.142 41.1205 125.976 41.2173 125.799 41.2617L125.795 41.2657Z" fill="#333333"/>
<path fill-rule="evenodd" clip-rule="evenodd" d="M144.128 49.5203C144.858 45.8891 146.02 38.292 144.604 31.9052C143.535 27.0959 142.438 23.5334 141.667 21.3022C141.501 21.6371 141.336 21.972 141.179 22.3069C139.577 25.5426 137.717 28.6331 135.708 31.6147C135.212 32.3651 134.683 33.0914 134.171 33.8297C128.417 40.7974 132.065 44.1099 144.132 49.5162L144.128 49.5203Z" fill="url(#paint2_linear_41_515)"/>
<path fill-rule="evenodd" clip-rule="evenodd" d="M141.308 19.8786C141.929 20.7823 142.433 21.7466 142.893 22.731C143.353 23.7195 143.757 24.7322 144.112 25.757C144.826 27.8146 145.33 29.9409 145.73 32.0832C145.915 33.1565 146.085 34.2337 146.202 35.319C146.23 35.5893 146.262 35.8596 146.286 36.13L146.355 36.9449C146.407 37.4896 146.428 38.0343 146.46 38.579C146.569 40.7576 146.533 42.9444 146.359 45.1231C146.194 47.2977 145.895 49.4684 145.48 51.6107C145.367 52.1433 145.274 52.6839 145.145 53.2125L145.104 53.3819C144.975 53.3254 144.846 53.2689 144.713 53.2165C144.858 53.1802 144.999 53.1439 145.145 53.1076C144.628 52.5831 144.096 52.0666 143.543 51.5704C143.567 51.4614 143.591 51.3485 143.616 51.2395C144.039 49.1698 144.354 47.0799 144.539 44.9778C144.725 42.8758 144.79 40.7617 144.733 38.6475C144.713 38.119 144.705 37.5905 144.665 37.066L144.616 36.2752C144.6 36.0089 144.572 35.7507 144.548 35.4844C144.471 34.4274 144.338 33.3784 144.197 32.3334C144.043 31.2884 143.874 30.2435 143.656 29.2066C143.555 28.6861 143.434 28.1737 143.321 27.6533L142.942 26.108C142.413 24.0544 141.816 22.0088 141.07 20.0036V19.9956C141.041 19.927 141.078 19.8544 141.146 19.8261C141.203 19.806 141.267 19.8261 141.3 19.8745L141.308 19.8786Z" fill="#666666"/>
<path fill-rule="evenodd" clip-rule="evenodd" d="M140.335 42.1537C141.526 42.1537 142.498 41.1814 142.498 39.9912C142.498 38.801 141.526 37.8286 140.335 37.8286C139.145 37.8286 138.173 38.801 138.173 39.9912C138.173 41.1814 139.145 42.1537 140.335 42.1537Z" fill="#666666"/>
<path fill-rule="evenodd" clip-rule="evenodd" d="M140.335 41.508C141.171 41.508 141.848 40.8262 141.848 39.995C141.848 39.1639 141.167 38.478 140.335 38.478C139.504 38.478 138.823 39.1599 138.823 39.995C138.823 40.8302 139.504 41.508 140.335 41.508Z" fill="white"/>
<path fill-rule="evenodd" clip-rule="evenodd" d="M140.981 35.0289C141.732 35.0289 142.341 34.4197 142.341 33.6692C142.341 32.9188 141.732 32.3096 140.981 32.3096C140.231 32.3096 139.621 32.9188 139.621 33.6692C139.621 34.4197 140.231 35.0289 140.981 35.0289Z" fill="#666666"/>
<path fill-rule="evenodd" clip-rule="evenodd" d="M140.981 34.6211C141.505 34.6211 141.933 34.1935 141.933 33.669C141.933 33.1445 141.505 32.7168 140.981 32.7168C140.456 32.7168 140.029 33.1445 140.029 33.669C140.029 34.1935 140.456 34.6211 140.981 34.6211Z" fill="white"/>
<path fill-rule="evenodd" clip-rule="evenodd" d="M141.312 28.8594C141.84 28.8594 142.272 28.4277 142.272 27.8992C142.272 27.3707 141.84 26.939 141.312 26.939C140.783 26.939 140.352 27.3707 140.352 27.8992C140.352 28.4277 140.783 28.8594 141.312 28.8594Z" fill="#666666"/>
<path d="M141.312 28.5727C141.684 28.5727 141.986 28.271 141.986 27.8989C141.986 27.5268 141.684 27.2251 141.312 27.2251C140.94 27.2251 140.638 27.5268 140.638 27.8989C140.638 28.271 140.94 28.5727 141.312 28.5727Z" fill="white"/>
<path fill-rule="evenodd" clip-rule="evenodd" d="M102.099 41.2657C98.9606 45.8248 93.5824 48.3989 88.2971 50.2992H85.8279C85.2873 50.739 84.7587 51.1949 84.2504 51.6629C84.2504 51.6629 81.3535 40.6484 83.2942 31.9054C85.2389 23.1665 87.2723 18.5469 87.2723 18.5469C87.3248 18.5792 87.3732 18.6114 87.4176 18.6558C87.5144 18.7284 87.587 18.8293 87.6556 18.9302C87.6919 18.9826 87.7121 19.0431 87.7444 19.0956L87.8775 19.3982L88.4222 20.6408C88.7732 21.476 89.1928 22.2748 89.5801 23.0898C91.1818 26.3256 93.0418 29.4161 95.051 32.3977C95.5473 33.1481 96.0758 33.8743 96.5882 34.6127C97.1208 35.3349 97.6453 36.0651 98.194 36.7752C98.4643 37.1343 98.7427 37.4893 99.0211 37.8444C99.2954 38.1994 99.5778 38.5504 99.8643 38.8974C100.433 39.5994 101.002 40.2813 101.623 40.9752C101.752 41.1205 101.918 41.2173 102.095 41.2617L102.099 41.2657Z" fill="#333333"/>
<path fill-rule="evenodd" clip-rule="evenodd" d="M83.9679 49.5203C83.2376 45.8891 82.0716 38.292 83.4918 31.9052C84.561 27.0959 85.6584 23.5334 86.429 21.3022C86.5944 21.6371 86.7598 21.972 86.9172 22.3069C88.5189 25.5426 90.3789 28.6331 92.3881 31.6147C92.8844 32.3651 93.4129 33.0914 93.9253 33.8297C99.6786 40.7974 96.0314 44.1099 83.9639 49.5162L83.9679 49.5203Z" fill="url(#paint3_linear_41_515)"/>
<path fill-rule="evenodd" clip-rule="evenodd" d="M86.5904 19.8787C85.9691 20.7825 85.4648 21.7467 85.0048 22.7312C84.5449 23.7196 84.1414 24.7323 83.7864 25.7571C83.0722 27.8148 82.5679 29.941 82.1685 32.0834C81.9829 33.1566 81.8134 34.2338 81.6964 35.3191C81.6682 35.5894 81.6359 35.8598 81.6117 36.1301L81.5431 36.9451C81.4907 37.4897 81.4705 38.0344 81.4382 38.5791C81.3293 40.7578 81.3656 42.9445 81.5391 45.1232C81.7045 47.2979 82.0031 49.4685 82.4186 51.6108C82.5316 52.1434 82.6244 52.6841 82.7535 53.2126L82.7938 53.3861C82.923 53.3296 83.1045 53.2529 83.2336 53.1964C83.0884 53.1601 82.9149 53.1198 82.7696 53.0835C83.2861 52.559 83.7985 52.0668 84.3472 51.5665C84.323 51.4575 84.2988 51.3446 84.2745 51.2356C83.8509 49.1659 83.5362 47.076 83.3506 44.9739C83.165 42.8719 83.1005 40.7578 83.157 38.6436C83.1771 38.1151 83.1852 37.5866 83.2256 37.0621L83.274 36.2713C83.2901 36.005 83.3183 35.7468 83.3426 35.4805C83.4192 34.4234 83.5524 33.3744 83.6936 32.3295C83.8469 31.2845 84.0163 30.2396 84.2342 29.2027C84.3351 28.6822 84.4561 28.1698 84.5691 27.6493L84.9483 26.1041C85.4769 24.0505 86.074 22.0049 86.8204 19.9997V19.9917C86.8486 19.9231 86.8123 19.8505 86.7437 19.8222C86.6872 19.802 86.6227 19.8222 86.5904 19.8706V19.8787Z" fill="#666666"/>
<path fill-rule="evenodd" clip-rule="evenodd" d="M87.5628 42.1537C88.753 42.1537 89.7254 41.1814 89.7254 39.9912C89.7254 38.801 88.753 37.8286 87.5628 37.8286C86.3726 37.8286 85.4003 38.801 85.4003 39.9912C85.4003 41.1814 86.3726 42.1537 87.5628 42.1537Z" fill="#666666"/>
<path fill-rule="evenodd" clip-rule="evenodd" d="M87.5628 41.508C88.3979 41.508 89.0758 40.8262 89.0758 39.995C89.0758 39.1639 88.3939 38.478 87.5628 38.478C86.7317 38.478 86.0498 39.1599 86.0498 39.995C86.0498 40.8302 86.7317 41.508 87.5628 41.508Z" fill="white"/>
<path fill-rule="evenodd" clip-rule="evenodd" d="M86.9173 35.0289C87.6678 35.0289 88.277 34.4197 88.277 33.6692C88.277 32.9188 87.6678 32.3096 86.9173 32.3096C86.1669 32.3096 85.5577 32.9188 85.5577 33.6692C85.5577 34.4197 86.1669 35.0289 86.9173 35.0289Z" fill="#666666"/>
<path fill-rule="evenodd" clip-rule="evenodd" d="M86.9173 34.6211C87.4418 34.6211 87.8694 34.1935 87.8694 33.669C87.8694 33.1445 87.4418 32.7168 86.9173 32.7168C86.3928 32.7168 85.9651 33.1445 85.9651 33.669C85.9651 34.1935 86.3928 34.6211 86.9173 34.6211Z" fill="white"/>
<path fill-rule="evenodd" clip-rule="evenodd" d="M86.5864 28.8594C87.115 28.8594 87.5467 28.4277 87.5467 27.8992C87.5467 27.3707 87.115 26.939 86.5864 26.939C86.0579 26.939 85.6262 27.3707 85.6262 27.8992C85.6262 28.4277 86.0579 28.8594 86.5864 28.8594Z" fill="#666666"/>
<path d="M86.5865 28.5727C86.9586 28.5727 87.2603 28.271 87.2603 27.8989C87.2603 27.5268 86.9586 27.2251 86.5865 27.2251C86.2144 27.2251 85.9127 27.5268 85.9127 27.8989C85.9127 28.271 86.2144 28.5727 86.5865 28.5727Z" fill="white"/>
<path fill-rule="evenodd" clip-rule="evenodd" d="M113.949 122.542C117.262 122.542 119.965 119.839 119.965 116.527C119.965 113.214 117.262 110.511 113.949 110.511C110.637 110.511 107.934 113.214 107.934 116.527C107.934 119.839 110.637 122.542 113.949 122.542Z" fill="white"/>
<path fill-rule="evenodd" clip-rule="evenodd" d="M113.949 121.502C116.689 121.502 118.924 119.267 118.924 116.527C118.924 113.788 116.689 111.553 113.949 111.553C111.21 111.553 108.975 113.788 108.975 116.527C108.975 119.267 111.21 121.502 113.949 121.502Z" fill="#989898"/>
<path fill-rule="evenodd" clip-rule="evenodd" d="M113.949 119.884C115.797 119.884 117.306 118.375 117.306 116.527C117.306 114.679 115.797 113.17 113.949 113.17C112.101 113.17 110.592 114.679 110.592 116.527C110.592 118.375 112.101 119.884 113.949 119.884Z" fill="black"/>
<path fill-rule="evenodd" clip-rule="evenodd" d="M36.5163 171.898L21.6455 201.972L6.89417 171.592V199.196H2.03241V160.873H6.93402L21.672 191.219L36.5429 160.873H41.3914V199.196H36.523V171.891L36.5163 171.898ZM54.2697 194.154C54.6018 194.347 54.9472 194.52 55.2992 194.666C56.136 195.005 57.046 195.131 57.9426 195.131C59.3042 195.131 60.5528 194.765 61.735 194.095C62.997 193.371 64.0131 192.381 64.8168 191.166L67.872 186.536V195.104L67.4403 195.576C66.2116 196.937 64.7637 198.06 63.07 198.77C61.3897 199.481 59.5765 199.767 57.7566 199.767C55.4984 199.767 53.3864 199.156 51.4603 197.987C49.5275 196.818 47.98 195.25 46.831 193.304C45.6819 191.365 45.0842 189.253 45.0842 187.001C45.0842 184.75 45.6288 182.505 46.811 180.526C47.9667 178.593 49.5541 177.092 51.5333 176.022C53.5657 174.92 55.784 174.422 58.0887 174.422C61.8944 174.422 65.0692 175.976 67.593 178.805L68.6424 179.988L54.2764 194.168L54.2697 194.154ZM75.0717 174.873H81.5141V179.509H75.0717V189.93C75.0717 191.292 75.3838 192.594 76.3934 193.55C77.3697 194.48 78.5519 194.845 79.8936 194.845H81.554V199.481H79.8936C77.3099 199.481 74.9521 198.704 73.0459 196.937C71.0534 195.084 70.2497 192.614 70.2497 189.93V166.425H75.0717V174.873ZM102.934 177.065V174.873H107.756V199.202H102.934V196.971C102.502 197.316 102.037 197.628 101.552 197.92C99.5597 199.103 97.3946 199.714 95.0832 199.714C92.7719 199.714 90.6598 199.142 88.6939 197.993C86.7412 196.858 85.1804 195.31 84.038 193.364C82.8956 191.418 82.3178 189.299 82.3178 187.041C82.3178 184.783 82.8956 182.664 84.038 180.718C85.1804 178.772 86.7478 177.218 88.6939 176.089C90.6598 174.947 92.8051 174.369 95.0832 174.369C97.3613 174.369 99.6461 175.006 101.672 176.215C102.117 176.481 102.535 176.766 102.94 177.072L102.934 177.065ZM147.825 185.859H131.327L124.838 199.202H119.505L139.616 157.904L159.78 199.202H154.454L147.825 185.859ZM166.083 180.154L172.101 174.88H179.075L167.432 185.049L180.954 199.202H174.346L166.083 190.508V199.202H161.262V160.972H166.083V180.154ZM183.664 173.399C184.534 173.399 185.325 173.074 185.956 172.476C186.62 171.845 186.965 171.021 186.965 170.105C186.965 169.188 186.606 168.398 185.956 167.78C185.325 167.182 184.534 166.857 183.664 166.857C182.794 166.857 182.004 167.182 181.373 167.78C180.722 168.398 180.37 169.208 180.37 170.105C180.37 171.001 180.715 171.845 181.373 172.476C182.004 173.074 182.794 173.399 183.664 173.399ZM181.253 174.88H186.075V199.209H181.253V174.88ZM195.427 174.88H201.869V179.516H195.427V189.937C195.427 191.298 195.739 192.6 196.748 193.557C197.725 194.487 198.907 194.852 200.249 194.852H201.909V199.488H200.249C197.665 199.488 195.307 198.711 193.401 196.944C191.408 195.091 190.605 192.62 190.605 189.937V166.432H195.427V174.88ZM223.289 177.072V174.88H228.111V199.209H223.289V196.977C222.857 197.323 222.392 197.635 221.907 197.927C219.915 199.109 217.75 199.72 215.438 199.72C213.127 199.72 211.015 199.149 209.049 198C207.096 196.864 205.535 195.317 204.393 193.371C203.251 191.425 202.673 189.306 202.673 187.048C202.673 184.79 203.251 182.671 204.393 180.725C205.535 178.779 207.103 177.225 209.049 176.096C211.015 174.953 213.16 174.375 215.438 174.375C217.716 174.375 220.001 175.013 222.027 176.222C222.472 176.487 222.89 176.773 223.295 177.079L223.289 177.072ZM50.9688 190.973L61.9409 180.074C61.5956 179.855 61.2303 179.662 60.8583 179.516C59.975 179.164 58.9721 179.051 58.0289 179.051C56.5346 179.051 55.0867 179.343 53.7782 180.074C52.5761 180.745 51.6263 181.661 50.9289 182.844C50.205 184.079 49.8994 185.427 49.8994 186.855C49.8994 188.376 50.2448 189.744 50.9754 190.966L50.9688 190.973ZM95.1696 195.091C96.571 195.091 97.8661 194.732 99.0683 194.002C100.29 193.258 101.253 192.281 101.971 191.046C102.688 189.811 103.033 188.482 103.033 187.048C103.033 185.613 102.668 184.311 101.951 183.083C101.227 181.841 100.257 180.844 99.0284 180.1C97.8263 179.37 96.5378 179.011 95.1297 179.011C93.7217 179.011 92.4199 179.383 91.2111 180.12C89.9624 180.884 88.9728 181.887 88.2289 183.142C87.505 184.365 87.1331 185.673 87.1331 187.101C87.1331 188.529 87.4983 189.817 88.2289 191.026C88.9795 192.275 89.9691 193.258 91.2244 193.995C92.4465 194.719 93.7549 195.091 95.1828 195.091H95.1696ZM145.62 181.183L139.536 168.863L133.585 181.183H145.62ZM215.531 195.091C216.933 195.091 218.228 194.732 219.43 194.002C220.652 193.258 221.615 192.281 222.332 191.046C223.05 189.811 223.388 188.482 223.388 187.048C223.388 185.613 223.023 184.311 222.306 183.083C221.582 181.841 220.612 180.844 219.383 180.1C218.181 179.37 216.893 179.011 215.485 179.011C214.077 179.011 212.775 179.383 211.566 180.12C210.317 180.884 209.328 181.887 208.584 183.142C207.86 184.365 207.488 185.673 207.488 187.101C207.488 188.529 207.853 189.817 208.584 191.026C209.334 192.275 210.324 193.258 211.579 193.995C212.801 194.719 214.11 195.091 215.538 195.091H215.531Z" fill="#FDFDFD"/>
<path fill-rule="evenodd" clip-rule="evenodd" d="M5.51929 180.034L5.48608 202.111H0V180.034H5.51929Z" fill="#9968FD"/>
<path fill-rule="evenodd" clip-rule="evenodd" d="M42.1951 160.262L42.1685 179.35H37.6189V160.262H42.1951Z" fill="#989898"/>
<path fill-rule="evenodd" clip-rule="evenodd" d="M87.4252 188.316C89.8959 188.316 91.9084 186.304 91.9084 183.833C91.9084 181.363 89.8959 179.35 87.4252 179.35C84.9545 179.35 82.942 181.363 82.942 183.833C82.942 186.304 84.9545 188.316 87.4252 188.316Z" fill="#989898"/>
<path fill-rule="evenodd" clip-rule="evenodd" d="M130.889 170.078H136.222L121.524 200.424H116.184L130.889 170.078Z" fill="#9968FD"/>
<path fill-rule="evenodd" clip-rule="evenodd" d="M183.664 170.118C182.794 170.118 182.004 169.793 181.373 169.195C180.708 168.564 180.37 167.741 180.37 166.824C180.37 165.907 180.728 165.117 181.373 164.499C182.004 163.902 182.794 163.576 183.664 163.576C184.534 163.576 185.324 163.902 185.955 164.499C186.606 165.117 186.965 165.927 186.965 166.824C186.965 167.721 186.62 168.564 185.955 169.195C185.324 169.793 184.534 170.118 183.664 170.118Z" fill="#9968FD"/>
<path fill-rule="evenodd" clip-rule="evenodd" d="M39.1663 206.316H195.187L190.977 209.564H34.9554L39.1663 206.316Z" fill="#989898"/>
<path fill-rule="evenodd" clip-rule="evenodd" d="M230.15 174.874L230.123 191.671H225.567V174.874H230.15Z" fill="#989898"/>
<defs>
<linearGradient id="paint0_linear_41_515" x1="131.318" y1="78.0736" x2="137.975" y2="59.9179" gradientUnits="userSpaceOnUse">
<stop stop-color="#7D5CA3"/>
<stop offset="1" stop-color="#C33C8E"/>
</linearGradient>
<linearGradient id="paint1_linear_41_515" x1="89.9393" y1="78.0736" x2="96.5924" y2="59.9179" gradientUnits="userSpaceOnUse">
<stop stop-color="#7D5CA3"/>
<stop offset="1" stop-color="#C33C8E"/>
</linearGradient>
<linearGradient id="paint2_linear_41_515" x1="131.496" y1="35.4113" x2="145.274" y2="35.4113" gradientUnits="userSpaceOnUse">
<stop stop-color="#2A2C2A"/>
<stop offset="1" stop-color="#BFBEBE"/>
</linearGradient>
<linearGradient id="paint3_linear_41_515" x1="96.6002" y1="35.4113" x2="82.8221" y2="35.4113" gradientUnits="userSpaceOnUse">
<stop stop-color="#2A2C2A"/>
<stop offset="1" stop-color="#BFBEBE"/>
</linearGradient>
</defs>
</svg>
