<svg width="500" height="345" viewBox="0 0 500 345" fill="none" xmlns="http://www.w3.org/2000/svg">
<rect y="339" width="500" height="6" rx="3" fill="url(#paint0_linear_55_742)"/>
<path fill-rule="evenodd" clip-rule="evenodd" d="M262.624 234.592C263.811 231.654 267.139 230.194 270.108 231.332C281.348 235.619 294.096 237.635 305.886 234.468C310.878 233.126 315.536 230.881 319.6 227.676C321.431 226.235 323.119 224.621 324.647 222.858C327.796 219.233 330.344 214.767 331.433 210.066C332.243 206.589 332.305 202.575 330.53 199.371C330.307 198.962 329.639 197.991 329.12 197.719C329.107 197.725 329.101 197.738 329.089 197.744C328.854 197.954 328.619 198.14 328.6 198.461C328.551 199.278 329.008 200.793 329.231 201.579C330.536 206.181 331.031 210.523 327.239 214.222C324.722 216.672 321.214 217.983 317.781 218.435C313.989 218.93 310.018 218.435 306.449 217.056C303.628 215.973 301.055 214.34 298.903 212.212C298.513 211.829 298.129 211.433 297.758 211.031C286.884 199.451 283.271 183.498 287.954 168.331C294.245 147.943 312.474 135.429 332.812 131.681C350.169 128.477 366.407 133.66 379.91 144.832C393.104 155.749 402.315 171.281 406.849 187.704C411.531 204.666 411.253 223.229 404.269 239.534C396.123 258.549 380.281 271.409 361.118 278.541C359.176 279.265 357.209 279.927 355.223 280.527C332.095 287.504 308.299 285.166 286.389 275.411C278.688 271.984 271.265 267.698 264.448 262.737C261.591 260.658 258.516 258.283 255.955 255.821C253.698 253.644 253.574 250.081 255.634 247.755C256.079 247.068 256.518 246.196 256.902 245.485C257.694 244.025 258.473 242.553 259.252 241.081C260.366 238.959 261.591 236.757 262.617 234.598L262.624 234.592Z" fill="#9968FD"/>
<path fill-rule="evenodd" clip-rule="evenodd" d="M265.333 235.755C265.902 234.264 267.572 233.516 269.063 234.085C282.659 239.268 295.649 240.27 306.653 237.307C312.121 235.835 317.107 233.392 321.425 229.99C323.379 228.45 325.204 226.718 326.874 224.788C334.464 216.041 337.025 204.993 333.109 197.936C332.132 196.173 330.777 194.985 329.478 194.756C328.668 194.614 327.901 194.868 327.153 195.523C325.185 197.243 325.396 198.851 326.398 202.377C327.196 205.204 328.297 209.076 325.185 212.107C321.462 215.738 314.045 216.814 307.513 214.303C305.15 213.394 302.898 212.014 300.987 210.115C300.622 209.75 300.263 209.385 299.911 209.014C289.791 198.239 286.37 183.473 290.775 169.203C296.261 151.432 312.183 138.485 333.357 134.582C349.167 131.668 364.619 135.998 378.042 147.108C390.203 157.178 399.432 171.875 404.016 188.496C408.797 205.816 407.925 223.532 401.566 238.384C394.242 255.487 379.898 268.421 360.091 275.789C358.174 276.506 356.256 277.143 354.37 277.712C327.177 285.921 303.263 279.704 287.583 272.727C269.483 264.673 258.461 254.151 257.997 253.706C256.846 252.598 256.815 250.774 257.922 249.623C258.461 249.066 265.209 236.083 265.327 235.761L265.333 235.755Z" fill="#FFAC40"/>
<path fill-rule="evenodd" clip-rule="evenodd" d="M359.089 273.067C303.672 293.696 260.007 251.621 260.007 251.621L268.03 236.782C283.383 242.633 296.527 243.011 307.129 240.165C310.061 239.386 312.789 238.353 315.319 237.128C324.381 232.742 330.889 225.833 334.489 218.571C338.404 210.709 338.918 202.433 335.645 196.525C333.159 192.047 328.73 190.309 325.266 193.34C318.839 198.956 327.357 205.958 323.181 210.035C319.482 213.641 309.344 214.321 303.022 208.055C302.298 207.344 301.618 206.614 300.969 205.859C300.338 205.129 299.75 204.4 299.187 203.645C281.768 180.399 295.841 144.417 333.889 137.402C358.78 132.813 380.696 147.924 393.197 169.859C412.601 203.899 409.286 254.38 359.095 273.054L359.089 273.067Z" fill="#FBA329"/>
<path fill-rule="evenodd" clip-rule="evenodd" d="M334.483 218.577C338.398 210.715 338.912 202.439 335.639 196.531C333.153 192.053 328.724 190.315 325.26 193.346C318.833 198.962 327.351 205.965 323.175 210.041C319.476 213.647 309.338 214.328 303.016 208.062C302.292 207.35 301.612 206.62 300.962 205.866C300.331 205.136 299.744 204.406 299.181 203.651C304.346 206.688 313.575 211.111 314.354 204.461C315.319 196.16 313.389 176.007 328.99 176.298C342.425 176.558 348.066 203.249 334.489 218.571L334.483 218.577Z" fill="#FF9243"/>
<path fill-rule="evenodd" clip-rule="evenodd" d="M359.089 273.067C303.672 293.696 260.007 251.621 260.007 251.621L268.03 236.782C283.383 242.633 296.527 243.011 307.129 240.165C310.061 239.386 312.789 238.353 315.319 237.128C326.293 242.058 346.334 246.852 369.506 232.65C397.793 215.317 397.657 188.36 393.191 169.865C412.595 203.905 409.28 254.386 359.089 273.061V273.067Z" fill="#FF9243"/>
<path fill-rule="evenodd" clip-rule="evenodd" d="M400.669 187.321C410.319 219.295 401.226 257.386 359.089 273.067C303.672 293.696 260.007 251.621 260.007 251.621L268.03 236.782C283.383 242.633 296.527 243.011 307.129 240.165C319.229 246.92 338.237 259.124 365.219 243.66C377.615 236.553 384.129 227.2 386.399 217.247C397.416 201.69 396.475 183.498 393.191 169.883C393.253 169.989 393.308 170.094 393.37 170.193C393.624 170.632 393.871 171.084 394.112 171.535C394.453 172.172 394.793 172.816 395.121 173.465C395.294 173.799 395.461 174.133 395.616 174.467C395.9 175.03 396.166 175.605 396.432 176.174C396.754 176.855 397.051 177.548 397.348 178.234C397.385 178.296 397.409 178.358 397.428 178.414C397.694 179.02 397.948 179.638 398.189 180.251L398.306 180.554C398.603 181.29 398.888 182.038 399.16 182.787C399.432 183.541 399.692 184.29 399.946 185.045C400.199 185.793 400.44 186.56 400.669 187.315V187.321Z" fill="#F8D2B6"/>
<path fill-rule="evenodd" clip-rule="evenodd" d="M359.089 273.067C303.672 293.696 260.007 251.621 260.007 251.621L268.03 236.782C283.383 242.633 296.527 243.011 307.129 240.165C319.229 246.92 338.243 259.124 365.213 243.654C409.935 218.008 378.123 163.129 346.675 156.609C320.973 151.283 286.983 176.83 300.962 205.853C280.884 182.744 294.61 144.652 333.883 137.409C397.416 125.687 441.606 242.361 359.089 273.061V273.067Z" fill="white"/>
<path fill-rule="evenodd" clip-rule="evenodd" d="M385.013 221.862C385.582 220.346 386.04 218.806 386.399 217.253C386.046 218.806 385.582 220.346 385.013 221.862Z" fill="#D1AD9F"/>
<path fill-rule="evenodd" clip-rule="evenodd" d="M354.37 277.706C327.177 285.914 303.263 279.698 287.583 272.72C269.483 264.667 258.461 254.145 257.997 253.699C256.846 252.592 256.815 250.761 257.922 249.617C259.03 248.466 260.854 248.435 262.005 249.543C262.11 249.648 272.892 259.898 290.113 267.531C313.018 277.675 335.887 278.628 358.069 270.376C399.933 254.794 405.983 217.359 398.436 190.03C390.593 161.626 365.479 134.526 334.396 140.266C315.369 143.774 301.123 155.236 296.286 170.916C292.377 183.585 295.649 196.711 305.045 206.026C310.321 211.259 318.647 210.431 321.146 207.987C321.703 207.449 321.554 206.509 320.831 203.967C319.878 200.589 318.431 195.48 323.342 191.187C325.408 189.381 327.938 188.638 330.468 189.078C333.511 189.61 336.314 191.824 338.157 195.146C343.223 204.288 340.378 218.039 331.235 228.586C316.785 245.244 292.779 249.32 266.997 239.497C265.506 238.928 264.758 237.258 265.327 235.767C265.896 234.276 267.566 233.528 269.057 234.097C289.407 241.86 308.404 240.246 321.425 230.002C323.379 228.462 325.204 226.73 326.874 224.8C334.464 216.053 337.025 205.006 333.109 197.948C332.132 196.185 330.777 194.997 329.478 194.768C328.668 194.626 327.901 194.88 327.153 195.535C325.185 197.255 325.396 198.863 326.398 202.389C327.196 205.216 328.297 209.088 325.185 212.119C321.462 215.75 314.045 216.827 307.513 214.315C305.15 213.406 302.898 212.027 300.987 210.128C290.038 199.272 286.222 183.974 290.781 169.209C296.267 151.438 312.189 138.491 333.363 134.588C349.174 131.675 364.625 136.005 378.048 147.114C390.209 157.184 399.438 171.881 404.022 188.502C408.804 205.822 407.931 223.538 401.572 238.39C394.249 255.493 379.904 268.428 360.097 275.795C358.18 276.512 356.262 277.149 354.376 277.718L354.37 277.706Z" fill="black"/>
<path fill-rule="evenodd" clip-rule="evenodd" d="M340.996 225.617C336.994 226.823 334.724 231.054 335.93 235.056C337.136 239.058 341.367 241.328 345.369 240.122C349.372 238.916 351.642 234.685 350.435 230.683C349.229 226.68 344.998 224.41 340.996 225.617Z" fill="black"/>
<path fill-rule="evenodd" clip-rule="evenodd" d="M341.652 227.788C338.844 228.635 337.26 231.598 338.101 234.4C338.949 237.208 341.912 238.792 344.714 237.951C347.522 237.103 349.106 234.14 348.264 231.338C347.417 228.53 344.454 226.946 341.652 227.788Z" fill="white"/>
<path fill-rule="evenodd" clip-rule="evenodd" d="M351.536 206.515C348.759 207.356 347.182 210.288 348.023 213.066C348.864 215.843 351.796 217.42 354.574 216.579C357.351 215.738 358.928 212.806 358.087 210.029C357.246 207.251 354.314 205.674 351.536 206.515Z" fill="black"/>
<path fill-rule="evenodd" clip-rule="evenodd" d="M351.988 208.024C350.04 208.612 348.938 210.666 349.526 212.614C350.114 214.563 352.167 215.664 354.116 215.076C356.064 214.488 357.165 212.435 356.578 210.486C355.99 208.538 353.936 207.437 351.988 208.024Z" fill="white"/>
<path fill-rule="evenodd" clip-rule="evenodd" d="M345.821 185.082C343.532 185.775 342.233 188.193 342.926 190.482C343.619 192.771 346.031 194.07 348.326 193.377C350.615 192.684 351.914 190.265 351.221 187.977C350.528 185.688 348.116 184.389 345.821 185.082Z" fill="black"/>
<path fill-rule="evenodd" clip-rule="evenodd" d="M346.198 186.325C344.596 186.808 343.687 188.502 344.169 190.111C344.652 191.713 346.347 192.622 347.955 192.14C349.557 191.657 350.466 189.962 349.984 188.36C349.501 186.758 347.807 185.849 346.204 186.331L346.198 186.325Z" fill="white"/>
<path fill-rule="evenodd" clip-rule="evenodd" d="M307.284 319.713C298.439 323.963 290.249 318.563 285.727 314.418C283.407 312.29 282.04 310.496 282.04 310.496C281.286 310.905 280.543 311.294 279.795 311.653C245.897 328.268 222.775 298.422 222.775 298.422L278.484 244.675L287.372 267.419L288.572 270.487C288.572 270.487 289.735 269.869 291.659 269.591C293.076 269.38 294.9 269.349 296.966 269.881C306.765 272.399 313.055 281.387 316.748 290.752C321.307 302.307 317.639 314.74 307.284 319.713Z" fill="#FFAC40"/>
<path fill-rule="evenodd" clip-rule="evenodd" d="M285.727 314.418C283.407 312.29 282.04 310.496 282.04 310.496C281.286 310.905 280.543 311.294 279.795 311.653C245.897 328.268 222.775 298.422 222.775 298.422L278.484 244.675L287.372 267.419C285.3 274.428 280.89 287.783 275.582 295.354C268.147 305.962 284.898 305.814 293.218 291.457C294.77 297.686 289.754 307.602 285.733 314.412L285.727 314.418Z" fill="#FF9243"/>
<path fill-rule="evenodd" clip-rule="evenodd" d="M318.462 303.859C317.552 310.688 313.699 316.633 307.284 319.713C293.904 326.134 282.04 310.496 282.04 310.496C281.286 310.905 280.543 311.294 279.795 311.653C279.776 311.591 279.764 311.56 279.764 311.56C279.764 311.56 288.3 306.692 292.197 296.344C293.323 293.362 294.059 289.923 294.102 286.014C294.164 279.512 293.119 274.038 291.653 269.597C293.069 269.386 294.894 269.356 296.96 269.887C306.758 272.405 313.049 281.393 316.742 290.758C318.48 295.15 319.018 299.678 318.455 303.865L318.462 303.859Z" fill="#FFF2E8"/>
<path fill-rule="evenodd" clip-rule="evenodd" d="M318.462 303.859C317.552 310.688 313.699 316.633 307.284 319.713C293.904 326.134 282.04 310.496 282.04 310.496C281.286 310.905 280.543 311.294 279.795 311.653C279.776 311.591 279.764 311.56 279.764 311.56C279.764 311.56 288.3 306.692 292.197 296.344C292.457 302.201 294.189 309.785 301.123 311.733C309.505 314.084 315.189 309.426 318.455 303.859H318.462Z" fill="#F8D2B6"/>
<path fill-rule="evenodd" clip-rule="evenodd" d="M300.56 323.511C291.56 323.511 284.28 316.435 281.49 313.286C263.205 322.54 247.926 318.618 238.215 313.583C227.476 308.016 221.278 300.111 221.019 299.777C220.27 298.812 220.443 297.414 221.415 296.665C222.379 295.917 223.771 296.09 224.52 297.061C224.582 297.135 230.477 304.626 240.398 309.723C253.5 316.459 267.158 316.064 280.983 308.542C281.948 308.016 283.148 308.276 283.809 309.148C283.915 309.29 294.758 323.27 306.325 317.709C315.424 313.342 318.938 302.344 314.688 291.562C311.713 284.028 306.134 274.521 296.416 272.028C292.5 271.019 289.698 272.399 289.581 272.455C289.024 272.733 288.362 272.776 287.781 272.547C287.199 272.325 286.723 271.867 286.5 271.292L276.411 245.479C275.966 244.341 276.529 243.054 277.667 242.609C278.805 242.163 280.092 242.726 280.537 243.864L289.853 267.692C291.647 267.24 294.35 266.918 297.517 267.729C309.041 270.692 315.455 281.436 318.808 289.935C323.942 302.944 319.495 316.305 308.243 321.705C305.589 322.979 303.01 323.505 300.56 323.505V323.511Z" fill="black"/>
<path fill-rule="evenodd" clip-rule="evenodd" d="M188.408 142.821L180.354 186.603C160.603 200.527 102.903 202.587 84.9212 159.158L103.41 132.528L112.064 120.064C112.064 120.064 116.691 129.336 125.87 137.835C138.359 149.384 159.267 159.485 188.408 142.821Z" fill="url(#paint1_linear_55_742)"/>
<path fill-rule="evenodd" clip-rule="evenodd" d="M188.408 142.821L180.354 186.603C160.603 200.527 102.903 202.587 84.9212 159.158L103.41 132.528C109.41 133.673 121.219 136.363 123.545 140.242C129.124 149.539 113.728 156.603 110.289 165.739C106.602 175.525 123.365 191.948 145.195 185.465C155.079 182.527 157.312 172.71 155.419 164.675C152.964 154.283 133.77 150.399 125.877 137.829C138.366 149.378 159.273 159.479 188.414 142.815L188.408 142.821Z" fill="#989898"/>
<path fill-rule="evenodd" clip-rule="evenodd" d="M145.461 197.713C138.05 197.713 130.269 196.76 122.635 194.546C109.441 190.723 91.8307 181.624 82.8738 160.005C82.5831 159.306 82.6697 158.514 83.1027 157.896L110.239 118.802C110.685 118.159 111.433 117.794 112.219 117.856C112.998 117.911 113.691 118.375 114.043 119.074C114.155 119.291 125.32 141.163 146.617 147.603C159.193 151.407 172.882 149.149 187.307 140.904C188.371 140.297 189.725 140.662 190.331 141.726C190.938 142.79 190.567 144.145 189.509 144.751C173.97 153.634 159.094 156.021 145.294 151.834C127.04 146.298 115.961 130.938 111.866 124.227L87.4389 159.417C95.8576 178.618 111.829 186.801 123.866 190.29C145.689 196.618 168.601 192.183 179.08 184.797C180.082 184.092 181.461 184.333 182.166 185.335C182.872 186.337 182.63 187.717 181.628 188.422C174.038 193.766 160.516 197.713 145.454 197.713H145.461Z" fill="black"/>
<path fill-rule="evenodd" clip-rule="evenodd" d="M283.68 250.149C278.44 277.861 253.537 291.958 227.557 293.566C207.243 294.822 186.274 288.444 173.531 274.96C153.984 254.262 146.648 198.907 177.212 142.537L244.759 126.355C244.246 135.59 244.988 143.687 246.584 150.943C250.042 166.704 257.52 178.543 264.962 189.616C274.556 203.892 284.088 216.895 284.842 235.39C285.034 239.943 284.682 244.829 283.68 250.155V250.149Z" fill="#FFAC40"/>
<path fill-rule="evenodd" clip-rule="evenodd" d="M253.283 170.038C243.287 172.772 231.775 174.337 219.515 174.337C198.936 174.337 180.447 169.939 167.723 162.943C170.352 156.195 173.5 149.378 177.212 142.537L244.759 126.355C244.246 135.59 244.988 143.687 246.584 150.943C248.13 158.001 250.481 164.273 253.283 170.044V170.038Z" fill="#FFAC40"/>
<path fill-rule="evenodd" clip-rule="evenodd" d="M253.283 170.038C243.287 172.772 231.775 174.337 219.515 174.337C198.936 174.337 180.447 169.939 167.723 162.943C170.352 156.195 173.5 149.378 177.212 142.537L244.759 126.355C244.246 135.59 244.988 143.687 246.584 150.943C248.13 158.001 250.481 164.273 253.283 170.044V170.038Z" fill="#FF9243"/>
<path fill-rule="evenodd" clip-rule="evenodd" d="M246.584 150.943C241.444 153.974 230.736 161.508 225.373 174.22C223.443 174.3 221.495 174.337 219.522 174.337C198.942 174.337 180.447 169.939 167.723 162.937C170.358 156.188 173.513 149.372 177.218 142.537L244.765 126.355C244.252 135.59 244.994 143.687 246.59 150.943H246.584Z" fill="#F8D2B6"/>
<path fill-rule="evenodd" clip-rule="evenodd" d="M263.663 166.556C256.395 169.5 247.889 171.733 238.586 173.038L232.283 153.485C232.283 153.485 247.221 157.834 263.663 166.562V166.556Z" fill="#FF9243"/>
<path fill-rule="evenodd" clip-rule="evenodd" d="M249.126 238.582C249.126 238.582 260.001 216.406 246.726 198.263C248.502 192.096 256.085 189.907 264.968 189.616C274.562 203.892 284.094 216.895 284.849 235.39C269.923 236.936 249.126 238.582 249.126 238.582Z" fill="#FF9243"/>
<path fill-rule="evenodd" clip-rule="evenodd" d="M247.908 265.502C246.126 272.312 242.842 278.535 238.462 283.824C235.338 287.597 231.652 290.888 227.557 293.566C207.243 294.822 186.274 288.444 173.531 274.96C164.067 264.945 157.473 246.815 156.65 224.367C155.76 200.441 161.438 171.628 177.212 142.537L244.759 126.355C244.246 135.59 244.988 143.687 246.584 150.943C240.349 154.617 225.942 164.91 222.775 183.022C216.676 217.903 256.24 233.67 247.914 265.502H247.908Z" fill="#FFF2E8"/>
<path fill-rule="evenodd" clip-rule="evenodd" d="M178.189 143.069C164.253 173.385 154.504 207.196 160.745 240.642C163.077 252.685 167.228 264.871 175.752 273.809C190.369 288.519 212.767 293.22 232.883 290.69C256.964 287.696 278.416 272.578 281.855 247.421C284.137 233.856 281.403 220.773 274.624 208.859C268.413 197.694 260.397 187.834 254.143 176.502C249.918 168.937 246.541 160.772 244.592 152.236C242.631 143.706 242.069 134.903 242.539 126.237C242.607 125.013 243.652 124.079 244.877 124.147C246.102 124.215 247.036 125.26 246.968 126.479C245.873 143.186 249.671 159.813 258.015 174.35C268.277 192.832 284.762 209.528 286.797 231.629C290.094 266.863 267.578 290.715 233.495 295.354C211.926 298.144 188.037 292.966 172.325 277.143C157.337 261.104 153.855 236.658 154.312 215.571C155.345 189.808 162.323 163.84 176.234 142.017C177.014 140.922 178.702 141.801 178.183 143.075L178.189 143.069Z" fill="black"/>
<path fill-rule="evenodd" clip-rule="evenodd" d="M125.574 140.137C123.959 147.3 119.889 154.221 115.874 157.265C108.68 162.714 94.6575 160.84 94.6575 160.84L91.9173 171.517C86.2883 163.605 81.3398 155.78 83.9934 143.662C84.6367 140.706 85.7378 137.483 87.4017 133.945C93.6431 120.633 108.161 112.592 120.854 121.883C126.359 125.903 127.145 133.141 125.574 140.143V140.137Z" fill="#FFF2E8"/>
<path fill-rule="evenodd" clip-rule="evenodd" d="M90.1111 172.797C84.3584 164.997 79.8676 156.553 81.2532 146.477C82.0759 140.211 84.3646 134.161 87.6801 128.811C92.8451 120.652 102.346 114.219 112.373 115.821C119.054 116.922 125.809 121.023 127.763 127.784C130.862 137.817 125.431 152.081 117.507 158.588C113.573 161.613 108.408 162.467 103.72 162.634C100.608 162.696 97.5834 162.51 94.5091 161.96C93.8967 161.848 93.4884 161.254 93.5998 160.642C93.7049 160.061 94.2369 159.671 94.8122 159.714C99.0989 159.9 103.528 159.689 107.703 158.706C111.73 157.846 115.281 155.885 117.6 152.446C122.945 145.159 128.054 129.528 118.918 123.398C111.953 118.351 103.256 119.569 96.9029 125.044C92.6039 128.619 89.6595 133.642 87.7667 138.868C84.5687 146.935 84.6429 155.477 89.0038 162.931C90.3585 165.417 92.0039 167.817 93.7173 170.236C95.3442 172.655 91.8802 175.148 90.1049 172.803L90.1111 172.797Z" fill="black"/>
<path fill-rule="evenodd" clip-rule="evenodd" d="M213.571 307.657C205.734 318.76 192.682 327.346 188.216 327.804C186.02 328.033 174.267 283.273 174.267 283.273C173.37 274.718 174.385 266.85 176.859 259.935C186.632 232.594 219.144 220.173 245.613 238.94L249.702 236.163L280.284 215.423C298.779 255.153 279.319 318.952 213.565 307.645L213.571 307.657Z" fill="url(#paint2_linear_55_742)"/>
<path fill-rule="evenodd" clip-rule="evenodd" d="M213.571 307.657C205.734 318.76 192.682 327.346 188.216 327.804C186.02 328.033 174.267 283.273 174.267 283.273C173.37 274.718 174.385 266.85 176.859 259.935C183.595 263.225 193.802 271.242 200.482 290.523C208.48 313.595 228.039 278.281 228.039 278.281C228.039 278.281 240.516 301.768 262.654 286.279C287.447 268.941 253.289 258.568 251.242 252.029C249.522 246.524 249.238 241.087 249.702 236.163L280.284 215.423C298.779 255.153 279.319 318.952 213.565 307.645L213.571 307.657Z" fill="#B2B2B2"/>
<path fill-rule="evenodd" clip-rule="evenodd" d="M282.3 214.495C297.814 247.545 287.001 295.546 249.64 307.855C237.912 311.851 225.287 311.901 213.206 309.841L215.39 308.938C213.379 311.777 211.115 314.381 208.691 316.806C203.693 321.674 198.416 325.967 191.977 328.967C190.956 329.412 189.719 329.864 188.47 330.012C187.709 330.08 187.035 329.827 186.515 329.35C185.847 328.75 185.432 327.841 185.105 327.161C181.857 319.305 179.785 311.171 177.397 303.111C175.579 296.585 173.723 290.078 172.065 283.508C169.832 264.735 177.509 245.064 193.969 234.975C210.163 224.683 231.281 226.365 246.262 238.044C246.751 238.415 246.844 239.108 246.473 239.596C246.12 240.06 245.464 240.165 244.982 239.85C237.671 235.025 229.196 232.037 220.598 231.815C192.738 231.159 173.259 256.155 176.476 283.044C179.513 294.005 183.373 308.894 187.43 320.864C188.08 322.676 188.686 324.556 189.558 326.128C189.577 326.159 189.602 326.183 189.571 326.152C189.571 326.152 189.521 326.097 189.472 326.053C189.323 325.917 189.206 325.856 189.002 325.757C188.804 325.676 188.668 325.627 188.321 325.596C188.247 325.596 188.173 325.596 188.098 325.596C187.999 325.602 187.981 325.608 188.006 325.602H188.03C191.742 324.705 195.045 322.262 198.268 319.979C203.396 316.119 208.091 311.548 211.771 306.377C212.284 305.659 213.144 305.331 213.955 305.467C230.804 308.486 249.522 306.556 263.205 295.552C276.912 284.776 283.81 267.333 284.626 250.143C285.17 238.582 283.117 226.823 278.273 216.357C277.11 213.721 280.964 211.835 282.3 214.495Z" fill="black"/>
<path fill-rule="evenodd" clip-rule="evenodd" d="M198.274 316.268C198.602 325.416 185.983 331.707 175.436 327.804C159.131 321.767 142.201 288.067 150.36 268.137C155.723 255.023 172.115 252.809 181.053 265.922C186.533 273.958 190.857 283.935 193.449 295.911L198.274 316.268Z" fill="#FFF2E8"/>
<path fill-rule="evenodd" clip-rule="evenodd" d="M303.443 219.301C302.138 229.05 297.065 238.909 287.626 246.877C284.793 249.264 281.564 251.491 277.921 253.489C263.149 261.605 250.116 255.803 249.095 241.693C248.984 240.066 249.071 238.476 249.318 236.912C250.524 229.346 255.535 222.635 259.265 217.959C260.384 216.554 261.386 215.336 262.147 214.328C261.949 214.086 261.714 213.82 261.461 213.523C258.04 209.626 249.59 201.127 247.302 198.839C246.937 198.468 246.726 198.257 246.726 198.257L232.295 153.479C232.295 153.479 275.954 166.197 296.131 191.75C302.138 199.364 304.791 209.268 303.455 219.301H303.443Z" fill="#FFAC40"/>
<path fill-rule="evenodd" clip-rule="evenodd" d="M263.663 166.556C256.395 169.5 247.889 171.733 238.586 173.038L232.283 153.485C232.283 153.485 247.221 157.834 263.663 166.562V166.556Z" fill="#FF9243"/>
<path fill-rule="evenodd" clip-rule="evenodd" d="M303.443 219.301C302.138 229.05 297.065 238.91 287.626 246.877C284.793 249.264 281.564 251.491 277.921 253.489C263.149 261.605 250.116 255.803 249.095 241.693C248.984 240.066 249.071 238.477 249.318 236.912C251.161 241.161 255.17 247.353 263.378 249.784C275.106 253.248 294.919 239.33 303.443 219.295V219.301Z" fill="#FF9243"/>
<path fill-rule="evenodd" clip-rule="evenodd" d="M287.626 246.883C284.793 249.271 281.564 251.497 277.921 253.495C263.149 261.611 250.116 255.809 249.095 241.699C249.021 240.648 249.034 239.621 249.114 238.594C249.157 238.044 249.219 237.505 249.312 236.967C249.312 236.955 249.312 236.943 249.312 236.924C251.168 241.174 255.17 247.365 263.372 249.79C270.04 251.763 279.325 248.108 287.657 240.914C287.849 243.085 287.781 245.114 287.62 246.883H287.626Z" fill="#F8D2B6"/>
<path fill-rule="evenodd" clip-rule="evenodd" d="M269.657 204.486C269.657 204.486 265.611 208.971 261.454 213.53C258.034 209.633 249.584 201.134 247.295 198.845L269.657 204.486Z" fill="#FF9243"/>
<path fill-rule="evenodd" clip-rule="evenodd" d="M287.626 246.883C284.793 249.271 281.564 251.497 277.921 253.495C263.149 261.611 250.116 255.809 249.095 241.699C248.415 232.198 254.761 223.612 259.265 217.965C264.807 218.274 278.502 220.012 284.168 229.582C287.744 235.619 288.071 242.182 287.626 246.889V246.883Z" fill="#FFF2E8"/>
<path fill-rule="evenodd" clip-rule="evenodd" d="M287.626 246.883C284.793 249.271 281.564 251.497 277.921 253.495C263.149 261.611 250.116 255.809 249.095 241.699C248.415 232.198 254.761 223.612 259.265 217.965C264.807 218.274 278.502 220.012 284.168 229.582C287.744 235.619 288.071 242.182 287.626 246.889V246.883Z" fill="#FFF2E8"/>
<path fill-rule="evenodd" clip-rule="evenodd" d="M287.626 246.883C284.793 249.271 281.564 251.497 277.921 253.495C263.149 261.611 250.116 255.809 249.095 241.699C249.021 240.648 249.034 239.621 249.114 238.594C249.157 238.05 249.219 237.505 249.312 236.967C249.312 236.955 249.312 236.943 249.312 236.924C251.168 241.174 255.17 247.365 263.372 249.79C270.04 251.763 279.325 248.108 287.657 240.914C287.849 243.085 287.781 245.114 287.62 246.883H287.626Z" fill="#F8D2B6"/>
<path fill-rule="evenodd" clip-rule="evenodd" d="M232.907 151.357C256.166 158.712 289.203 174.257 301.599 196.148C311.02 213.839 304.519 235.613 289.636 248.064C284.162 252.648 278.082 256.749 271.092 258.605C256.531 262.428 245.452 252.512 246.98 237.672C248.137 227.868 254.551 220.315 260.372 213.004L260.434 215.75C258.225 213.61 255.213 209.942 253.141 207.554C250.71 204.752 248.291 201.925 245.916 199.061C245.514 198.579 245.576 197.861 246.058 197.459C246.485 197.101 247.097 197.113 247.512 197.459C250.388 199.847 253.184 202.309 255.943 204.826C258.417 207.183 261.881 210.097 263.854 212.917C264.547 213.703 264.609 214.891 263.916 215.664C258.597 222.394 252.411 229.495 251.384 238.167C250.196 249.895 258.442 257.361 269.997 254.3C279.715 251.578 289.84 243.376 295.265 234.938C303.653 222.431 303.894 204.653 294.158 192.857C281.31 177.288 262.753 167.644 244.32 160.092C240.132 158.434 235.839 156.875 231.608 155.588C228.868 154.685 230.025 150.578 232.901 151.345L232.907 151.357Z" fill="black"/>
<path fill-rule="evenodd" clip-rule="evenodd" d="M163.615 310.639C166.325 315.631 174.379 323.715 179.605 320.121C184.368 316.849 181.492 307.107 178.863 302.276C176.228 297.438 169.517 289.552 164.234 291.803C158.432 294.271 160.888 305.597 163.622 310.639H163.615Z" fill="black"/>
<path fill-rule="evenodd" clip-rule="evenodd" d="M168.768 284.616C169.51 287.727 171.601 289.836 173.315 289.354C175.022 288.871 175.733 286.094 175.028 283.112C174.317 280.131 172.436 277.978 170.692 278.331C168.948 278.677 168.032 281.504 168.768 284.616Z" fill="black"/>
<path fill-rule="evenodd" clip-rule="evenodd" d="M157.053 278.869C157.912 283.521 160.776 286.793 163.17 286.218C165.564 285.649 166.64 281.659 165.83 277.261C165.02 272.863 162.589 269.522 160.145 269.838C157.702 270.153 156.193 274.217 157.053 278.869Z" fill="black"/>
<path fill-rule="evenodd" clip-rule="evenodd" d="M151.955 288.11C152.704 291.29 154.69 293.51 156.267 293.084C157.844 292.663 158.438 289.855 157.721 286.78C156.997 283.712 155.209 281.455 153.607 281.764C152.005 282.073 151.207 284.925 151.955 288.104V288.11Z" fill="black"/>
<path fill-rule="evenodd" clip-rule="evenodd" d="M268.036 206.967C268.036 206.967 265.951 209.756 262.147 214.34L268.036 206.967Z" fill="#FFAC40"/>
<path fill-rule="evenodd" clip-rule="evenodd" d="M268.945 207.641C267.306 210.4 265.605 213.072 263.854 215.756C262.166 218.175 258.578 215.831 260.118 213.313C261.269 212.008 262.617 210.888 263.823 209.639C264.943 208.532 266.063 207.406 267.139 206.28C268.073 205.315 269.619 206.503 268.939 207.647L268.945 207.641Z" fill="black"/>
<path fill-rule="evenodd" clip-rule="evenodd" d="M220.728 298.008C220.728 298.008 218.458 300.841 213.577 307.657L220.728 298.008Z" fill="#FFAC40"/>
<path fill-rule="evenodd" clip-rule="evenodd" d="M221.606 298.713C219.485 302.01 217.369 305.566 215.377 308.944C213.812 311.43 210.126 309.278 211.536 306.692C212.86 305.004 214.344 303.432 215.748 301.799C216.955 300.457 218.6 298.589 219.837 297.296C220.796 296.3 222.367 297.575 221.6 298.713H221.606Z" fill="black"/>
<path fill-rule="evenodd" clip-rule="evenodd" d="M199.381 316.224C200.513 322.49 195.144 328.014 189.571 329.913C179.401 333.594 170.191 329.505 163.238 321.971C153.292 311.127 147.007 296.739 146.061 282.079C145.745 274.52 147.131 266.318 152.624 260.547C161.853 251.052 176.061 253.953 182.977 264.63C189.169 273.883 193.257 284.659 194.532 295.669C194.674 296.993 192.793 297.401 192.367 296.152C191.253 292.793 190.134 289.477 188.878 286.224C186.36 279.778 183.41 273.481 179.507 267.778C177.775 265.143 175.455 262.78 172.69 261.271C167.308 258.19 160.145 259.143 155.859 263.695C151.337 268.353 150.193 275.473 150.527 281.869C151.424 295.341 157.541 308.758 166.659 318.711C171.131 323.443 176.766 327.198 183.453 326.653C189.465 326.202 196.158 322.756 197.16 316.305C197.297 315.018 199.158 314.981 199.375 316.224H199.381Z" fill="black"/>
<path fill-rule="evenodd" clip-rule="evenodd" d="M294.325 291.63C293.317 298.502 290.502 305.189 285.622 310.206C285.35 310.509 284.83 311.004 284.508 311.27L283.345 312.29C282.418 313.094 281.02 313.002 280.209 312.074C279.35 311.096 279.529 309.569 280.58 308.814C281.007 308.505 281.873 307.886 282.294 307.583C282.597 307.323 283.444 306.587 283.76 306.315L284.669 305.387C287.113 302.82 288.993 299.702 290.391 296.418C291.096 294.735 291.702 292.948 292.098 291.228C292.445 289.855 294.48 290.214 294.319 291.63H294.325Z" fill="black"/>
<path fill-rule="evenodd" clip-rule="evenodd" d="M110.716 142.277C117.606 141.968 123.458 145.673 122.258 153.238C121.757 156.201 117.439 155.601 117.761 152.613C118.336 150.578 118.516 148.58 116.907 147.027C115.367 145.53 112.8 144.77 110.647 144.528C109.274 144.368 109.348 142.339 110.722 142.271L110.716 142.277Z" fill="black"/>
<path fill-rule="evenodd" clip-rule="evenodd" d="M114.854 128.099C121.856 127.505 128.141 131.044 128.147 138.683C128.122 141.683 123.767 141.782 123.607 138.782C123.879 136.487 123.563 134.273 121.714 132.739C119.945 131.217 117.229 130.493 114.885 130.351C113.493 130.252 113.462 128.235 114.848 128.093L114.854 128.099Z" fill="black"/>
<path fill-rule="evenodd" clip-rule="evenodd" d="M260.861 240.648C258.906 243.122 256.221 244.835 253.283 245.912C252.306 246.277 251.298 246.536 250.271 246.759C249.04 247.031 247.827 246.252 247.555 245.021C247.283 243.79 248.062 242.578 249.293 242.305C250.277 242.182 251.279 242.262 252.269 242.077C253.933 241.842 255.566 241.322 257.063 240.536C257.817 240.153 258.621 239.615 259.24 239.089C260.267 238.241 261.659 239.596 260.854 240.642L260.861 240.648Z" fill="black"/>
<path fill-rule="evenodd" clip-rule="evenodd" d="M268.345 250.353C267.331 252.277 265.89 253.792 264.12 255.023C262.364 256.248 260.322 257.034 258.226 257.473C257.001 257.776 255.764 257.027 255.467 255.803C255.164 254.578 255.912 253.341 257.137 253.044C257.731 252.914 258.343 252.988 258.943 252.92C260.966 252.753 262.939 252.066 264.597 250.86C265.277 250.384 265.982 249.722 266.483 249.11C267.343 248.095 268.952 249.178 268.351 250.353H268.345Z" fill="black"/>
<path fill-rule="evenodd" clip-rule="evenodd" d="M166.374 135.083C163.337 132.163 160.752 128.829 158.71 125.192C156.638 121.493 155.215 117.466 154.479 113.21C154.12 111.163 153.923 109.041 153.879 106.907C153.848 104.853 153.966 102.75 154.226 100.635C154.714 96.7007 155.723 92.6677 157.226 88.6346C157.875 86.8903 158.648 85.084 159.533 83.2778C159.533 83.2098 159.533 83.1417 159.533 83.0675C158.704 81.0819 158.58 78.5767 159.168 75.6138C159.657 73.1271 161.135 71.1106 163.368 69.8425C163.894 66.4775 164.531 63.1558 165.273 59.9021C167.246 58.0279 169.436 56.2526 171.867 54.6134C169.436 56.2464 167.246 58.0217 165.273 59.8959C166.325 55.2752 167.593 50.7782 169.059 46.4483C172.863 35.2831 178.028 25.1881 184.418 16.4415C187.956 11.6105 191.754 7.31147 195.701 3.66811C196.251 3.1547 196.814 2.65366 197.297 2.23303L198.064 1.57735L198.292 1.40415C198.521 1.23095 198.806 1.02064 199.177 0.828881L199.591 0.606197L200.055 0.426812C200.692 0.179385 201.385 0.0432998 202.171 0H202.226H202.282C202.827 0 203.315 0.0432998 203.767 0.129899C203.958 0.167013 204.156 0.216499 204.342 0.27217C204.954 0.439183 205.561 0.723725 206.21 1.12579L206.266 1.15672L206.315 1.19384C206.952 1.64539 207.441 2.10932 207.837 2.61036C208.258 3.12377 208.598 3.72378 208.876 4.44132C208.987 4.72586 209.055 4.99184 209.111 5.20216L209.161 5.4001L209.73 7.95478C209.903 8.79604 210.126 9.6311 210.361 10.5157C210.472 10.9363 210.583 11.3507 210.689 11.7713C211.975 16.5158 213.689 21.421 215.928 26.7283C216.28 27.5881 216.645 28.4046 217.029 29.2706C217.196 29.6418 217.363 30.0129 217.524 30.3841L217.852 31.083C218.297 32.0418 218.755 33.0192 219.231 33.9656C219.553 34.6398 219.88 35.2769 220.128 35.7532C220.406 36.3099 220.703 36.879 221.043 37.5223C221.309 38.0234 221.569 38.5059 221.823 38.9698C224 38.7966 226.338 38.7842 229.054 38.9265C232.134 39.0811 235.32 39.477 238.518 40.0956C241.722 40.7389 244.821 41.5863 247.728 42.6131C250.289 43.5163 252.448 44.4132 254.403 45.4029C254.811 45.0751 255.225 44.7348 255.665 44.3637C256.234 43.8998 256.722 43.4853 257.18 43.0894C257.607 42.7245 258.151 42.2606 258.677 41.7843C259.487 41.0729 260.279 40.343 261.052 39.6378L261.64 39.0997C261.931 38.8151 262.228 38.5368 262.518 38.2584C263.205 37.6089 263.854 36.9904 264.492 36.3409C268.593 32.2583 272.044 28.3799 275.057 24.4458C275.298 24.1242 275.558 23.7839 275.818 23.4375C276.374 22.7076 276.894 22.021 277.376 21.3159L278.873 19.1694L278.997 19.0086C279.127 18.8354 279.294 18.6127 279.517 18.3838C280.042 17.8333 280.587 17.4065 281.168 17.091C281.719 16.7694 282.356 16.5281 283.11 16.3549L283.172 16.3426H283.234C283.989 16.2065 284.663 16.1817 285.288 16.256C285.48 16.2745 285.678 16.3055 285.869 16.3426C286.321 16.4292 286.791 16.5776 287.292 16.7879L287.348 16.8065L287.397 16.8312C288.115 17.1714 288.696 17.5611 289.191 18.0251L289.556 18.3715L289.859 18.7364C290.131 19.0457 290.304 19.3488 290.453 19.59L290.601 19.8437L291.053 20.7344C291.344 21.3159 291.678 21.9963 291.999 22.6891C294.257 27.551 296.137 32.9635 297.579 38.7842C300.171 49.2999 301.117 60.6011 300.387 72.3725C300.096 76.9375 299.558 81.5768 298.779 86.2469C298.216 84.9912 297.597 83.7417 296.911 82.4984C297.597 83.7417 298.222 84.9974 298.785 86.2531C298.234 89.5501 297.56 92.8594 296.768 96.175C298.352 98.1977 298.952 100.622 298.457 103.109C297.876 106.072 296.806 108.336 295.284 109.864C295.253 109.926 295.228 109.988 295.203 110.056C295.333 112.06 295.364 114.021 295.302 115.895C295.16 120.2 294.56 124.314 293.521 128.13C292.958 130.184 292.265 132.182 291.461 134.062C290.62 136.023 289.624 137.91 288.511 139.679C286.203 143.341 283.358 146.526 280.042 149.149C276.783 151.729 273.127 153.832 269.168 155.397C269.112 162.077 263.817 180.152 213.961 170.31C161.092 159.875 164.024 142.326 166.374 135.095V135.083Z" fill="#9968FD"/>
<path fill-rule="evenodd" clip-rule="evenodd" d="M258.473 164.341C257.978 159.219 257.724 157.265 257.514 155.514L177.125 139.648C176.259 141.2 175.207 143.038 172.776 147.652C172.016 147.003 171.255 146.328 170.5 145.623C173.698 139.574 175.047 137.297 175.071 137.254C175.387 136.697 176.018 136.407 176.649 136.53L259.147 152.811C259.772 152.935 260.248 153.442 260.329 154.079C260.335 154.129 260.694 156.547 261.343 163.228C260.372 163.617 259.419 163.989 258.473 164.335V164.341Z" fill="#433B72"/>
<path fill-rule="evenodd" clip-rule="evenodd" d="M258.498 164.613C258.003 159.473 257.724 157.265 257.514 155.514L177.125 139.648C176.259 141.194 175.331 142.803 172.894 147.429C172.133 146.78 171.379 146.106 170.618 145.401C173.809 139.363 175.016 137.353 175.078 137.254C175.393 136.697 176.024 136.407 176.649 136.53L259.141 152.811C259.766 152.935 260.242 153.442 260.322 154.079C260.335 154.197 260.712 156.838 261.362 163.5C260.39 163.89 259.438 164.261 258.491 164.607L258.498 164.613Z" fill="black"/>
<path fill-rule="evenodd" clip-rule="evenodd" d="M218.309 142.58L265.067 151.809C265.067 151.809 270.584 176.49 213.831 165.294C157.077 154.091 171.558 133.357 171.558 133.357L218.315 142.586L218.309 142.58Z" fill="#9968FD"/>
<path fill-rule="evenodd" clip-rule="evenodd" d="M218.309 142.58L265.067 151.809C265.067 151.809 265.123 152.056 265.166 152.477C261.9 158.762 250.871 165.962 215.093 158.904C179.315 151.846 171.849 140.996 171.212 133.939C171.409 133.561 171.552 133.357 171.552 133.357L218.309 142.586V142.58Z" fill="black"/>
<path fill-rule="evenodd" clip-rule="evenodd" d="M172.319 135.015C171.651 136.425 170.642 139.524 172.201 143.328C174.688 149.403 183.985 157.89 214.115 163.84C244.252 169.785 256.073 165.461 260.681 160.791C263.564 157.865 263.811 154.617 263.731 153.052L172.325 135.015H172.319ZM256.481 166.976C253.234 168.065 250.023 168.869 246.528 169.345C238.153 170.261 227.279 169.426 213.979 166.828C210.818 166.197 207.874 165.56 205.121 164.892C201.187 163.933 197.569 162.9 194.259 161.786C186.305 159.071 180.057 155.725 174.082 150.98C171.923 148.908 170.37 146.706 169.43 144.368C166.764 137.749 170.197 132.714 170.339 132.503C170.673 132.021 171.267 131.786 171.842 131.897L265.358 150.349C265.933 150.461 266.391 150.906 266.514 151.481C266.57 151.735 267.832 157.692 262.852 162.807C261.188 164.514 259.067 165.9 256.487 166.97L256.481 166.976Z" fill="black"/>
<path fill-rule="evenodd" clip-rule="evenodd" d="M233.792 156.139C227.872 155.57 221.996 154.704 216.169 153.56H216.144C210.311 152.403 204.54 150.968 198.837 149.242C193.301 147.442 188.47 145.45 184.245 143.322C138.223 120.052 165.774 79.585 165.774 79.585C170.061 34.6522 191.049 12.2168 200.334 4.36094C202.245 2.74647 205.171 3.79185 205.666 6.24138C209.631 25.8376 219.862 42.7988 219.862 42.7988C222.027 42.4833 224.39 42.4029 226.685 42.4462C234.188 42.5761 241.611 44.0421 248.601 46.77C250.735 47.5989 252.893 48.5762 254.774 49.6896C254.774 49.6896 270.683 37.8873 281.793 21.2664C283.185 19.188 286.284 19.3303 287.44 21.5571C293.045 32.3511 303.938 61.0774 290.836 104.272C290.836 104.272 302.892 161.354 233.786 156.145L233.792 156.139Z" fill="#FBA329"/>
<path fill-rule="evenodd" clip-rule="evenodd" d="M180.255 139.697C179.692 139.351 179.135 138.998 178.585 138.633L177.41 137.848C177.02 137.582 176.643 137.297 176.259 137.025C175.486 136.487 174.756 135.899 174.014 135.324C172.566 134.136 171.143 132.912 169.851 131.569C167.228 128.922 164.958 125.953 163.213 122.705C161.475 119.458 160.281 115.938 159.681 112.32C159.081 108.695 159.063 104.971 159.521 101.291C159.991 97.6162 160.906 93.979 162.187 90.4656C162.756 88.8944 163.393 87.348 164.098 85.8325C163.708 89.3274 163.77 94.1646 165.044 99.107C164.952 99.5028 164.865 99.8987 164.785 100.295C161.283 118.066 173.605 133.079 180.255 139.691V139.697ZM172.325 69.8487C172.313 69.7745 172.3 69.694 172.288 69.6198C171.83 66.929 175.758 64.1579 178.492 64.696C178.721 64.7393 178.944 64.8135 179.154 64.9063C179.154 64.9063 181.288 57.4217 187.288 58.6093C187.566 58.665 187.851 58.7392 188.142 58.832L189.558 58.498C189.558 58.498 191.395 60.6877 190.387 62.0857C188.964 64.0651 184.183 60.8547 182.272 67.4919C182.16 67.8878 181.956 68.2404 181.696 68.5435C177.564 68.7662 174.335 69.3724 172.313 69.8549L172.325 69.8487Z" fill="#BE6F00"/>
<path fill-rule="evenodd" clip-rule="evenodd" d="M254.588 154.376C263.434 150.714 281.088 141.194 284.082 122.668C284.082 122.65 284.082 122.631 284.094 122.606C284.032 123.008 283.958 123.411 283.878 123.806C280.364 141.59 263.242 150.795 254.582 154.376H254.588ZM180.249 139.697C173.593 133.085 161.277 118.072 164.778 100.301C164.859 99.9049 164.939 99.509 165.038 99.1132C165.038 99.1317 165.032 99.1503 165.026 99.175C160.758 117.435 173.463 132.949 180.255 139.697H180.249Z" fill="#4A4A8E"/>
<path fill-rule="evenodd" clip-rule="evenodd" d="M216.169 153.56H216.144C216.144 153.56 216.126 153.553 216.12 153.547C210.348 152.409 204.633 150.986 198.985 149.285C199.01 149.199 198.973 149.112 198.892 149.075C195.379 147.467 191.878 145.926 188.476 144.213C185.667 142.809 182.909 141.33 180.255 139.697C173.463 132.949 160.758 117.441 165.026 99.175C165.026 99.1565 165.032 99.1379 165.038 99.1132C165.038 99.1317 165.032 99.1503 165.026 99.175C165.106 99.7194 165.205 100.27 165.317 100.827C168.688 104.099 187.665 117.714 194.674 114.237C201.93 110.631 205.777 97.7894 212.835 89.7233C216.441 85.6037 222.949 83.3397 228.336 84.2242C235.512 85.4057 240.998 90.0079 243.058 96.8863C246.188 107.34 244.642 123.491 249.974 129.033C258.127 137.508 275.731 129.077 284.088 122.674C284.088 122.656 284.088 122.637 284.1 122.613C280.946 138.603 269.02 148.407 254.595 154.376C251.526 154.877 248.415 155.186 245.291 155.421C244.339 155.471 243.392 155.564 242.44 155.607C241.487 155.644 240.528 155.725 239.576 155.755C238.617 155.774 237.658 155.842 236.699 155.873C235.741 155.904 234.776 155.935 233.811 155.997C233.743 155.997 233.687 156.046 233.675 156.12V156.133C227.804 155.564 221.965 154.704 216.188 153.566L216.169 153.56ZM165.651 102.311L165.669 102.385L165.657 102.348V102.311H165.651ZM165.954 103.443L165.978 103.517L165.966 103.48L165.954 103.443ZM166.09 103.895L166.115 103.969L166.102 103.919V103.895H166.09Z" fill="white"/>
<path fill-rule="evenodd" clip-rule="evenodd" d="M205.827 124.685C204.893 123.837 203.711 122.526 203 120.843C203.767 120.528 204.497 120.175 205.196 119.786C205.474 120.138 205.783 120.472 206.123 120.775C205.926 121.771 205.752 123.145 205.827 124.685ZM236.718 130.747C237.367 129.367 237.72 128.044 237.918 127.054C238.338 126.905 238.741 126.726 239.124 126.51C239.619 127.122 240.151 127.716 240.732 128.291C239.458 129.559 237.899 130.314 236.724 130.747H236.718ZM232.951 124.375C232.951 124.375 232.914 124.369 232.895 124.363C225.2 122.841 225.361 114.806 225.373 114.466C225.379 114.237 225.336 114.021 225.256 113.823L227.291 113.501C227.291 113.501 228.324 120.837 233.464 121.852C234.51 122.056 235.394 121.92 236.143 121.567C236.52 122.408 236.941 123.244 237.423 124.048C236.26 124.611 234.757 124.716 232.957 124.369L232.951 124.375ZM211.783 120.2C211.783 120.2 211.746 120.194 211.728 120.188C209.909 119.823 208.554 119.142 207.695 118.165C208.437 117.608 209.136 117.008 209.798 116.377C210.354 116.99 211.121 117.454 212.167 117.658C217.307 118.672 221.05 112.276 221.05 112.276L222.85 113.371C222.701 113.52 222.584 113.699 222.509 113.903C222.392 114.225 219.485 121.722 211.79 120.206L211.783 120.2Z" fill="white"/>
<path fill-rule="evenodd" clip-rule="evenodd" d="M254.594 154.376C263.254 150.795 280.37 141.584 283.89 123.806C283.97 123.411 284.038 123.008 284.106 122.606C287.162 118.518 289.055 114.064 290.026 110.687C290.1 112.357 290.1 114.027 290.032 115.697C289.884 119.433 289.346 123.145 288.387 126.72C287.41 130.295 285.981 133.728 284.051 136.858C282.115 139.982 279.671 142.778 276.832 145.122C273.98 147.46 270.764 149.353 267.325 150.801C265.617 151.549 263.842 152.143 262.048 152.694C261.145 152.947 260.242 153.213 259.327 153.417C258.869 153.522 258.411 153.646 257.953 153.739L256.568 154.017C255.912 154.147 255.256 154.259 254.601 154.37L254.594 154.376ZM288.48 92.7729C286.791 91.5605 284.032 89.7728 280.296 87.9975C280.16 87.6202 280.11 87.2119 280.154 86.7975C280.89 79.8695 275.094 80.618 274.704 78.719C274.364 77.0365 276.838 75.7189 276.838 75.7189L278.026 76.5664C278.335 76.5911 278.626 76.6344 278.904 76.6901C284.91 77.8777 284.038 85.6098 284.038 85.6098C284.267 85.6037 284.502 85.6222 284.731 85.6655C287.465 86.2037 290.038 90.2615 288.597 92.5749C288.554 92.643 288.517 92.7048 288.48 92.7729Z" fill="#BE6F00"/>
<path fill-rule="evenodd" clip-rule="evenodd" d="M281.799 21.2664C270.683 37.8873 254.78 49.6896 254.78 49.6896C252.9 48.5823 250.741 47.5988 248.607 46.7699C241.617 44.042 234.194 42.576 226.697 42.4461C224.408 42.4028 222.033 42.4894 219.874 42.8049C219.874 42.8049 209.643 25.8438 205.672 6.24754C205.301 4.41657 203.575 3.37738 201.93 3.63718C202.035 3.62481 202.115 3.71141 202.171 3.97121C205.857 22.188 214.443 41.1533 216.887 45.4524C217.27 46.1266 218.006 46.4978 218.779 46.4173C220.777 46.2008 222.899 46.1514 224.959 46.1885C225.843 46.2008 226.728 46.238 227.606 46.2874C228.299 48.0813 231.868 50.0174 236.409 50.9081C240.949 51.8051 244.982 51.3659 246.306 49.9741C247.141 50.2648 247.97 50.5617 248.792 50.8834C250.71 51.6319 252.652 52.4855 254.421 53.4443C255.102 53.8092 255.931 53.7474 256.537 53.2711C260.428 50.2215 274.89 36.978 285.226 21.5262C285.851 20.5921 286.475 21.6932 287.459 21.5695C286.315 19.3303 283.197 19.1818 281.805 21.2602L281.799 21.2664Z" fill="#BE6F00"/>
<path fill-rule="evenodd" clip-rule="evenodd" d="M200.321 4.37946C200.965 4.73823 201.546 3.72996 201.899 3.63718C201.348 3.72996 200.804 3.9712 200.321 4.37946Z" fill="#A2A2D2"/>
<path fill-rule="evenodd" clip-rule="evenodd" d="M223.697 115.406C223.697 115.406 223.672 115.462 223.654 115.487C223.654 115.456 223.654 115.425 223.648 115.4L223.697 115.412V115.406Z" fill="#FF6C8B"/>
<path fill-rule="evenodd" clip-rule="evenodd" d="M232.32 127.27C226.753 126.169 224.105 122.316 223.029 118.777C220.691 121.641 216.775 124.202 211.208 123.101C211.183 123.101 211.165 123.095 211.14 123.089C208.19 122.489 206.055 121.19 204.794 119.223C203.049 116.501 203.717 113.532 203.748 113.408C203.934 112.61 204.726 112.122 205.53 112.307C206.328 112.493 206.816 113.291 206.631 114.089C206.631 114.095 206.229 116 207.305 117.658C208.121 118.914 209.612 119.761 211.728 120.194C211.746 120.194 211.765 120.2 211.783 120.206C219.478 121.728 222.386 114.225 222.503 113.903C222.757 113.223 223.468 112.827 224.18 112.969C224.891 113.111 225.398 113.748 225.367 114.472C225.355 114.812 225.2 122.848 232.889 124.369C232.908 124.369 232.926 124.375 232.945 124.382C235.066 124.79 236.767 124.567 237.998 123.72C239.625 122.6 239.978 120.683 239.978 120.664C240.12 119.866 240.881 119.322 241.679 119.452C242.477 119.594 243.027 120.336 242.897 121.14C242.879 121.27 242.372 124.27 239.724 126.126C237.807 127.468 235.338 127.858 232.382 127.289C232.357 127.289 232.338 127.283 232.314 127.277L232.32 127.27Z" fill="black"/>
<path fill-rule="evenodd" clip-rule="evenodd" d="M229.802 104.42C227.538 102.998 224.804 102.453 222.169 102.911C220.115 103.27 217.938 104.247 217.449 106.728C216.472 111.689 219.899 115.864 223.443 116.563C226.988 117.262 231.745 114.701 232.722 109.74C233.211 107.26 231.571 105.528 229.808 104.414L229.802 104.42Z" fill="black"/>
<path fill-rule="evenodd" clip-rule="evenodd" d="M229.92 107.247C229.815 107.785 227.73 107.823 225.262 107.334C222.794 106.845 220.883 106.016 220.988 105.484C221.093 104.946 223.177 104.909 225.646 105.398C228.114 105.886 230.025 106.715 229.92 107.247Z" fill="white"/>
<path fill-rule="evenodd" clip-rule="evenodd" d="M188.148 58.8011V58.832C188.012 58.7825 187.882 58.733 187.752 58.6897C186.979 58.4238 186.267 58.2939 185.624 58.2629C185.302 58.2444 184.999 58.2629 184.709 58.2877C184.634 58.2939 184.56 58.3062 184.492 58.3186C184.35 58.3433 184.214 58.3681 184.078 58.4052C183.966 58.4299 183.849 58.4609 183.744 58.498C183.465 58.5846 183.206 58.6959 182.958 58.8258C182.791 58.9124 182.624 59.0176 182.469 59.1227C182.315 59.2279 182.166 59.3392 182.024 59.463C181.931 59.5372 181.845 59.6176 181.758 59.7042C181.665 59.7908 181.572 59.8836 181.492 59.9764C181.245 60.2485 181.022 60.5331 180.818 60.83C180.75 60.929 180.688 61.0279 180.626 61.1269C180.354 61.5723 180.131 62.0238 179.952 62.4506C179.952 62.4506 179.946 62.463 179.946 62.4754C179.909 62.562 179.871 62.6486 179.84 62.7414C179.84 62.7476 179.834 62.7537 179.834 62.7661C179.748 62.995 179.673 63.2115 179.605 63.4094C179.587 63.4651 179.568 63.5269 179.55 63.5826C179.531 63.6568 179.513 63.7249 179.488 63.7929C179.315 64.3991 179.253 64.8074 179.253 64.8074C176.568 64.2754 174.898 65.0115 173.853 66.1744C172.758 67.393 172.356 69.0879 172.214 70.3003C172.244 69.8487 172.269 69.3972 172.306 68.9456C172.467 66.7744 172.715 64.6466 173.024 62.5682C177.688 31.7449 197.859 11.7033 201.756 8.0847C201.824 8.02284 201.88 7.97336 201.93 7.92387C202.134 7.7383 202.27 7.61459 202.344 7.54654C202.369 7.52799 202.375 7.51562 202.387 7.50943H202.4C196.777 14.1157 193.35 22.4788 191.272 30.5202C187.573 44.8029 188.129 58.0836 188.16 58.8073L188.148 58.8011Z" fill="white"/>
<path fill-rule="evenodd" clip-rule="evenodd" d="M188.148 58.8011V58.832C188.012 58.7825 187.882 58.733 187.752 58.6897C186.973 58.4299 186.267 58.2939 185.624 58.2629C185.302 58.2506 184.999 58.2629 184.709 58.2877C184.634 58.2939 184.56 58.3062 184.492 58.3186C184.35 58.3433 184.214 58.3681 184.078 58.4052C183.966 58.4299 183.855 58.4671 183.744 58.498C183.465 58.5846 183.206 58.6959 182.958 58.8258C182.785 58.9124 182.624 59.0176 182.469 59.1227C182.315 59.2279 182.166 59.3392 182.024 59.463C181.931 59.5372 181.845 59.6176 181.758 59.7042C181.665 59.7908 181.572 59.8836 181.492 59.9764C181.245 60.2424 181.016 60.5331 180.818 60.83C180.75 60.929 180.688 61.0279 180.626 61.1269C180.354 61.5661 180.131 62.0176 179.952 62.4506C179.952 62.4506 179.946 62.463 179.946 62.4754C179.909 62.562 179.871 62.6486 179.84 62.7414C179.84 62.7476 179.834 62.7537 179.834 62.7661C179.742 62.995 179.667 63.2053 179.605 63.4094C179.587 63.4651 179.568 63.5269 179.55 63.5826C179.531 63.6507 179.506 63.7249 179.488 63.7929C179.315 64.3991 179.253 64.8074 179.253 64.8074C176.599 64.56 174.911 65.1971 173.853 66.1744C172.993 66.9724 172.535 67.9992 172.306 68.9518C172.467 66.7806 172.715 64.6527 173.024 62.5744C173.859 61.8939 174.824 61.5352 175.572 61.3434C176.302 61.1516 176.859 60.5764 177.026 59.8341C178.04 55.368 180.855 53.8031 182.544 53.2587C183.335 53.0051 183.892 52.2938 183.929 51.4711C185.154 25.3489 198.62 11.0724 201.756 8.0847C201.824 8.02284 201.88 7.97336 201.93 7.92387C202.134 7.7383 202.27 7.61459 202.344 7.54654C202.369 7.52799 202.375 7.51562 202.387 7.50943H202.4C196.87 15.2415 193.412 23.2211 191.272 30.5202C186.775 45.8421 188.086 58.1392 188.16 58.8073L188.148 58.8011Z" fill="white"/>
<path fill-rule="evenodd" clip-rule="evenodd" d="M202.548 7.62077C200.829 10.4105 199.325 13.3178 197.921 16.2436L196.894 18.4519C196.573 19.2004 196.239 19.9365 195.929 20.6911C195.292 22.1819 194.729 23.7035 194.185 25.2376C193.659 26.7716 193.152 28.3119 192.719 29.8707C192.608 30.2604 192.49 30.6439 192.385 31.0398L192.076 32.215C191.859 32.9944 191.692 33.7862 191.507 34.578C190.802 37.7388 190.27 40.9368 189.923 44.1534C189.583 47.3761 189.428 50.6112 189.453 53.8464C189.472 54.6567 189.465 55.467 189.503 56.2711L189.62 58.6959V58.733C189.62 58.6959 189.626 58.8629 189.62 58.9434C189.614 59.0423 189.595 59.1413 189.571 59.2403C189.465 59.6362 189.206 59.9826 188.859 60.1929C188.513 60.4032 188.049 60.4774 187.653 60.3661C187.573 60.3475 187.412 60.2856 187.449 60.298H187.437L187.406 60.2795L187.171 60.1929C187.01 60.1372 186.843 60.0877 186.676 60.0444C186.342 59.9578 186.001 59.8898 185.667 59.8526C184.999 59.7784 184.35 59.797 183.799 59.9578C183.236 60.1125 182.773 60.397 182.364 60.7867C181.962 61.1888 181.628 61.7269 181.375 62.3517C181.121 62.9764 180.954 63.6754 180.836 64.4053L180.793 64.6775L180.781 64.7455V64.7826C180.768 64.8259 180.756 64.9373 180.731 65.0115C180.651 65.3394 180.465 65.6424 180.205 65.8775C179.946 66.1126 179.599 66.2672 179.234 66.3043C179.073 66.3291 178.801 66.2919 178.851 66.3043H178.789L178.542 66.2796C178.201 66.2548 177.861 66.261 177.521 66.2796C176.847 66.3291 176.21 66.4899 175.653 66.7249C175.096 66.9662 174.601 67.294 174.187 67.7641C173.766 68.2281 173.438 68.8404 173.172 69.5271C172.913 70.2199 172.739 70.9807 172.579 71.7848V71.7972C172.523 72.0632 172.263 72.2364 171.997 72.1807C171.812 72.1436 171.669 72.0013 171.62 71.8281C171.391 70.9869 171.286 70.0961 171.348 69.1683C171.385 68.7044 171.447 68.2342 171.589 67.7641C171.644 67.5291 171.737 67.294 171.824 67.059C171.929 66.8301 172.034 66.6012 172.17 66.3785C172.671 65.4754 173.482 64.7208 174.391 64.2136C175.306 63.7063 176.296 63.4651 177.261 63.3723C177.744 63.329 178.226 63.3166 178.709 63.3414C178.832 63.3476 178.95 63.3537 179.073 63.3661H179.166C179.265 63.3847 179.049 63.3599 178.937 63.3785C178.678 63.4032 178.424 63.5208 178.245 63.6816C178.059 63.8424 177.935 64.0589 177.873 64.2878C177.861 64.3373 177.843 64.4177 177.843 64.4424V64.3991L177.861 64.3125L177.904 63.9723C178.034 63.0754 178.232 62.1661 178.585 61.2568C178.937 60.3537 179.451 59.4444 180.205 58.665C180.583 58.2815 181.016 57.9413 181.492 57.6629C181.968 57.3908 182.476 57.1866 182.989 57.0505C184.022 56.7722 185.055 56.766 186.014 56.8835C186.496 56.9454 186.966 57.0444 187.43 57.1681C187.659 57.2299 187.888 57.3041 188.117 57.3784C188.228 57.4155 188.346 57.4588 188.463 57.5083L188.507 57.5268H188.531C188.581 57.5516 188.432 57.4959 188.364 57.4835C188.018 57.3908 187.61 57.4526 187.307 57.6382C187.004 57.8176 186.775 58.1207 186.682 58.4671C186.657 58.5537 186.645 58.6403 186.639 58.7269C186.632 58.7949 186.639 58.9434 186.639 58.8939V58.8568L186.546 56.3454C186.509 55.5103 186.533 54.6752 186.521 53.834C186.533 50.4875 186.725 47.1411 187.121 43.8194C187.511 40.4977 188.105 37.1945 188.915 33.947C189.119 33.1367 189.317 32.3264 189.552 31.5222L189.892 30.316C190.01 29.914 190.14 29.5181 190.263 29.1222C190.758 27.5263 191.34 25.9551 191.934 24.3963C193.171 21.2911 194.562 18.2478 196.245 15.3591C197.086 13.9178 197.989 12.5136 198.973 11.1652C199.963 9.82287 201.002 8.51769 202.208 7.34241C202.288 7.26819 202.412 7.26819 202.492 7.34241C202.561 7.41046 202.567 7.50943 202.517 7.58984L202.548 7.62077Z" fill="#984200"/>
<path fill-rule="evenodd" clip-rule="evenodd" d="M278.038 76.5416L278.026 76.5664C278.168 76.5664 278.31 76.5725 278.446 76.5849C279.263 76.6344 279.968 76.7829 280.574 76.9994C280.877 77.1045 281.156 77.2344 281.409 77.3705C281.477 77.4076 281.539 77.4447 281.601 77.4818C281.725 77.5561 281.842 77.6303 281.954 77.7169C282.047 77.7849 282.139 77.8592 282.226 77.9272C282.449 78.1128 282.647 78.3169 282.826 78.5334C282.95 78.6819 283.061 78.8365 283.166 78.9911C283.271 79.1458 283.364 79.3128 283.451 79.4736C283.513 79.5788 283.562 79.6839 283.605 79.7953C283.661 79.9128 283.704 80.0303 283.748 80.1479C283.871 80.4943 283.97 80.8407 284.044 81.1932C284.075 81.3108 284.094 81.4283 284.113 81.5458C284.193 82.0592 284.23 82.5603 284.236 83.0242C284.236 83.0304 284.236 83.0366 284.236 83.0489C284.236 83.1417 284.236 83.2407 284.236 83.3335C284.236 83.3397 284.236 83.3459 284.236 83.3582C284.236 83.5995 284.218 83.8283 284.205 84.0448C284.205 84.1067 284.193 84.1624 284.193 84.2242C284.187 84.2985 284.174 84.3727 284.168 84.4407C284.1 85.0655 284.001 85.4675 284.001 85.4675C286.686 85.9995 287.954 87.3109 288.48 88.7831C289.024 90.3233 288.758 92.0491 288.43 93.2244C288.572 92.7976 288.721 92.3708 288.857 91.9378C289.531 89.8656 290.113 87.8057 290.614 85.7645C298.006 55.4794 286.964 29.283 284.731 24.452C284.694 24.3716 284.663 24.3035 284.632 24.2355C284.515 23.9881 284.434 23.8149 284.391 23.7283C284.379 23.7035 284.372 23.6912 284.366 23.6788V23.6664C287.051 31.9243 287.045 40.9616 285.906 49.1823C283.902 63.7991 278.341 75.8736 278.038 76.5292V76.5416Z" fill="white"/>
<path fill-rule="evenodd" clip-rule="evenodd" d="M278.038 76.5416L278.026 76.5663C278.168 76.5663 278.31 76.5725 278.446 76.5849C279.263 76.6406 279.968 76.7828 280.574 76.9993C280.877 77.1107 281.156 77.2344 281.409 77.3705C281.477 77.4076 281.539 77.4447 281.601 77.4818C281.725 77.556 281.836 77.6303 281.954 77.7169C282.047 77.7849 282.133 77.8591 282.226 77.9272C282.449 78.1128 282.647 78.3169 282.826 78.5334C282.95 78.6818 283.067 78.8365 283.166 78.9911C283.271 79.1458 283.364 79.3128 283.451 79.4736C283.513 79.5788 283.562 79.6839 283.605 79.7953C283.661 79.9128 283.704 80.0303 283.748 80.1479C283.877 80.4881 283.976 80.8468 284.044 81.1932C284.075 81.3108 284.094 81.4283 284.113 81.5458C284.199 82.053 284.23 82.5603 284.236 83.0242C284.236 83.0304 284.236 83.0366 284.236 83.0489C284.236 83.1417 284.236 83.2407 284.236 83.3335C284.236 83.3397 284.236 83.3458 284.236 83.3582C284.236 83.6056 284.224 83.8283 284.205 84.0448C284.205 84.1067 284.193 84.1624 284.193 84.2242C284.187 84.2984 284.174 84.3727 284.168 84.4407C284.1 85.0655 284.001 85.4675 284.001 85.4675C286.55 86.2469 287.867 87.4779 288.48 88.7831C288.974 89.847 289.005 90.9666 288.857 91.9378C289.531 89.8656 290.113 87.8057 290.614 85.7645C290.094 84.818 289.339 84.1191 288.727 83.6613C288.121 83.2098 287.83 82.4613 287.954 81.7128C288.715 77.1911 286.704 74.6797 285.35 73.5354C284.719 72.9972 284.471 72.1312 284.75 71.3518C293.54 46.7266 286.506 28.3984 284.743 24.4458C284.706 24.3654 284.675 24.2973 284.645 24.2293C284.527 23.9819 284.447 23.8087 284.403 23.7221C284.391 23.6973 284.385 23.685 284.379 23.6726V23.6602C286.544 32.9202 286.711 41.6172 285.919 49.1761C284.261 65.0548 278.378 75.9354 278.051 76.523L278.038 76.5416Z" fill="#E5E5E5"/>
<path fill-rule="evenodd" clip-rule="evenodd" d="M233.798 155.991C234.763 155.929 235.728 155.898 236.687 155.867C237.646 155.842 238.604 155.774 239.563 155.749C240.522 155.718 241.475 155.638 242.427 155.601C243.38 155.558 244.332 155.465 245.279 155.415C249.071 155.131 252.85 154.741 256.549 154.017L257.935 153.739C258.399 153.646 258.85 153.522 259.308 153.417C260.23 153.213 261.127 152.941 262.03 152.694C263.824 152.143 265.599 151.549 267.306 150.801C270.739 149.353 273.962 147.46 276.813 145.122C279.653 142.778 282.096 139.982 284.032 136.858C285.962 133.728 287.391 130.295 288.368 126.72C289.327 123.138 289.865 119.427 290.014 115.697C290.088 113.829 290.082 111.955 289.977 110.087C289.921 109.153 289.853 108.219 289.754 107.291C289.704 106.827 289.649 106.363 289.587 105.905C289.525 105.454 289.451 104.971 289.377 104.569V104.538C289.333 104.297 289.352 104.056 289.414 103.833C292.556 93.4842 294.634 82.8139 295.309 72.0508C295.977 61.2939 295.21 50.4319 292.643 39.9905C291.35 34.7759 289.643 29.6604 287.385 24.817C287.106 24.2108 286.809 23.6108 286.513 23.0108L286.284 22.5654L286.172 22.3427L286.117 22.2375L286.08 22.1757C286.03 22.0953 285.987 22.0087 285.919 21.9406L285.832 21.8293C285.795 21.7984 285.764 21.7674 285.733 21.7365C285.467 21.4829 285.115 21.3283 284.737 21.2911C284.552 21.2602 284.36 21.2911 284.168 21.3097C283.989 21.3592 283.803 21.4087 283.649 21.5076C283.482 21.5881 283.346 21.718 283.209 21.8479C283.141 21.9159 283.092 22.0025 283.03 22.0705L282.739 22.485L281.552 24.1922C280.778 25.3428 279.912 26.4253 279.084 27.5325C275.712 31.9243 272.001 36.0254 268.092 39.91C267.127 40.8936 266.112 41.8276 265.116 42.7864C264.102 43.7204 263.094 44.6545 262.054 45.5637C261.541 46.0277 261.021 46.473 260.496 46.9246C259.976 47.3762 259.444 47.8215 258.912 48.2607C257.848 49.1453 256.784 50.0051 255.652 50.8649C255.17 51.2298 254.533 51.2484 254.038 50.9638L254.019 50.9515C251.551 49.5102 248.817 48.372 246.046 47.3947C243.275 46.4174 240.429 45.6503 237.547 45.0751C234.664 44.5122 231.738 44.141 228.8 43.9926C225.868 43.8379 222.905 43.8565 220.078 44.2524H220.06C219.46 44.339 218.891 44.0421 218.6 43.5534C217.876 42.3286 217.221 41.1348 216.571 39.9038C216.243 39.2915 215.928 38.6853 215.618 38.0667C215.303 37.4543 214.994 36.8358 214.691 36.2172C214.078 34.98 213.497 33.7305 212.915 32.481C212.359 31.2192 211.783 29.9696 211.258 28.6892C209.117 23.6108 207.243 18.4086 205.789 13.0642C205.449 11.7219 205.053 10.3982 204.775 9.03731L204.323 7.0084L204.212 6.51355C204.181 6.42076 204.169 6.32179 204.132 6.23519C204.057 6.06199 203.983 5.8888 203.86 5.75271C203.754 5.59807 203.6 5.48673 203.451 5.3692C203.284 5.27641 203.123 5.17744 202.938 5.13414C202.573 5.0228 202.189 5.03517 201.849 5.16507C201.806 5.18363 201.763 5.196 201.719 5.21456L201.596 5.2826C201.509 5.31971 201.435 5.38157 201.36 5.43724L201.299 5.48054L201.206 5.56095L201.014 5.72178L200.637 6.04962C200.136 6.48881 199.635 6.92799 199.146 7.38573C195.218 11.0105 191.692 15.0931 188.519 19.4231C182.173 28.1016 177.342 37.8626 173.871 48.0628C170.407 58.2815 168.273 68.9394 167.253 79.7025C167.228 79.9499 167.141 80.1788 167.018 80.3768L167.005 80.3953C166.783 80.7417 166.529 81.1562 166.3 81.552C166.071 81.9541 165.842 82.3624 165.62 82.7706C165.18 83.5933 164.76 84.4284 164.352 85.2696C163.547 86.9583 162.824 88.6903 162.187 90.447C160.906 93.9605 159.991 97.5915 159.521 101.272C159.069 104.946 159.081 108.67 159.681 112.301C160.281 115.926 161.481 119.439 163.213 122.687C164.958 125.928 167.228 128.903 169.851 131.551C171.143 132.893 172.566 134.118 174.014 135.306C174.756 135.881 175.486 136.475 176.259 137.007C176.643 137.279 177.02 137.563 177.41 137.829L178.585 138.615C181.74 140.681 185.074 142.493 188.482 144.194C191.884 145.908 195.385 147.448 198.899 149.056C198.985 149.1 199.029 149.199 198.985 149.291C198.948 149.366 198.868 149.409 198.787 149.39C194.995 148.605 191.284 147.442 187.659 146.025C186.75 145.673 185.865 145.277 184.968 144.893C184.078 144.504 183.206 144.058 182.321 143.644C181.455 143.186 180.589 142.741 179.735 142.264L178.467 141.528L177.836 141.157L177.212 140.768L175.968 139.982C175.554 139.716 175.158 139.431 174.75 139.153C173.927 138.615 173.148 138.009 172.356 137.427C170.803 136.215 169.275 134.959 167.865 133.567C165.007 130.821 162.521 127.648 160.56 124.147C158.599 120.646 157.25 116.792 156.564 112.839C156.217 110.86 156.032 108.856 155.995 106.858C155.964 104.853 156.081 102.856 156.329 100.882C156.824 96.9296 157.832 93.0636 159.211 89.3645C159.898 87.5088 160.696 85.7026 161.568 83.9335C162.001 83.049 162.471 82.1768 162.96 81.317C163.201 80.884 163.455 80.4572 163.714 80.0365C163.98 79.6035 164.234 79.2015 164.543 78.7499L164.296 79.4427C165.335 68.4817 167.512 57.5887 171.063 47.1287C174.62 36.6749 179.581 26.6479 186.125 17.6911C189.397 13.2188 193.041 9.00019 197.136 5.22074C197.643 4.74444 198.169 4.28052 198.688 3.82278L199.084 3.48257L199.282 3.30937L199.387 3.22277L199.536 3.11142C199.734 2.96297 199.925 2.81451 200.148 2.70317L200.476 2.52997L200.829 2.39389C201.292 2.2145 201.793 2.13409 202.288 2.10934C202.783 2.10934 203.284 2.15264 203.754 2.3011C204.231 2.42481 204.676 2.65368 205.09 2.91348C205.493 3.19802 205.876 3.52587 206.173 3.92175C206.488 4.30526 206.723 4.75063 206.903 5.20837C206.996 5.43724 207.045 5.67848 207.107 5.91354L207.218 6.41458L207.658 8.38162C207.93 9.69917 208.313 10.992 208.641 12.291C210.051 17.4869 211.882 22.5716 213.979 27.5449C214.487 28.7944 215.056 30.0191 215.6 31.2563C216.175 32.481 216.738 33.7058 217.338 34.912C217.629 35.5182 217.938 36.1244 218.241 36.7244C218.544 37.3244 218.86 37.9244 219.175 38.5183C219.8 39.7059 220.462 40.9059 221.124 42.0255L219.645 41.3266C222.782 40.8936 225.874 40.8812 228.949 41.042C232.029 41.1967 235.091 41.5864 238.116 42.174C241.134 42.7802 244.122 43.5781 247.023 44.605C249.924 45.6256 252.782 46.8071 255.516 48.403L253.883 48.4896C254.922 47.704 255.986 46.8442 257.019 45.9844C257.539 45.5576 258.052 45.1246 258.566 44.6792C259.079 44.24 259.592 43.8008 260.094 43.3493C261.108 42.4585 262.098 41.5369 263.094 40.6276C264.065 39.6874 265.061 38.7719 266.007 37.8069C269.836 34.0027 273.467 29.9944 276.739 25.7201C277.543 24.6376 278.385 23.5922 279.133 22.4788L280.29 20.8272L280.587 20.4066C280.735 20.2148 280.871 20.0107 281.044 19.8313C281.385 19.4787 281.768 19.1509 282.207 18.9158C282.634 18.6622 283.11 18.5076 283.593 18.3962C284.075 18.3096 284.576 18.2725 285.065 18.3344C285.56 18.3777 286.036 18.5261 286.494 18.7117C286.939 18.922 287.372 19.188 287.737 19.5344L288.01 19.7942L288.245 20.0787C288.412 20.2705 288.535 20.4808 288.659 20.6911L288.752 20.852L288.814 20.9695L288.931 21.2045L289.166 21.6746C289.476 22.2994 289.785 22.9242 290.076 23.5551C292.426 28.6088 294.195 33.8914 295.525 39.2729C298.179 50.0422 298.958 61.2073 298.278 72.224C297.585 83.2531 295.463 94.1523 292.259 104.686L292.29 103.95C292.401 104.489 292.482 104.959 292.562 105.46C292.643 105.948 292.711 106.443 292.779 106.932C292.902 107.915 293.001 108.899 293.069 109.882C293.205 111.849 293.255 113.829 293.187 115.802C293.057 119.749 292.525 123.707 291.48 127.555C290.954 129.479 290.304 131.372 289.519 133.209C288.727 135.046 287.793 136.827 286.723 138.528C284.583 141.924 281.88 144.98 278.731 147.473C275.589 149.959 272.081 151.951 268.401 153.411C266.564 154.16 264.671 154.741 262.778 155.273C261.826 155.514 260.873 155.774 259.908 155.96C259.425 156.059 258.949 156.17 258.467 156.263L257.019 156.516L256.296 156.64L255.566 156.739L254.112 156.943C253.141 157.061 252.17 157.147 251.199 157.24C250.227 157.296 249.25 157.364 248.279 157.395C247.302 157.407 246.33 157.444 245.359 157.419L243.899 157.382C243.411 157.37 242.928 157.358 242.446 157.32C241.475 157.259 240.51 157.197 239.545 157.098C238.58 156.999 237.615 156.887 236.656 156.758C235.697 156.609 234.738 156.454 233.792 156.275C233.712 156.263 233.656 156.182 233.674 156.102C233.687 156.034 233.743 155.984 233.811 155.984L233.798 155.991Z" fill="black"/>
<path fill-rule="evenodd" clip-rule="evenodd" d="M173.475 68.5311C173.475 68.426 173.494 67.8321 173.642 67.0404C173.581 67.5352 173.531 68.0301 173.475 68.5311Z" fill="#FF7C88"/>
<path fill-rule="evenodd" clip-rule="evenodd" d="M287.731 98.1791C287.781 98.0863 288.053 97.5605 288.313 96.7935C288.127 97.2574 287.929 97.7151 287.731 98.1791Z" fill="#FF7C88"/>
<path fill-rule="evenodd" clip-rule="evenodd" d="M188.303 53.4875C209.111 64.4733 221.483 78.02 218.606 89.0985C217.542 93.2058 214.48 96.5832 209.86 99.1935C220.883 95.6553 231.299 98.6183 241.19 107.322C238.419 102.794 237.392 98.3523 238.456 94.2512C241.295 83.2963 258.331 77.4818 281.44 77.8529C280.389 76.022 279.226 74.2343 277.952 72.4961L235.159 61.3928L233.644 61.0031L193.597 50.6112C191.767 51.4834 189.997 52.4484 188.29 53.4937L188.303 53.4875Z" fill="#9355F7"/>
<path fill-rule="evenodd" clip-rule="evenodd" d="M201.589 54.8608C218.229 59.1784 228.219 76.1704 223.901 92.8099C219.584 109.449 202.591 119.439 185.952 115.122C170.482 111.107 160.764 96.144 162.941 80.6922L160.189 79.622C159.626 79.4056 159.341 78.7622 159.564 78.1993L164.556 65.3208C164.772 64.7579 165.416 64.4733 165.978 64.696L169.152 65.927C176.544 56.3824 189.162 51.6318 201.589 54.8546V54.8608Z" fill="black"/>
<path fill-rule="evenodd" clip-rule="evenodd" d="M269.83 72.5704C253.19 68.2528 236.198 78.2426 231.881 94.8821C227.563 111.522 237.553 128.514 254.192 132.831C269.663 136.846 285.43 128.495 291.04 113.934L293.966 114.342C294.566 114.423 295.123 114.002 295.203 113.402L297.102 99.7193C297.183 99.1193 296.762 98.5626 296.162 98.4822L292.791 98.0121C290.966 86.0799 282.251 75.7869 269.83 72.5642V72.5704Z" fill="black"/>
<path fill-rule="evenodd" clip-rule="evenodd" d="M266.811 71.9394L235.215 63.7372L234.609 63.5764L204.546 55.7762C219.398 61.232 227.965 77.1725 223.914 92.8037C222.85 96.9048 221.012 100.604 218.6 103.789C223.963 98.7791 228.114 100.121 231.194 107.056C230.631 103.103 230.829 98.977 231.893 94.8759C235.951 79.2447 251.192 69.4775 266.817 71.9332L266.811 71.9394Z" fill="black"/>
<path fill-rule="evenodd" clip-rule="evenodd" d="M203.13 56.3577C218.204 60.267 227.26 75.6632 223.344 90.7377C219.435 105.812 204.039 114.868 188.964 110.952C173.89 107.043 164.834 91.647 168.75 76.5725C172.659 61.498 188.055 52.4421 203.136 56.3577H203.13Z" fill="#333333"/>
<path fill-rule="evenodd" clip-rule="evenodd" d="M267.758 73.1271C252.683 69.2177 237.287 78.2674 233.378 93.3419C229.468 108.416 238.518 123.813 253.592 127.722C268.667 131.631 284.063 122.582 287.979 107.507C291.888 92.4326 282.838 77.0364 267.764 73.1209L267.758 73.1271Z" fill="#333333"/>
<path fill-rule="evenodd" clip-rule="evenodd" d="M204.534 55.7824L233.829 63.3846L231.503 72.3601L220.814 69.5889C217.276 63.3784 211.623 58.3866 204.534 55.7824Z" fill="#4D4D4D"/>
<path fill-rule="evenodd" clip-rule="evenodd" d="M206.414 60.131L229.332 66.0754L228.881 67.8136L210.46 63.0321C209.179 62.03 207.831 61.0588 206.414 60.1248V60.131Z" fill="white"/>
<path fill-rule="evenodd" clip-rule="evenodd" d="M202.567 59.7413C215.087 62.9887 222.608 75.7745 219.355 88.2944C216.107 100.814 203.321 108.336 190.795 105.082C178.276 101.835 170.76 89.049 174.007 76.5292C177.255 64.0094 190.041 56.4938 202.561 59.7413H202.567Z" fill="#666666"/>
<path d="M267.679 121.408C280.032 117.563 286.928 104.432 283.083 92.0793C279.238 79.7265 266.107 72.8297 253.754 76.6748C241.402 80.5199 234.505 93.6509 238.35 106.004C242.195 118.356 255.326 125.253 267.679 121.408Z" fill="#666666"/>
<path fill-rule="evenodd" clip-rule="evenodd" d="M203.581 60.7619C215.049 63.7372 221.94 75.4529 218.959 86.9211C215.983 98.3894 204.274 105.28 192.8 102.299C181.331 99.3234 174.44 87.6077 177.422 76.1395C180.397 64.6712 192.113 57.7804 203.581 60.7619Z" fill="#1A1A1A"/>
<path fill-rule="evenodd" clip-rule="evenodd" d="M265.221 76.7519C253.753 73.7766 242.038 80.6612 239.062 92.1295C236.087 103.598 242.972 115.313 254.44 118.289C265.908 121.264 277.624 114.379 280.599 102.911C283.574 91.4429 276.69 79.7272 265.221 76.7519Z" fill="#1A1A1A"/>
<path fill-rule="evenodd" clip-rule="evenodd" d="M264.523 78.9725C254.359 76.3374 243.98 82.4365 241.339 92.5996C238.703 102.763 244.803 113.142 254.966 115.784C265.129 118.419 275.508 112.32 278.15 102.156C280.785 91.9934 274.686 81.6138 264.523 78.9725Z" fill="url(#paint3_linear_55_742)"/>
<path fill-rule="evenodd" clip-rule="evenodd" d="M203.111 63.0382C192.948 60.4031 182.568 66.5022 179.927 76.6653C177.292 86.8284 183.391 97.2079 193.554 99.8492C203.717 102.484 214.097 96.3852 216.738 86.2222C219.373 76.0591 213.274 65.6795 203.111 63.0382Z" fill="url(#paint4_linear_55_742)"/>
<path fill-rule="evenodd" clip-rule="evenodd" d="M176.624 93.3543C178.455 93.8306 179.556 95.7048 179.08 97.5358C178.603 99.3668 176.735 100.468 174.898 99.9915C173.067 99.5152 171.966 97.6471 172.442 95.81C172.919 93.979 174.787 92.878 176.624 93.3543Z" fill="#1A1A1A"/>
<path fill-rule="evenodd" clip-rule="evenodd" d="M176.469 93.9481C177.972 94.3378 178.876 95.8718 178.486 97.3749C178.096 98.8781 176.562 99.7812 175.059 99.3915C173.556 99.0018 172.653 97.4677 173.042 95.9646C173.432 94.4615 174.966 93.5584 176.469 93.9481Z" fill="white"/>
<path fill-rule="evenodd" clip-rule="evenodd" d="M168.552 95.9708L179.667 109.165C180.045 109.61 179.983 110.278 179.531 110.649L177.113 112.654C176.661 113.025 175.987 112.963 175.616 112.517L164.5 99.3234C164.123 98.8781 164.185 98.21 164.636 97.8389L167.055 95.8347C167.506 95.4636 168.181 95.5254 168.552 95.9708Z" fill="#333333"/>
<path fill-rule="evenodd" clip-rule="evenodd" d="M169.071 97.9626L177.781 108.299C178.078 108.645 178.028 109.171 177.676 109.462L176.271 110.625C175.919 110.915 175.393 110.866 175.096 110.52L166.387 100.183C166.09 99.8369 166.139 99.3111 166.492 99.0204L167.896 97.8575C168.249 97.5667 168.774 97.6162 169.071 97.9626Z" fill="black"/>
<path fill-rule="evenodd" clip-rule="evenodd" d="M266.811 71.9456L237.516 64.3434L235.19 73.3188L245.879 76.09C251.99 72.3848 259.357 70.7703 266.817 71.9456H266.811Z" fill="#4D4D4D"/>
<path fill-rule="evenodd" clip-rule="evenodd" d="M263.05 74.8281L240.132 68.8837L239.681 70.6219L258.102 75.4034C259.71 75.1498 261.362 74.958 263.05 74.8281Z" fill="white"/>
<path fill-rule="evenodd" clip-rule="evenodd" d="M272.935 118.344C271.104 117.868 269.23 118.969 268.753 120.8C268.277 122.631 269.378 124.505 271.209 124.982C273.04 125.458 274.914 124.357 275.391 122.526C275.867 120.695 274.766 118.821 272.935 118.344Z" fill="#1A1A1A"/>
<path fill-rule="evenodd" clip-rule="evenodd" d="M272.78 118.938C271.277 118.549 269.743 119.452 269.354 120.955C268.964 122.458 269.867 123.992 271.37 124.382C272.873 124.771 274.407 123.868 274.797 122.365C275.187 120.862 274.284 119.328 272.78 118.938Z" fill="white"/>
<path fill-rule="evenodd" clip-rule="evenodd" d="M278.712 124.555L262.586 130.679C262.042 130.883 261.77 131.501 261.98 132.046L263.118 134.972C263.329 135.516 263.947 135.788 264.492 135.584L280.618 129.46C281.162 129.256 281.434 128.637 281.224 128.099L280.086 125.173C279.875 124.629 279.257 124.357 278.712 124.561V124.555Z" fill="#333333"/>
<path fill-rule="evenodd" clip-rule="evenodd" d="M277.29 126.046L264.652 130.846C264.226 131.006 264.009 131.489 264.176 131.916L264.838 133.617C265.005 134.044 265.487 134.26 265.914 134.093L278.552 129.293C278.978 129.132 279.195 128.65 279.028 128.223L278.366 126.522C278.199 126.095 277.717 125.879 277.29 126.046Z" fill="black"/>
<path fill-rule="evenodd" clip-rule="evenodd" d="M261.127 73.8137C260.452 73.6405 259.759 74.0426 259.586 74.723C259.413 75.3973 259.815 76.09 260.496 76.2632C261.17 76.4364 261.863 76.0344 262.036 75.354C262.209 74.6797 261.807 73.9869 261.127 73.8137Z" fill="black"/>
<path fill-rule="evenodd" clip-rule="evenodd" d="M208.796 60.2361C208.121 60.0629 207.429 60.465 207.255 61.1454C207.082 61.8196 207.484 62.5124 208.165 62.6856C208.839 62.8588 209.532 62.4568 209.705 61.7763C209.878 61.1021 209.476 60.4093 208.796 60.2361Z" fill="black"/>
<path fill-rule="evenodd" clip-rule="evenodd" d="M208.251 65.2094L185.909 95.8347C183.632 93.8677 181.857 91.381 180.725 88.616L199.796 62.4753C200.897 62.5619 202.004 62.7475 203.111 63.0321C204.967 63.5145 206.693 64.2568 208.251 65.2094Z" fill="white"/>
<path fill-rule="evenodd" clip-rule="evenodd" d="M213.268 69.6631L191.68 99.2554C190.319 98.7482 189.045 98.0987 187.87 97.3193L210.262 66.6198C211.381 67.5229 212.39 68.5435 213.268 69.6631Z" fill="white"/>
<path fill-rule="evenodd" clip-rule="evenodd" d="M269.737 81.1932L247.388 111.831C245.106 109.876 243.324 107.402 242.18 104.649L261.312 78.4282C262.382 78.5148 263.459 78.6942 264.529 78.9787C266.415 79.4674 268.16 80.2283 269.737 81.1994V81.1932Z" fill="white"/>
<path fill-rule="evenodd" clip-rule="evenodd" d="M274.729 85.6655L253.172 115.221C251.805 114.72 250.524 114.07 249.349 113.303L271.735 82.6097C272.848 83.519 273.857 84.5459 274.729 85.6655Z" fill="white"/>
<path fill-rule="evenodd" clip-rule="evenodd" d="M254.86 51.1679C258.232 58.9557 265.549 64.4238 272.941 68.8528L276.653 69.5827C277.333 70.4054 277.995 71.2466 278.626 72.1003C278.626 72.1003 286.253 56.3886 285.925 42.6688C285.597 28.9428 283.908 21.39 283.908 21.39C283.822 21.421 283.735 21.4581 283.655 21.5076C283.488 21.588 283.352 21.7179 283.216 21.8478C283.148 21.9158 283.098 22.0024 283.036 22.0767L282.746 22.4911L281.558 24.1922C280.785 25.3427 279.919 26.4252 279.09 27.5324C275.719 31.9243 272.007 36.0254 268.098 39.91C267.133 40.8935 266.118 41.8275 265.123 42.7863C264.108 43.7204 263.1 44.6544 262.061 45.5637C261.547 46.0276 261.028 46.473 260.502 46.9245C259.982 47.3761 259.45 47.8215 258.918 48.2606C257.854 49.1452 256.79 50.005 255.658 50.8648C255.417 51.0442 255.145 51.1432 254.867 51.1555L254.86 51.1679Z" fill="#333333"/>
<path fill-rule="evenodd" clip-rule="evenodd" d="M279.987 69.026C282.164 63.7806 286.166 52.6958 285.931 42.675C285.752 35.1223 285.158 29.4377 284.657 25.8562C284.31 26.3139 283.964 26.7655 283.624 27.2232C280.253 31.615 276.541 35.7161 272.632 39.6008C271.667 40.5843 270.652 41.5183 269.657 42.4771C258.937 51.2484 263.434 57.3165 279.987 69.026Z" fill="url(#paint5_linear_55_742)"/>
<path fill-rule="evenodd" clip-rule="evenodd" d="M284.539 23.6046C285.207 25.151 285.678 26.7469 286.08 28.3676C286.476 29.9882 286.785 31.6336 287.014 33.2852C287.471 36.5945 287.608 39.941 287.57 43.2812C287.527 44.9514 287.465 46.6215 287.323 48.2916C287.286 48.7061 287.255 49.1267 287.212 49.5411L287.069 50.7906C286.983 51.6257 286.859 52.4484 286.742 53.2773C286.259 56.5866 285.554 59.865 284.651 63.0878C283.754 66.3105 282.659 69.4838 281.403 72.5828C281.075 73.3498 280.772 74.1354 280.426 74.8962L280.315 75.1375C280.135 75.0138 279.956 74.8901 279.776 74.7725C280.005 74.7602 280.234 74.7478 280.463 74.7416C279.845 73.7952 279.195 72.8673 278.515 71.9519C278.583 71.791 278.651 71.6364 278.719 71.4756C279.974 68.4879 281.063 65.4383 281.966 62.3269C282.869 59.2217 283.593 56.0608 284.137 52.8628C284.267 52.0649 284.41 51.2669 284.509 50.4628L284.669 49.2566C284.719 48.8545 284.756 48.4525 284.805 48.0504C285.003 46.4421 285.115 44.8215 285.207 43.207C285.288 41.5864 285.344 39.9657 285.325 38.3451C285.325 37.5347 285.294 36.7244 285.282 35.9079L285.17 33.4707C284.985 30.2294 284.694 26.9696 284.162 23.7345V23.7221C284.144 23.6108 284.218 23.5118 284.329 23.4932C284.422 23.4747 284.509 23.5304 284.546 23.6108L284.539 23.6046Z" fill="#666666"/>
<path fill-rule="evenodd" clip-rule="evenodd" d="M277.754 50.3143C279.548 50.6669 280.717 52.4112 280.364 54.2051C280.011 55.9989 278.267 57.168 276.473 56.8155C274.679 56.4629 273.51 54.7185 273.863 52.9247C274.215 51.1308 275.96 49.9617 277.76 50.3143H277.754Z" fill="#666666"/>
<path fill-rule="evenodd" clip-rule="evenodd" d="M277.562 51.2917C278.818 51.5391 279.64 52.7639 279.393 54.0196C279.145 55.2753 277.921 56.098 276.665 55.8505C275.409 55.6031 274.587 54.3783 274.834 53.1226C275.081 51.867 276.306 51.0443 277.562 51.2917Z" fill="white"/>
<path fill-rule="evenodd" clip-rule="evenodd" d="M280.358 42.1987C281.49 42.4214 282.22 43.5163 281.997 44.6483C281.774 45.7802 280.679 46.5101 279.547 46.2875C278.415 46.0648 277.686 44.9699 277.908 43.8379C278.131 42.7059 279.226 41.976 280.358 42.1987Z" fill="#666666"/>
<path fill-rule="evenodd" clip-rule="evenodd" d="M280.24 42.8111C281.032 42.9657 281.545 43.7327 281.391 44.5245C281.236 45.3163 280.469 45.8297 279.677 45.6751C278.886 45.5204 278.372 44.7534 278.527 43.9616C278.682 43.1699 279.449 42.6564 280.24 42.8111Z" fill="white"/>
<path fill-rule="evenodd" clip-rule="evenodd" d="M282.455 34.2192C283.253 34.3738 283.772 35.1532 283.618 35.9512C283.457 36.7491 282.684 37.2687 281.886 37.1141C281.088 36.9594 280.568 36.18 280.723 35.3821C280.877 34.5841 281.657 34.0645 282.455 34.2192Z" fill="#666666"/>
<path fill-rule="evenodd" clip-rule="evenodd" d="M282.368 34.6522C282.931 34.7635 283.29 35.3079 283.185 35.8646C283.073 36.4275 282.529 36.7863 281.972 36.6811C281.416 36.5698 281.051 36.0254 281.156 35.4687C281.267 34.912 281.812 34.5471 282.368 34.6522Z" fill="white"/>
<path fill-rule="evenodd" clip-rule="evenodd" d="M219.225 44.1348C213.15 50.0607 204.299 52.337 195.781 53.6236L192.07 52.8937C191.123 53.3948 190.195 53.9267 189.292 54.4711C189.292 54.4711 188.204 37.0398 193.721 24.4705C199.239 11.9012 203.674 5.55472 203.674 5.55472C203.742 5.61657 203.81 5.68462 203.86 5.75885C203.983 5.89493 204.064 6.06813 204.138 6.24133C204.175 6.32793 204.187 6.4269 204.218 6.51968L204.33 7.01454L204.781 9.04344C205.06 10.4043 205.455 11.728 205.796 13.0703C207.243 18.4147 209.124 23.6169 211.264 28.6954C211.783 29.9758 212.365 31.2253 212.922 32.4872C213.503 33.7305 214.084 34.9862 214.697 36.2171C214.994 36.8419 215.309 37.4543 215.625 38.0667C215.934 38.6852 216.256 39.2914 216.577 39.9038C217.227 41.1286 217.882 42.3224 218.606 43.5534C218.761 43.8132 218.977 44.0049 219.231 44.1286L219.225 44.1348Z" fill="#333333"/>
<path fill-rule="evenodd" clip-rule="evenodd" d="M189.496 51.168C189.478 45.4895 189.979 33.712 194.012 24.5324C197.049 17.6168 199.758 12.5817 201.577 9.45792C201.725 10.0084 201.874 10.559 202.016 11.1157C203.464 16.4601 205.344 21.6623 207.484 26.7407C208.004 28.0211 208.585 29.2706 209.142 30.5325C215.73 42.7245 209.26 46.6215 189.503 51.168H189.496Z" fill="url(#paint6_linear_55_742)"/>
<path fill-rule="evenodd" clip-rule="evenodd" d="M202.239 7.36096C201.039 8.53624 199.993 9.83523 199.004 11.1837C198.02 12.5322 197.111 13.9363 196.276 15.3776C194.593 18.2663 193.202 21.3097 191.964 24.4149C191.364 25.9737 190.789 27.5448 190.294 29.1407C190.171 29.5366 190.041 29.9387 189.923 30.3346L189.583 31.5408C189.348 32.3449 189.15 33.1552 188.946 33.9656C188.136 37.2131 187.542 40.51 187.152 43.8379C186.756 47.1596 186.564 50.5123 186.552 53.8525C186.564 54.6876 186.546 55.5289 186.577 56.3639L186.589 56.6361C186.799 56.5866 187.096 56.5247 187.307 56.4814C187.103 56.3825 186.849 56.2711 186.639 56.1722C187.566 55.535 188.488 54.9474 189.465 54.3598C189.465 54.1866 189.465 54.0134 189.459 53.8402C189.435 50.6051 189.583 47.3638 189.929 44.1472C190.276 40.9306 190.808 37.7327 191.513 34.5718C191.698 33.7862 191.866 32.9882 192.082 32.2088L192.391 31.0336C192.496 30.6439 192.614 30.2542 192.725 29.8645C193.158 28.2995 193.666 26.7593 194.191 25.2314C194.729 23.7035 195.299 22.1819 195.936 20.6849C196.245 19.9365 196.579 19.1942 196.901 18.4457L197.927 16.2374C199.332 13.3054 200.841 10.4043 202.554 7.61458C202.616 7.50942 202.585 7.38571 202.486 7.33003C202.406 7.28055 202.307 7.29292 202.239 7.35478V7.36096Z" fill="#666666"/>
<path fill-rule="evenodd" clip-rule="evenodd" d="M198.373 34.6522C196.579 34.2996 194.835 35.4687 194.476 37.2625C194.123 39.0564 195.292 40.8008 197.086 41.1533C198.88 41.5059 200.624 40.3368 200.977 38.543C201.33 36.7491 200.16 35.0048 198.367 34.6522H198.373Z" fill="#666666"/>
<path fill-rule="evenodd" clip-rule="evenodd" d="M198.181 35.6233C196.925 35.3759 195.701 36.1924 195.453 37.4543C195.206 38.71 196.022 39.9348 197.284 40.1822C198.54 40.4296 199.765 39.6131 200.012 38.3512C200.26 37.0955 199.443 35.8708 198.181 35.6233Z" fill="white"/>
<path fill-rule="evenodd" clip-rule="evenodd" d="M199.041 26.1531C197.909 25.9304 196.814 26.6665 196.591 27.7923C196.369 28.9243 197.105 30.0191 198.231 30.2418C199.363 30.4645 200.457 29.7284 200.68 28.6026C200.903 27.4706 200.167 26.3758 199.041 26.1531Z" fill="#666666"/>
<path fill-rule="evenodd" clip-rule="evenodd" d="M198.923 26.7655C198.132 26.6108 197.365 27.1242 197.21 27.916C197.055 28.7078 197.569 29.4748 198.36 29.6294C199.152 29.7841 199.919 29.2707 200.074 28.4789C200.229 27.6871 199.715 26.9201 198.923 26.7655Z" fill="white"/>
<path fill-rule="evenodd" clip-rule="evenodd" d="M200.136 17.9756C199.338 17.8148 198.565 18.3405 198.404 19.1385C198.243 19.9364 198.769 20.7158 199.567 20.8705C200.365 21.0251 201.144 20.5055 201.299 19.7076C201.453 18.9096 200.934 18.1302 200.136 17.9756Z" fill="#666666"/>
<path fill-rule="evenodd" clip-rule="evenodd" d="M200.055 18.4086C199.499 18.2972 198.954 18.6622 198.843 19.2251C198.732 19.7818 199.097 20.3261 199.659 20.4375C200.216 20.5488 200.76 20.1839 200.872 19.621C200.983 19.0643 200.618 18.5199 200.055 18.4086Z" fill="white"/>
<path fill-rule="evenodd" clip-rule="evenodd" d="M216.491 151.809C221.489 152.792 224.736 157.642 223.753 162.64C222.769 167.638 217.92 170.886 212.922 169.902C207.924 168.919 204.676 164.069 205.66 159.071C206.643 154.073 211.493 150.825 216.491 151.809Z" fill="white"/>
<path fill-rule="evenodd" clip-rule="evenodd" d="M216.181 153.374C220.313 154.19 223.004 158.199 222.188 162.331C221.371 166.463 217.363 169.154 213.231 168.337C209.099 167.521 206.408 163.512 207.225 159.38C208.041 155.248 212.049 152.557 216.181 153.374Z" fill="#989898"/>
<path fill-rule="evenodd" clip-rule="evenodd" d="M215.699 155.805C218.489 156.355 220.301 159.065 219.751 161.855C219.2 164.644 216.491 166.457 213.701 165.906C210.911 165.356 209.099 162.646 209.649 159.857C210.2 157.067 212.909 155.254 215.699 155.805Z" fill="black"/>
<path fill-rule="evenodd" clip-rule="evenodd" d="M295.599 89.216C295.575 89.4387 295.55 89.6552 295.513 89.8655C294.894 94.1893 293.311 94.9811 291.591 94.9811C291.777 93.1192 291.845 90.7377 291.845 90.7377C267.671 62.1166 220.994 48.5947 188.624 53.4257C182.791 54.2979 178.208 55.5659 175.201 57.1C171.886 58.801 170.444 60.7062 170.444 60.7062C169.381 60.298 169.331 58.3742 170.011 55.8195C170.63 53.4875 171.855 50.6297 173.463 47.9142C173.964 47.0606 174.508 46.2194 175.084 45.4152C176.309 43.7018 177.669 42.1368 179.111 40.9306C184.783 36.1738 199.851 30.1057 237.701 37.0151C270.455 42.9904 290.014 66.0135 292.408 70.6652C293.75 73.2817 294.74 77.5065 295.265 81.4406C295.296 81.6509 295.321 81.8612 295.346 82.0716C295.692 84.9046 295.797 87.5273 295.606 89.216H295.599Z" fill="#9968FD"/>
<path fill-rule="evenodd" clip-rule="evenodd" d="M291.591 94.9807C291.597 94.9004 291.61 94.814 291.616 94.7275C291.61 94.814 291.597 94.8942 291.591 94.9807Z" fill="#9B80B9"/>
<path fill-rule="evenodd" clip-rule="evenodd" d="M295.445 82.9933C295.414 82.6902 295.377 82.3809 295.34 82.0716C295.315 81.8613 295.29 81.651 295.259 81.4407C295.241 81.4593 295.222 81.484 295.203 81.5026C295.173 81.5397 295.135 81.5768 295.098 81.6077C295.043 81.4964 294.981 81.385 294.925 81.2737C294.375 78.6942 293.639 76.2757 292.754 74.5498C290.317 69.8116 270.411 46.3864 237.077 40.2997C224.6 38.0234 214.555 37.1327 206.476 37.1327C189.62 37.1327 181.35 41.0173 177.441 44.2895C176.636 44.9637 175.851 45.7493 175.102 46.6091C175.053 46.4112 175.034 46.2071 175.034 45.9906C175.034 45.8792 175.034 45.7679 175.053 45.6503C175.059 45.5699 175.071 45.4957 175.084 45.4153C174.515 46.2194 173.97 47.0669 173.463 47.9143C173.964 47.0607 174.508 46.2194 175.084 45.4153C176.309 43.7019 177.669 42.1369 179.111 40.9307C182.946 37.7141 191.08 33.8976 207.639 33.8976C215.575 33.8976 225.441 34.7697 237.701 37.0089C270.455 42.9843 290.014 66.0074 292.408 70.6591C293.75 73.2756 294.74 77.5004 295.265 81.4345C295.296 81.6448 295.321 81.8551 295.346 82.0654C295.383 82.3747 295.42 82.684 295.451 82.9871L295.445 82.9933Z" fill="#FF00FF"/>
<path fill-rule="evenodd" clip-rule="evenodd" d="M291.591 94.9811C291.597 94.9007 291.61 94.8141 291.616 94.7275C291.628 94.61 291.64 94.4863 291.653 94.3626C291.82 94.5543 291.987 94.7461 292.154 94.944C292.086 94.9564 292.018 94.9626 291.95 94.9688C291.832 94.975 291.715 94.9811 291.597 94.9811H291.591Z" fill="#D67196"/>
<path fill-rule="evenodd" clip-rule="evenodd" d="M295.34 82.0716C295.315 81.8613 295.29 81.651 295.259 81.4407C295.241 81.4654 295.222 81.484 295.204 81.5025C295.222 81.484 295.241 81.4592 295.259 81.4407C295.29 81.651 295.315 81.8613 295.34 82.0716Z" fill="#D67196"/>
<path fill-rule="evenodd" clip-rule="evenodd" d="M295.599 89.216C295.575 89.4387 295.55 89.6552 295.513 89.8655C292.228 81.9355 282.801 75.3168 279.393 72.7931C256.228 55.6278 225.831 47.7782 202.227 47.7782C197.241 47.7782 192.428 48.1184 187.931 48.7864C183.799 49.4112 175.449 50.7225 170.012 55.8257C170.63 53.4937 171.855 50.6359 173.463 47.9204C173.964 47.0668 174.509 46.2256 175.084 45.4214C175.01 45.8977 175.022 46.3431 175.139 46.7328C175.498 47.9204 176.853 48.6318 179.927 48.3225C190.925 47.2214 193.647 44.2647 222.138 47.1781C240.064 49.0091 269.65 60.0444 281.836 72.459C289.197 79.9561 293.552 83.0303 295.105 81.6138C295.16 81.5643 295.216 81.5087 295.259 81.4468C295.29 81.6571 295.315 81.8674 295.34 82.0778C295.686 84.9108 295.791 87.5335 295.599 89.2222V89.216Z" fill="#E9E7E4"/>
<path fill-rule="evenodd" clip-rule="evenodd" d="M295.599 89.216C295.575 89.4387 295.55 89.6552 295.513 89.8655C292.228 81.9355 282.801 75.3168 279.393 72.7931C256.228 55.6278 225.831 47.7782 202.227 47.7782C197.241 47.7782 192.428 48.1184 187.931 48.7864C183.799 49.4112 175.449 50.7225 170.012 55.8257C170.63 53.4937 171.855 50.6359 173.463 47.9204C173.964 47.0668 174.509 46.2256 175.084 45.4214C175.01 45.8977 175.022 46.3431 175.139 46.7328C175.498 47.9204 176.853 48.6318 179.927 48.3225C190.925 47.2214 193.647 44.2647 222.138 47.1781C240.064 49.0091 269.65 60.0444 281.836 72.459C289.197 79.9561 293.552 83.0303 295.105 81.6138C295.16 81.5643 295.216 81.5087 295.259 81.4468C295.29 81.6571 295.315 81.8674 295.34 82.0778C295.686 84.9108 295.791 87.5335 295.599 89.2222V89.216Z" fill="#C53C3C"/>
<path fill-rule="evenodd" clip-rule="evenodd" d="M295.599 89.2161C295.575 89.4388 295.55 89.6553 295.513 89.8656C292.228 81.9355 282.801 75.3169 279.393 72.7931C256.228 55.6278 225.831 47.7782 202.227 47.7782C197.241 47.7782 192.428 48.1184 187.931 48.7865C183.799 49.4112 175.449 50.7226 170.012 55.8258C170.63 53.4938 171.855 50.636 173.463 47.9205C174.007 47.5122 174.564 47.1163 175.133 46.7328C183.045 41.4131 193.684 38.5925 207.633 38.5925C215.977 38.5925 225.813 39.6131 236.854 41.6296C253.648 44.6915 266.601 52.3618 275.31 59.3702C281.88 64.6527 290.453 72.6818 295.098 81.6139C295.179 81.7685 295.259 81.9232 295.34 82.0778C295.686 84.9108 295.791 87.5336 295.599 89.2223V89.2161Z" fill="white"/>
<path fill-rule="evenodd" clip-rule="evenodd" d="M295.513 89.8656C292.228 81.9355 282.801 75.3169 279.393 72.7931C256.228 55.6278 225.831 47.7782 202.227 47.7782C197.241 47.7782 192.428 48.1184 187.931 48.7865C183.799 49.4112 175.449 50.7226 170.012 55.8258C170.63 53.4938 171.855 50.636 173.463 47.9205C174.007 47.5122 174.564 47.1163 175.133 46.7328C175.436 47.7349 176.445 48.3968 178.591 48.3968C178.993 48.3968 179.432 48.372 179.921 48.3225C187.48 47.5679 191.136 45.9349 201.93 45.9349C206.841 45.9349 213.225 46.2689 222.138 47.1844C240.064 49.0153 268.228 61.6279 281.836 72.4653C288.591 77.8406 292.476 81.886 294.387 81.886C294.665 81.886 294.9 81.7995 295.098 81.6201C295.179 81.7747 295.259 81.9294 295.34 82.084C295.568 83.9644 295.692 85.7521 295.692 87.2367C295.692 87.9851 295.661 88.6594 295.599 89.2284C295.575 89.4511 295.55 89.6676 295.513 89.8779V89.8656Z" fill="#D6CBE2"/>
<path fill-rule="evenodd" clip-rule="evenodd" d="M202.134 51.106C215.39 51.106 229.945 53.5618 243.745 58.2381C264.028 65.1166 281.477 76.3436 292.89 89.8531C293.106 90.1068 293.218 90.4346 293.212 90.7748C293.212 90.8367 293.187 91.7707 293.119 92.9212C293.577 92.315 293.991 91.1831 294.232 89.0614C294.665 85.2324 293.471 75.7498 291.183 71.2899C290.131 69.2425 284.743 62.4011 275.601 55.4236C267.665 49.3679 254.601 41.4873 237.448 38.3635C199.474 31.4356 185.142 37.6584 179.983 41.9883C177.366 44.1781 174.682 47.9761 172.801 52.1452C171.546 54.9288 171.038 57.0381 170.933 58.2876C171.781 57.5701 172.981 56.7041 174.57 55.8876C177.719 54.2731 182.507 52.9556 188.414 52.071C192.75 51.4215 197.358 51.106 202.128 51.106H202.134ZM291.591 96.3543C291.201 96.3543 290.836 96.1935 290.577 95.9027C290.317 95.612 290.193 95.2285 290.23 94.845C290.36 93.5707 290.428 92.0181 290.459 91.2202C265.927 62.5743 219.614 50.1906 188.828 54.7803C183.212 55.6154 178.715 56.8402 175.826 58.3247C172.869 59.8402 171.539 61.5227 171.527 61.5413C171.156 62.0176 170.513 62.2032 169.95 61.9867C169.43 61.7887 168.521 61.2258 168.261 59.6794C167.537 55.3989 172.337 44.8276 178.226 39.8852C183.756 35.2521 198.868 28.5407 237.943 35.6666C272.162 41.9079 291.492 65.8898 293.62 70.0404C296.199 75.0632 297.424 85.2324 296.96 89.3707C296.62 92.3707 295.698 96.3543 291.591 96.3543Z" fill="black"/>
<path fill-rule="evenodd" clip-rule="evenodd" d="M223.184 116.031C223.184 116.031 223.165 116.087 223.146 116.111C223.146 116.08 223.14 116.056 223.134 116.025H223.184V116.031Z" fill="#FF6C8B"/>
<path fill-rule="evenodd" clip-rule="evenodd" d="M218.445 149.78H218.421C204.973 147.887 207.596 135.776 210.509 128.458C211.808 125.186 213.163 122.872 213.163 122.872C213.163 122.872 219.961 123.361 223.14 116.105C224.204 123.955 230.872 125.359 230.872 125.359C230.872 125.359 237.881 152.489 218.445 149.78Z" fill="#FF00FF"/>
<path fill-rule="evenodd" clip-rule="evenodd" d="M218.47 149.786H218.421C209.111 148.475 207.503 142.264 208.363 136.134C207.503 142.258 209.111 148.469 218.421 149.774H218.445C229.53 151.32 232.011 143.161 232.103 135.868C232.122 135.856 232.134 135.85 232.153 135.838C232.072 143.149 229.592 151.345 218.47 149.78V149.786Z" fill="#7C7CB5"/>
<path fill-rule="evenodd" clip-rule="evenodd" d="M232.103 135.868C232.122 134.297 232.029 132.769 231.893 131.384C231.912 131.409 231.924 131.433 231.943 131.458C232.079 132.819 232.165 134.304 232.147 135.831C232.128 135.844 232.116 135.85 232.097 135.862L232.103 135.868Z" fill="#000072"/>
<path fill-rule="evenodd" clip-rule="evenodd" d="M218.445 149.78H218.421C209.111 148.469 207.503 142.258 208.363 136.134C208.746 133.413 209.612 130.71 210.509 128.458C210.67 128.322 210.763 128.248 210.763 128.248C210.763 128.248 207.552 142.685 219.212 144.324C230.866 145.957 231.757 131.192 231.757 131.192C231.757 131.192 231.806 131.26 231.893 131.384C232.035 132.769 232.122 134.297 232.103 135.868C232.017 143.168 229.53 151.32 218.445 149.78Z" fill="#9800CB"/>
<path fill-rule="evenodd" clip-rule="evenodd" d="M223.957 120.72C223.815 122.266 223.592 123.794 223.363 125.328C223.122 126.856 222.862 128.384 222.571 129.905C222.28 131.427 221.99 132.949 221.612 134.464C221.241 135.974 220.833 137.483 220.289 138.967C220.221 139.153 220.017 139.246 219.837 139.178C219.701 139.128 219.614 139.005 219.608 138.869C219.491 137.291 219.522 135.726 219.577 134.174C219.633 132.615 219.775 131.075 219.911 129.528C220.054 127.982 220.221 126.441 220.412 124.907C220.61 123.373 220.821 121.839 221.111 120.311C221.26 119.526 222.015 119.012 222.794 119.161C223.53 119.297 224.031 119.984 223.963 120.714L223.957 120.72Z" fill="black"/>
<path fill-rule="evenodd" clip-rule="evenodd" d="M214.023 124.307C212.55 127.06 207.528 137.279 210.534 143.495C211.814 146.149 214.536 147.782 218.625 148.351C222.713 148.926 225.775 148.104 227.736 145.908C232.338 140.761 230.322 129.553 229.66 126.503C227.971 125.91 224.415 124.184 222.627 119.798C219.701 123.522 215.81 124.202 214.023 124.307ZM218.223 151.209C213.126 150.491 209.662 148.32 207.936 144.745C203.791 136.159 211.592 122.712 211.926 122.149C212.204 121.679 212.724 121.4 213.274 121.443C213.503 121.456 218.953 121.716 221.711 115.796C221.81 115.184 222.299 114.683 222.949 114.596C223.091 114.577 223.227 114.584 223.357 114.596C223.487 114.614 223.623 114.645 223.753 114.701C224.353 114.961 224.687 115.573 224.612 116.192C225.646 122.712 231.114 123.93 231.169 123.943C231.707 124.054 232.134 124.462 232.27 124.994C232.437 125.631 236.235 140.706 229.889 147.819C227.248 150.782 223.32 151.92 218.223 151.203V151.209Z" fill="black"/>
<path fill-rule="evenodd" clip-rule="evenodd" d="M210.905 248.726C211.555 252.19 209.278 255.524 205.814 256.174C202.35 256.823 199.016 254.547 198.367 251.083C197.717 247.619 199.993 244.285 203.457 243.635C206.921 242.986 210.256 245.262 210.905 248.726Z" fill="black"/>
<path fill-rule="evenodd" clip-rule="evenodd" d="M209.025 249.079C209.482 251.504 207.88 253.842 205.455 254.3C203.031 254.757 200.692 253.155 200.235 250.73C199.777 248.306 201.379 245.967 203.804 245.51C206.229 245.052 208.567 246.654 209.025 249.079Z" fill="white"/>
<path fill-rule="evenodd" clip-rule="evenodd" d="M224.749 241.514C225.2 243.92 223.617 246.233 221.217 246.685C218.816 247.136 216.497 245.553 216.045 243.153C215.594 240.747 217.177 238.433 219.577 237.982C221.984 237.53 224.297 239.114 224.749 241.514Z" fill="black"/>
<path fill-rule="evenodd" clip-rule="evenodd" d="M223.443 241.755C223.759 243.437 222.652 245.064 220.969 245.38C219.287 245.695 217.66 244.588 217.344 242.906C217.029 241.223 218.136 239.596 219.819 239.281C221.501 238.965 223.128 240.072 223.443 241.755Z" fill="white"/>
<path fill-rule="evenodd" clip-rule="evenodd" d="M239.031 246.759C239.347 248.454 238.233 250.081 236.545 250.403C234.85 250.718 233.223 249.605 232.901 247.916C232.586 246.221 233.699 244.594 235.388 244.273C237.083 243.957 238.71 245.07 239.031 246.759Z" fill="black"/>
<path fill-rule="evenodd" clip-rule="evenodd" d="M238.11 246.932C238.332 248.12 237.553 249.258 236.365 249.481C235.178 249.704 234.039 248.924 233.817 247.736C233.594 246.549 234.374 245.411 235.561 245.188C236.749 244.965 237.887 245.745 238.11 246.932Z" fill="white"/>
<defs>
<linearGradient id="paint0_linear_55_742" x1="22.6131" y1="339" x2="27.452" y2="387.876" gradientUnits="userSpaceOnUse">
<stop stop-color="#9A68FE"/>
<stop offset="1" stop-color="#FF23CF"/>
</linearGradient>
<linearGradient id="paint1_linear_55_742" x1="84.9212" y1="157.778" x2="188.408" y2="157.778" gradientUnits="userSpaceOnUse">
<stop stop-color="#ACACAD"/>
<stop offset="1" stop-color="white"/>
</linearGradient>
<linearGradient id="paint2_linear_55_742" x1="230.446" y1="327.81" x2="230.446" y2="215.435" gradientUnits="userSpaceOnUse">
<stop stop-color="#282725"/>
<stop offset="1" stop-color="#EAEAEA"/>
</linearGradient>
<linearGradient id="paint3_linear_55_742" x1="251.972" y1="108.62" x2="267.523" y2="86.1356" gradientUnits="userSpaceOnUse">
<stop stop-color="#7D5CA3"/>
<stop offset="1" stop-color="#C33C8E"/>
</linearGradient>
<linearGradient id="paint4_linear_55_742" x1="190.56" y1="92.68" x2="206.117" y2="70.2013" gradientUnits="userSpaceOnUse">
<stop stop-color="#7D5CA3"/>
<stop offset="1" stop-color="#C33C8E"/>
</linearGradient>
<linearGradient id="paint5_linear_55_742" x1="268.5" y1="44.7101" x2="283.08" y2="47.5865" gradientUnits="userSpaceOnUse">
<stop stop-color="#2A2C2A"/>
<stop offset="1" stop-color="#BFBEBE"/>
</linearGradient>
<linearGradient id="paint6_linear_55_742" x1="211.053" y1="33.3718" x2="196.356" y2="30.4707" gradientUnits="userSpaceOnUse">
<stop stop-color="#2A2C2A"/>
<stop offset="1" stop-color="#BFBEBE"/>
</linearGradient>
</defs>
</svg>
