<svg width="489" height="499" viewBox="0 0 489 499" fill="none" xmlns="http://www.w3.org/2000/svg">
<g filter="url(#filter0_f_41_510)">
<ellipse cx="244.5" cy="370.5" rx="51.5" ry="167.5" transform="rotate(90 244.5 370.5)" fill="url(#paint0_linear_41_510)"/>
</g>
<path d="M59.4484 183.908H433.78" stroke="black" stroke-width="12" stroke-miterlimit="22.93"/>
<path fill-rule="evenodd" clip-rule="evenodd" d="M375.263 206.697C384.483 206.697 393.45 205.229 397.683 200.704C402.17 195.909 403.953 190.124 402.693 184.415C400.995 176.693 394.034 169.84 383.6 165.614C369.539 159.921 356.193 162.994 348.387 167.773C342.21 171.553 338.383 176.862 337.907 182.325C336.539 197.876 346.121 202.286 349.094 203.262C353.512 204.722 364.568 206.697 375.271 206.697H375.263Z" fill="#9968FD"/>
<path fill-rule="evenodd" clip-rule="evenodd" d="M120.077 206.697C110.857 206.697 101.891 205.229 97.6574 200.704C93.1704 195.909 91.3879 190.124 92.6479 184.415C94.3459 176.693 101.307 169.84 111.741 165.614C125.801 159.921 139.147 162.994 146.954 167.773C153.131 171.553 156.957 176.862 157.434 182.325C158.801 197.876 149.22 202.286 146.247 203.262C141.829 204.722 130.773 206.697 120.07 206.697H120.077Z" fill="#9968FD"/>
<path fill-rule="evenodd" clip-rule="evenodd" d="M229.672 268.363C227.521 265.689 223.625 265.22 220.898 267.326C210.595 275.278 198.017 281.355 184.817 281.755C179.224 281.924 173.699 281.056 168.482 279.012C166.131 278.09 163.88 276.945 161.752 275.601C157.357 272.827 153.323 269.001 150.718 264.467C148.798 261.118 147.468 256.976 148.314 253.104C148.421 252.612 148.805 251.398 149.259 250.952C149.274 250.952 149.282 250.96 149.297 250.968C149.604 251.106 149.904 251.229 150.027 251.559C150.334 252.389 150.334 254.103 150.35 254.986C150.434 260.157 151.279 264.821 156.366 267.464C159.739 269.216 163.78 269.477 167.483 268.87C171.563 268.194 175.52 266.434 178.793 263.899C181.375 261.894 183.534 259.396 185.094 256.523C185.378 256 185.647 255.478 185.916 254.94C193.561 239.543 192.316 221.894 182.719 207.642C169.827 188.487 147.03 181.226 124.787 183.693C105.809 185.798 90.6041 196.247 80.1087 212.044C69.8515 227.48 65.1647 246.45 65.6026 264.882C66.0559 283.922 72.1488 303.061 84.4805 317.774C98.8637 334.923 119.301 343.298 141.383 344.689C143.627 344.827 145.87 344.904 148.114 344.904C174.252 344.904 198.171 335.039 217.825 318.082C224.732 312.119 231.078 305.366 236.595 298.09C238.908 295.039 241.351 291.62 243.226 288.27C244.885 285.312 243.894 281.578 241.036 279.811C240.36 279.242 239.63 278.474 239.007 277.852C237.724 276.584 236.457 275.301 235.197 274.026C233.376 272.182 231.424 270.276 229.68 268.363H229.672Z" fill="#9968FD"/>
<path fill-rule="evenodd" clip-rule="evenodd" d="M227.229 270.407C226.176 269.039 224.209 268.786 222.842 269.838C210.379 279.458 197.233 284.56 184.909 284.936C178.786 285.121 172.854 284.145 167.314 281.97C164.802 280.987 162.374 279.758 160.038 278.282C149.443 271.59 143.335 260.949 145.186 252.413C145.647 250.277 146.685 248.625 147.952 247.979C148.752 247.58 149.62 247.603 150.603 248.049C153.177 249.209 153.461 250.945 153.531 254.917C153.584 258.098 153.661 262.447 157.826 264.621C162.82 267.218 170.841 266.012 176.819 261.371C178.985 259.689 180.883 257.56 182.274 254.994C182.543 254.502 182.796 254.011 183.042 253.511C190.157 239.182 189.081 222.816 180.061 209.409C168.82 192.713 148.283 184.285 125.125 186.851C107.83 188.772 93.1857 198.092 82.7518 213.796C73.3013 228.026 68.3379 246.135 68.7835 264.79C69.2445 284.229 75.6831 302.308 86.9162 315.708C99.8472 331.136 118.756 340.049 141.575 341.493C143.788 341.631 145.97 341.7 148.106 341.7C178.847 341.7 201.674 327.786 215.735 315.654C231.962 301.655 240.098 287.303 240.437 286.703C241.282 285.197 240.744 283.292 239.238 282.447C238.508 282.04 227.459 270.699 227.229 270.399V270.407Z" fill="#FFAC40"/>
<path fill-rule="evenodd" clip-rule="evenodd" d="M141.775 338.373C205.631 342.415 237.709 285.182 237.709 285.182L224.755 272.32C210.679 283.176 197.187 287.679 185.309 288.048C182.028 288.155 178.885 287.94 175.874 287.464C165.117 285.75 156.212 280.633 150.219 274.233C143.704 267.31 140.584 258.897 142.128 251.752C143.304 246.335 147.353 243.146 151.886 245.205C160.3 249.016 153.669 258.936 159.27 261.848C164.233 264.421 174.944 261.963 179.531 253.496C180.053 252.535 180.537 251.56 180.968 250.576C181.398 249.623 181.774 248.678 182.12 247.726C192.9 218.199 167.069 185.322 125.463 189.955C98.2413 192.982 80.2624 215.486 74.1695 242.117C64.7036 283.445 83.9273 334.708 141.76 338.358L141.775 338.373Z" fill="#FFAC40"/>
<path fill-rule="evenodd" clip-rule="evenodd" d="M150.227 274.233C143.711 267.31 140.592 258.897 142.136 251.752C143.312 246.335 147.361 243.146 151.894 245.206C160.307 249.016 153.676 258.936 159.278 261.848C164.241 264.422 174.952 261.963 179.539 253.496C180.061 252.535 180.545 251.56 180.975 250.576C181.406 249.623 181.782 248.678 182.128 247.726C177.725 252.489 169.55 259.958 166.661 253.304C163.065 245.006 158.763 223.523 142.697 228.702C128.859 233.174 131.356 262.585 150.219 274.21L150.227 274.233Z" fill="#FF9243"/>
<path fill-rule="evenodd" clip-rule="evenodd" d="M141.775 338.373C205.631 342.415 237.709 285.182 237.709 285.182L224.755 272.32C210.679 283.176 197.187 287.679 185.309 288.048C182.028 288.155 178.885 287.94 175.874 287.464C166.047 296 146.785 307.233 118.333 299.765C83.6123 290.652 75.322 262.685 74.1695 242.125C64.7036 283.453 83.9273 334.716 141.76 338.366L141.775 338.373Z" fill="#FF9243"/>
<path fill-rule="evenodd" clip-rule="evenodd" d="M71.8876 262.547C71.8876 298.689 93.2165 335.3 141.767 338.373C205.623 342.423 237.701 285.182 237.701 285.182L224.747 272.32C210.671 283.177 197.179 287.679 185.301 288.048C174.875 298.827 159.001 317.413 126.216 309.83C111.157 306.342 101.484 298.689 96.0132 289.093C79.74 276.423 75.0224 257.276 74.1696 242.155C74.1388 242.278 74.1081 242.409 74.085 242.532C73.9621 243.07 73.8392 243.615 73.7393 244.153C73.5856 244.921 73.4396 245.69 73.3013 246.466C73.2245 246.865 73.1554 247.265 73.1016 247.664C72.9863 248.333 72.8864 249.016 72.7942 249.685C72.679 250.492 72.5791 251.298 72.4946 252.105C72.4715 252.182 72.4639 252.251 72.4639 252.32C72.3793 253.027 72.3102 253.749 72.2487 254.456L72.218 254.802C72.1412 255.655 72.0874 256.523 72.0336 257.376C71.9875 258.244 71.9491 259.097 71.926 259.965C71.8953 260.818 71.8876 261.686 71.8876 262.539V262.547Z" fill="#F8D2B6"/>
<path fill-rule="evenodd" clip-rule="evenodd" d="M141.775 338.373C205.631 342.415 237.709 285.182 237.709 285.182L224.755 272.32C210.679 283.176 197.187 287.679 185.309 288.048C174.883 298.827 159.001 317.413 126.224 309.822C71.8799 297.237 87.6768 230.438 118.218 213.85C143.173 200.296 186.377 216.132 180.968 250.576C194.536 220.357 168.413 185.191 125.463 189.962C55.9755 197.684 46.6786 332.365 141.76 338.373H141.775Z" fill="white"/>
<path fill-rule="evenodd" clip-rule="evenodd" d="M98.9022 293.442C97.8419 292.043 96.8814 290.599 96.0286 289.101C96.8814 290.599 97.8419 292.051 98.9022 293.442Z" fill="#D1AD9F"/>
<path fill-rule="evenodd" clip-rule="evenodd" d="M148.106 341.708C178.847 341.708 201.674 327.794 215.735 315.662C231.962 301.663 240.098 287.31 240.437 286.711C241.282 285.205 240.744 283.3 239.238 282.454C237.732 281.609 235.827 282.147 234.989 283.653C234.912 283.791 226.952 297.783 211.493 311.075C190.933 328.746 167.545 336.883 141.982 335.27C93.7389 332.219 75.7753 295.324 75.0454 264.66C74.2924 232.782 91.8334 196.862 125.832 193.082C146.639 190.769 164.979 198.184 174.89 212.92C182.904 224.822 183.611 239.443 176.796 252.028C172.962 259.097 164.08 260.841 160.73 259.097C159.984 258.713 159.846 257.691 159.8 254.833C159.731 251.037 159.631 245.29 153.208 242.378C150.503 241.157 147.653 241.172 145.171 242.424C142.19 243.93 139.977 247.096 139.101 251.114C136.712 262.17 143.957 275.524 156.727 283.592C176.903 296.33 203.049 293.05 226.683 274.81C228.051 273.757 228.305 271.79 227.252 270.43C226.199 269.062 224.232 268.809 222.865 269.861C204.21 284.26 184.026 288.532 167.337 281.993C164.825 281.01 162.397 279.781 160.061 278.305C149.466 271.613 143.358 260.972 145.209 252.436C145.67 250.3 146.708 248.648 147.975 248.002C148.775 247.603 149.643 247.626 150.626 248.072C153.2 249.232 153.484 250.968 153.554 254.94C153.607 258.121 153.684 262.47 157.849 264.645C162.843 267.241 170.864 266.035 176.842 261.394C179.008 259.712 180.906 257.584 182.297 255.017C190.249 240.35 189.419 223.308 180.084 209.44C168.843 192.744 148.306 184.315 125.148 186.882C107.853 188.802 93.2088 198.122 82.7748 213.827C73.3243 228.057 68.3609 246.166 68.8065 264.821C69.2675 284.26 75.7062 302.339 86.9392 315.739C99.8702 331.167 118.779 340.079 141.598 341.524C143.811 341.662 145.993 341.731 148.129 341.731L148.106 341.708Z" fill="black"/>
<path fill-rule="evenodd" clip-rule="evenodd" d="M145.678 299.957C150.196 299.957 153.876 296.277 153.876 291.759C153.876 287.241 150.196 283.561 145.678 283.561C141.16 283.561 137.48 287.241 137.48 291.759C137.48 296.277 141.16 299.957 145.678 299.957Z" fill="black"/>
<path d="M149.738 295.828C151.982 293.583 151.982 289.944 149.738 287.7C147.493 285.456 143.854 285.456 141.61 287.7C139.366 289.944 139.366 293.583 141.61 295.828C143.854 298.072 147.493 298.072 149.738 295.828Z" fill="white"/>
<path d="M128.79 278.451C131.935 278.451 134.484 275.902 134.484 272.758C134.484 269.613 131.935 267.064 128.79 267.064C125.646 267.064 123.097 269.613 123.097 272.758C123.097 275.902 125.646 278.451 128.79 278.451Z" fill="black"/>
<path fill-rule="evenodd" clip-rule="evenodd" d="M128.79 276.746C130.988 276.746 132.778 274.955 132.778 272.758C132.778 270.56 130.988 268.77 128.79 268.77C126.593 268.77 124.803 270.56 124.803 272.758C124.803 274.955 126.593 276.746 128.79 276.746Z" fill="white"/>
<path fill-rule="evenodd" clip-rule="evenodd" d="M128.007 252.459C130.588 252.459 132.693 250.353 132.693 247.772C132.693 245.19 130.588 243.085 128.007 243.085C125.425 243.085 123.32 245.19 123.32 247.772C123.32 250.353 125.425 252.459 128.007 252.459Z" fill="black"/>
<path fill-rule="evenodd" clip-rule="evenodd" d="M128.007 251.053C129.812 251.053 131.287 249.577 131.287 247.772C131.287 245.966 129.812 244.491 128.007 244.491C126.201 244.491 124.726 245.966 124.726 247.772C124.726 249.577 126.201 251.053 128.007 251.053Z" fill="white"/>
<path fill-rule="evenodd" clip-rule="evenodd" d="M178.355 252.712C178.048 252.804 177.741 252.904 177.426 252.996C167.491 255.985 156.258 257.691 146.032 255.24C133.792 252.305 123.543 242.409 116.282 232.543C111.034 225.421 104.427 214.157 102.867 205.437C101.661 198.721 99.6167 192.506 100.593 185.583C102.252 173.751 111.795 169.071 122.751 168.526C130.534 168.142 140.653 168.372 146.301 174.588C148.306 176.793 149.42 179.352 150.058 182.241C150.357 183.601 150.48 185.053 150.841 186.39C151.479 188.733 151.694 191.153 152.009 193.55C152.294 195.686 152.601 197.915 153.231 199.974C153.315 200.25 153.492 200.765 153.684 201.218C159.224 199.098 164.318 195.61 169.581 192.882C177.011 189.025 184.379 186.697 192.831 186.889C212.346 187.319 231.87 187.557 251.385 187.02C257.716 186.843 264.047 186.666 270.386 186.612C280.497 186.528 290.601 186.674 300.705 186.889C309.018 187.066 316.179 189.386 323.547 193.097C328.849 195.771 333.973 199.098 339.528 201.226C339.72 200.773 339.897 200.258 339.982 199.981C340.612 197.915 340.919 195.694 341.203 193.558C341.526 191.161 341.733 188.741 342.371 186.397C342.732 185.06 342.855 183.616 343.155 182.248C343.793 179.367 344.907 176.801 346.912 174.596C352.552 168.38 362.678 168.149 370.461 168.534C381.418 169.071 390.961 173.758 392.62 185.591C393.596 192.521 391.552 198.737 390.346 205.444C388.778 214.165 382.178 225.429 376.931 232.551C369.662 242.416 359.42 252.312 347.181 255.247C336.954 257.698 325.721 255.993 315.787 253.004C315.48 252.912 315.172 252.82 314.857 252.72C319.314 268.255 319.398 286.196 314.02 301.278C330.178 317.552 325.875 337.651 319.805 357.582C322.663 358.895 325.345 360.617 327.696 362.714C331.714 366.302 334.911 371.189 335.441 376.659C336.071 383.098 332.829 388.599 327.258 391.726C321.096 395.176 313.036 395.36 306.167 394.692C302.095 394.292 298.015 394.062 293.936 393.785C290.309 393.54 286.675 393.278 283.094 392.625C275.165 391.181 268.734 387.693 265.769 379.794C264.462 376.298 263.855 372.564 263.095 368.922C262.311 365.203 261.45 361.431 260.044 357.897C257.463 351.397 253.821 347.44 246.614 346.971C239.338 347.447 235.865 351.758 233.437 358.296C232.069 361.984 231.247 365.887 230.51 369.744C229.795 373.455 229.25 377.289 227.959 380.862C225.016 388.991 218.155 392.103 210.095 393.178C206.484 393.662 202.842 393.793 199.208 393.939C195.151 394.108 191.094 394.292 187.061 394.684C180.192 395.353 172.124 395.168 165.97 391.719C160.399 388.599 157.165 383.09 157.787 376.652C158.317 371.189 161.514 366.302 165.532 362.706C167.883 360.609 170.557 358.888 173.423 357.574C167.353 337.643 163.05 317.544 179.208 301.271C173.83 286.196 173.914 268.248 178.371 252.712H178.355Z" fill="#9968FD"/>
<path fill-rule="evenodd" clip-rule="evenodd" d="M183.273 247.749C181.029 248.586 178.77 249.355 176.534 250.023C167.161 252.843 156.412 254.533 146.754 252.22C135.298 249.47 125.586 239.95 118.779 230.699C113.923 224.107 107.385 213.043 105.917 204.883C104.795 198.652 102.759 192.421 103.658 186.006C105.095 175.787 113.385 172.091 122.897 171.622C129.52 171.292 139.132 171.315 143.996 176.67C145.632 178.468 146.5 180.558 147.015 182.901C147.322 184.315 147.461 185.821 147.837 187.196C148.413 189.317 148.636 191.76 148.928 193.95C149.236 196.247 149.581 198.66 150.265 200.873C150.572 201.872 151.233 203.693 152.101 204.353C152.755 204.845 153.976 204.422 154.629 204.177C160.338 202.018 165.601 198.445 171.018 195.633C178.01 192.006 184.794 189.809 192.762 189.986C212.369 190.423 231.862 190.662 251.47 190.116C257.786 189.939 264.094 189.763 270.409 189.709C280.482 189.624 290.563 189.77 300.635 189.986C308.495 190.155 315.195 192.352 322.141 195.863C327.588 198.606 332.867 202.025 338.576 204.177C339.221 204.422 340.45 204.837 341.103 204.353C341.979 203.7 342.64 201.872 342.94 200.873C343.616 198.652 343.969 196.247 344.277 193.95C344.569 191.76 344.784 189.317 345.368 187.196C345.744 185.821 345.875 184.308 346.19 182.901C346.705 180.558 347.573 178.476 349.209 176.67C354.073 171.315 363.685 171.292 370.308 171.622C379.82 172.091 388.11 175.787 389.547 186.006C390.446 192.413 388.41 198.645 387.288 204.883C385.82 213.035 379.282 224.107 374.426 230.699C367.619 239.95 357.907 249.47 346.451 252.22C336.801 254.533 326.052 252.843 316.67 250.023C314.435 249.355 312.176 248.586 309.932 247.749C316.371 264.767 316.87 285.674 310.386 302.085C327.919 318.235 322.364 338.888 315.994 359.372C319.521 360.632 322.832 362.53 325.622 365.019C329.041 368.077 331.891 372.28 332.344 376.944C332.852 382.161 330.239 386.479 325.737 388.999C320.197 392.103 312.614 392.18 306.467 391.58C302.364 391.181 298.254 390.943 294.135 390.666C290.647 390.436 287.082 390.182 283.64 389.552C276.809 388.307 271.224 385.511 268.673 378.688C267.467 375.469 266.836 371.642 266.13 368.269C265.315 364.374 264.393 360.44 262.926 356.737C259.891 349.076 255.212 344.328 246.606 343.844C237.909 344.336 233.399 349.445 230.517 357.205C229.088 361.055 228.228 365.127 227.452 369.153C226.791 372.58 226.215 376.521 225.032 379.794C222.511 386.755 216.549 389.168 209.673 390.09C206.177 390.559 202.589 390.681 199.062 390.827C194.944 390.997 190.841 391.189 186.738 391.588C180.591 392.187 173.008 392.111 167.468 389.007C162.966 386.486 160.353 382.168 160.86 376.951C161.314 372.288 164.157 368.085 167.583 365.027C170.372 362.537 173.676 360.64 177.211 359.38C170.841 338.896 165.286 318.243 182.819 302.093C176.327 285.674 176.834 264.775 183.273 247.756V247.749Z" fill="black"/>
<path fill-rule="evenodd" clip-rule="evenodd" d="M192.516 238.844C188.351 241.01 165.601 252.205 147.791 247.933C128.107 243.208 112.102 214.342 110.266 204.107C108.43 193.873 101.868 177.078 123.128 176.025C144.387 174.972 142.021 182.586 143.596 188.357C145.171 194.127 144.38 212.759 156.189 208.303C167.998 203.839 177.18 194.05 192.669 194.396C259.706 195.886 246.821 193.251 300.551 194.396C316.041 194.726 325.222 203.846 337.031 208.303C348.841 212.767 348.057 194.134 349.624 188.357C351.199 182.586 348.841 174.972 370.093 176.025C391.352 177.078 384.791 193.873 382.955 204.107C381.118 214.342 365.106 243.208 345.429 247.933C327.619 252.205 304.869 241.01 300.705 238.844C311.646 256.438 314.173 283.86 305.069 303.33C324.538 318.865 317.654 339.28 310.439 362.422C330.247 366.195 338.545 390.297 306.897 387.209C288.749 385.441 276.518 387.055 272.806 377.159C269.218 367.585 269.725 340.555 246.614 339.449C223.51 340.555 224.379 368.692 220.898 378.304C217.387 388.008 204.479 385.441 186.331 387.209C154.683 390.297 162.981 366.187 182.789 362.422C175.574 339.28 168.69 318.865 188.159 303.33C179.055 283.868 181.582 256.438 192.523 238.844H192.516Z" fill="#FBA329"/>
<path fill-rule="evenodd" clip-rule="evenodd" d="M206.469 369.821C206.791 368.177 207.052 366.425 207.314 365.096C208.305 359.932 209.473 354.831 211.317 349.898C217.118 334.401 228.689 324.144 245.83 323.321C246.368 323.298 246.837 323.298 247.375 323.321C264.262 324.128 275.941 333.894 281.996 349.107C283.916 353.932 285.153 358.918 286.221 363.989C286.536 365.503 286.874 367.577 287.305 369.383C289.456 369.798 292.875 370.113 296.386 370.366C294.112 366.379 293.651 362.038 295.026 357.62C297.6 349.368 301.457 338.35 301.619 329.722C301.734 323.59 299.859 319.833 294.996 315.953C289.087 311.243 287.243 303.345 290.44 296.499C297.093 282.277 295.219 260.603 286.99 247.38C283.094 241.118 283.84 233.304 288.849 227.887C293.859 222.47 301.596 221.133 308.142 224.537C316.555 228.916 332.098 234.541 341.649 232.251C347.65 230.814 354.203 223.492 357.799 218.636C360.604 214.841 366.174 205.928 367.058 201.264C367.365 199.543 368.433 195.325 368.948 192.144C368.018 192.098 366.658 192.052 365.321 192.075C365.29 192.213 365.252 192.344 365.221 192.482C364.092 197.753 364.146 202.225 362.317 207.749C357.776 221.464 345.421 228.74 331.315 223.415C321.442 219.689 310.339 210.761 300.197 210.546C284.024 210.2 268.196 210.223 252.038 210.669C232.092 211.222 212.254 210.984 192.308 210.546C187.921 210.446 184.31 211.898 180.484 213.888C174.191 217.153 168.62 220.872 161.89 223.415C147.783 228.747 135.429 221.471 130.888 207.749C129.059 202.217 129.113 197.753 127.983 192.482C127.945 192.344 127.914 192.213 127.884 192.075C126.547 192.052 125.194 192.098 124.257 192.144C124.772 195.333 125.84 199.551 126.147 201.264C127.031 205.928 132.601 214.841 135.406 218.636C138.994 223.492 145.555 230.814 151.556 232.251C161.106 234.541 176.65 228.916 185.063 224.537C191.609 221.133 199.338 222.478 204.356 227.887C209.365 233.296 210.118 241.118 206.223 247.38C197.994 260.61 196.119 282.277 202.773 296.499C205.969 303.345 204.125 311.243 198.217 315.953C193.353 319.833 191.478 323.59 191.594 329.722C191.755 338.358 195.612 349.368 198.186 357.62C199.569 362.045 199.1 366.386 196.818 370.382C198.463 370.305 200.114 370.236 201.774 370.151C202.842 370.097 204.786 370.021 206.469 369.829V369.821Z" fill="white"/>
<path d="M69.8438 228.532C86.3251 228.532 99.6859 211.972 99.6859 191.545C99.6859 171.117 86.3251 154.557 69.8438 154.557C53.3626 154.557 40.0018 171.117 40.0018 191.545C40.0018 211.972 53.3626 228.532 69.8438 228.532Z" fill="white"/>
<g filter="url(#filter1_d_41_510)">
<path fill-rule="evenodd" clip-rule="evenodd" d="M69.8438 154.557C70.3894 154.557 70.9272 154.58 71.465 154.611C81.584 160.535 88.5835 173.289 88.5835 188.08C88.5835 208.51 75.2222 225.067 58.7414 225.067C58.1959 225.067 57.6581 225.052 57.1203 225.013C47.0013 219.09 40.0018 206.335 40.0018 191.545C40.0018 171.115 53.3631 154.557 69.8438 154.557Z" fill="url(#paint1_linear_41_510)"/>
</g>
<path fill-rule="evenodd" clip-rule="evenodd" d="M40.0018 197.746C42.7602 197.746 45.0037 194.957 45.0037 191.545C45.0037 188.134 42.7525 185.345 40.0018 185.345C37.2512 185.345 35 188.134 35 191.545C35 194.957 37.2512 197.746 40.0018 197.746Z" fill="white"/>
<path fill-rule="evenodd" clip-rule="evenodd" d="M176.358 173.466C171.955 170.639 168.006 167.197 164.641 163.255C161.229 159.252 158.525 154.681 156.604 149.671C155.674 147.266 154.921 144.723 154.36 142.134C153.83 139.644 153.469 137.047 153.277 134.404C152.931 129.495 153.185 124.331 154.045 119.061C154.414 116.779 154.929 114.397 155.574 111.977C155.551 111.892 155.536 111.808 155.521 111.723C154.038 109.503 153.285 106.475 153.285 102.726C153.285 99.5758 154.599 96.7637 157.011 94.6815C156.842 90.4557 156.819 86.2529 156.942 82.1039C158.893 79.3456 161.137 76.6488 163.711 74.0749C161.145 76.6488 158.901 79.338 156.95 82.0963C157.119 76.2185 157.58 70.433 158.325 64.8011C160.269 50.2796 164.141 36.734 169.827 24.5405C172.977 17.8023 176.573 11.6479 180.507 6.26191C181.052 5.50126 181.621 4.75597 182.105 4.12594L182.881 3.14248L183.119 2.87356C183.357 2.61233 183.657 2.28195 184.064 1.95925L184.517 1.59045L185.04 1.26006C185.762 0.806749 186.569 0.468682 187.514 0.2305L187.583 0.215133H187.652C188.313 0.0691499 188.92 0.00768332 189.496 0.00768332C189.742 0.00768332 189.988 0.02305 190.226 0.0460999C191.01 0.107566 191.824 0.299649 192.708 0.637716L192.785 0.660765L192.854 0.699182C193.737 1.09103 194.452 1.54435 195.044 2.05913C195.681 2.5816 196.234 3.23468 196.749 4.04143C196.957 4.36413 197.103 4.67146 197.226 4.91732L197.333 5.14782L198.647 8.12127C199.062 9.10473 199.531 10.0728 200.038 11.0947C200.276 11.5788 200.506 12.0628 200.737 12.5469C203.449 18.0174 206.714 23.5801 210.717 29.5116C211.355 30.4797 211.993 31.3864 212.669 32.3468C212.961 32.7617 213.253 33.1689 213.545 33.5838L214.113 34.3598C214.882 35.4201 215.681 36.5035 216.488 37.5407C217.041 38.2783 217.594 38.9775 218.009 39.4999C218.485 40.1069 218.985 40.737 219.553 41.4361C219.999 41.9893 220.429 42.5118 220.852 43.0112C223.464 42.2813 226.315 41.6974 229.649 41.2133C233.437 40.6601 237.417 40.3758 241.458 40.3605C245.523 40.3758 249.495 40.6601 253.291 41.2133C256.633 41.6974 259.476 42.2736 262.088 43.0112C262.503 42.5118 262.933 41.997 263.379 41.4438C263.955 40.7446 264.455 40.1146 264.916 39.523C265.346 38.9775 265.899 38.2783 266.429 37.5714C267.251 36.5111 268.035 35.4278 268.803 34.3829L269.387 33.5838C269.679 33.1689 269.964 32.754 270.256 32.3468C270.939 31.3864 271.577 30.4797 272.199 29.5347C276.218 23.5801 279.491 18.0174 282.211 12.5008C282.426 12.0551 282.664 11.5711 282.902 11.087C283.402 10.0651 283.878 9.10473 284.285 8.12127L285.591 5.14014L285.699 4.90964C285.814 4.66377 285.968 4.35644 286.183 4.02606C286.69 3.22699 287.251 2.5816 287.881 2.05145C288.473 1.52898 289.195 1.08335 290.071 0.683815L290.14 0.653082L290.209 0.630032C291.1 0.291966 291.915 0.0998831 292.691 0.0384166C292.929 0.0153666 293.175 0 293.421 0C293.997 0 294.596 0.0691499 295.265 0.199766H295.334L295.403 0.2305C296.356 0.468682 297.162 0.806749 297.877 1.25238L298.4 1.59045L298.861 1.96693C299.26 2.28195 299.552 2.60465 299.79 2.86588L300.036 3.14248L300.797 4.11826C301.296 4.75597 301.865 5.50894 302.418 6.26959C306.336 11.6479 309.932 17.7946 313.082 24.5405C318.768 36.734 322.64 50.2796 324.584 64.8011C325.33 70.433 325.791 76.2108 325.96 82.0963C324.976 80.7056 323.916 79.3303 322.779 77.978C323.916 79.3303 324.976 80.7056 325.967 82.1039C326.09 86.2529 326.067 90.4557 325.898 94.6815C328.311 96.7637 329.624 99.5758 329.624 102.726C329.624 106.475 328.872 109.495 327.381 111.715C327.366 111.8 327.343 111.885 327.327 111.969C327.965 114.382 328.48 116.763 328.856 119.061C329.717 124.339 329.978 129.502 329.624 134.397C329.432 137.04 329.071 139.637 328.541 142.118C327.988 144.708 327.227 147.243 326.298 149.671C324.369 154.688 321.665 159.252 318.261 163.247C314.911 167.174 310.962 170.616 306.513 173.474C308.05 181.634 305.952 204.922 242.818 204.922C175.881 204.922 175.236 182.825 176.365 173.451L176.358 173.466Z" fill="#9968FD"/>
<path fill-rule="evenodd" clip-rule="evenodd" d="M295.626 186.981C293.797 180.858 293.013 178.537 292.337 176.455H190.556C189.873 178.553 189.035 181.05 187.183 187.25C186.1 186.636 185.017 185.998 183.918 185.329C186.361 177.185 187.46 174.089 187.475 174.035C187.729 173.282 188.428 172.775 189.22 172.775H293.667C294.458 172.775 295.165 173.282 295.411 174.035C295.426 174.089 296.448 176.962 298.853 184.945C297.762 185.652 296.694 186.336 295.626 186.989V186.981Z" fill="#433B72"/>
<path fill-rule="evenodd" clip-rule="evenodd" d="M295.718 187.304C293.882 181.157 293.006 178.53 292.337 176.455H190.564C189.888 178.553 189.135 180.735 187.276 186.958C186.192 186.351 185.109 185.706 184.01 185.037C186.446 176.916 187.437 174.173 187.483 174.035C187.729 173.282 188.436 172.775 189.227 172.775H293.674C294.466 172.775 295.173 173.282 295.418 174.035C295.465 174.173 296.556 177.3 298.953 185.268C297.862 185.975 296.794 186.659 295.726 187.312L295.718 187.304Z" fill="black"/>
<path fill-rule="evenodd" clip-rule="evenodd" d="M241.451 170.116H300.651C300.651 170.116 313.313 198.867 241.451 198.867C169.589 198.867 182.251 170.116 182.251 170.116H241.451Z" fill="#9968FD"/>
<path fill-rule="evenodd" clip-rule="evenodd" d="M241.451 170.116H300.651C300.651 170.116 300.774 170.4 300.927 170.907C298.461 179.351 286.752 190.776 241.451 190.776C196.15 190.776 184.448 179.351 181.974 170.907C182.128 170.4 182.251 170.116 182.251 170.116H241.451Z" fill="black"/>
<path fill-rule="evenodd" clip-rule="evenodd" d="M183.588 171.961C183.111 173.835 182.627 177.861 185.439 182.118C189.934 188.918 203.295 197.031 241.451 197.031C279.606 197.031 292.967 188.918 297.462 182.118C300.274 177.861 299.79 173.843 299.314 171.961H183.588ZM293.836 190.669C290.14 192.775 286.421 194.526 282.28 195.956C272.292 199.09 258.846 200.681 242.012 200.719C238.001 200.712 234.267 200.642 230.756 200.489C225.731 200.266 221.067 199.874 216.772 199.321C206.422 197.923 198.009 195.349 189.581 191C186.454 188.995 184.033 186.682 182.32 184.062C177.479 176.64 180.445 169.671 180.576 169.379C180.868 168.711 181.529 168.28 182.258 168.28H300.651C301.381 168.28 302.041 168.711 302.333 169.379C302.464 169.671 305.437 176.632 300.589 184.062C298.976 186.536 296.717 188.741 293.836 190.669Z" fill="black"/>
<path fill-rule="evenodd" clip-rule="evenodd" d="M263.571 182.917C256.218 183.647 248.85 184.008 241.474 184.008H241.443C234.059 184.008 226.676 183.647 219.315 182.917C212.139 182.056 205.769 180.788 200.107 179.206C138.425 161.918 162.266 105.976 162.266 105.976C156.688 50.1873 176.865 17.8021 186.292 5.99286C188.236 3.56493 192.047 4.13349 193.246 6.99937C202.788 29.9264 219.338 48.1359 219.338 48.1359C221.897 47.2369 224.763 46.5608 227.567 46.0614C236.741 44.4171 246.138 44.4171 255.311 46.0614C258.116 46.5608 260.982 47.2292 263.54 48.1359C263.54 48.1359 280.082 29.9264 289.633 6.99937C290.831 4.13349 294.642 3.56493 296.586 5.99286C306.014 17.8021 326.198 50.1873 320.612 105.976C320.612 105.976 349.025 172.636 263.571 182.909V182.917Z" fill="#FBA329"/>
<path fill-rule="evenodd" clip-rule="evenodd" d="M194.383 175.756C193.614 175.472 192.846 175.172 192.085 174.865L190.464 174.196C189.926 173.966 189.396 173.712 188.866 173.474C187.798 173.005 186.761 172.46 185.724 171.937C183.672 170.839 181.651 169.686 179.754 168.364C175.92 165.775 172.447 162.694 169.535 159.16C166.638 155.618 164.333 151.623 162.727 147.351C161.122 143.071 160.207 138.538 159.877 133.951C159.57 129.356 159.808 124.708 160.522 120.121C160.837 118.069 161.237 116.033 161.736 114.02C162.105 118.369 163.342 124.255 166.077 129.971C166.062 130.478 166.047 130.985 166.047 131.485C166.047 153.989 184.679 169.317 194.375 175.771L194.383 175.756ZM167.921 92.5455C167.891 92.4533 167.86 92.3611 167.822 92.2766C166.623 89.111 170.733 84.7853 174.199 84.7853C174.491 84.7853 174.783 84.8161 175.059 84.8775C175.059 84.8775 175.858 75.2427 183.457 75.2427C183.811 75.2427 184.172 75.2657 184.556 75.3041L186.208 74.5588C186.208 74.5588 188.974 76.787 188.082 78.7309C186.822 81.4892 180.222 78.7232 179.492 87.2747C179.446 87.7818 179.293 88.2659 179.039 88.6885C174.06 89.9562 170.265 91.4698 167.921 92.5378V92.5455Z" fill="#BE6F00"/>
<path fill-rule="evenodd" clip-rule="evenodd" d="M288.496 175.763C298.392 169.179 317.623 153.328 316.816 130.032C316.816 130.009 316.816 129.978 316.816 129.955C316.832 130.463 316.847 130.97 316.847 131.469C316.847 153.981 298.192 169.317 288.503 175.771L288.496 175.763ZM194.375 175.748C184.679 169.294 166.054 153.958 166.047 131.461C166.047 130.962 166.054 130.455 166.077 129.948C166.077 129.971 166.077 130.002 166.077 130.025C165.271 153.305 184.479 169.148 194.375 175.74V175.748Z" fill="#4A4A8E"/>
<path fill-rule="evenodd" clip-rule="evenodd" d="M241.481 184.008H241.42C234.113 184.008 226.806 183.647 219.523 182.94C219.53 182.832 219.461 182.733 219.354 182.702C214.682 181.588 210.049 180.558 205.493 179.283C201.736 178.246 198.009 177.108 194.39 175.756C184.487 169.164 165.278 153.321 166.093 130.04C166.323 130.686 166.577 131.331 166.846 131.984C171.74 135.165 198.332 151.915 206.031 145.991C214.006 139.852 215.42 118.546 222.081 107.021C225.485 101.136 232.868 96.81 239.645 96.5872C248.673 96.2952 256.472 100.59 260.636 108.473C266.967 120.459 268.965 140.513 276.794 145.983C288.765 154.35 308.188 139.844 316.832 130.033C316.832 130.01 316.832 129.979 316.832 129.956C316.832 150.201 304.661 165.015 288.519 175.764C284.9 177.116 281.181 178.23 277.432 179.275C276.287 179.567 275.15 179.905 273.997 180.189C272.845 180.466 271.7 180.789 270.54 181.058C269.38 181.311 268.227 181.626 267.059 181.887C265.899 182.156 264.731 182.425 263.563 182.733C263.487 182.756 263.425 182.825 263.425 182.917V182.932C256.134 183.647 248.811 184.008 241.497 184.008H241.481ZM167.599 133.705L167.637 133.79L167.614 133.744L167.591 133.705H167.599ZM168.244 135.011L168.267 135.05L168.29 135.096L168.244 135.011ZM168.521 135.534L168.536 135.565L168.567 135.618L168.521 135.534Z" fill="white"/>
<path fill-rule="evenodd" clip-rule="evenodd" d="M221.935 151.315C220.591 150.509 218.839 149.195 217.563 147.312C218.424 146.744 219.223 146.137 219.984 145.499C220.406 145.868 220.859 146.191 221.351 146.483C221.351 147.743 221.466 149.456 221.935 151.315ZM261.036 151.269C261.497 149.425 261.612 147.735 261.604 146.483C262.08 146.198 262.526 145.883 262.941 145.53C263.694 146.16 264.485 146.759 265.331 147.312C264.078 149.164 262.365 150.463 261.036 151.269ZM254.912 144.416H254.843C245.1 144.416 243.364 134.581 243.295 134.166C243.249 133.89 243.149 133.628 242.995 133.413L245.4 132.53C245.4 132.53 248.42 141.227 254.927 141.227C256.249 141.227 257.294 140.843 258.124 140.236C258.784 141.173 259.499 142.08 260.283 142.948C258.999 143.909 257.202 144.408 254.92 144.416H254.912ZM228.113 144.416H228.043C225.738 144.408 223.925 143.901 222.642 142.918C223.41 142.057 224.125 141.158 224.77 140.228C225.592 140.835 226.645 141.219 227.959 141.219C234.467 141.219 237.486 132.522 237.486 132.522L239.945 133.421C239.799 133.636 239.699 133.882 239.653 134.151C239.584 134.573 237.847 144.408 228.105 144.408L228.113 144.416Z" fill="white"/>
<path fill-rule="evenodd" clip-rule="evenodd" d="M288.503 175.764C298.192 169.31 316.839 153.981 316.847 131.462C316.847 130.962 316.84 130.455 316.816 129.948C319.559 124.224 320.796 118.346 321.158 113.997C321.649 116.01 322.049 118.046 322.371 120.098C323.086 124.685 323.324 129.333 323.017 133.928C322.686 138.515 321.772 143.048 320.166 147.328C318.561 151.599 316.256 155.595 313.359 159.137C310.447 162.671 306.982 165.752 303.14 168.341C301.242 169.671 299.222 170.815 297.17 171.922C296.125 172.444 295.096 172.99 294.028 173.459C293.498 173.697 292.967 173.95 292.43 174.181L290.808 174.857C290.04 175.172 289.272 175.472 288.496 175.756L288.503 175.764ZM314.988 92.5455C312.644 91.4775 308.849 89.9639 303.87 88.6961C303.617 88.2659 303.455 87.7818 303.409 87.267C302.641 78.6464 295.756 80.959 294.827 78.7309C294.005 76.764 296.702 74.5588 296.702 74.5588L298.346 75.3041C298.73 75.258 299.091 75.2427 299.444 75.2427C307.051 75.2427 307.842 84.8775 307.842 84.8775C308.119 84.8084 308.411 84.7853 308.703 84.7853C312.168 84.7853 316.279 89.1034 315.08 92.2766C315.042 92.3688 315.011 92.461 314.98 92.5455H314.988Z" fill="#BE6F00"/>
<path fill-rule="evenodd" clip-rule="evenodd" d="M188.067 4.72461C188.067 4.72461 188.044 4.72461 188.029 4.73238C188.044 4.73238 188.052 4.73238 188.067 4.72461Z" fill="#A2A2D2"/>
<path fill-rule="evenodd" clip-rule="evenodd" d="M289.641 7.01503C280.09 29.9421 263.548 48.1438 263.548 48.1438C260.989 47.2449 258.124 46.5688 255.319 46.0693C246.153 44.4251 236.749 44.4251 227.582 46.0693C224.778 46.5688 221.912 47.2449 219.354 48.1438C219.354 48.1438 202.804 29.9344 193.261 7.01503C192.37 4.87138 190.019 4.01853 188.075 4.73308C188.198 4.69467 188.321 4.77918 188.444 5.07883C197.318 26.3924 212.339 47.437 216.349 52.0931C216.972 52.823 217.971 53.0996 218.885 52.8153C221.274 52.0777 223.841 51.4938 226.361 51.0481C227.444 50.856 228.527 50.687 229.611 50.5334C230.886 52.5464 235.704 54.0523 241.443 54.0523C247.183 54.0523 252 52.5541 253.283 50.5334C254.366 50.687 255.457 50.8484 256.533 51.0481C259.053 51.5014 261.627 52.0777 264.009 52.8153C264.923 53.0996 265.914 52.8153 266.545 52.0931C270.555 47.437 284.992 27.8291 293.874 6.51561C294.412 5.22482 295.441 6.41573 296.602 6.03156C294.665 3.58059 290.839 4.14147 289.633 7.01503H289.641Z" fill="#BE6F00"/>
<path fill-rule="evenodd" clip-rule="evenodd" d="M186.292 6.02335C187.16 6.30763 187.629 4.93232 188.036 4.74023C187.383 4.9861 186.784 5.41637 186.292 6.02335Z" fill="#A2A2D2"/>
<path fill-rule="evenodd" clip-rule="evenodd" d="M241.482 135.71C241.482 135.71 241.467 135.781 241.451 135.82C241.436 135.781 241.428 135.749 241.42 135.71H241.482Z" fill="#FF6C8B"/>
<path fill-rule="evenodd" clip-rule="evenodd" d="M254.843 148.088C247.797 148.088 243.64 144.024 241.481 139.975C239.315 144.024 235.158 148.088 228.12 148.088H228.036C224.294 148.073 221.382 146.997 219.369 144.9C216.588 142.003 216.687 138.223 216.695 138.061C216.733 137.047 217.579 136.256 218.601 136.287C219.615 136.325 220.406 137.178 220.375 138.192C220.375 138.2 220.345 140.62 222.05 142.379C223.349 143.709 225.362 144.393 228.051 144.4H228.12C237.863 144.4 239.599 134.566 239.668 134.143C239.814 133.252 240.583 132.599 241.481 132.599C242.388 132.599 243.149 133.252 243.295 134.143C243.364 134.558 245.1 144.393 254.843 144.393H254.912C257.593 144.377 259.614 143.701 260.913 142.372C262.626 140.62 262.595 138.2 262.595 138.177C262.572 137.17 263.371 136.317 264.378 136.294C265.384 136.271 266.229 137.047 266.268 138.061C266.268 138.223 266.375 141.995 263.594 144.9C261.581 146.997 258.669 148.065 254.927 148.088H254.843Z" fill="black"/>
<path fill-rule="evenodd" clip-rule="evenodd" d="M246.284 120.851C243.179 119.66 239.722 119.66 236.618 120.851C234.198 121.781 231.785 123.494 231.785 126.636C231.785 132.921 236.964 137.186 241.451 137.186C245.938 137.186 251.116 132.921 251.116 126.636C251.116 123.494 248.696 121.781 246.284 120.851Z" fill="black"/>
<path fill-rule="evenodd" clip-rule="evenodd" d="M247.098 124.27C247.098 124.946 244.57 125.499 241.443 125.499C238.316 125.499 235.788 124.953 235.788 124.27C235.788 123.586 238.316 123.04 241.443 123.04C244.57 123.04 247.098 123.593 247.098 124.27Z" fill="white"/>
<path fill-rule="evenodd" clip-rule="evenodd" d="M168.137 94.9656C168.106 94.835 167.944 94.1204 167.868 93.1216C167.952 93.7362 168.044 94.3509 168.137 94.9656Z" fill="#FF7C88"/>
<path fill-rule="evenodd" clip-rule="evenodd" d="M184.548 75.2732L184.556 75.3116C184.379 75.2809 184.21 75.2578 184.041 75.2348C183.034 75.0965 182.136 75.1042 181.344 75.2271C180.952 75.2809 180.584 75.3731 180.238 75.4807C180.153 75.5037 180.061 75.5344 179.977 75.5652C179.807 75.6266 179.646 75.6958 179.492 75.7649C179.362 75.8264 179.231 75.8956 179.108 75.957C178.793 76.1337 178.501 76.3335 178.232 76.5486C178.048 76.6946 177.871 76.856 177.71 77.025C177.541 77.194 177.387 77.3631 177.249 77.5475C177.149 77.6627 177.065 77.778 176.98 77.9009C176.888 78.0315 176.803 78.1621 176.719 78.3004C176.481 78.6923 176.281 79.0918 176.104 79.499C176.043 79.6373 175.989 79.7679 175.943 79.9139C175.72 80.5209 175.559 81.1202 175.436 81.6888C175.436 81.6965 175.436 81.7041 175.436 81.7195C175.413 81.8348 175.39 81.95 175.367 82.0653C175.367 82.0729 175.367 82.0806 175.367 82.096C175.313 82.3956 175.274 82.6722 175.244 82.9412C175.236 83.018 175.228 83.0871 175.221 83.164C175.213 83.2562 175.205 83.3484 175.198 83.4329C175.136 84.2166 175.151 84.7237 175.151 84.7237C171.755 84.7237 169.888 86.0222 168.897 87.6894C167.86 89.4412 167.775 91.6003 167.891 93.1139C167.814 92.553 167.745 91.9998 167.683 91.4466C167.361 88.7574 167.145 86.1067 167.022 83.502C165.294 44.8242 185.055 15.5508 188.935 10.1955C189.004 10.111 189.058 10.0265 189.104 9.95731C189.304 9.68839 189.45 9.49631 189.519 9.40411C189.542 9.37338 189.558 9.35801 189.565 9.35033L189.581 9.33496C184.318 18.747 182.151 29.7649 181.559 40.0606C180.484 58.3545 184.356 74.405 184.571 75.2809L184.548 75.2732Z" fill="white"/>
<path fill-rule="evenodd" clip-rule="evenodd" d="M184.548 75.2732L184.556 75.3116C184.379 75.2809 184.21 75.2578 184.041 75.2348C183.034 75.1042 182.136 75.1042 181.344 75.2271C180.952 75.2886 180.584 75.3731 180.238 75.4807C180.153 75.5037 180.061 75.5344 179.977 75.5652C179.807 75.6266 179.654 75.6958 179.492 75.7649C179.362 75.8264 179.231 75.8956 179.108 75.957C178.793 76.1337 178.501 76.3335 178.232 76.5486C178.04 76.6946 177.871 76.856 177.71 77.025C177.541 77.194 177.387 77.3631 177.249 77.5475C177.149 77.6627 177.065 77.778 176.98 77.9009C176.888 78.0315 176.803 78.1621 176.719 78.3004C176.481 78.6846 176.273 79.0918 176.104 79.499C176.043 79.6373 175.989 79.7679 175.943 79.9139C175.712 80.5132 175.551 81.1202 175.436 81.6888C175.436 81.6965 175.436 81.7041 175.436 81.7195C175.413 81.8348 175.39 81.95 175.367 82.0653C175.367 82.0729 175.367 82.0806 175.367 82.096C175.313 82.3956 175.274 82.6722 175.244 82.9412C175.236 83.018 175.228 83.0871 175.221 83.164C175.213 83.2562 175.205 83.3484 175.198 83.4329C175.136 84.2166 175.151 84.7237 175.151 84.7237C171.863 85.0618 169.957 86.245 168.897 87.6894C168.037 88.865 167.729 90.2249 167.676 91.4466C167.353 88.7574 167.138 86.1067 167.015 83.502C167.868 82.4725 168.959 81.804 169.819 81.3891C170.664 80.9819 171.202 80.1444 171.233 79.1994C171.394 73.506 174.445 70.9244 176.373 69.8642C177.272 69.3647 177.787 68.3659 177.633 67.3517C172.846 35.2277 185.824 14.5904 188.92 10.1955C188.989 10.111 189.043 10.0265 189.089 9.95731C189.289 9.68839 189.435 9.49631 189.504 9.40411C189.527 9.37338 189.542 9.35801 189.55 9.35033L189.565 9.33496C184.686 20.0993 182.397 30.6562 181.544 40.0606C179.746 59.8067 184.302 74.4818 184.556 75.2809L184.548 75.2732Z" fill="white"/>
<path fill-rule="evenodd" clip-rule="evenodd" d="M189.788 9.44287C188.367 13.2615 187.23 17.1569 186.223 21.0677L185.501 24.0104C185.293 25.0016 185.063 25.9774 184.863 26.9685C184.448 28.9431 184.125 30.9331 183.834 32.9231C183.557 34.9208 183.311 36.9184 183.165 38.9238C183.127 39.4232 183.073 39.9226 183.034 40.4297L182.942 41.9356C182.865 42.9345 182.85 43.941 182.812 44.9475C182.712 48.9735 182.835 52.9919 183.18 57.0026C183.534 61.0133 184.133 64.9933 184.94 68.9271C185.155 69.9106 185.339 70.9017 185.585 71.8698L186.315 74.7972V74.8433C186.315 74.7972 186.369 74.9969 186.377 75.0968C186.392 75.2198 186.4 75.3427 186.392 75.4733C186.361 75.9804 186.123 76.4645 185.754 76.8025C185.386 77.1483 184.84 77.3404 184.325 77.3096C184.225 77.3096 184.018 77.2712 184.064 77.2789H184.049L184.01 77.2712L183.703 77.2251C183.495 77.1944 183.28 77.179 183.065 77.1636C182.635 77.1329 182.212 77.1406 181.79 77.1636C180.96 77.2328 180.176 77.4095 179.539 77.7476C178.885 78.0703 178.394 78.5313 177.987 79.1075C177.595 79.6915 177.318 80.4367 177.164 81.2512C177.011 82.0733 176.965 82.9722 177.003 83.8865L177.018 84.2323V84.3168V84.3629C177.018 84.4167 177.026 84.555 177.018 84.6549C176.995 85.0698 176.849 85.4924 176.588 85.8304C176.327 86.1762 175.943 86.4528 175.505 86.5834C175.313 86.6525 174.975 86.6756 175.036 86.6679H174.959L174.652 86.7063C174.237 86.7601 173.814 86.8446 173.415 86.9599C172.608 87.1827 171.871 87.5284 171.248 87.951C170.626 88.3813 170.103 88.8961 169.712 89.5722C169.312 90.2406 169.058 91.0628 168.905 91.9617C168.751 92.8683 168.728 93.8364 168.72 94.8583V94.8737C168.72 95.2118 168.444 95.4807 168.106 95.4807C167.868 95.4807 167.66 95.3424 167.56 95.1426C167.084 94.1668 166.738 93.1065 166.592 91.9694C166.531 91.3931 166.485 90.8092 166.546 90.2022C166.561 89.9026 166.615 89.5953 166.669 89.2879C166.746 88.9883 166.815 88.6733 166.923 88.3736C167.314 87.152 168.121 86.0379 169.105 85.2081C170.096 84.3706 171.248 83.8404 172.401 83.4947C172.977 83.318 173.561 83.195 174.16 83.1105C174.306 83.0875 174.46 83.0721 174.614 83.0567L174.729 83.0414C174.852 83.026 174.575 83.0491 174.452 83.0952C174.137 83.1874 173.861 83.3871 173.676 83.633C173.492 83.8789 173.392 84.1631 173.369 84.4551C173.369 84.5166 173.369 84.6241 173.369 84.6472V84.5934L173.361 84.4858L173.338 84.0633C173.277 82.9415 173.307 81.7813 173.515 80.5904C173.73 79.4072 174.129 78.1702 174.867 77.0484C175.236 76.4875 175.682 75.965 176.196 75.5194C176.711 75.0661 177.28 74.705 177.879 74.413C179.07 73.8214 180.322 73.5679 181.529 73.4833C182.136 73.4449 182.727 73.4449 183.319 73.491C183.611 73.5141 183.91 73.5448 184.21 73.5832C184.356 73.6063 184.51 73.6293 184.663 73.66H184.717L184.748 73.6754C184.809 73.6908 184.617 73.6524 184.533 73.6524C184.087 73.6216 183.603 73.7984 183.28 74.0903C182.95 74.3823 182.75 74.8125 182.719 75.2505C182.719 75.3657 182.719 75.4656 182.727 75.5732C182.727 75.6577 182.781 75.8421 182.766 75.7806V75.7345L182.036 72.6996C181.79 71.6931 181.613 70.6636 181.398 69.6494C180.607 65.5695 180.038 61.4436 179.723 57.2946C179.4 53.1533 179.331 48.9889 179.531 44.8322C179.585 43.795 179.631 42.7577 179.723 41.7205L179.854 40.1685C179.9 39.6537 179.961 39.1389 180.015 38.6241C180.238 36.5573 180.56 34.5059 180.914 32.4621C181.675 28.3823 182.643 24.3408 183.995 20.4147C184.671 18.4554 185.439 16.5269 186.315 14.6445C187.191 12.7697 188.152 10.9334 189.335 9.21237C189.412 9.09712 189.565 9.06639 189.681 9.15091C189.78 9.22006 189.811 9.34299 189.773 9.44287V9.45824L189.788 9.44287Z" fill="#984200"/>
<path fill-rule="evenodd" clip-rule="evenodd" d="M314.757 94.9656C314.788 94.835 314.949 94.1204 315.026 93.1216C314.942 93.7362 314.85 94.3509 314.757 94.9656Z" fill="#FF7C88"/>
<path fill-rule="evenodd" clip-rule="evenodd" d="M298.353 75.2732L298.346 75.3116C298.522 75.2809 298.691 75.2578 298.86 75.2348C299.867 75.0965 300.766 75.1042 301.557 75.2271C301.949 75.2809 302.318 75.3731 302.664 75.4807C302.748 75.5037 302.84 75.5344 302.925 75.5652C303.094 75.6266 303.255 75.6958 303.409 75.7649C303.54 75.8264 303.67 75.8956 303.793 75.957C304.108 76.1337 304.4 76.3335 304.669 76.5486C304.853 76.6946 305.03 76.856 305.199 77.025C305.368 77.194 305.514 77.3631 305.66 77.5475C305.76 77.6627 305.845 77.778 305.929 77.9009C306.021 78.0315 306.106 78.1621 306.19 78.3004C306.429 78.6923 306.628 79.0918 306.805 79.499C306.867 79.6373 306.92 79.7679 306.966 79.9139C307.189 80.5209 307.351 81.1202 307.473 81.6888C307.473 81.6965 307.473 81.7041 307.473 81.7195C307.497 81.8348 307.52 81.95 307.535 82.0653C307.535 82.0729 307.535 82.0806 307.535 82.096C307.589 82.3956 307.627 82.6722 307.658 82.9412C307.658 83.018 307.673 83.0871 307.681 83.164C307.689 83.2562 307.689 83.3484 307.704 83.4329C307.773 84.2166 307.75 84.7237 307.75 84.7237C311.146 84.7237 313.013 86.0222 314.004 87.6894C315.042 89.4412 315.126 91.6003 315.011 93.1139C315.088 92.553 315.164 91.9998 315.218 91.4466C315.541 88.7574 315.756 86.1067 315.879 83.502C317.608 44.8242 297.846 15.5508 293.966 10.1955C293.897 10.111 293.843 10.0265 293.797 9.95731C293.597 9.68839 293.451 9.49631 293.382 9.40411C293.359 9.37338 293.344 9.35801 293.336 9.35033L293.321 9.33496C298.584 18.747 300.751 29.7649 301.342 40.0606C302.418 58.3545 298.545 74.405 298.33 75.2809L298.353 75.2732Z" fill="white"/>
<path fill-rule="evenodd" clip-rule="evenodd" d="M298.353 75.2732L298.346 75.3116C298.523 75.2809 298.692 75.2578 298.861 75.2348C299.867 75.1042 300.766 75.1042 301.557 75.2271C301.949 75.2886 302.318 75.3731 302.664 75.4807C302.748 75.5037 302.841 75.5344 302.925 75.5652C303.094 75.6266 303.248 75.6958 303.409 75.7649C303.54 75.8264 303.663 75.8956 303.793 75.957C304.108 76.1337 304.4 76.3335 304.669 76.5486C304.861 76.6946 305.038 76.856 305.199 77.025C305.368 77.194 305.514 77.3631 305.66 77.5475C305.76 77.6627 305.845 77.778 305.929 77.9009C306.021 78.0315 306.106 78.1621 306.19 78.3004C306.429 78.6846 306.636 79.0918 306.805 79.499C306.867 79.6373 306.92 79.7679 306.966 79.9139C307.197 80.5132 307.358 81.1202 307.474 81.6888C307.474 81.6965 307.474 81.7041 307.474 81.7195C307.497 81.8348 307.52 81.95 307.535 82.0653C307.535 82.0729 307.535 82.0806 307.535 82.096C307.597 82.3956 307.635 82.6722 307.658 82.9412C307.658 83.018 307.673 83.0871 307.681 83.164C307.689 83.2562 307.696 83.3484 307.704 83.4329C307.773 84.2166 307.75 84.7237 307.75 84.7237C311.046 85.0618 312.944 86.245 314.004 87.6894C314.865 88.865 315.165 90.2249 315.218 91.4466C315.541 88.7574 315.756 86.1067 315.879 83.502C315.019 82.4725 313.935 81.804 313.067 81.3891C312.222 80.9819 311.684 80.1444 311.653 79.1994C311.492 73.506 308.442 70.9244 306.513 69.8642C305.614 69.3647 305.099 68.3659 305.253 67.3517C310.04 35.2277 297.063 14.5904 293.959 10.1955C293.889 10.111 293.836 10.0265 293.79 9.95731C293.59 9.68839 293.444 9.49631 293.375 9.40411C293.352 9.37338 293.336 9.35801 293.329 9.35033L293.313 9.33496C298.192 20.0993 300.482 30.6562 301.335 40.0606C303.133 59.8067 298.576 74.4818 298.323 75.2809L298.353 75.2732Z" fill="#E5E5E5"/>
<path fill-rule="evenodd" clip-rule="evenodd" d="M263.548 182.732C264.716 182.425 265.876 182.156 267.044 181.887C268.204 181.625 269.357 181.31 270.524 181.057C271.685 180.788 272.829 180.465 273.982 180.189C275.134 179.912 276.272 179.566 277.416 179.274C281.973 178.014 286.475 176.631 290.816 174.864L292.437 174.188C292.975 173.958 293.498 173.704 294.035 173.466C295.103 172.997 296.133 172.452 297.178 171.929C299.229 170.83 301.25 169.678 303.148 168.349C306.989 165.759 310.455 162.678 313.367 159.144C316.263 155.602 318.568 151.607 320.174 147.335C321.772 143.055 322.694 138.522 323.025 133.935C323.332 129.34 323.094 124.692 322.379 120.105C322.026 117.808 321.565 115.526 320.988 113.275C320.696 112.153 320.389 111.031 320.043 109.925C319.874 109.372 319.698 108.818 319.513 108.273C319.329 107.735 319.121 107.166 318.937 106.698L318.922 106.659C318.806 106.375 318.768 106.075 318.799 105.791C320.143 92.4298 320.105 78.9226 318.338 65.6381C316.563 52.369 313.021 39.315 307.374 27.2061C304.546 21.167 301.235 15.3431 297.316 9.98012C296.832 9.30399 296.325 8.65091 295.826 7.99014L295.441 7.49841L295.249 7.25254L295.157 7.13729L295.096 7.07583C295.011 6.99131 294.942 6.89143 294.842 6.82996L294.711 6.71471C294.658 6.68398 294.612 6.66093 294.566 6.63019C294.181 6.38433 293.713 6.28444 293.244 6.33054C293.006 6.33054 292.783 6.41506 292.56 6.49189C292.353 6.59946 292.138 6.69934 291.976 6.86069C291.792 6.99899 291.654 7.19108 291.523 7.38316C291.454 7.48304 291.415 7.59829 291.354 7.69818L291.1 8.27442L290.063 10.6409C289.395 12.2313 288.596 13.7526 287.858 15.3047C284.808 21.4667 281.266 27.3521 277.439 33.0301C276.494 34.4592 275.488 35.8422 274.512 37.2482C273.498 38.6235 272.499 40.0142 271.454 41.3742C270.939 42.058 270.409 42.7341 269.879 43.4102C269.357 44.0864 268.819 44.7548 268.273 45.4156C267.19 46.7525 266.107 48.051 264.923 49.3725C264.424 49.9334 263.648 50.1101 262.979 49.8796H262.956C259.606 48.7117 255.995 47.9741 252.384 47.4517C248.773 46.9215 245.116 46.6757 241.466 46.668C237.817 46.6757 234.159 46.9292 230.548 47.4517C226.937 47.9741 223.333 48.704 219.976 49.8642H219.953C219.238 50.1178 218.478 49.895 218.009 49.3648C216.833 48.0433 215.742 46.7448 214.659 45.4079C214.113 44.7395 213.576 44.0787 213.053 43.4026C212.523 42.7264 211.993 42.058 211.478 41.3742C210.433 40.0142 209.427 38.6312 208.412 37.2482C207.429 35.8422 206.422 34.4592 205.485 33.0301C201.659 27.3521 198.117 21.4667 195.067 15.3047C194.329 13.7526 193.53 12.2313 192.861 10.6409L191.824 8.27442L191.571 7.69818C191.509 7.59829 191.471 7.47536 191.402 7.38316C191.271 7.19108 191.133 6.99899 190.948 6.86069C190.779 6.69934 190.572 6.59946 190.364 6.49189C190.142 6.42274 189.919 6.33823 189.681 6.33054C189.212 6.28444 188.743 6.39201 188.359 6.63019C188.313 6.66093 188.259 6.69166 188.213 6.71471L188.082 6.82996C187.983 6.89143 187.913 6.99131 187.829 7.07583L187.767 7.13729L187.675 7.25254L187.483 7.49841L187.099 7.99014C186.592 8.64322 186.092 9.30399 185.608 9.98012C181.69 15.3431 178.378 21.167 175.551 27.2061C169.904 39.3074 166.362 52.369 164.587 65.6304C162.82 78.9149 162.781 92.4145 164.126 105.783C164.149 106.098 164.103 106.39 163.995 106.667V106.69C163.795 107.166 163.588 107.735 163.404 108.265C163.219 108.811 163.035 109.356 162.866 109.917C162.528 111.023 162.213 112.145 161.928 113.267C161.352 115.518 160.891 117.8 160.538 120.09C159.823 124.677 159.585 129.325 159.892 133.92C160.223 138.507 161.137 143.04 162.743 147.319C164.349 151.591 166.654 155.587 169.55 159.129C172.462 162.663 175.935 165.744 179.769 168.333C181.667 169.655 183.695 170.807 185.739 171.906C186.784 172.429 187.813 172.974 188.881 173.443C189.412 173.681 189.942 173.934 190.48 174.165L192.101 174.833C196.442 176.593 200.944 177.999 205.5 179.251C210.057 180.527 214.697 181.556 219.361 182.67C219.476 182.701 219.553 182.816 219.523 182.932C219.499 183.032 219.407 183.101 219.307 183.101C214.498 183.055 209.696 182.532 204.94 181.672C203.749 181.464 202.573 181.188 201.39 180.934C200.207 180.673 199.039 180.342 197.863 180.05C196.703 179.705 195.535 179.367 194.383 178.99L192.662 178.398L191.801 178.099L190.948 177.768L189.243 177.108C188.674 176.885 188.121 176.631 187.56 176.393C186.43 175.932 185.332 175.387 184.233 174.864C182.051 173.758 179.884 172.598 177.833 171.238C173.692 168.579 169.896 165.306 166.669 161.518C163.442 157.73 160.868 153.351 159.086 148.702C158.187 146.374 157.48 143.977 156.957 141.549C156.442 139.121 156.104 136.655 155.928 134.189C155.574 129.248 155.882 124.3 156.673 119.46C157.065 117.039 157.595 114.642 158.24 112.268C158.555 111.085 158.917 109.909 159.308 108.742C159.5 108.158 159.708 107.574 159.923 106.997C160.146 106.406 160.353 105.86 160.622 105.23L160.484 106.137C159.116 92.5297 159.147 78.7381 160.96 65.131C162.781 51.5392 166.408 38.1241 172.232 25.6387C175.151 19.3999 178.57 13.3838 182.65 7.79806C183.157 7.09888 183.68 6.40738 184.21 5.72356L184.61 5.20878L184.809 4.95523L184.917 4.82461L185.071 4.65558C185.27 4.43276 185.478 4.20226 185.724 4.01018L186.085 3.71822L186.477 3.46467C186.999 3.13428 187.591 2.91915 188.19 2.76548C188.797 2.64255 189.412 2.58108 190.019 2.65023C190.633 2.68865 191.225 2.85768 191.793 3.0805C192.354 3.33405 192.892 3.6337 193.353 4.0486C193.83 4.44045 194.221 4.93218 194.552 5.44696C194.721 5.7082 194.836 5.98479 194.974 6.25371L195.236 6.83764L196.242 9.12727C196.887 10.6639 197.663 12.1468 198.378 13.6604C201.344 19.6534 204.801 25.4082 208.551 30.9633C209.473 32.3616 210.464 33.7216 211.417 35.0969C212.408 36.4492 213.391 37.8091 214.413 39.1383C214.92 39.8068 215.435 40.4675 215.95 41.1283C216.465 41.7891 216.987 42.4421 217.517 43.0875C218.57 44.386 219.661 45.6845 220.737 46.8908L218.762 46.3914C222.481 45.1083 226.245 44.3553 230.026 43.8021C233.814 43.2489 237.64 42.9877 241.466 42.98C245.292 42.9953 249.119 43.2489 252.907 43.8021C256.687 44.3476 260.452 45.1083 264.17 46.3914L262.196 46.8908C263.271 45.6845 264.362 44.3783 265.415 43.0875C265.945 42.4421 266.468 41.7891 266.982 41.1283C267.505 40.4675 268.02 39.8068 268.519 39.1383C269.541 37.8091 270.524 36.4492 271.516 35.0969C272.476 33.7216 273.467 32.3616 274.389 30.9633C278.139 25.4082 281.596 19.6457 284.562 13.6527C285.276 12.1468 286.06 10.6639 286.698 9.12727L287.704 6.83764L287.966 6.25371C288.104 5.98479 288.219 5.70051 288.388 5.44696C288.719 4.93218 289.11 4.44045 289.587 4.0486C290.048 3.6337 290.593 3.33405 291.146 3.0805C291.715 2.85768 292.314 2.68865 292.921 2.65023C293.528 2.58108 294.151 2.65023 294.75 2.76548C295.349 2.91915 295.941 3.13428 296.463 3.46467L296.855 3.71053L297.216 4.0025C297.462 4.19458 297.662 4.4174 297.869 4.6479L298.023 4.81693L298.131 4.94755L298.33 5.2011L298.73 5.71588C299.26 6.39969 299.782 7.09119 300.29 7.79037C304.369 13.3838 307.789 19.3999 310.708 25.631C316.532 38.1164 320.166 51.5315 321.987 65.1233C323.793 78.7305 323.831 92.522 322.464 106.129L322.325 105.223C322.594 105.853 322.802 106.406 323.025 106.997C323.24 107.574 323.447 108.158 323.639 108.742C324.023 109.909 324.384 111.085 324.707 112.268C325.345 114.635 325.883 117.032 326.275 119.452C327.066 124.293 327.366 129.248 327.02 134.181C326.843 136.647 326.505 139.114 325.99 141.542C325.468 143.97 324.761 146.367 323.862 148.695C322.072 153.351 319.506 157.723 316.279 161.511C313.052 165.298 309.256 168.572 305.115 171.23C303.056 172.59 300.889 173.75 298.707 174.856C297.6 175.379 296.502 175.924 295.372 176.385C294.811 176.624 294.251 176.877 293.69 177.1L291.984 177.761L291.131 178.091L290.271 178.391L288.549 178.982C287.397 179.359 286.229 179.697 285.069 180.05C283.893 180.358 282.726 180.673 281.55 180.942C280.367 181.188 279.191 181.472 278 181.672L276.218 181.979C275.618 182.079 275.027 182.186 274.428 182.256C273.229 182.409 272.038 182.571 270.839 182.678C269.641 182.793 268.442 182.886 267.244 182.962C266.037 183.008 264.839 183.055 263.632 183.062C263.533 183.062 263.448 182.978 263.448 182.878C263.448 182.793 263.502 182.717 263.586 182.701L263.548 182.732Z" fill="black"/>
<path fill-rule="evenodd" clip-rule="evenodd" d="M181.275 72.2539C209.719 78.9691 228.819 91.3931 228.819 105.615C228.819 110.878 226.199 115.903 221.451 120.474C233.598 112.783 247.052 113.091 261.658 120.474C256.917 115.895 254.29 110.878 254.29 105.615C254.29 91.5621 272.952 79.2534 300.858 72.4844C299.022 70.6097 297.063 68.8195 294.996 67.1292H186.753C184.825 68.7503 182.996 70.4637 181.275 72.2462V72.2539Z" fill="#9355F7"/>
<path fill-rule="evenodd" clip-rule="evenodd" d="M197.679 69.7566C219.031 69.7566 236.349 87.0671 236.349 108.427C236.349 129.786 219.039 147.097 197.679 147.097C177.833 147.097 161.475 132.137 159.27 112.883L155.628 112.46C154.883 112.376 154.345 111.692 154.429 110.947L156.419 93.9053C156.504 93.16 157.188 92.6222 157.933 92.7067L162.136 93.1984C168.052 79.4222 181.736 69.7643 197.687 69.7643L197.679 69.7566Z" fill="black"/>
<path fill-rule="evenodd" clip-rule="evenodd" d="M285.253 69.7566C263.901 69.7566 246.583 87.0671 246.583 108.427C246.583 129.786 263.894 147.097 285.253 147.097C305.099 147.097 321.457 132.137 323.662 112.883L327.304 112.46C328.049 112.376 328.587 111.692 328.503 110.947L326.513 93.9053C326.428 93.16 325.744 92.6222 324.999 92.7067L320.796 93.1984C314.88 79.4222 301.196 69.7643 285.246 69.7643L285.253 69.7566Z" fill="black"/>
<path fill-rule="evenodd" clip-rule="evenodd" d="M281.419 69.9487H201.513C221.067 71.8772 236.349 88.3657 236.349 108.427C236.349 113.69 235.296 118.715 233.391 123.286C238.27 115.595 243.679 115.903 249.557 123.286C247.651 118.707 246.599 113.69 246.599 108.427C246.599 88.3657 261.881 71.8696 281.435 69.9487H281.419Z" fill="black"/>
<path d="M224.761 130.878C238.441 117.198 238.441 95.0196 224.761 81.3402C211.082 67.6608 188.903 67.6608 175.224 81.3402C161.545 95.0195 161.545 117.198 175.224 130.878C188.903 144.557 211.082 144.557 224.761 130.878Z" fill="#333333"/>
<path fill-rule="evenodd" clip-rule="evenodd" d="M282.933 71.0784C263.586 71.0784 247.905 86.76 247.905 106.107C247.905 125.453 263.586 141.135 282.933 141.135C302.28 141.135 317.961 125.453 317.961 106.107C317.961 86.76 302.28 71.0784 282.933 71.0784Z" fill="#333333"/>
<path fill-rule="evenodd" clip-rule="evenodd" d="M201.505 69.9487H239.1V81.466H225.385C219.192 75.1042 210.84 70.8707 201.505 69.9487Z" fill="#4D4D4D"/>
<path fill-rule="evenodd" clip-rule="evenodd" d="M205.124 74.5896H234.528V76.8254H210.894C209.042 76.0187 207.114 75.2734 205.124 74.5896Z" fill="white"/>
<path d="M229.087 109.086C231.67 93.2258 220.907 78.2741 205.046 75.691C189.185 73.108 174.234 83.8716 171.651 99.7323C169.068 115.593 179.831 130.545 195.692 133.128C211.553 135.711 226.504 124.947 229.087 109.086Z" fill="#666666"/>
<path d="M303.127 124.99C314.49 113.627 314.49 95.204 303.127 83.841C291.764 72.4781 273.341 72.4781 261.978 83.841C250.615 95.204 250.615 113.627 261.978 124.99C273.341 136.353 291.764 136.353 303.127 124.99Z" fill="#666666"/>
<path fill-rule="evenodd" clip-rule="evenodd" d="M201.912 76.2258C216.634 76.2258 228.566 88.158 228.566 102.879C228.566 117.601 216.634 129.533 201.912 129.533C187.191 129.533 175.259 117.601 175.259 102.879C175.259 88.158 187.191 76.2258 201.912 76.2258Z" fill="#1A1A1A"/>
<path fill-rule="evenodd" clip-rule="evenodd" d="M281.012 76.2258C266.291 76.2258 254.359 88.158 254.359 102.879C254.359 117.601 266.291 129.533 281.012 129.533C295.733 129.533 307.666 117.601 307.666 102.879C307.666 88.158 295.733 76.2258 281.012 76.2258Z" fill="#1A1A1A"/>
<path fill-rule="evenodd" clip-rule="evenodd" d="M280.866 79.115C267.82 79.115 257.248 89.6872 257.248 102.734C257.248 115.78 267.82 126.352 280.866 126.352C293.912 126.352 304.485 115.78 304.485 102.734C304.485 89.6872 293.912 79.115 280.866 79.115Z" fill="url(#paint2_linear_41_510)"/>
<path fill-rule="evenodd" clip-rule="evenodd" d="M202.058 79.115C189.012 79.115 178.44 89.6872 178.44 102.734C178.44 115.78 189.012 126.352 202.058 126.352C215.105 126.352 225.677 115.78 225.677 102.734C225.677 89.6872 215.105 79.115 202.058 79.115Z" fill="url(#paint3_linear_41_510)"/>
<path fill-rule="evenodd" clip-rule="evenodd" d="M179.669 123.824C182.02 123.824 183.926 125.729 183.926 128.08C183.926 130.431 182.02 132.337 179.669 132.337C177.318 132.337 175.413 130.431 175.413 128.08C175.413 125.729 177.318 123.824 179.669 123.824Z" fill="#1A1A1A"/>
<path fill-rule="evenodd" clip-rule="evenodd" d="M179.669 124.593C181.598 124.593 183.165 126.16 183.165 128.088C183.165 130.017 181.598 131.584 179.669 131.584C177.741 131.584 176.173 130.017 176.173 128.088C176.173 126.16 177.741 124.593 179.669 124.593Z" fill="white"/>
<path fill-rule="evenodd" clip-rule="evenodd" d="M170.78 129.487L188.259 141.88C188.851 142.302 188.989 143.125 188.559 143.709L186.277 146.874C185.854 147.458 185.024 147.596 184.433 147.181L166.953 134.788C166.362 134.366 166.223 133.543 166.654 132.96L168.936 129.794C169.358 129.21 170.188 129.072 170.78 129.487Z" fill="#333333"/>
<path fill-rule="evenodd" clip-rule="evenodd" d="M172.024 131.723L185.716 141.435C186.177 141.765 186.285 142.411 185.954 142.864L184.625 144.7C184.295 145.161 183.641 145.269 183.18 144.938L169.481 135.227C169.02 134.896 168.913 134.251 169.243 133.79L170.572 131.954C170.903 131.493 171.556 131.385 172.017 131.715L172.024 131.723Z" fill="black"/>
<path fill-rule="evenodd" clip-rule="evenodd" d="M281.419 69.9487H243.825V81.466H257.54C263.725 75.1042 272.084 70.8707 281.419 69.9487Z" fill="#4D4D4D"/>
<path fill-rule="evenodd" clip-rule="evenodd" d="M277.801 74.5896H248.396V76.8254H272.03C273.882 76.0187 275.811 75.2734 277.801 74.5896Z" fill="white"/>
<path fill-rule="evenodd" clip-rule="evenodd" d="M303.255 123.824C300.904 123.824 298.999 125.729 298.999 128.08C298.999 130.431 300.904 132.337 303.255 132.337C305.607 132.337 307.512 130.431 307.512 128.08C307.512 125.729 305.607 123.824 303.255 123.824Z" fill="#1A1A1A"/>
<path fill-rule="evenodd" clip-rule="evenodd" d="M303.255 124.593C301.327 124.593 299.759 126.16 299.759 128.088C299.759 130.017 301.327 131.584 303.255 131.584C305.184 131.584 306.751 130.017 306.751 128.088C306.751 126.16 305.184 124.593 303.255 124.593Z" fill="white"/>
<path fill-rule="evenodd" clip-rule="evenodd" d="M312.145 129.487L294.665 141.88C294.074 142.302 293.935 143.125 294.366 143.709L296.648 146.874C297.07 147.458 297.9 147.596 298.492 147.181L315.971 134.788C316.563 134.366 316.701 133.543 316.271 132.96L313.989 129.794C313.566 129.21 312.737 129.072 312.145 129.487Z" fill="#333333"/>
<path fill-rule="evenodd" clip-rule="evenodd" d="M310.9 131.723L297.209 141.435C296.748 141.765 296.64 142.411 296.97 142.864L298.3 144.7C298.63 145.161 299.283 145.269 299.744 144.938L313.436 135.227C313.897 134.896 314.004 134.251 313.674 133.79L312.345 131.954C312.014 131.493 311.361 131.385 310.9 131.715V131.723Z" fill="black"/>
<path fill-rule="evenodd" clip-rule="evenodd" d="M275.173 73.9673C274.305 73.9673 273.598 74.6742 273.598 75.5424C273.598 76.4106 274.305 77.1174 275.173 77.1174C276.041 77.1174 276.748 76.4106 276.748 75.5424C276.748 74.6742 276.041 73.9673 275.173 73.9673Z" fill="black"/>
<path fill-rule="evenodd" clip-rule="evenodd" d="M208.013 73.9673C207.145 73.9673 206.438 74.6742 206.438 75.5424C206.438 76.4106 207.145 77.1174 208.013 77.1174C208.881 77.1174 209.588 76.4106 209.588 75.5424C209.588 74.6742 208.881 73.9673 208.013 73.9673Z" fill="black"/>
<path fill-rule="evenodd" clip-rule="evenodd" d="M208.92 80.1216L191.609 123.917C188.251 122.257 185.347 119.829 183.127 116.856L197.902 79.4762C199.254 79.238 200.637 79.1074 202.058 79.1074C204.44 79.1074 206.745 79.4609 208.912 80.1216H208.92Z" fill="white"/>
<path fill-rule="evenodd" clip-rule="evenodd" d="M216.334 83.9091L199.615 126.221C197.817 126.037 196.081 125.653 194.429 125.084L211.778 81.1892C213.407 81.9268 214.936 82.8411 216.342 83.9091H216.334Z" fill="white"/>
<path fill-rule="evenodd" clip-rule="evenodd" d="M287.82 80.1522L270.501 123.963C267.144 122.318 264.232 119.906 262.004 116.955L276.825 79.4607C278.139 79.2379 279.483 79.115 280.866 79.115C283.286 79.115 285.622 79.4838 287.82 80.1599V80.1522Z" fill="white"/>
<path fill-rule="evenodd" clip-rule="evenodd" d="M295.226 83.9785L278.523 126.237C276.725 126.06 274.988 125.684 273.329 125.123L290.67 81.2356C292.291 81.9809 293.82 82.9029 295.219 83.9785H295.226Z" fill="white"/>
<path fill-rule="evenodd" clip-rule="evenodd" d="M264.009 49.9261C269.987 58.6083 280.229 63.5103 290.294 67.1291H294.996C296.025 67.9666 297.032 68.8348 298 69.7261C298 69.7261 303.517 48.7506 299.821 32.1008C296.118 15.4588 292.245 6.66138 292.245 6.66138C292.145 6.72284 292.053 6.78431 291.969 6.86883C291.784 7.00713 291.646 7.19921 291.515 7.39129C291.446 7.49118 291.408 7.60643 291.346 7.70631L291.093 8.28256L290.055 10.6413C289.387 12.2318 288.588 13.7531 287.85 15.3051C284.8 21.4671 281.258 27.3526 277.432 33.0305C276.487 34.4596 275.48 35.8426 274.504 37.2487C273.49 38.624 272.491 40.0147 271.446 41.3669C270.932 42.0507 270.402 42.7269 269.871 43.403C269.349 44.0791 268.811 44.7476 268.266 45.4084C267.182 46.7453 266.099 48.0437 264.916 49.3653C264.67 49.6419 264.355 49.8263 264.017 49.9108L264.009 49.9261Z" fill="#333333"/>
<path fill-rule="evenodd" clip-rule="evenodd" d="M298.922 65.6461C300.313 58.7311 302.525 44.2634 299.829 32.1007C297.793 22.9422 295.703 16.1578 294.235 11.9089C293.92 12.5467 293.605 13.1844 293.305 13.8221C290.255 19.9841 286.713 25.8695 282.887 31.5475C281.942 32.9766 280.935 34.3596 279.96 35.7656C269.003 49.0347 275.949 55.3427 298.93 65.6384L298.922 65.6461Z" fill="url(#paint4_linear_41_510)"/>
<path fill-rule="evenodd" clip-rule="evenodd" d="M293.544 9.20452C294.727 10.9256 295.687 12.7619 296.563 14.6366C297.439 16.519 298.207 18.4475 298.884 20.3991C300.243 24.3176 301.204 28.3667 301.965 32.4466C302.318 34.4903 302.641 36.5418 302.863 38.6086C302.917 39.1234 302.979 39.6381 303.025 40.1529L303.155 41.705C303.255 42.7422 303.294 43.7795 303.355 44.8167C303.563 48.9657 303.494 53.13 303.163 57.279C302.848 61.4203 302.28 65.554 301.488 69.6338C301.273 70.648 301.096 71.6776 300.85 72.6841L300.774 73.0068C300.528 72.8992 300.282 72.7917 300.028 72.6918C300.305 72.6226 300.574 72.5535 300.85 72.4843C299.867 71.4855 298.853 70.502 297.8 69.557C297.846 69.3495 297.892 69.1344 297.938 68.927C298.745 64.9854 299.345 61.0054 299.698 57.0024C300.051 52.9994 300.174 48.9734 300.067 44.9473C300.028 43.9408 300.013 42.9343 299.936 41.9355L299.844 40.4295C299.813 39.9224 299.759 39.4307 299.713 38.9236C299.567 36.9106 299.314 34.9129 299.045 32.9229C298.753 30.9329 298.43 28.943 298.015 26.9683C297.823 25.9772 297.593 25.0014 297.378 24.0103L296.655 21.0676C295.649 17.1567 294.512 13.2613 293.09 9.4427V9.42733C293.037 9.29672 293.106 9.15842 293.236 9.10463C293.344 9.06622 293.467 9.10463 293.528 9.19683L293.544 9.20452Z" fill="#666666"/>
<path fill-rule="evenodd" clip-rule="evenodd" d="M291.7 51.624C293.966 51.624 295.818 49.7723 295.818 47.5057C295.818 45.2391 293.966 43.3875 291.7 43.3875C289.433 43.3875 287.581 45.2391 287.581 47.5057C287.581 49.7723 289.433 51.624 291.7 51.624Z" fill="#666666"/>
<path fill-rule="evenodd" clip-rule="evenodd" d="M291.7 50.3869C293.29 50.3869 294.581 49.0884 294.581 47.5056C294.581 45.9229 293.282 44.6167 291.7 44.6167C290.117 44.6167 288.818 45.9152 288.818 47.5056C288.818 49.0961 290.117 50.3869 291.7 50.3869Z" fill="white"/>
<path fill-rule="evenodd" clip-rule="evenodd" d="M292.929 38.0475C294.358 38.0475 295.518 36.8873 295.518 35.4582C295.518 34.0291 294.358 32.8689 292.929 32.8689C291.5 32.8689 290.34 34.0291 290.34 35.4582C290.34 36.8873 291.5 38.0475 292.929 38.0475Z" fill="#666666"/>
<path fill-rule="evenodd" clip-rule="evenodd" d="M292.929 37.2718C293.928 37.2718 294.742 36.4574 294.742 35.4585C294.742 34.4597 293.928 33.6453 292.929 33.6453C291.93 33.6453 291.116 34.4597 291.116 35.4585C291.116 36.4574 291.93 37.2718 292.929 37.2718Z" fill="white"/>
<path fill-rule="evenodd" clip-rule="evenodd" d="M293.559 26.2996C294.566 26.2996 295.388 25.4775 295.388 24.471C295.388 23.4644 294.566 22.6423 293.559 22.6423C292.553 22.6423 291.73 23.4644 291.73 24.471C291.73 25.4775 292.553 26.2996 293.559 26.2996Z" fill="#666666"/>
<path fill-rule="evenodd" clip-rule="evenodd" d="M293.559 25.7545C294.266 25.7545 294.842 25.1782 294.842 24.4713C294.842 23.7645 294.266 23.1882 293.559 23.1882C292.852 23.1882 292.276 23.7645 292.276 24.4713C292.276 25.1782 292.852 25.7545 293.559 25.7545Z" fill="white"/>
<path fill-rule="evenodd" clip-rule="evenodd" d="M218.885 49.9261C212.907 58.6083 202.665 63.5103 192.6 67.1291H187.898C186.868 67.9666 185.862 68.8348 184.894 69.7261C184.894 69.7261 179.377 48.7506 183.073 32.1008C186.776 15.4588 190.649 6.66138 190.649 6.66138C190.749 6.72284 190.841 6.78431 190.925 6.86883C191.11 7.00713 191.248 7.19921 191.379 7.39129C191.448 7.49118 191.486 7.60643 191.548 7.70631L191.801 8.28256L192.838 10.6413C193.507 12.2318 194.306 13.7531 195.044 15.3051C198.094 21.4671 201.636 27.3526 205.462 33.0305C206.407 34.4596 207.414 35.8426 208.389 37.2487C209.404 38.624 210.402 40.0147 211.447 41.3669C211.962 42.0507 212.492 42.7269 213.022 43.403C213.545 44.0791 214.083 44.7476 214.628 45.4084C215.712 46.7453 216.795 48.0437 217.978 49.3653C218.224 49.6419 218.539 49.8263 218.877 49.9108L218.885 49.9261Z" fill="#333333"/>
<path fill-rule="evenodd" clip-rule="evenodd" d="M184.356 65.6461C182.965 58.7311 180.745 44.2634 183.449 32.1007C185.485 22.9422 187.575 16.1578 189.043 11.9089C189.358 12.5467 189.673 13.1844 189.972 13.8221C193.023 19.9841 196.565 25.8695 200.391 31.5475C201.336 32.9766 202.343 34.3596 203.318 35.7656C214.275 49.0347 207.329 55.3427 184.348 65.6384L184.356 65.6461Z" fill="url(#paint5_linear_41_510)"/>
<path fill-rule="evenodd" clip-rule="evenodd" d="M189.35 9.20439C188.167 10.9254 187.207 12.7618 186.331 14.6365C185.455 16.5189 184.686 18.4474 184.01 20.399C182.65 24.3175 181.69 28.3666 180.929 32.4464C180.576 34.4902 180.253 36.5416 180.03 38.6084C179.977 39.1232 179.915 39.638 179.869 40.1528L179.738 41.7048C179.638 42.7421 179.6 43.7793 179.539 44.8166C179.331 48.9656 179.4 53.1299 179.731 57.2789C180.046 61.4202 180.614 65.5538 181.406 69.6337C181.621 70.6479 181.797 71.6775 182.043 72.684L182.12 73.0144C182.366 72.9068 182.712 72.7608 182.958 72.6532C182.681 72.5841 182.351 72.5073 182.074 72.4381C183.058 71.4393 184.033 70.5019 185.078 69.5492C185.032 69.3417 184.986 69.1266 184.94 68.9191C184.133 64.9776 183.534 60.9976 183.18 56.9946C182.827 52.9916 182.704 48.9656 182.812 44.9395C182.85 43.933 182.865 42.9265 182.942 41.9276L183.034 40.4217C183.065 39.9146 183.119 39.4229 183.165 38.9158C183.311 36.9028 183.565 34.9051 183.834 32.9151C184.126 30.9251 184.448 28.9351 184.863 26.9605C185.055 25.9694 185.286 24.9936 185.501 24.0025L186.223 21.0597C187.23 17.1489 188.367 13.2535 189.788 9.43489V9.41952C189.842 9.2889 189.773 9.1506 189.642 9.09682C189.535 9.0584 189.412 9.09682 189.35 9.18902V9.20439Z" fill="#666666"/>
<path fill-rule="evenodd" clip-rule="evenodd" d="M191.202 51.624C193.468 51.624 195.32 49.7723 195.32 47.5057C195.32 45.2391 193.468 43.3875 191.202 43.3875C188.935 43.3875 187.084 45.2391 187.084 47.5057C187.084 49.7723 188.935 51.624 191.202 51.624Z" fill="#666666"/>
<path fill-rule="evenodd" clip-rule="evenodd" d="M191.202 50.3869C192.792 50.3869 194.083 49.0884 194.083 47.5056C194.083 45.9229 192.785 44.6167 191.202 44.6167C189.619 44.6167 188.321 45.9152 188.321 47.5056C188.321 49.0961 189.619 50.3869 191.202 50.3869Z" fill="white"/>
<path fill-rule="evenodd" clip-rule="evenodd" d="M189.973 38.0475C191.402 38.0475 192.562 36.8873 192.562 35.4582C192.562 34.0291 191.402 32.8689 189.973 32.8689C188.543 32.8689 187.383 34.0291 187.383 35.4582C187.383 36.8873 188.543 38.0475 189.973 38.0475Z" fill="#666666"/>
<path fill-rule="evenodd" clip-rule="evenodd" d="M189.973 37.2718C190.971 37.2718 191.786 36.4574 191.786 35.4585C191.786 34.4597 190.971 33.6453 189.973 33.6453C188.974 33.6453 188.159 34.4597 188.159 35.4585C188.159 36.4574 188.974 37.2718 189.973 37.2718Z" fill="white"/>
<path fill-rule="evenodd" clip-rule="evenodd" d="M189.342 26.2996C190.349 26.2996 191.171 25.4775 191.171 24.471C191.171 23.4644 190.349 22.6423 189.342 22.6423C188.336 22.6423 187.514 23.4644 187.514 24.471C187.514 25.4775 188.336 26.2996 189.342 26.2996Z" fill="#666666"/>
<path fill-rule="evenodd" clip-rule="evenodd" d="M189.343 25.7545C190.049 25.7545 190.626 25.1782 190.626 24.4713C190.626 23.7645 190.049 23.1882 189.343 23.1882C188.636 23.1882 188.059 23.7645 188.059 24.4713C188.059 25.1782 188.636 25.7545 189.343 25.7545Z" fill="white"/>
<path fill-rule="evenodd" clip-rule="evenodd" d="M241.451 204.707C247.759 204.707 252.907 199.559 252.907 193.251C252.907 186.943 247.759 181.795 241.451 181.795C235.143 181.795 229.995 186.943 229.995 193.251C229.995 199.559 235.143 204.707 241.451 204.707Z" fill="white"/>
<path fill-rule="evenodd" clip-rule="evenodd" d="M241.451 202.724C246.668 202.724 250.924 198.468 250.924 193.251C250.924 188.034 246.668 183.777 241.451 183.777C236.234 183.777 231.977 188.034 231.977 193.251C231.977 198.468 236.234 202.724 241.451 202.724Z" fill="#989898"/>
<path fill-rule="evenodd" clip-rule="evenodd" d="M241.451 199.651C244.97 199.651 247.843 196.777 247.843 193.258C247.843 189.74 244.97 186.866 241.451 186.866C237.932 186.866 235.058 189.74 235.058 193.258C235.058 196.777 237.932 199.651 241.451 199.651Z" fill="black"/>
<path d="M423.376 228.532C439.858 228.532 453.218 211.972 453.218 191.545C453.218 171.117 439.858 154.557 423.376 154.557C406.895 154.557 393.534 171.117 393.534 191.545C393.534 211.972 406.895 228.532 423.376 228.532Z" fill="white"/>
<g filter="url(#filter2_d_41_510)">
<path fill-rule="evenodd" clip-rule="evenodd" d="M423.377 154.557C419.712 154.557 416.2 155.379 412.95 156.878C406.381 163.662 402.201 173.873 402.201 185.298C402.201 205.728 415.563 222.286 432.043 222.286C435.708 222.286 439.22 221.464 442.47 219.965C449.039 213.181 453.219 202.97 453.219 191.545C453.219 171.115 439.857 154.557 423.377 154.557Z" fill="url(#paint6_linear_41_510)"/>
</g>
<path fill-rule="evenodd" clip-rule="evenodd" d="M453.219 197.746C455.977 197.746 458.22 194.957 458.22 191.545C458.22 188.134 455.969 185.345 453.219 185.345C450.468 185.345 448.217 188.134 448.217 191.545C448.217 194.957 450.468 197.746 453.219 197.746Z" fill="white"/>
<path fill-rule="evenodd" clip-rule="evenodd" d="M210.541 385.118C214.229 383.904 218.916 379.963 218.055 370.213C217.202 360.539 199.807 351.32 182.443 358.357C168.574 363.974 162.989 374.984 171.233 383.782C177.664 390.658 203.203 387.539 210.541 385.118Z" fill="white"/>
<path fill-rule="evenodd" clip-rule="evenodd" d="M214.89 382.306C215.934 381.177 216.833 379.694 217.425 377.773C216.833 379.694 215.927 381.177 214.89 382.306Z" fill="#371A45"/>
<path fill-rule="evenodd" clip-rule="evenodd" d="M167.391 374.639C167.414 373.932 167.499 373.233 167.645 372.533C167.491 373.233 167.407 373.932 167.384 374.631L167.391 374.639Z" fill="#B6ABBB"/>
<path fill-rule="evenodd" clip-rule="evenodd" d="M188.344 387.969C181.029 387.969 174.153 386.909 171.233 383.782C168.521 380.885 167.307 377.742 167.391 374.638C167.414 373.932 167.499 373.232 167.652 372.541C168.275 373.755 169.112 374.953 170.196 376.106C173.123 379.225 180 380.293 187.314 380.293C196.088 380.293 205.5 378.764 209.504 377.443C212.615 376.421 216.426 373.455 217.033 366.725C217.602 367.862 217.947 369.045 218.055 370.221C218.324 373.278 218.055 375.768 217.433 377.781C216.841 379.702 215.934 381.185 214.897 382.314C213.553 383.774 211.978 384.65 210.548 385.118C206.545 386.44 197.126 387.969 188.351 387.969H188.344Z" fill="#D6D0D9"/>
<path fill-rule="evenodd" clip-rule="evenodd" d="M194.982 359.333C191.463 359.333 187.652 359.979 183.741 361.562C176.773 364.381 172.024 368.753 171.033 373.24C170.411 376.068 171.325 378.818 173.753 381.415C178.255 386.225 201.021 384.612 209.457 381.83C211.693 381.093 215.327 378.642 214.613 370.513C214.39 367.931 212.154 365.104 208.635 362.952C205.301 360.916 200.499 359.333 194.982 359.333ZM188.505 391.434C180.361 391.434 172.447 390.144 168.705 386.141C164.741 381.907 163.173 376.798 164.28 371.75C165.785 364.935 171.932 358.88 181.144 355.146C193.561 350.113 205.347 352.833 212.246 357.052C217.702 360.394 221.082 365.073 221.505 369.906C222.711 383.643 214.252 387.531 211.632 388.399C207.729 389.69 197.971 391.434 188.513 391.434H188.505Z" fill="black"/>
<path fill-rule="evenodd" clip-rule="evenodd" d="M198.493 372.549C198.002 374.293 197.717 375.914 197.625 377.712C197.564 379.487 197.671 381.377 198.463 383.351C198.862 384.327 199.454 385.318 200.268 386.163C201.083 387.016 202.104 387.723 203.172 388.161C205.316 389.052 207.46 389.145 209.365 389.029H209.48C211.401 388.899 212.853 387.247 212.73 385.326C212.608 383.413 210.956 381.953 209.035 382.076C208.804 382.091 208.566 382.13 208.351 382.191C207.152 382.514 206.038 382.621 205.193 382.483C204.363 382.337 203.71 381.968 203.088 381.085C202.489 380.217 202.089 378.918 201.897 377.55C201.697 376.191 201.682 374.654 201.805 373.294V373.163C201.897 372.226 201.213 371.404 200.276 371.319C199.446 371.242 198.708 371.78 198.486 372.549H198.493Z" fill="black"/>
<path fill-rule="evenodd" clip-rule="evenodd" d="M180.053 373.048C179.408 374.715 178.993 376.283 178.732 378.019C178.486 379.74 178.409 381.569 178.855 383.528C179.078 384.496 179.439 385.495 179.992 386.448C180.537 387.401 181.313 388.277 182.197 388.991C183.987 390.443 186.108 391.089 188.036 391.411L188.128 391.427C190.026 391.742 191.816 390.466 192.131 388.568C192.446 386.671 191.171 384.88 189.273 384.565C189.05 384.527 188.805 384.512 188.589 384.519C187.445 384.558 186.423 384.427 185.67 384.058C184.894 383.713 184.256 383.06 183.78 382.015C183.303 380.985 183.057 379.656 182.996 378.281C182.927 376.921 183.05 375.399 183.288 374.085L183.311 373.962C183.48 373.04 182.865 372.157 181.936 371.988C181.121 371.842 180.338 372.303 180.046 373.048H180.053Z" fill="black"/>
<path fill-rule="evenodd" clip-rule="evenodd" d="M192.516 238.844C211.353 227.169 216.498 219.29 220.391 203.938C203.949 202.317 193.515 198.867 186.938 194.741C174.752 196.501 166.462 204.422 156.181 208.303C144.372 212.767 145.156 194.134 143.588 188.357C142.013 182.586 144.372 174.972 123.12 176.025C101.86 177.078 108.422 193.873 110.258 204.107C112.094 214.342 128.107 243.208 147.784 247.933C165.593 252.205 188.344 241.01 192.508 238.844H192.516Z" fill="url(#paint7_linear_41_510)"/>
<path fill-rule="evenodd" clip-rule="evenodd" d="M185.931 200.32C175.935 202.425 167.614 209.678 158.064 213.281C149.42 216.547 143.45 211.86 140.961 203.731C140.115 200.98 139.67 198.092 139.286 195.249C139.063 193.566 138.894 191.376 138.456 189.763C138.018 188.172 137.872 186.59 137.518 184.999C137.395 184.423 137.203 183.662 136.796 183.217C134.752 180.965 125.993 181.219 123.381 181.342C120.861 181.465 117.265 181.926 115.214 183.57C114 184.546 113.508 185.86 113.301 187.366C112.655 191.983 114.676 198.568 115.498 203.17C116.666 209.655 122.759 219.697 126.616 224.937C131.94 232.175 140.062 240.611 149.028 242.762C161.521 245.759 185.39 237.352 191.563 233.612C197.736 229.871 213.503 217.273 215.135 208.695C205.285 207.434 194.46 205.083 185.931 200.32Z" fill="url(#paint8_linear_41_510)"/>
<path fill-rule="evenodd" clip-rule="evenodd" d="M142.674 198.668C146.362 197.454 151.049 193.512 150.188 183.762C149.336 174.089 131.94 164.869 114.576 171.907C100.708 177.523 95.122 188.533 103.366 197.331C109.797 204.207 135.337 201.088 142.674 198.668Z" fill="white"/>
<path fill-rule="evenodd" clip-rule="evenodd" d="M147.023 195.863C148.068 194.734 148.967 193.251 149.558 191.33C148.967 193.251 148.06 194.734 147.023 195.863Z" fill="#371A45"/>
<path fill-rule="evenodd" clip-rule="evenodd" d="M99.5323 188.188C99.5553 187.481 99.6398 186.782 99.7858 186.083C99.6322 186.782 99.5476 187.481 99.5246 188.18L99.5323 188.188Z" fill="#B6ABBB"/>
<path fill-rule="evenodd" clip-rule="evenodd" d="M120.477 201.518C113.163 201.518 106.286 200.458 103.366 197.331C100.654 194.434 99.4401 191.292 99.5246 188.188C99.5477 187.481 99.6322 186.781 99.7859 186.09C100.408 187.304 101.246 188.503 102.329 189.655C105.256 192.774 112.133 193.842 119.447 193.842C128.222 193.842 137.634 192.313 141.645 190.992C144.756 189.97 148.567 187.004 149.174 180.274C149.743 181.411 150.089 182.594 150.196 183.77C150.465 186.828 150.196 189.317 149.574 191.33C148.982 193.251 148.076 194.734 147.038 195.863C145.694 197.323 144.119 198.199 142.69 198.668C138.687 199.989 129.267 201.518 120.492 201.518H120.477Z" fill="#D6D0D9"/>
<path fill-rule="evenodd" clip-rule="evenodd" d="M127.115 172.882C123.596 172.882 119.786 173.528 115.875 175.11C108.906 177.93 104.158 182.302 103.167 186.789C102.544 189.617 103.458 192.367 105.886 194.964C110.389 199.774 133.154 198.16 141.591 195.379C143.827 194.641 147.461 192.19 146.746 184.062C146.523 181.48 144.288 178.652 140.769 176.501C137.442 174.465 132.632 172.882 127.115 172.882ZM120.638 204.983C112.494 204.983 104.58 203.692 100.838 199.689C96.8739 195.456 95.3065 190.346 96.4129 185.299C97.9188 178.483 104.065 172.429 113.278 168.695C125.694 163.662 137.48 166.382 144.38 170.6C149.835 173.943 153.208 178.622 153.638 183.455C154.845 197.192 146.385 201.08 143.765 201.948C139.862 203.239 130.104 204.983 120.646 204.983H120.638Z" fill="black"/>
<path fill-rule="evenodd" clip-rule="evenodd" d="M130.627 186.098C130.135 187.842 129.851 189.463 129.766 191.261C129.697 193.036 129.812 194.926 130.604 196.9C131.003 197.876 131.595 198.867 132.409 199.712C133.224 200.565 134.246 201.272 135.314 201.71C137.457 202.601 139.601 202.694 141.506 202.571H141.622C143.542 202.44 144.994 200.788 144.872 198.867C144.749 196.954 143.097 195.494 141.176 195.617C140.945 195.633 140.707 195.671 140.492 195.732C139.293 196.055 138.179 196.163 137.334 196.024C136.504 195.878 135.851 195.51 135.229 194.626C134.63 193.758 134.23 192.459 134.038 191.092C133.838 189.732 133.823 188.195 133.946 186.835V186.705C134.038 185.767 133.354 184.945 132.417 184.861C131.587 184.784 130.849 185.322 130.627 186.09V186.098Z" fill="black"/>
<path fill-rule="evenodd" clip-rule="evenodd" d="M112.194 186.605C111.549 188.272 111.134 189.839 110.873 191.576C110.627 193.297 110.55 195.126 110.996 197.085C111.219 198.053 111.58 199.052 112.133 200.005C112.678 200.957 113.454 201.833 114.338 202.548C116.128 204 118.249 204.645 120.177 204.968L120.27 204.983C122.167 205.298 123.958 204.023 124.273 202.125C124.588 200.227 123.312 198.437 121.414 198.122C121.192 198.084 120.946 198.068 120.731 198.076C119.586 198.114 118.564 197.984 117.811 197.615C117.035 197.269 116.397 196.616 115.921 195.571C115.444 194.542 115.199 193.212 115.137 191.837C115.068 190.477 115.191 188.956 115.429 187.642L115.452 187.519C115.621 186.597 115.007 185.714 114.077 185.545C113.262 185.399 112.479 185.86 112.187 186.605H112.194Z" fill="black"/>
<path fill-rule="evenodd" clip-rule="evenodd" d="M127.146 204.737C151.195 240.795 173.53 228.716 210.203 207.979C211.862 208.248 213.507 208.486 215.128 208.694C183.772 232.019 147.983 250.199 119.993 204.983H120.293C120.669 205.044 121.038 205.036 121.391 204.983C123.32 204.967 125.248 204.875 127.138 204.737H127.146Z" fill="#B2B2B2"/>
<path fill-rule="evenodd" clip-rule="evenodd" d="M135.321 203.8C139.547 209.839 143.627 214.08 147.73 216.846C153.523 220.742 159.408 221.664 165.87 220.534C170.542 219.72 177.764 216.969 185.724 213.396C190.649 211.183 195.866 208.656 200.937 206.059C202.466 206.451 204.018 206.804 205.562 207.127C199.469 210.3 193.023 213.481 186.976 216.193C178.793 219.866 171.325 222.701 166.4 223.561C159.163 224.829 152.555 223.784 146.024 219.389C141.322 216.224 136.697 211.322 131.925 204.268C133.101 204.122 134.238 203.969 135.321 203.8Z" fill="#B2B2B2"/>
<path d="M194.306 225.997C197.399 225.997 199.907 223.49 199.907 220.396C199.907 217.303 197.399 214.795 194.306 214.795C191.213 214.795 188.705 217.303 188.705 220.396C188.705 223.49 191.213 225.997 194.306 225.997Z" fill="black"/>
<path fill-rule="evenodd" clip-rule="evenodd" d="M194.306 224.322C196.465 224.322 198.224 222.563 198.224 220.404C198.224 218.245 196.465 216.485 194.306 216.485C192.147 216.485 190.387 218.245 190.387 220.404C190.387 222.563 192.147 224.322 194.306 224.322Z" fill="white"/>
<path d="M174.985 233.935C178.038 233.439 180.11 230.561 179.614 227.508C179.117 224.454 176.239 222.382 173.186 222.878C170.133 223.375 168.06 226.253 168.557 229.306C169.053 232.36 171.931 234.432 174.985 233.935Z" fill="black"/>
<path fill-rule="evenodd" clip-rule="evenodd" d="M174.083 232.328C176.242 232.328 178.002 230.568 178.002 228.409C178.002 226.25 176.242 224.491 174.083 224.491C171.924 224.491 170.165 226.25 170.165 228.409C170.165 230.568 171.924 232.328 174.083 232.328Z" fill="white"/>
<path fill-rule="evenodd" clip-rule="evenodd" d="M154.775 234.864C157.149 234.864 159.086 232.927 159.086 230.553C159.086 228.179 157.149 226.243 154.775 226.243C152.401 226.243 150.465 228.179 150.465 230.553C150.465 232.927 152.401 234.864 154.775 234.864Z" fill="black"/>
<path fill-rule="evenodd" clip-rule="evenodd" d="M154.775 233.573C156.443 233.573 157.795 232.213 157.795 230.553C157.795 228.893 156.435 227.533 154.775 227.533C153.116 227.533 151.756 228.893 151.756 230.553C151.756 232.213 153.116 233.573 154.775 233.573Z" fill="white"/>
<path fill-rule="evenodd" clip-rule="evenodd" d="M139.754 226.919C141.429 226.919 142.797 225.552 142.797 223.877C142.797 222.202 141.429 220.834 139.754 220.834C138.079 220.834 136.712 222.202 136.712 223.877C136.712 225.552 138.079 226.919 139.754 226.919Z" fill="black"/>
<path fill-rule="evenodd" clip-rule="evenodd" d="M139.754 226.013C140.93 226.013 141.883 225.052 141.883 223.884C141.883 222.717 140.922 221.756 139.754 221.756C138.586 221.756 137.626 222.717 137.626 223.884C137.626 225.052 138.586 226.013 139.754 226.013Z" fill="white"/>
<path fill-rule="evenodd" clip-rule="evenodd" d="M307.205 297.974C298.799 297.936 286.306 299.227 275.91 305.896C262.895 314.248 251.892 327.909 247.551 339.51C269.695 341.301 269.257 367.716 272.791 377.159C276.502 387.063 288.734 385.441 306.882 387.209C338.53 390.297 330.232 366.187 310.424 362.422C317.639 339.28 324.523 318.865 305.053 303.33C305.86 301.601 306.575 299.811 307.205 297.974Z" fill="url(#paint9_linear_41_510)"/>
<path fill-rule="evenodd" clip-rule="evenodd" d="M299.153 304.375C292.092 305.166 285.031 307.156 279.145 310.929C270.478 316.491 261.489 325.68 256.111 335.292C264.055 338.289 269.403 344.697 272.73 353.294C274.358 357.505 275.403 361.892 276.325 366.31C276.894 369.022 277.432 372.48 278.392 375.046C279.537 378.096 282.549 378.795 285.492 379.333C288.534 379.886 291.738 380.094 294.819 380.301C299.037 380.585 303.248 380.831 307.458 381.239C311.115 381.592 317.293 381.815 320.643 379.932C321.496 379.456 322.087 378.972 321.987 377.95C321.803 376.06 320.036 373.97 318.684 372.764C316.087 370.444 312.706 368.93 309.302 368.284C307.566 367.954 306.198 367.001 305.292 365.488C304.385 363.974 304.185 362.315 304.708 360.632C307.65 351.189 311.569 339.818 311.761 329.899C311.938 320.602 308.657 313.856 301.319 307.993C300.136 307.048 299.391 305.75 299.145 304.359L299.153 304.375Z" fill="#CBCBCB"/>
<path fill-rule="evenodd" clip-rule="evenodd" d="M283.417 385.118C279.729 383.904 275.042 379.963 275.903 370.213C276.756 360.539 294.151 351.32 311.515 358.357C325.383 363.974 330.969 374.984 322.725 383.782C316.294 390.658 290.755 387.539 283.417 385.118Z" fill="white"/>
<path fill-rule="evenodd" clip-rule="evenodd" d="M279.068 382.306C278.023 381.177 277.124 379.694 276.533 377.773C277.124 379.694 278.031 381.177 279.068 382.306Z" fill="#371A45"/>
<path fill-rule="evenodd" clip-rule="evenodd" d="M326.567 374.639C326.544 373.932 326.459 373.233 326.313 372.533C326.467 373.233 326.551 373.932 326.574 374.631L326.567 374.639Z" fill="#B6ABBB"/>
<path fill-rule="evenodd" clip-rule="evenodd" d="M305.614 387.969C312.929 387.969 319.805 386.909 322.725 383.782C325.437 380.885 326.651 377.742 326.567 374.638C326.544 373.932 326.459 373.232 326.305 372.541C325.683 373.755 324.845 374.953 323.762 376.106C320.835 379.225 313.958 380.293 306.644 380.293C297.869 380.293 288.457 378.764 284.454 377.443C281.343 376.421 277.532 373.455 276.925 366.725C276.356 367.862 276.01 369.045 275.903 370.221C275.634 373.278 275.903 375.768 276.525 377.781C277.117 379.702 278.023 381.185 279.061 382.314C280.405 383.774 281.98 384.65 283.409 385.118C287.412 386.44 296.832 387.969 305.606 387.969H305.614Z" fill="#D6D0D9"/>
<path fill-rule="evenodd" clip-rule="evenodd" d="M298.976 359.333C302.495 359.333 306.306 359.979 310.216 361.562C317.185 364.381 321.934 368.753 322.925 373.24C323.547 376.068 322.633 378.818 320.205 381.415C315.702 386.225 292.937 384.612 284.5 381.83C282.265 381.093 278.63 378.642 279.345 370.513C279.568 367.931 281.804 365.104 285.322 362.952C288.657 360.916 293.459 359.333 298.976 359.333ZM305.453 391.434C313.597 391.434 321.511 390.144 325.253 386.141C329.217 381.907 330.785 376.798 329.678 371.75C328.172 364.935 322.026 358.88 312.813 355.146C300.397 350.113 288.611 352.833 281.711 357.052C276.256 360.394 272.876 365.073 272.453 369.906C271.247 383.643 279.706 387.531 282.326 388.399C286.229 389.69 295.987 391.434 305.445 391.434H305.453Z" fill="black"/>
<path fill-rule="evenodd" clip-rule="evenodd" d="M295.464 372.549C295.956 374.293 296.24 375.914 296.333 377.712C296.394 379.487 296.287 381.377 295.495 383.351C295.096 384.327 294.504 385.318 293.69 386.163C292.875 387.016 291.853 387.723 290.785 388.161C288.642 389.052 286.498 389.145 284.593 389.029H284.477C282.556 388.899 281.104 387.247 281.227 385.326C281.35 383.413 283.002 381.953 284.923 382.076C285.153 382.091 285.392 382.13 285.607 382.191C286.805 382.514 287.919 382.621 288.765 382.483C289.594 382.337 290.247 381.968 290.87 381.085C291.469 380.217 291.869 378.918 292.061 377.55C292.26 376.191 292.276 374.654 292.153 373.294V373.163C292.061 372.226 292.745 371.404 293.682 371.319C294.512 371.242 295.249 371.78 295.472 372.549H295.464Z" fill="black"/>
<path fill-rule="evenodd" clip-rule="evenodd" d="M313.905 373.048C314.55 374.715 314.965 376.283 315.226 378.019C315.472 379.74 315.549 381.569 315.103 383.528C314.88 384.496 314.519 385.495 313.966 386.448C313.42 387.401 312.644 388.277 311.761 388.991C309.971 390.443 307.85 391.089 305.922 391.411L305.829 391.427C303.932 391.742 302.141 390.466 301.826 388.568C301.511 386.671 302.787 384.88 304.685 384.565C304.907 384.527 305.153 384.512 305.368 384.519C306.513 384.558 307.535 384.427 308.288 384.058C309.064 383.713 309.702 383.06 310.178 382.015C310.654 380.985 310.9 379.656 310.962 378.281C311.031 376.921 310.908 375.399 310.67 374.085L310.647 373.962C310.478 373.04 311.092 372.157 312.022 371.988C312.837 371.842 313.62 372.303 313.912 373.048H313.905Z" fill="black"/>
<path fill-rule="evenodd" clip-rule="evenodd" d="M296.471 352.403C307.566 333.641 302.272 320.909 290.232 306.08C292.376 305.481 294.573 305.02 296.786 304.69C308.542 319.734 313.382 333.126 302.31 352.472C300.305 352.273 298.346 352.257 296.471 352.411V352.403Z" fill="white"/>
<path fill-rule="evenodd" clip-rule="evenodd" d="M288.88 353.909C291.461 350.313 293.352 347.017 294.627 343.959C297.209 337.751 297.262 332.427 295.495 327.279C294.22 323.56 290.977 318.297 286.951 312.665C285.945 311.259 284.892 309.838 283.809 308.409C284.739 307.986 285.684 307.602 286.644 307.241C287.512 308.393 288.357 309.546 289.172 310.691C293.313 316.476 296.655 321.924 298 325.842C299.982 331.605 299.921 337.59 297.009 344.582C295.91 347.225 294.404 350.006 292.437 352.972C291.208 353.225 290.017 353.54 288.888 353.909H288.88Z" fill="white"/>
<path d="M282.905 350.703C285.959 350.207 288.031 347.329 287.534 344.275C287.038 341.222 284.16 339.15 281.107 339.646C278.053 340.143 275.981 343.021 276.477 346.074C276.974 349.128 279.852 351.2 282.905 350.703Z" fill="black"/>
<path fill-rule="evenodd" clip-rule="evenodd" d="M281.996 349.107C284.155 349.107 285.914 347.348 285.914 345.189C285.914 343.03 284.155 341.27 281.996 341.27C279.837 341.27 278.077 343.03 278.077 345.189C278.077 347.348 279.837 349.107 281.996 349.107Z" fill="white"/>
<path fill-rule="evenodd" clip-rule="evenodd" d="M285.976 334.255C288.112 334.255 289.863 332.511 289.863 330.367C289.863 328.224 288.119 326.479 285.976 326.479C283.832 326.479 282.088 328.224 282.088 330.367C282.088 332.511 283.832 334.255 285.976 334.255Z" fill="black"/>
<path fill-rule="evenodd" clip-rule="evenodd" d="M285.976 333.087C287.474 333.087 288.696 331.866 288.696 330.367C288.696 328.869 287.474 327.648 285.976 327.648C284.477 327.648 283.256 328.869 283.256 330.367C283.256 331.866 284.477 333.087 285.976 333.087Z" fill="white"/>
<path fill-rule="evenodd" clip-rule="evenodd" d="M279.137 320.494C280.643 320.494 281.873 319.265 281.873 317.759C281.873 316.253 280.643 315.024 279.137 315.024C277.632 315.024 276.402 316.253 276.402 317.759C276.402 319.265 277.632 320.494 279.137 320.494Z" fill="black"/>
<path fill-rule="evenodd" clip-rule="evenodd" d="M279.138 319.672C280.19 319.672 281.058 318.812 281.058 317.752C281.058 316.691 280.198 315.838 279.138 315.838C278.077 315.838 277.224 316.699 277.224 317.752C277.224 318.804 278.085 319.672 279.138 319.672Z" fill="white"/>
<path fill-rule="evenodd" clip-rule="evenodd" d="M352.659 198.829C348.971 197.615 344.284 193.674 345.145 183.923C345.998 174.25 363.393 165.03 380.757 172.068C394.626 177.685 400.211 188.695 391.967 197.492C385.536 204.369 359.997 201.249 352.659 198.829Z" fill="white"/>
<path fill-rule="evenodd" clip-rule="evenodd" d="M348.31 196.025C347.266 194.895 346.367 193.412 345.775 191.491C346.367 193.412 347.273 194.895 348.31 196.025Z" fill="#371A45"/>
<path fill-rule="evenodd" clip-rule="evenodd" d="M395.809 188.349C395.786 187.642 395.701 186.943 395.555 186.244C395.709 186.943 395.793 187.643 395.816 188.342L395.809 188.349Z" fill="#B6ABBB"/>
<path fill-rule="evenodd" clip-rule="evenodd" d="M374.856 201.68C382.171 201.68 389.047 200.619 391.967 197.492C394.679 194.596 395.893 191.453 395.809 188.349C395.786 187.642 395.701 186.943 395.548 186.252C394.925 187.466 394.088 188.664 393.004 189.817C390.077 192.936 383.2 194.004 375.886 194.004C367.112 194.004 357.699 192.475 353.689 191.154C350.577 190.132 346.766 187.166 346.159 180.435C345.591 181.572 345.245 182.756 345.137 183.931C344.868 186.989 345.137 189.479 345.76 191.492C346.351 193.412 347.258 194.895 348.295 196.025C349.64 197.485 351.215 198.36 352.644 198.829C356.647 200.151 366.067 201.68 374.841 201.68H374.856Z" fill="#D6D0D9"/>
<path fill-rule="evenodd" clip-rule="evenodd" d="M368.218 173.052C371.737 173.052 375.548 173.697 379.459 175.28C386.427 178.1 391.176 182.471 392.167 186.959C392.789 189.786 391.875 192.537 389.447 195.134C384.945 199.943 362.179 198.33 353.743 195.548C351.507 194.811 347.873 192.36 348.587 184.231C348.81 181.649 351.046 178.822 354.565 176.671C357.892 174.634 362.701 173.052 368.218 173.052ZM374.695 205.153C382.839 205.153 390.753 203.862 394.495 199.859C398.459 195.625 400.027 190.516 398.92 185.468C397.415 178.653 391.268 172.598 382.056 168.864C369.639 163.832 357.853 166.552 350.954 170.77C345.498 174.112 342.125 178.791 341.695 183.624C340.489 197.362 348.948 201.249 351.568 202.118C355.471 203.409 365.229 205.153 374.687 205.153H374.695Z" fill="black"/>
<path fill-rule="evenodd" clip-rule="evenodd" d="M364.707 186.259C365.198 188.003 365.483 189.625 365.567 191.422C365.636 193.197 365.521 195.087 364.73 197.062C364.33 198.038 363.739 199.029 362.924 199.874C362.11 200.727 361.088 201.434 360.02 201.872C357.876 202.763 355.732 202.855 353.827 202.732H353.712C351.791 202.602 350.339 200.95 350.462 199.029C350.585 197.116 352.237 195.656 354.157 195.779C354.388 195.794 354.626 195.833 354.841 195.894C356.04 196.217 357.154 196.324 357.999 196.186C358.829 196.04 359.482 195.671 360.104 194.788C360.704 193.919 361.103 192.621 361.295 191.253C361.495 189.893 361.51 188.357 361.387 186.997V186.866C361.295 185.929 361.979 185.107 362.916 185.022C363.746 184.945 364.484 185.483 364.707 186.252V186.259Z" fill="black"/>
<path fill-rule="evenodd" clip-rule="evenodd" d="M383.147 186.766C383.792 188.434 384.207 190.001 384.468 191.738C384.714 193.459 384.791 195.287 384.345 197.246C384.122 198.215 383.761 199.213 383.208 200.166C382.663 201.119 381.887 201.995 381.003 202.709C379.213 204.161 377.092 204.807 375.164 205.13L375.072 205.145C373.174 205.46 371.384 204.185 371.069 202.287C370.754 200.389 372.029 198.599 373.927 198.284C374.15 198.245 374.395 198.23 374.611 198.238C375.755 198.276 376.777 198.145 377.53 197.777C378.306 197.431 378.944 196.778 379.42 195.733C379.897 194.703 380.143 193.374 380.204 191.999C380.273 190.639 380.15 189.118 379.912 187.804L379.889 187.681C379.72 186.759 380.335 185.875 381.264 185.706C382.079 185.56 382.862 186.021 383.154 186.766H383.147Z" fill="black"/>
<defs>
<filter id="filter0_f_41_510" x="0" y="242" width="489" height="257" filterUnits="userSpaceOnUse" color-interpolation-filters="sRGB">
<feFlood flood-opacity="0" result="BackgroundImageFix"/>
<feBlend mode="normal" in="SourceGraphic" in2="BackgroundImageFix" result="shape"/>
<feGaussianBlur stdDeviation="38.5" result="effect1_foregroundBlur_41_510"/>
</filter>
<filter id="filter1_d_41_510" x="36.0018" y="154.557" width="56.5816" height="78.5098" filterUnits="userSpaceOnUse" color-interpolation-filters="sRGB">
<feFlood flood-opacity="0" result="BackgroundImageFix"/>
<feColorMatrix in="SourceAlpha" type="matrix" values="0 0 0 0 0 0 0 0 0 0 0 0 0 0 0 0 0 0 127 0" result="hardAlpha"/>
<feOffset dy="4"/>
<feGaussianBlur stdDeviation="2"/>
<feComposite in2="hardAlpha" operator="out"/>
<feColorMatrix type="matrix" values="0 0 0 0 0 0 0 0 0 0 0 0 0 0 0 0 0 0 0.25 0"/>
<feBlend mode="normal" in2="BackgroundImageFix" result="effect1_dropShadow_41_510"/>
<feBlend mode="normal" in="SourceGraphic" in2="effect1_dropShadow_41_510" result="shape"/>
</filter>
<filter id="filter2_d_41_510" x="398.201" y="154.557" width="59.0172" height="75.7285" filterUnits="userSpaceOnUse" color-interpolation-filters="sRGB">
<feFlood flood-opacity="0" result="BackgroundImageFix"/>
<feColorMatrix in="SourceAlpha" type="matrix" values="0 0 0 0 0 0 0 0 0 0 0 0 0 0 0 0 0 0 127 0" result="hardAlpha"/>
<feOffset dy="4"/>
<feGaussianBlur stdDeviation="2"/>
<feComposite in2="hardAlpha" operator="out"/>
<feColorMatrix type="matrix" values="0 0 0 0 0 0 0 0 0 0 0 0 0 0 0 0 0 0 0.25 0"/>
<feBlend mode="normal" in2="BackgroundImageFix" result="effect1_dropShadow_41_510"/>
<feBlend mode="normal" in="SourceGraphic" in2="effect1_dropShadow_41_510" result="shape"/>
</filter>
<linearGradient id="paint0_linear_41_510" x1="197.658" y1="203" x2="300.212" y2="206.822" gradientUnits="userSpaceOnUse">
<stop stop-color="#9A68FE"/>
<stop offset="1" stop-color="#FF23CF"/>
</linearGradient>
<linearGradient id="paint1_linear_41_510" x1="42.199" y1="154.557" x2="90.3019" y2="158.575" gradientUnits="userSpaceOnUse">
<stop stop-color="#9A68FE"/>
<stop offset="1" stop-color="#FF23CF"/>
</linearGradient>
<linearGradient id="paint2_linear_41_510" x1="259.384" y1="79.115" x2="305.8" y2="84.741" gradientUnits="userSpaceOnUse">
<stop stop-color="#9A68FE"/>
<stop offset="1" stop-color="#FF23CF"/>
</linearGradient>
<linearGradient id="paint3_linear_41_510" x1="180.576" y1="79.115" x2="226.992" y2="84.741" gradientUnits="userSpaceOnUse">
<stop stop-color="#9A68FE"/>
<stop offset="1" stop-color="#FF23CF"/>
</linearGradient>
<linearGradient id="paint4_linear_41_510" x1="274.866" y1="38.7775" x2="301.096" y2="38.7775" gradientUnits="userSpaceOnUse">
<stop stop-color="#2A2C2A"/>
<stop offset="1" stop-color="#BFBEBE"/>
</linearGradient>
<linearGradient id="paint5_linear_41_510" x1="208.412" y1="38.7775" x2="182.174" y2="38.7775" gradientUnits="userSpaceOnUse">
<stop stop-color="#2A2C2A"/>
<stop offset="1" stop-color="#BFBEBE"/>
</linearGradient>
<linearGradient id="paint6_linear_41_510" x1="404.509" y1="154.557" x2="454.955" y2="159.163" gradientUnits="userSpaceOnUse">
<stop stop-color="#9A68FE"/>
<stop offset="1" stop-color="#FF23CF"/>
</linearGradient>
<linearGradient id="paint7_linear_41_510" x1="107.861" y1="212.413" x2="220.445" y2="212.413" gradientUnits="userSpaceOnUse">
<stop stop-color="#474747"/>
<stop offset="1" stop-color="#8E8D8D"/>
</linearGradient>
<linearGradient id="paint8_linear_41_510" x1="113.17" y1="212.413" x2="215.135" y2="212.413" gradientUnits="userSpaceOnUse">
<stop stop-color="#3D3D3D"/>
<stop offset="1" stop-color="#A4A4A4"/>
</linearGradient>
<linearGradient id="paint9_linear_41_510" x1="270.755" y1="361.362" x2="316.87" y2="336.091" gradientUnits="userSpaceOnUse">
<stop stop-color="#3A3A3B"/>
<stop offset="1" stop-color="#ACACAD"/>
</linearGradient>
</defs>
</svg>
