<svg width="622" height="453" viewBox="0 0 622 453" fill="none" xmlns="http://www.w3.org/2000/svg">
<g filter="url(#filter0_f_55_744)">
<ellipse cx="311" cy="337" rx="39" ry="234" transform="rotate(90 311 337)" fill="url(#paint0_linear_55_744)"/>
</g>
<g opacity="0.72">
<path fill-rule="evenodd" clip-rule="evenodd" d="M242.128 214.501C237.627 211.61 233.589 208.09 230.148 204.06C226.66 199.967 223.895 195.293 221.931 190.171C220.98 187.712 220.211 185.112 219.637 182.464C219.095 179.919 218.726 177.264 218.529 174.561C218.176 169.541 218.435 164.262 219.315 158.873C219.692 156.54 220.218 154.105 220.878 151.63C220.855 151.544 220.839 151.457 220.823 151.371C219.307 149.1 218.537 146.005 218.537 142.171C218.537 138.951 219.881 136.075 222.347 133.946C222.174 129.626 222.151 125.336 222.277 121.094C224.272 118.274 226.566 115.516 229.198 112.885C226.574 115.516 224.28 118.266 222.284 121.086C222.457 115.077 222.929 109.161 223.691 103.403C225.678 88.5551 229.638 74.7052 235.451 62.2379C238.672 55.3483 242.348 49.0558 246.371 43.5488C246.928 42.771 247.51 42.009 248.005 41.3648L248.798 40.3593L249.042 40.0843C249.285 39.8172 249.592 39.4794 250.008 39.1495L250.471 38.7724L251.006 38.4346C251.744 37.9711 252.569 37.6255 253.535 37.3819L253.606 37.3662L253.677 37.3505C254.352 37.2169 254.973 37.1462 255.562 37.1462C255.813 37.1462 256.065 37.162 256.308 37.1855C257.11 37.2484 257.942 37.4448 258.846 37.7904L258.924 37.814L258.995 37.8533C259.898 38.2539 260.629 38.7174 261.234 39.2438C261.886 39.778 262.452 40.4457 262.978 41.2706C263.19 41.6005 263.339 41.9148 263.465 42.1661L263.575 42.4018L264.918 45.442C265.343 46.4476 265.822 47.4374 266.34 48.4823C266.584 48.9772 266.819 49.4721 267.055 49.967C269.828 55.5604 273.167 61.2481 277.26 67.3128C277.912 68.3027 278.564 69.2296 279.255 70.2116C279.554 70.6358 279.852 71.0522 280.151 71.4764L280.732 72.2699C281.518 73.354 282.335 74.4617 283.16 75.5222C283.725 76.2764 284.291 76.9913 284.715 77.5255C285.202 78.1461 285.713 78.7902 286.294 79.5051C286.75 80.0708 287.19 80.605 287.622 81.1156C290.293 80.3693 293.207 79.7722 296.617 79.2773C300.49 78.7117 304.559 78.421 308.691 78.4053C312.847 78.421 316.909 78.7117 320.789 79.2773C324.207 79.7722 327.113 80.3614 329.784 81.1156C330.209 80.605 330.648 80.0786 331.104 79.513C331.693 78.7981 332.204 78.1539 332.675 77.549C333.115 76.9912 333.681 76.2764 334.223 75.5536C335.063 74.4695 335.865 73.3618 336.65 72.2934L337.247 71.4764C337.546 71.0522 337.837 70.628 338.135 70.2116C338.834 69.2296 339.486 68.3027 340.123 67.3442C344.231 61.2559 347.578 55.5683 350.359 49.9278C350.579 49.4721 350.822 48.9772 351.066 48.4823C351.577 47.4374 352.064 46.4555 352.48 45.4499L353.815 42.4018L353.925 42.1661C354.043 41.9148 354.2 41.6005 354.42 41.2627C354.939 40.4457 355.512 39.7858 356.156 39.2438C356.761 38.7096 357.5 38.2539 358.395 37.8454L358.466 37.814L358.537 37.7904C359.448 37.4448 360.281 37.2484 361.074 37.1855C361.318 37.162 361.569 37.1462 361.821 37.1462C362.41 37.1462 363.023 37.2169 363.706 37.3505L363.777 37.3662L363.847 37.3819C364.822 37.6255 365.646 37.9711 366.377 38.4267L366.911 38.7724L367.383 39.1573C367.791 39.4794 368.09 39.8094 368.333 40.0765L368.584 40.3593L369.362 41.357C369.873 42.009 370.454 42.7789 371.02 43.5566C375.026 49.0558 378.703 55.3405 381.924 62.2379C387.737 74.7052 391.696 88.5551 393.684 103.403C394.446 109.161 394.917 115.069 395.09 121.086C394.085 119.664 393.001 118.258 391.838 116.876C393.001 118.258 394.085 119.664 395.098 121.094C395.224 125.336 395.2 129.633 395.027 133.954C397.494 136.083 398.837 138.958 398.837 142.179C398.837 146.013 398.068 149.1 396.544 151.371C396.528 151.457 396.504 151.544 396.489 151.63C397.141 154.097 397.667 156.532 398.052 158.881C398.932 164.278 399.199 169.557 398.837 174.561C398.641 177.264 398.272 179.919 397.73 182.456C397.164 185.104 396.386 187.696 395.436 190.179C393.464 195.301 390.699 199.975 387.219 204.06C383.793 208.074 379.756 211.594 375.207 214.516C376.778 222.859 374.633 246.67 310.082 246.67C241.641 246.67 240.981 224.077 242.136 214.493L242.128 214.501Z" fill="#9968FD"/>
<path fill-rule="evenodd" clip-rule="evenodd" d="M364.075 228.319C362.206 222.058 361.404 219.685 360.713 217.556H256.638C255.939 219.701 255.083 222.254 253.19 228.594C252.082 227.966 250.974 227.313 249.851 226.63C252.349 218.303 253.472 215.137 253.488 215.082C253.747 214.312 254.462 213.794 255.271 213.794H362.064C362.873 213.794 363.596 214.312 363.847 215.082C363.863 215.137 364.908 218.075 367.367 226.237C366.251 226.96 365.159 227.659 364.067 228.327L364.075 228.319Z" fill="#433B72"/>
<path fill-rule="evenodd" clip-rule="evenodd" d="M364.169 228.649C362.292 222.364 361.396 219.678 360.705 217.556H256.646C255.955 219.701 255.185 221.932 253.284 228.295C252.176 227.675 251.068 227.015 249.945 226.331C252.435 218.028 253.449 215.223 253.496 215.082C253.747 214.312 254.47 213.794 255.279 213.794H362.072C362.881 213.794 363.604 214.312 363.855 215.082C363.902 215.223 365.018 218.421 367.469 226.567C366.353 227.29 365.261 227.989 364.169 228.657V228.649Z" fill="black"/>
<path fill-rule="evenodd" clip-rule="evenodd" d="M308.676 211.075H369.205C369.205 211.075 382.152 240.472 308.676 240.472C235.2 240.472 248.146 211.075 248.146 211.075H308.676Z" fill="#9968FD"/>
<path fill-rule="evenodd" clip-rule="evenodd" d="M308.676 211.075H369.205C369.205 211.075 369.331 211.366 369.488 211.885C366.966 220.518 354.994 232.2 308.676 232.2C262.357 232.2 250.393 220.518 247.863 211.885C248.02 211.366 248.146 211.075 248.146 211.075H308.676Z" fill="black"/>
<path fill-rule="evenodd" clip-rule="evenodd" d="M249.513 212.961C249.026 214.878 248.531 218.994 251.406 223.346C256.002 230.299 269.663 238.595 308.676 238.595C347.688 238.595 361.349 230.299 365.945 223.346C368.82 218.994 368.325 214.885 367.838 212.961H249.513ZM362.237 232.09C358.458 234.242 354.656 236.034 350.422 237.495C340.209 240.7 326.461 242.326 309.249 242.365C305.148 242.357 301.33 242.287 297.74 242.13C292.602 241.902 287.834 241.501 283.442 240.936C272.861 239.506 264.258 236.874 255.641 232.428C252.443 230.377 249.969 228.013 248.217 225.334C243.268 217.745 246.3 210.62 246.433 210.321C246.732 209.638 247.408 209.198 248.154 209.198H369.205C369.951 209.198 370.627 209.638 370.926 210.321C371.059 210.62 374.099 217.737 369.142 225.334C367.493 227.863 365.183 230.118 362.237 232.09Z" fill="black"/>
<path fill-rule="evenodd" clip-rule="evenodd" d="M331.301 224.163C323.782 224.91 316.249 225.279 308.707 225.279H308.676C301.126 225.279 293.577 224.91 286.051 224.163C278.713 223.283 272.201 221.987 266.411 220.369C203.344 202.693 227.721 145.495 227.721 145.495C222.017 88.453 242.647 55.3405 252.286 43.266C254.274 40.7836 258.17 41.3649 259.396 44.2951C269.153 67.7371 286.074 86.3555 286.074 86.3555C288.69 85.4364 291.62 84.745 294.488 84.2344C303.868 82.5533 313.476 82.5533 322.855 84.2344C325.715 84.745 328.653 85.4285 331.269 86.3555C331.269 86.3555 348.183 67.7371 357.948 44.2951C359.173 41.3649 363.07 40.7836 365.057 43.266C374.696 55.3405 395.334 88.453 389.623 145.495C389.623 145.495 418.674 213.652 331.301 224.155V224.163Z" fill="#FBA329"/>
<path fill-rule="evenodd" clip-rule="evenodd" d="M260.55 216.842C259.765 216.551 258.979 216.245 258.202 215.93L256.544 215.247C255.994 215.011 255.452 214.752 254.91 214.508C253.818 214.029 252.757 213.471 251.697 212.937C249.599 211.814 247.533 210.636 245.593 209.284C241.673 206.637 238.122 203.487 235.145 199.873C232.183 196.251 229.826 192.166 228.184 187.798C226.542 183.423 225.608 178.788 225.27 174.098C224.955 169.4 225.199 164.647 225.93 159.957C226.252 157.86 226.66 155.778 227.171 153.72C227.548 158.166 228.813 164.184 231.609 170.028C231.594 170.547 231.578 171.065 231.578 171.576C231.578 194.586 250.628 210.258 260.543 216.857L260.55 216.842ZM233.495 131.763C233.463 131.668 233.432 131.574 233.393 131.488C232.167 128.251 236.37 123.828 239.913 123.828C240.212 123.828 240.51 123.859 240.793 123.93C240.793 123.93 241.61 114.079 249.379 114.079C249.741 114.079 250.11 114.102 250.503 114.142L252.192 113.38C252.192 113.38 255.02 115.658 254.109 117.645C252.82 120.466 246.072 117.638 245.326 126.381C245.279 126.9 245.122 127.395 244.862 127.827C239.772 129.123 235.891 130.671 233.495 131.763Z" fill="#BE6F00"/>
<path fill-rule="evenodd" clip-rule="evenodd" d="M356.785 216.849C366.903 210.117 386.567 193.91 385.742 170.091C385.742 170.068 385.742 170.036 385.742 170.013C385.757 170.531 385.773 171.05 385.773 171.56C385.773 194.578 366.699 210.258 356.793 216.857L356.785 216.849ZM260.55 216.834C250.636 210.235 231.594 194.555 231.586 171.552C231.586 171.042 231.594 170.523 231.617 170.005C231.617 170.028 231.617 170.06 231.617 170.083C230.792 193.887 250.432 210.086 260.558 216.826L260.55 216.834Z" fill="#4A4A8E"/>
<path fill-rule="evenodd" clip-rule="evenodd" d="M308.707 225.279H308.644C301.173 225.279 293.702 224.91 286.255 224.187C286.263 224.077 286.192 223.975 286.082 223.943C281.306 222.804 276.569 221.752 271.91 220.447C268.069 219.387 264.258 218.224 260.558 216.842C250.432 210.101 230.792 193.902 231.617 170.099C231.853 170.759 232.112 171.419 232.387 172.087C237.391 175.339 264.581 192.465 272.452 186.408C280.607 180.131 282.052 158.347 288.863 146.563C292.343 140.545 299.893 136.122 306.822 135.895C316.052 135.596 324.026 139.988 328.284 148.048C334.757 160.303 336.8 180.807 344.805 186.4C357.044 194.955 376.904 180.123 385.742 170.091C385.742 170.068 385.742 170.036 385.742 170.013C385.742 190.713 373.298 205.859 356.793 216.849C353.093 218.232 349.29 219.371 345.457 220.44C344.286 220.738 343.124 221.084 341.945 221.374C340.767 221.657 339.596 221.987 338.41 222.262C337.224 222.521 336.045 222.844 334.851 223.111C333.665 223.386 332.471 223.661 331.277 223.975C331.198 223.998 331.136 224.069 331.136 224.163V224.179C323.68 224.91 316.194 225.279 308.715 225.279H308.707ZM233.165 173.846L233.204 173.933L233.181 173.886L233.157 173.846H233.165ZM233.825 175.182L233.848 175.221L233.872 175.268L233.825 175.182ZM234.108 175.716L234.123 175.748L234.155 175.803L234.108 175.716Z" fill="white"/>
<path fill-rule="evenodd" clip-rule="evenodd" d="M288.722 191.852C287.347 191.027 285.556 189.684 284.252 187.759C285.132 187.178 285.949 186.557 286.726 185.905C287.158 186.282 287.622 186.612 288.125 186.911C288.125 188.199 288.242 189.959 288.722 191.852ZM328.7 191.805C329.172 189.919 329.289 188.191 329.282 186.911C329.769 186.62 330.224 186.298 330.648 185.937C331.418 186.581 332.227 187.193 333.092 187.767C331.811 189.66 330.059 190.988 328.7 191.813V191.805ZM322.439 184.797H322.368C312.407 184.797 310.632 174.742 310.561 174.318C310.514 174.035 310.412 173.768 310.255 173.548L312.713 172.644C312.713 172.644 315.801 181.537 322.455 181.537C323.806 181.537 324.874 181.144 325.723 180.524C326.398 181.482 327.129 182.409 327.93 183.297C326.618 184.279 324.78 184.79 322.447 184.797H322.439ZM295.038 184.797H294.967C292.61 184.79 290.756 184.271 289.444 183.266C290.23 182.386 290.961 181.467 291.62 180.516C292.461 181.137 293.537 181.529 294.881 181.529C301.535 181.529 304.622 172.637 304.622 172.637L307.136 173.556C306.987 173.776 306.884 174.027 306.837 174.302C306.767 174.734 304.991 184.79 295.03 184.79L295.038 184.797Z" fill="white"/>
<path fill-rule="evenodd" clip-rule="evenodd" d="M356.785 216.849C366.691 210.251 385.757 194.578 385.765 171.552C385.765 171.042 385.757 170.523 385.734 170.005C388.538 164.152 389.803 158.142 390.172 153.696C390.675 155.754 391.084 157.836 391.414 159.934C392.144 164.624 392.388 169.376 392.074 174.074C391.736 178.764 390.801 183.399 389.159 187.775C387.517 192.143 385.16 196.228 382.199 199.849C379.221 203.463 375.678 206.613 371.75 209.261C369.81 210.62 367.744 211.79 365.646 212.922C364.578 213.456 363.525 214.013 362.433 214.493C361.891 214.736 361.349 214.995 360.799 215.231L359.142 215.922C358.356 216.245 357.571 216.551 356.777 216.842L356.785 216.849ZM383.864 131.762C381.468 130.67 377.587 129.123 372.497 127.827C372.237 127.387 372.072 126.892 372.025 126.365C371.24 117.551 364.201 119.916 363.25 117.638C362.41 115.626 365.167 113.372 365.167 113.372L366.848 114.134C367.241 114.087 367.61 114.071 367.972 114.071C375.749 114.071 376.558 123.922 376.558 123.922C376.841 123.852 377.14 123.82 377.438 123.82C380.981 123.82 385.184 128.235 383.958 131.48C383.927 131.574 383.888 131.668 383.856 131.755L383.864 131.762Z" fill="#BE6F00"/>
<path fill-rule="evenodd" clip-rule="evenodd" d="M254.101 41.9697C254.101 41.9697 254.077 41.9697 254.061 41.9777C254.077 41.9777 254.085 41.9777 254.101 41.9697Z" fill="#A2A2D2"/>
<path fill-rule="evenodd" clip-rule="evenodd" d="M357.948 44.3107C348.183 67.7527 331.269 86.3633 331.269 86.3633C328.653 85.4441 325.723 84.7528 322.855 84.2422C313.483 82.561 303.868 82.561 294.496 84.2422C291.628 84.7528 288.698 85.4441 286.082 86.3633C286.082 86.3633 269.161 67.7448 259.404 44.3107C258.492 42.119 256.088 41.247 254.101 41.9775C254.226 41.9383 254.352 42.0247 254.478 42.3311C263.551 64.1233 278.91 85.6405 283.01 90.4012C283.647 91.1475 284.668 91.4303 285.603 91.1396C288.046 90.3855 290.67 89.7884 293.247 89.3328C294.354 89.1364 295.462 88.9636 296.57 88.8064C297.874 90.8647 302.799 92.4044 308.668 92.4044C314.536 92.4044 319.462 90.8725 320.774 88.8064C321.881 88.9636 322.997 89.1285 324.097 89.3328C326.673 89.7963 329.305 90.3855 331.74 91.1396C332.675 91.4303 333.689 91.1396 334.333 90.4012C338.434 85.6405 353.195 65.5923 362.276 43.8001C362.826 42.4803 363.879 43.698 365.065 43.3052C363.085 40.7992 359.173 41.3726 357.94 44.3107H357.948Z" fill="#BE6F00"/>
<path fill-rule="evenodd" clip-rule="evenodd" d="M252.278 43.2974C253.166 43.5881 253.645 42.1819 254.062 41.9855C253.394 42.2369 252.781 42.6768 252.278 43.2974Z" fill="#A2A2D2"/>
<path fill-rule="evenodd" clip-rule="evenodd" d="M308.707 175.897C308.707 175.897 308.691 175.967 308.676 176.007C308.66 175.967 308.652 175.936 308.644 175.897H308.707Z" fill="#FF6C8B"/>
<path fill-rule="evenodd" clip-rule="evenodd" d="M322.376 188.553C315.172 188.553 310.922 184.397 308.715 180.257C306.5 184.397 302.249 188.553 295.053 188.553H294.967C291.141 188.537 288.164 187.437 286.106 185.292C283.262 182.331 283.364 178.466 283.372 178.301C283.411 177.264 284.275 176.455 285.32 176.486C286.357 176.525 287.166 177.397 287.135 178.434C287.135 178.442 287.103 180.917 288.847 182.716C290.175 184.075 292.233 184.774 294.983 184.782H295.053C305.015 184.782 306.79 174.726 306.861 174.294C307.01 173.383 307.796 172.715 308.715 172.715C309.642 172.715 310.42 173.383 310.569 174.294C310.64 174.718 312.415 184.774 322.376 184.774H322.447C325.189 184.758 327.255 184.067 328.582 182.708C330.334 180.917 330.303 178.442 330.303 178.419C330.279 177.389 331.096 176.517 332.125 176.494C333.154 176.47 334.019 177.264 334.058 178.301C334.058 178.466 334.168 182.323 331.324 185.292C329.266 187.437 326.288 188.529 322.463 188.553H322.376Z" fill="black"/>
<path fill-rule="evenodd" clip-rule="evenodd" d="M313.617 160.703C310.443 159.486 306.908 159.486 303.734 160.703C301.26 161.654 298.793 163.406 298.793 166.619C298.793 173.045 304.088 177.405 308.676 177.405C313.263 177.405 318.558 173.045 318.558 166.619C318.558 163.406 316.084 161.654 313.617 160.703Z" fill="black"/>
<path fill-rule="evenodd" clip-rule="evenodd" d="M314.457 164.199C314.457 164.891 311.873 165.456 308.676 165.456C305.478 165.456 302.894 164.899 302.894 164.199C302.894 163.5 305.478 162.942 308.676 162.942C311.873 162.942 314.457 163.508 314.457 164.199Z" fill="white"/>
<path fill-rule="evenodd" clip-rule="evenodd" d="M233.723 134.237C233.691 134.104 233.526 133.373 233.448 132.352C233.534 132.98 233.628 133.609 233.723 134.237Z" fill="#FF7C88"/>
<path fill-rule="evenodd" clip-rule="evenodd" d="M250.495 114.103L250.503 114.142C250.322 114.11 250.149 114.087 249.976 114.063C248.947 113.922 248.028 113.93 247.219 114.055C246.818 114.11 246.441 114.205 246.088 114.315C246.001 114.338 245.907 114.37 245.821 114.401C245.648 114.464 245.483 114.535 245.326 114.605C245.192 114.668 245.059 114.739 244.933 114.802C244.611 114.982 244.312 115.187 244.037 115.407C243.849 115.556 243.668 115.721 243.503 115.894C243.33 116.066 243.173 116.239 243.032 116.428C242.93 116.546 242.843 116.664 242.757 116.789C242.663 116.923 242.576 117.056 242.49 117.198C242.246 117.598 242.042 118.007 241.861 118.423C241.798 118.565 241.743 118.698 241.696 118.847C241.469 119.468 241.304 120.081 241.178 120.662C241.178 120.67 241.178 120.678 241.178 120.694C241.154 120.811 241.131 120.929 241.107 121.047C241.107 121.055 241.107 121.063 241.107 121.079C241.052 121.385 241.013 121.668 240.981 121.943C240.974 122.021 240.966 122.092 240.958 122.17C240.95 122.265 240.942 122.359 240.934 122.445C240.871 123.247 240.887 123.765 240.887 123.765C237.415 123.765 235.506 125.093 234.493 126.798C233.432 128.589 233.346 130.796 233.463 132.344C233.385 131.77 233.314 131.205 233.251 130.639C232.921 127.89 232.701 125.179 232.576 122.516C230.808 82.9697 251.013 53.0388 254.981 47.5632C255.051 47.4768 255.106 47.3904 255.153 47.3197C255.358 47.0447 255.507 46.8483 255.578 46.7541C255.601 46.7226 255.609 46.7069 255.625 46.6991L255.641 46.6833C250.259 56.3068 248.044 67.5721 247.439 78.099C246.339 96.8039 250.299 113.215 250.518 114.11L250.495 114.103Z" fill="white"/>
<path fill-rule="evenodd" clip-rule="evenodd" d="M250.495 114.103L250.503 114.142C250.322 114.11 250.149 114.087 249.976 114.063C248.947 113.93 248.028 113.93 247.219 114.055C246.818 114.118 246.441 114.205 246.088 114.315C246.001 114.338 245.907 114.37 245.821 114.401C245.648 114.464 245.491 114.535 245.326 114.605C245.192 114.668 245.059 114.739 244.933 114.802C244.611 114.982 244.312 115.187 244.037 115.407C243.841 115.556 243.668 115.721 243.503 115.894C243.33 116.066 243.173 116.239 243.032 116.428C242.93 116.546 242.843 116.664 242.757 116.789C242.663 116.923 242.576 117.056 242.49 117.198C242.246 117.591 242.034 118.007 241.861 118.423C241.798 118.565 241.743 118.698 241.696 118.847C241.461 119.46 241.296 120.081 241.178 120.662C241.178 120.67 241.178 120.678 241.178 120.694C241.154 120.811 241.131 120.929 241.107 121.047C241.107 121.055 241.107 121.063 241.107 121.079C241.052 121.385 241.013 121.668 240.981 121.943C240.974 122.021 240.966 122.092 240.958 122.17C240.95 122.265 240.942 122.359 240.934 122.445C240.871 123.247 240.887 123.765 240.887 123.765C237.525 124.111 235.577 125.321 234.493 126.798C233.613 128 233.298 129.39 233.243 130.639C232.913 127.89 232.694 125.179 232.568 122.516C233.44 121.463 234.555 120.78 235.435 120.356C236.299 119.939 236.849 119.083 236.881 118.117C237.046 112.296 240.164 109.656 242.136 108.572C243.055 108.061 243.582 107.04 243.425 106.003C238.53 73.1577 251.799 52.0568 254.965 47.5632C255.036 47.4768 255.091 47.3904 255.138 47.3197C255.342 47.0447 255.491 46.8483 255.562 46.7541C255.586 46.7226 255.593 46.7069 255.609 46.6991L255.625 46.6833C250.636 57.6894 248.295 68.4834 247.423 78.099C245.585 98.2886 250.244 113.293 250.503 114.11L250.495 114.103Z" fill="white"/>
<path fill-rule="evenodd" clip-rule="evenodd" d="M255.853 46.7933C254.399 50.6977 253.237 54.6806 252.208 58.6792L251.469 61.688C251.257 62.7014 251.021 63.6991 250.817 64.7125C250.393 66.7315 250.063 68.7662 249.764 70.8008C249.482 72.8434 249.23 74.8859 249.081 76.9363C249.042 77.4469 248.987 77.9576 248.947 78.476L248.853 80.0158C248.774 81.0371 248.759 82.0662 248.72 83.0953C248.617 87.2118 248.743 91.3204 249.097 95.4212C249.458 99.5219 250.071 103.591 250.896 107.613C251.116 108.619 251.304 109.632 251.555 110.622L252.302 113.615V113.663C252.302 113.615 252.357 113.82 252.365 113.922C252.38 114.047 252.388 114.173 252.38 114.307C252.349 114.825 252.105 115.32 251.728 115.666C251.351 116.019 250.793 116.216 250.267 116.184C250.165 116.184 249.953 116.145 250 116.153H249.984L249.945 116.145L249.631 116.098C249.419 116.066 249.199 116.051 248.979 116.035C248.539 116.004 248.107 116.011 247.675 116.035C246.826 116.106 246.025 116.286 245.373 116.632C244.705 116.962 244.202 117.433 243.786 118.023C243.385 118.62 243.103 119.382 242.945 120.214C242.788 121.055 242.741 121.974 242.78 122.909L242.796 123.262V123.349V123.396C242.796 123.451 242.804 123.592 242.796 123.694C242.773 124.119 242.623 124.551 242.356 124.896C242.089 125.25 241.696 125.533 241.249 125.666C241.052 125.737 240.707 125.761 240.769 125.753H240.691L240.377 125.792C239.952 125.847 239.52 125.933 239.112 126.051C238.287 126.279 237.533 126.633 236.896 127.065C236.26 127.505 235.726 128.031 235.325 128.722C234.917 129.406 234.657 130.246 234.5 131.165C234.343 132.092 234.32 133.082 234.312 134.127V134.143C234.312 134.488 234.029 134.763 233.683 134.763C233.44 134.763 233.228 134.622 233.126 134.418C232.639 133.42 232.285 132.336 232.136 131.173C232.073 130.584 232.026 129.987 232.089 129.366C232.104 129.06 232.159 128.746 232.214 128.432C232.293 128.125 232.364 127.803 232.474 127.497C232.874 126.248 233.699 125.109 234.705 124.26C235.718 123.404 236.896 122.862 238.075 122.508C238.664 122.328 239.261 122.202 239.874 122.115C240.023 122.092 240.18 122.076 240.337 122.06L240.455 122.045C240.581 122.029 240.298 122.053 240.172 122.1C239.85 122.194 239.567 122.398 239.379 122.65C239.19 122.901 239.088 123.192 239.065 123.49C239.065 123.553 239.065 123.663 239.065 123.687V123.632L239.057 123.522L239.033 123.09C238.97 121.943 239.002 120.756 239.214 119.539C239.434 118.329 239.842 117.064 240.597 115.917C240.974 115.344 241.429 114.809 241.956 114.354C242.482 113.89 243.063 113.521 243.676 113.223C244.894 112.618 246.174 112.358 247.408 112.272C248.028 112.233 248.633 112.233 249.238 112.28C249.537 112.303 249.843 112.335 250.149 112.374C250.299 112.398 250.456 112.421 250.613 112.453H250.668L250.699 112.468C250.762 112.484 250.566 112.445 250.479 112.445C250.024 112.413 249.529 112.594 249.199 112.893C248.861 113.191 248.657 113.631 248.625 114.079C248.625 114.197 248.625 114.299 248.633 114.409C248.633 114.495 248.688 114.684 248.672 114.621V114.574L247.926 111.471C247.675 110.442 247.494 109.389 247.274 108.352C246.465 104.18 245.884 99.9619 245.561 95.7197C245.231 91.4854 245.161 87.2275 245.365 82.9775C245.42 81.9169 245.467 80.8564 245.561 79.7958L245.695 78.2089C245.742 77.6826 245.805 77.1563 245.86 76.6299C246.088 74.5167 246.418 72.4192 246.779 70.3295C247.557 66.158 248.547 62.0258 249.929 58.0115C250.621 56.0082 251.406 54.0364 252.302 52.1117C253.197 50.1949 254.179 48.3173 255.389 46.5576C255.468 46.4398 255.625 46.4083 255.743 46.4948C255.845 46.5655 255.876 46.6912 255.837 46.7933V46.809L255.853 46.7933Z" fill="#984200"/>
<path fill-rule="evenodd" clip-rule="evenodd" d="M383.629 134.237C383.66 134.104 383.825 133.373 383.904 132.352C383.817 132.98 383.723 133.609 383.629 134.237Z" fill="#FF7C88"/>
<path fill-rule="evenodd" clip-rule="evenodd" d="M366.856 114.103L366.848 114.142C367.029 114.11 367.202 114.087 367.375 114.063C368.404 113.922 369.323 113.93 370.132 114.055C370.533 114.11 370.91 114.205 371.263 114.315C371.35 114.338 371.444 114.37 371.53 114.401C371.703 114.464 371.868 114.535 372.025 114.605C372.159 114.668 372.292 114.739 372.418 114.802C372.74 114.982 373.039 115.187 373.314 115.407C373.502 115.556 373.683 115.721 373.856 115.894C374.029 116.066 374.178 116.239 374.327 116.428C374.429 116.546 374.516 116.664 374.602 116.789C374.696 116.923 374.783 117.056 374.869 117.198C375.113 117.598 375.317 118.007 375.498 118.423C375.56 118.565 375.615 118.698 375.663 118.847C375.89 119.468 376.055 120.081 376.181 120.662C376.181 120.67 376.181 120.678 376.181 120.694C376.205 120.811 376.228 120.929 376.244 121.047C376.244 121.055 376.244 121.063 376.244 121.079C376.299 121.385 376.338 121.668 376.37 121.943C376.37 122.021 376.385 122.092 376.393 122.17C376.401 122.265 376.401 122.359 376.417 122.445C376.487 123.247 376.464 123.765 376.464 123.765C379.936 123.765 381.845 125.093 382.859 126.798C383.919 128.589 384.006 130.796 383.888 132.344C383.966 131.77 384.045 131.205 384.1 130.639C384.43 127.89 384.65 125.179 384.775 122.516C386.543 82.9697 366.338 53.0388 362.37 47.5632C362.308 47.4768 362.245 47.3904 362.198 47.3197C361.993 47.0447 361.844 46.8483 361.773 46.7541C361.75 46.7226 361.734 46.7069 361.726 46.6991L361.711 46.6833C367.092 56.3068 369.307 67.5721 369.912 78.099C371.012 96.8039 367.053 113.215 366.833 114.11L366.856 114.103Z" fill="white"/>
<path fill-rule="evenodd" clip-rule="evenodd" d="M366.856 114.103L366.848 114.142C367.029 114.11 367.202 114.087 367.375 114.063C368.404 113.93 369.323 113.93 370.132 114.055C370.533 114.118 370.91 114.205 371.263 114.315C371.35 114.338 371.444 114.37 371.53 114.401C371.703 114.464 371.86 114.535 372.025 114.605C372.159 114.668 372.285 114.739 372.418 114.802C372.74 114.982 373.039 115.187 373.314 115.407C373.51 115.556 373.691 115.721 373.856 115.894C374.029 116.066 374.178 116.239 374.327 116.428C374.429 116.546 374.516 116.664 374.602 116.789C374.696 116.923 374.783 117.056 374.869 117.198C375.113 117.591 375.325 118.007 375.498 118.423C375.56 118.565 375.615 118.698 375.663 118.847C375.898 119.46 376.063 120.081 376.181 120.662C376.181 120.67 376.181 120.678 376.181 120.694C376.205 120.811 376.228 120.929 376.244 121.047C376.244 121.055 376.244 121.063 376.244 121.079C376.307 121.385 376.346 121.668 376.37 121.943C376.37 122.021 376.385 122.092 376.393 122.17C376.401 122.265 376.409 122.359 376.417 122.445C376.487 123.247 376.464 123.765 376.464 123.765C379.834 124.111 381.774 125.321 382.859 126.798C383.738 128 384.045 129.39 384.1 130.639C384.43 127.89 384.65 125.179 384.775 122.516C383.896 121.463 382.788 120.78 381.9 120.356C381.036 119.939 380.486 119.083 380.455 118.117C380.29 112.296 377.171 109.656 375.199 108.572C374.28 108.061 373.754 107.04 373.911 106.003C378.805 73.1577 365.536 52.0568 362.363 47.5632C362.3 47.4768 362.237 47.3904 362.19 47.3197C361.986 47.0447 361.836 46.8483 361.766 46.7541C361.742 46.7226 361.726 46.7069 361.718 46.6991L361.703 46.6833C366.691 57.6894 369.032 68.4834 369.904 78.099C371.743 98.2886 367.084 113.293 366.825 114.11L366.856 114.103Z" fill="#E5E5E5"/>
<path fill-rule="evenodd" clip-rule="evenodd" d="M331.277 223.975C332.471 223.661 333.657 223.386 334.851 223.111C336.038 222.844 337.216 222.521 338.41 222.262C339.596 221.987 340.767 221.657 341.945 221.374C343.124 221.092 344.286 220.738 345.457 220.44C350.115 219.151 354.719 217.737 359.157 215.93L360.815 215.239C361.365 215.003 361.899 214.744 362.449 214.501C363.541 214.021 364.594 213.464 365.662 212.929C367.76 211.806 369.826 210.628 371.766 209.269C375.694 206.621 379.237 203.471 382.214 199.857C385.176 196.236 387.533 192.151 389.175 187.783C390.809 183.407 391.751 178.772 392.089 174.082C392.404 169.384 392.16 164.631 391.429 159.941C391.068 157.593 390.597 155.259 390.007 152.958C389.709 151.811 389.395 150.664 389.041 149.532C388.868 148.967 388.688 148.401 388.499 147.843C388.311 147.294 388.098 146.712 387.91 146.233L387.894 146.194C387.776 145.903 387.737 145.597 387.769 145.306C389.143 131.645 389.104 117.834 387.297 104.251C385.482 90.6841 381.861 77.3369 376.087 64.9561C373.196 58.7813 369.81 52.8266 365.804 47.3432C365.309 46.6519 364.79 45.9841 364.279 45.3085L363.887 44.8057L363.69 44.5544L363.596 44.4365L363.533 44.3737C363.447 44.2873 363.376 44.1851 363.274 44.1223L363.14 44.0044C363.085 43.973 363.038 43.9495 362.991 43.918C362.598 43.6666 362.119 43.5645 361.64 43.6116C361.396 43.6116 361.169 43.6981 360.941 43.7766C360.729 43.8866 360.509 43.9887 360.344 44.1537C360.155 44.2951 360.014 44.4915 359.88 44.6879C359.809 44.79 359.77 44.9079 359.707 45.01L359.448 45.5992L358.388 48.0188C357.704 49.645 356.887 51.2004 356.133 52.7873C353.014 59.0877 349.393 65.1053 345.48 70.9108C344.514 72.372 343.485 73.7861 342.487 75.2237C341.45 76.6299 340.429 78.0518 339.361 79.4423C338.834 80.1415 338.292 80.8328 337.75 81.5241C337.216 82.2154 336.666 82.8989 336.108 83.5745C335.001 84.9414 333.893 86.2691 332.683 87.6203C332.173 88.1938 331.379 88.3744 330.696 88.1388H330.672C327.247 86.9447 323.555 86.1905 319.862 85.6563C316.17 85.1143 312.431 84.8629 308.699 84.855C304.968 84.8629 301.228 85.1221 297.536 85.6563C293.844 86.1905 290.159 86.9368 286.726 88.1231H286.703C285.972 88.3823 285.194 88.1545 284.715 87.6124C283.513 86.2612 282.398 84.9336 281.29 83.5666C280.732 82.8832 280.182 82.2076 279.648 81.5163C279.106 80.8249 278.564 80.1415 278.038 79.4423C276.969 78.0518 275.94 76.6378 274.903 75.2237C273.898 73.7861 272.868 72.372 271.91 70.9108C267.998 65.1053 264.376 59.0877 261.258 52.7873C260.503 51.2004 259.686 49.645 259.003 48.0188L257.942 45.5992L257.683 45.01C257.62 44.9079 257.581 44.7822 257.51 44.6879C257.377 44.4915 257.235 44.2951 257.047 44.1537C256.874 43.9887 256.662 43.8866 256.45 43.7766C256.222 43.7059 255.994 43.6195 255.751 43.6116C255.271 43.5645 254.792 43.6745 254.399 43.918C254.352 43.9495 254.297 43.9809 254.25 44.0044L254.117 44.1223C254.014 44.1851 253.944 44.2873 253.857 44.3737L253.794 44.4365L253.7 44.5544L253.504 44.8057L253.111 45.3085C252.592 45.9763 252.082 46.6519 251.587 47.3432C247.58 52.8266 244.195 58.7813 241.304 64.9561C235.53 77.3291 231.908 90.6841 230.093 104.243C228.286 117.826 228.247 131.629 229.622 145.298C229.645 145.62 229.598 145.919 229.488 146.202V146.225C229.284 146.712 229.072 147.294 228.883 147.836C228.695 148.393 228.506 148.951 228.334 149.525C227.988 150.656 227.666 151.803 227.375 152.95C226.786 155.252 226.315 157.585 225.953 159.926C225.223 164.616 224.979 169.369 225.293 174.066C225.631 178.756 226.566 183.391 228.208 187.767C229.85 192.135 232.206 196.22 235.168 199.841C238.146 203.455 241.696 206.605 245.616 209.253C247.557 210.604 249.631 211.782 251.72 212.906C252.789 213.44 253.842 213.998 254.934 214.477C255.476 214.721 256.018 214.98 256.568 215.215L258.225 215.899C262.664 217.698 267.267 219.136 271.926 220.416C276.584 221.72 281.329 222.773 286.098 223.912C286.216 223.943 286.294 224.061 286.263 224.179C286.239 224.281 286.145 224.352 286.043 224.352C281.125 224.305 276.215 223.77 271.352 222.891C270.135 222.679 268.933 222.396 267.723 222.136C266.513 221.869 265.319 221.532 264.117 221.233C262.931 220.88 261.737 220.534 260.558 220.149L258.799 219.536L257.919 219.23L257.047 218.892L255.303 218.216C254.721 217.989 254.156 217.729 253.582 217.486C252.427 217.014 251.304 216.457 250.181 215.922C247.95 214.791 245.734 213.605 243.637 212.214C239.402 209.496 235.522 206.15 232.222 202.277C228.923 198.404 226.291 193.926 224.468 189.173C223.549 186.793 222.827 184.342 222.292 181.859C221.766 179.377 221.42 176.855 221.24 174.333C220.878 169.282 221.193 164.223 222.002 159.274C222.402 156.799 222.944 154.348 223.604 151.921C223.926 150.711 224.296 149.509 224.696 148.315C224.893 147.718 225.105 147.121 225.325 146.532C225.553 145.927 225.765 145.369 226.04 144.725L225.898 145.652C224.5 131.739 224.531 117.638 226.385 103.725C228.247 89.8278 231.955 76.1114 237.91 63.3456C240.895 56.9666 244.391 50.8155 248.562 45.1043C249.081 44.3894 249.615 43.6823 250.157 42.9832L250.566 42.4568L250.77 42.1976L250.88 42.064L251.037 41.8912C251.241 41.6634 251.453 41.4277 251.705 41.2313L252.074 40.9328L252.475 40.6735C253.009 40.3357 253.614 40.1158 254.226 39.9587C254.847 39.833 255.476 39.7701 256.096 39.8408C256.725 39.8801 257.33 40.0529 257.911 40.2808C258.484 40.54 259.034 40.8464 259.506 41.2706C259.993 41.6712 260.393 42.174 260.731 42.7004C260.904 42.9675 261.022 43.2503 261.163 43.5252L261.43 44.1223L262.459 46.4633C263.119 48.0345 263.913 49.5507 264.643 51.0983C267.676 57.2259 271.211 63.1099 275.045 68.7897C275.987 70.2195 277.001 71.61 277.975 73.0162C278.988 74.3988 279.994 75.7893 281.039 77.1484C281.557 77.8318 282.083 78.5075 282.61 79.1831C283.136 79.8587 283.67 80.5264 284.212 81.1863C285.289 82.514 286.404 83.8416 287.504 85.075L285.485 84.5643C289.287 83.2524 293.137 82.4825 297.002 81.9169C300.875 81.3513 304.787 81.0842 308.699 81.0763C312.611 81.0842 316.524 81.3513 320.397 81.9169C324.262 82.4747 328.111 83.2524 331.913 84.5643L329.894 85.075C330.994 83.8416 332.11 82.5061 333.186 81.1863C333.728 80.5264 334.262 79.8587 334.789 79.1831C335.323 78.5075 335.849 77.8318 336.36 77.1484C337.405 75.7893 338.41 74.3988 339.423 73.0162C340.405 71.61 341.419 70.2195 342.362 68.7897C346.195 63.1099 349.73 57.218 352.763 51.0904C353.493 49.5507 354.295 48.0345 354.947 46.4633L355.976 44.1223L356.243 43.5252C356.384 43.2503 356.502 42.9596 356.675 42.7004C357.013 42.174 357.413 41.6712 357.901 41.2706C358.372 40.8464 358.93 40.54 359.495 40.2808C360.077 40.0529 360.689 39.8801 361.31 39.8408C361.931 39.7701 362.567 39.8408 363.18 39.9587C363.792 40.1158 364.397 40.3357 364.932 40.6735L365.332 40.9249L365.701 41.2235C365.953 41.4199 366.157 41.6477 366.369 41.8834L366.526 42.0562L366.636 42.1897L366.84 42.449L367.249 42.9753C367.791 43.6745 368.325 44.3815 368.844 45.0964C373.015 50.8155 376.511 56.9666 379.496 63.3378C385.451 76.1036 389.167 89.8199 391.029 103.717C392.875 117.63 392.914 131.731 391.516 145.644L391.374 144.717C391.649 145.361 391.861 145.927 392.089 146.532C392.309 147.121 392.521 147.718 392.718 148.315C393.111 149.509 393.48 150.711 393.81 151.921C394.462 154.34 395.012 156.791 395.412 159.266C396.221 164.215 396.528 169.282 396.174 174.326C395.994 176.847 395.648 179.369 395.122 181.852C394.587 184.334 393.865 186.785 392.946 189.165C391.115 193.926 388.491 198.396 385.192 202.269C381.892 206.142 378.012 209.489 373.777 212.207C371.672 213.597 369.457 214.783 367.225 215.915C366.094 216.449 364.971 217.007 363.816 217.478C363.243 217.721 362.677 217.981 362.096 218.209L360.352 218.884L359.48 219.222L358.6 219.528L356.84 220.133C355.662 220.518 354.467 220.864 353.281 221.225C352.079 221.539 350.885 221.862 349.683 222.136C348.473 222.388 347.272 222.679 346.054 222.883L344.231 223.197C343.619 223.299 343.014 223.409 342.401 223.48C341.175 223.637 339.958 223.802 338.732 223.912C337.507 224.03 336.281 224.124 335.056 224.203C333.822 224.25 332.597 224.297 331.363 224.305C331.261 224.305 331.175 224.218 331.175 224.116C331.175 224.03 331.23 223.951 331.316 223.935L331.277 223.975Z" fill="black"/>
<path fill-rule="evenodd" clip-rule="evenodd" d="M247.148 111.015C276.231 117.881 295.76 130.584 295.76 145.125C295.76 150.507 293.082 155.644 288.227 160.319C300.647 152.455 314.402 152.769 329.337 160.319C324.489 155.636 321.803 150.507 321.803 145.125C321.803 130.757 340.885 118.172 369.417 111.251C367.54 109.334 365.536 107.503 363.423 105.775H252.75C250.778 107.433 248.908 109.185 247.148 111.007V111.015Z" fill="#9355F7"/>
<path fill-rule="evenodd" clip-rule="evenodd" d="M263.921 108.462C285.752 108.462 303.459 126.161 303.459 148.001C303.459 169.84 285.76 187.539 263.921 187.539C243.629 187.539 226.904 172.244 224.649 152.557L220.925 152.125C220.163 152.038 219.613 151.339 219.7 150.577L221.735 133.153C221.821 132.391 222.52 131.841 223.282 131.927L227.579 132.43C233.628 118.345 247.62 108.47 263.928 108.47L263.921 108.462Z" fill="black"/>
<path fill-rule="evenodd" clip-rule="evenodd" d="M353.462 108.462C331.63 108.462 313.923 126.161 313.923 148.001C313.923 169.84 331.623 187.539 353.462 187.539C373.754 187.539 390.479 172.244 392.733 152.557L396.457 152.125C397.219 152.038 397.769 151.339 397.683 150.577L395.648 133.153C395.562 132.391 394.862 131.841 394.1 131.927L389.803 132.43C383.754 118.345 369.763 108.47 353.454 108.47L353.462 108.462Z" fill="black"/>
<path fill-rule="evenodd" clip-rule="evenodd" d="M349.542 108.658H267.841C287.834 110.622 303.459 127.489 303.459 148.001C303.459 153.382 302.383 158.52 300.435 163.194C305.423 155.33 310.954 155.644 316.964 163.194C315.015 158.512 313.939 153.382 313.939 148.001C313.939 127.489 329.564 110.622 349.558 108.658H349.542Z" fill="black"/>
<path d="M280.118 178.664C298.364 171.024 306.961 150.04 299.322 131.795C291.682 113.55 270.698 104.952 252.453 112.592C234.208 120.232 225.61 141.215 233.25 159.461C240.889 177.706 261.873 186.303 280.118 178.664Z" fill="#333333"/>
<path fill-rule="evenodd" clip-rule="evenodd" d="M351.089 109.813C331.308 109.813 315.275 125.847 315.275 145.628C315.275 165.409 331.308 181.443 351.089 181.443C370.871 181.443 386.904 165.409 386.904 145.628C386.904 125.847 370.871 109.813 351.089 109.813Z" fill="#333333"/>
<path fill-rule="evenodd" clip-rule="evenodd" d="M267.833 108.658H306.272V120.434H292.249C285.917 113.93 277.378 109.601 267.833 108.658Z" fill="#4D4D4D"/>
<path fill-rule="evenodd" clip-rule="evenodd" d="M271.533 113.403H301.597V115.689H277.433C275.539 114.865 273.568 114.102 271.533 113.403Z" fill="white"/>
<path d="M296.209 147.55C298.223 131.243 286.636 116.392 270.329 114.378C254.023 112.364 239.171 123.951 237.157 140.257C235.144 156.564 246.73 171.416 263.037 173.43C279.344 175.443 294.195 163.857 296.209 147.55Z" fill="#666666"/>
<path d="M379.914 149.573C383.043 133.443 372.504 117.83 356.375 114.701C340.245 111.571 324.632 122.11 321.503 138.24C318.373 154.37 328.912 169.982 345.042 173.112C361.172 176.241 376.784 165.702 379.914 149.573Z" fill="#666666"/>
<path fill-rule="evenodd" clip-rule="evenodd" d="M268.249 115.077C283.301 115.077 295.501 127.277 295.501 142.329C295.501 157.38 283.301 169.581 268.249 169.581C253.197 169.581 240.997 157.38 240.997 142.329C240.997 127.277 253.197 115.077 268.249 115.077Z" fill="#1A1A1A"/>
<path fill-rule="evenodd" clip-rule="evenodd" d="M349.133 115.077C334.081 115.077 321.881 127.277 321.881 142.329C321.881 157.38 334.081 169.581 349.133 169.581C364.185 169.581 376.385 157.38 376.385 142.329C376.385 127.277 364.185 115.077 349.133 115.077Z" fill="#1A1A1A"/>
<path fill-rule="evenodd" clip-rule="evenodd" d="M348.976 118.03C335.637 118.03 324.827 128.84 324.827 142.179C324.827 155.519 335.637 166.328 348.976 166.328C362.315 166.328 373.125 155.519 373.125 142.179C373.125 128.84 362.315 118.03 348.976 118.03Z" fill="url(#paint1_linear_55_744)"/>
<path fill-rule="evenodd" clip-rule="evenodd" d="M268.406 118.03C255.067 118.03 244.257 128.84 244.257 142.179C244.257 155.519 255.067 166.328 268.406 166.328C281.746 166.328 292.555 155.519 292.555 142.179C292.555 128.84 281.746 118.03 268.406 118.03Z" fill="url(#paint2_linear_55_744)"/>
<path fill-rule="evenodd" clip-rule="evenodd" d="M245.506 163.744C247.91 163.744 249.859 165.692 249.859 168.096C249.859 170.5 247.91 172.448 245.506 172.448C243.103 172.448 241.154 170.5 241.154 168.096C241.154 165.692 243.103 163.744 245.506 163.744Z" fill="#1A1A1A"/>
<path fill-rule="evenodd" clip-rule="evenodd" d="M245.506 164.529C247.478 164.529 249.081 166.132 249.081 168.104C249.081 170.076 247.478 171.678 245.506 171.678C243.535 171.678 241.932 170.076 241.932 168.104C241.932 166.132 243.535 164.529 245.506 164.529Z" fill="white"/>
<path fill-rule="evenodd" clip-rule="evenodd" d="M236.417 169.534L254.289 182.205C254.894 182.637 255.036 183.478 254.596 184.075L252.262 187.311C251.83 187.908 250.982 188.05 250.377 187.626L232.505 174.954C231.9 174.522 231.759 173.681 232.199 173.084L234.532 169.848C234.964 169.251 235.812 169.109 236.417 169.534Z" fill="#333333"/>
<path fill-rule="evenodd" clip-rule="evenodd" d="M237.698 171.82L251.697 181.749C252.168 182.087 252.278 182.747 251.94 183.211L250.581 185.088C250.244 185.559 249.576 185.669 249.104 185.332L235.097 175.402C234.626 175.064 234.516 174.404 234.854 173.933L236.213 172.055C236.551 171.584 237.218 171.474 237.69 171.812L237.698 171.82Z" fill="black"/>
<path fill-rule="evenodd" clip-rule="evenodd" d="M349.55 108.658H311.111V120.434H325.134C331.458 113.93 340.005 109.601 349.55 108.658Z" fill="#4D4D4D"/>
<path fill-rule="evenodd" clip-rule="evenodd" d="M345.85 113.403H315.785V115.689H339.95C341.843 114.865 343.815 114.102 345.85 113.403Z" fill="white"/>
<path fill-rule="evenodd" clip-rule="evenodd" d="M371.876 163.744C369.472 163.744 367.524 165.692 367.524 168.096C367.524 170.5 369.472 172.448 371.876 172.448C374.28 172.448 376.228 170.5 376.228 168.096C376.228 165.692 374.28 163.744 371.876 163.744Z" fill="#1A1A1A"/>
<path fill-rule="evenodd" clip-rule="evenodd" d="M371.876 164.529C369.904 164.529 368.302 166.132 368.302 168.104C368.302 170.076 369.904 171.678 371.876 171.678C373.848 171.678 375.451 170.076 375.451 168.104C375.451 166.132 373.848 164.529 371.876 164.529Z" fill="white"/>
<path fill-rule="evenodd" clip-rule="evenodd" d="M380.965 169.534L363.093 182.205C362.488 182.637 362.347 183.478 362.787 184.075L365.12 187.311C365.552 187.908 366.401 188.05 367.005 187.626L384.878 174.954C385.482 174.522 385.624 173.681 385.184 173.084L382.851 169.848C382.419 169.251 381.57 169.109 380.965 169.534Z" fill="#333333"/>
<path fill-rule="evenodd" clip-rule="evenodd" d="M379.685 171.82L365.686 181.749C365.214 182.087 365.104 182.747 365.442 183.211L366.801 185.088C367.139 185.559 367.807 185.669 368.278 185.332L382.277 175.402C382.749 175.064 382.859 174.404 382.521 173.933L381.162 172.055C380.824 171.584 380.156 171.474 379.685 171.812V171.82Z" fill="black"/>
<path fill-rule="evenodd" clip-rule="evenodd" d="M343.155 112.767C342.267 112.767 341.545 113.49 341.545 114.377C341.545 115.265 342.267 115.988 343.155 115.988C344.043 115.988 344.765 115.265 344.765 114.377C344.765 113.49 344.043 112.767 343.155 112.767Z" fill="black"/>
<path fill-rule="evenodd" clip-rule="evenodd" d="M274.495 112.767C273.607 112.767 272.884 113.49 272.884 114.377C272.884 115.265 273.607 115.988 274.495 115.988C275.382 115.988 276.105 115.265 276.105 114.377C276.105 113.49 275.382 112.767 274.495 112.767Z" fill="black"/>
<path fill-rule="evenodd" clip-rule="evenodd" d="M275.414 119.059L257.714 163.838C254.281 162.141 251.312 159.659 249.042 156.618L264.148 118.4C265.531 118.156 266.945 118.022 268.398 118.022C270.834 118.022 273.191 118.384 275.406 119.059H275.414Z" fill="white"/>
<path fill-rule="evenodd" clip-rule="evenodd" d="M282.995 122.932L265.9 166.195C264.062 166.006 262.287 165.613 260.598 165.032L278.336 120.151C280.002 120.906 281.565 121.84 283.003 122.932H282.995Z" fill="white"/>
<path fill-rule="evenodd" clip-rule="evenodd" d="M356.094 119.091L338.386 163.885C334.953 162.204 331.976 159.737 329.698 156.72L344.852 118.384C346.195 118.156 347.57 118.03 348.984 118.03C351.459 118.03 353.847 118.407 356.094 119.099V119.091Z" fill="white"/>
<path fill-rule="evenodd" clip-rule="evenodd" d="M363.659 123.003L346.58 166.21C344.742 166.03 342.966 165.645 341.27 165.071L359 120.199C360.658 120.961 362.221 121.903 363.651 123.003H363.659Z" fill="white"/>
<path fill-rule="evenodd" clip-rule="evenodd" d="M331.748 88.1859C337.86 97.0631 348.332 102.075 358.623 105.775H363.431C364.484 106.632 365.513 107.519 366.503 108.431C366.503 108.431 372.143 86.984 368.365 69.9603C364.578 52.9444 360.619 43.9495 360.619 43.9495C360.516 44.0123 360.422 44.0752 360.336 44.1616C360.147 44.303 360.006 44.4994 359.872 44.6958C359.802 44.7979 359.762 44.9157 359.699 45.0179L359.44 45.6071L358.38 48.0267C357.696 49.6528 356.879 51.2083 356.125 52.7952C353.006 59.0956 349.385 65.1132 345.472 70.9187C344.506 72.3799 343.477 73.7939 342.479 75.2316C341.442 76.6378 340.421 78.0597 339.353 79.4423C338.826 80.1415 338.284 80.8328 337.742 81.5241C337.208 82.2154 336.658 82.8989 336.1 83.5745C334.993 84.9414 333.885 86.2691 332.675 87.6203C332.424 87.9031 332.102 88.0916 331.756 88.1781L331.748 88.1859Z" fill="#333333"/>
<path fill-rule="evenodd" clip-rule="evenodd" d="M367.438 104.259C368.859 97.1887 371.13 82.396 368.365 69.9602C366.283 60.596 364.146 53.6592 362.645 49.3149C362.323 49.967 362.001 50.619 361.695 51.2711C358.576 57.5715 354.955 63.5891 351.042 69.3946C350.076 70.8558 349.047 72.2698 348.049 73.7074C336.847 87.2745 343.948 93.7242 367.445 104.251L367.438 104.259Z" fill="url(#paint3_linear_55_744)"/>
<path fill-rule="evenodd" clip-rule="evenodd" d="M361.946 46.5497C363.156 48.3095 364.138 50.187 365.034 52.1038C365.929 54.0285 366.715 56.0004 367.406 57.9958C368.797 62.0023 369.779 66.1423 370.556 70.3138C370.918 72.4034 371.248 74.501 371.475 76.6142C371.53 77.1405 371.593 77.6669 371.64 78.1932L371.774 79.7801C371.876 80.8406 371.915 81.9012 371.978 82.9617C372.19 87.2039 372.12 91.4618 371.782 95.704C371.46 99.9383 370.878 104.165 370.069 108.336C369.849 109.373 369.669 110.426 369.417 111.455L369.339 111.785C369.087 111.675 368.836 111.565 368.577 111.463C368.859 111.392 369.134 111.321 369.417 111.251C368.412 110.229 367.375 109.224 366.298 108.258C366.346 108.046 366.393 107.826 366.44 107.613C367.265 103.583 367.877 99.5141 368.239 95.4212C368.6 91.3282 368.726 87.2118 368.616 83.0953C368.577 82.0662 368.561 81.037 368.482 80.0158L368.388 78.476C368.357 77.9575 368.302 77.4548 368.255 76.9363C368.105 74.878 367.846 72.8355 367.571 70.8008C367.273 68.7662 366.943 66.7315 366.518 64.7125C366.322 63.6991 366.086 62.7014 365.866 61.688L365.128 58.6792C364.099 54.6806 362.936 50.6976 361.483 46.7933V46.7776C361.428 46.644 361.499 46.5026 361.632 46.4476C361.742 46.4083 361.868 46.4476 361.931 46.5419L361.946 46.5497Z" fill="#666666"/>
<path fill-rule="evenodd" clip-rule="evenodd" d="M360.053 89.922C362.371 89.922 364.264 88.0287 364.264 85.7112C364.264 83.3938 362.371 81.5005 360.053 81.5005C357.736 81.5005 355.842 83.3938 355.842 85.7112C355.842 88.0287 357.736 89.922 360.053 89.922Z" fill="#666666"/>
<path fill-rule="evenodd" clip-rule="evenodd" d="M360.053 88.6573C361.679 88.6573 362.999 87.3297 362.999 85.7114C362.999 84.0931 361.671 82.7576 360.053 82.7576C358.435 82.7576 357.099 84.0852 357.099 85.7114C357.099 87.3375 358.427 88.6573 360.053 88.6573Z" fill="white"/>
<path fill-rule="evenodd" clip-rule="evenodd" d="M361.31 76.0407C362.771 76.0407 363.957 74.8545 363.957 73.3933C363.957 71.9321 362.771 70.7458 361.31 70.7458C359.849 70.7458 358.662 71.9321 358.662 73.3933C358.662 74.8545 359.849 76.0407 361.31 76.0407Z" fill="#666666"/>
<path fill-rule="evenodd" clip-rule="evenodd" d="M361.31 75.2473C362.331 75.2473 363.164 74.4146 363.164 73.3933C363.164 72.372 362.331 71.5393 361.31 71.5393C360.289 71.5393 359.456 72.372 359.456 73.3933C359.456 74.4146 360.289 75.2473 361.31 75.2473Z" fill="white"/>
<path fill-rule="evenodd" clip-rule="evenodd" d="M361.954 64.0291C362.983 64.0291 363.824 63.1885 363.824 62.1594C363.824 61.1303 362.983 60.2897 361.954 60.2897C360.925 60.2897 360.084 61.1303 360.084 62.1594C360.084 63.1885 360.925 64.0291 361.954 64.0291Z" fill="#666666"/>
<path d="M361.954 63.4713C362.679 63.4713 363.266 62.8839 363.266 62.1593C363.266 61.4348 362.679 60.8474 361.954 60.8474C361.23 60.8474 360.642 61.4348 360.642 62.1593C360.642 62.8839 361.23 63.4713 361.954 63.4713Z" fill="white"/>
<path fill-rule="evenodd" clip-rule="evenodd" d="M285.611 88.1859C279.499 97.0631 269.027 102.075 258.736 105.775H253.928C252.875 106.632 251.846 107.519 250.856 108.431C250.856 108.431 245.216 86.984 248.994 69.9603C252.781 52.9444 256.74 43.9495 256.74 43.9495C256.842 44.0123 256.937 44.0752 257.023 44.1616C257.212 44.303 257.353 44.4994 257.487 44.6958C257.557 44.7979 257.597 44.9157 257.659 45.0179L257.919 45.6071L258.979 48.0267C259.663 49.6528 260.48 51.2083 261.234 52.7952C264.353 59.0956 267.974 65.1132 271.886 70.9187C272.853 72.3799 273.882 73.7939 274.88 75.2316C275.917 76.6378 276.938 78.0597 278.006 79.4423C278.533 80.1415 279.075 80.8328 279.617 81.5241C280.151 82.2154 280.701 82.8989 281.259 83.5745C282.366 84.9414 283.474 86.2691 284.684 87.6203C284.935 87.9031 285.257 88.0916 285.603 88.1781L285.611 88.1859Z" fill="#333333"/>
<path fill-rule="evenodd" clip-rule="evenodd" d="M250.299 104.259C248.877 97.1887 246.614 82.396 249.372 69.9602C251.453 60.596 253.59 53.6592 255.091 49.3149C255.413 49.967 255.735 50.619 256.041 51.2711C259.16 57.5715 262.782 63.5891 266.694 69.3946C267.66 70.8558 268.689 72.2698 269.687 73.7074C280.889 87.2745 273.788 93.7242 250.291 104.251L250.299 104.259Z" fill="url(#paint4_linear_55_744)"/>
<path fill-rule="evenodd" clip-rule="evenodd" d="M255.405 46.5498C254.195 48.3095 253.213 50.1871 252.317 52.1039C251.422 54.0286 250.636 56.0004 249.945 57.9958C248.555 62.0023 247.573 66.1423 246.795 70.3138C246.433 72.4035 246.103 74.501 245.876 76.6142C245.821 77.1406 245.758 77.6669 245.711 78.1933L245.577 79.7802C245.475 80.8407 245.436 81.9012 245.373 82.9618C245.161 87.204 245.231 91.4618 245.569 95.704C245.891 99.9383 246.473 104.165 247.282 108.336C247.502 109.373 247.683 110.426 247.934 111.455L248.012 111.793C248.264 111.683 248.617 111.534 248.869 111.424C248.586 111.353 248.248 111.274 247.965 111.204C248.971 110.182 249.969 109.224 251.037 108.25C250.99 108.038 250.943 107.818 250.896 107.606C250.071 103.576 249.458 99.5063 249.097 95.4133C248.735 91.3204 248.61 87.204 248.72 83.0875C248.759 82.0584 248.774 81.0292 248.853 80.008L248.947 78.4682C248.979 77.9497 249.034 77.447 249.081 76.9285C249.23 74.8702 249.489 72.8277 249.764 70.793C250.063 68.7584 250.393 66.7237 250.817 64.7047C251.013 63.6913 251.249 62.6936 251.469 61.6802L252.208 58.6714C253.237 54.6728 254.399 50.6898 255.853 46.7855V46.7697C255.908 46.6362 255.837 46.4948 255.703 46.4398C255.593 46.4005 255.468 46.4398 255.405 46.5341V46.5498Z" fill="#666666"/>
<path fill-rule="evenodd" clip-rule="evenodd" d="M257.298 89.922C259.616 89.922 261.509 88.0287 261.509 85.7112C261.509 83.3938 259.616 81.5005 257.298 81.5005C254.981 81.5005 253.087 83.3938 253.087 85.7112C253.087 88.0287 254.981 89.922 257.298 89.922Z" fill="#666666"/>
<path fill-rule="evenodd" clip-rule="evenodd" d="M257.298 88.6573C258.924 88.6573 260.244 87.3297 260.244 85.7114C260.244 84.0931 258.916 82.7576 257.298 82.7576C255.68 82.7576 254.344 84.0852 254.344 85.7114C254.344 87.3375 255.672 88.6573 257.298 88.6573Z" fill="white"/>
<path fill-rule="evenodd" clip-rule="evenodd" d="M256.041 76.0407C257.502 76.0407 258.689 74.8545 258.689 73.3933C258.689 71.9321 257.502 70.7458 256.041 70.7458C254.58 70.7458 253.394 71.9321 253.394 73.3933C253.394 74.8545 254.58 76.0407 256.041 76.0407Z" fill="#666666"/>
<path fill-rule="evenodd" clip-rule="evenodd" d="M256.041 75.2473C257.062 75.2473 257.895 74.4146 257.895 73.3933C257.895 72.372 257.062 71.5393 256.041 71.5393C255.02 71.5393 254.187 72.372 254.187 73.3933C254.187 74.4146 255.02 75.2473 256.041 75.2473Z" fill="white"/>
<path fill-rule="evenodd" clip-rule="evenodd" d="M255.397 64.0291C256.426 64.0291 257.267 63.1885 257.267 62.1594C257.267 61.1303 256.426 60.2897 255.397 60.2897C254.368 60.2897 253.527 61.1303 253.527 62.1594C253.527 63.1885 254.368 64.0291 255.397 64.0291Z" fill="#666666"/>
<path d="M255.397 63.4713C256.122 63.4713 256.709 62.8839 256.709 62.1593C256.709 61.4348 256.122 60.8474 255.397 60.8474C254.672 60.8474 254.085 61.4348 254.085 62.1593C254.085 62.8839 254.672 63.4713 255.397 63.4713Z" fill="white"/>
<path fill-rule="evenodd" clip-rule="evenodd" d="M308.676 246.443C315.125 246.443 320.389 241.179 320.389 234.729C320.389 228.28 315.125 223.016 308.676 223.016C302.226 223.016 296.962 228.28 296.962 234.729C296.962 241.179 302.226 246.443 308.676 246.443Z" fill="white"/>
<path fill-rule="evenodd" clip-rule="evenodd" d="M308.676 244.416C314.01 244.416 318.362 240.064 318.362 234.729C318.362 229.395 314.01 225.043 308.676 225.043C303.341 225.043 298.989 229.395 298.989 234.729C298.989 240.064 303.341 244.416 308.676 244.416Z" fill="#989898"/>
<path fill-rule="evenodd" clip-rule="evenodd" d="M308.676 241.273C312.274 241.273 315.212 238.335 315.212 234.737C315.212 231.139 312.274 228.201 308.676 228.201C305.078 228.201 302.139 231.139 302.139 234.737C302.139 238.335 305.078 241.273 308.676 241.273Z" fill="black"/>
<path d="M229.881 33.9725C229.881 18.0408 242.553 5 258.037 5H357.963C373.447 5 386.119 18.0329 386.119 33.9725" stroke="#9968FD" stroke-width="10" stroke-miterlimit="22.93"/>
<path fill-rule="evenodd" clip-rule="evenodd" d="M236.747 38.5445C235.255 42.7788 230.62 44.9942 226.385 43.5016C222.159 42.009 219.936 37.374 221.428 33.1397C222.921 28.9054 227.556 26.69 231.79 28.1826C236.017 29.6752 238.24 34.3102 236.747 38.5445Z" fill="#9968FD"/>
<path fill-rule="evenodd" clip-rule="evenodd" d="M232.921 37.1934C232.175 39.3067 229.858 40.4222 227.744 39.6759C225.631 38.9296 224.516 36.6121 225.262 34.4989C226.008 32.3856 228.326 31.2701 230.439 32.0164C232.552 32.7627 233.668 35.0802 232.921 37.1934Z" fill="white"/>
<path fill-rule="evenodd" clip-rule="evenodd" d="M215.497 114.26C206.526 112.343 200.752 103.426 202.676 94.4549L211.388 53.7614C213.305 44.79 222.222 39.0159 231.193 40.9406C240.165 42.8575 245.939 51.7739 244.014 60.7453L235.302 101.439C233.385 110.41 224.468 116.184 215.497 114.26Z" fill="#1D1D1E"/>
<path fill-rule="evenodd" clip-rule="evenodd" d="M211.388 53.7614L202.676 94.4549C202.338 96.0339 202.244 97.6051 202.354 99.137C209.165 98.2493 215.034 93.1665 216.55 86.0884L225.262 45.3949C225.6 43.8159 225.694 42.2447 225.584 40.705C218.773 41.5927 212.905 46.6754 211.388 53.7536V53.7614Z" fill="white"/>
<path fill-rule="evenodd" clip-rule="evenodd" d="M224.272 123.419C218.529 122.186 214.829 116.483 216.063 110.732L230.423 43.643C231.657 37.9004 237.36 34.2003 243.11 35.4337C248.861 36.667 252.553 42.3704 251.32 48.1209L236.959 115.21C235.726 120.961 230.023 124.653 224.272 123.419Z" fill="#1D1D1E"/>
<path fill-rule="evenodd" clip-rule="evenodd" d="M230.415 43.6509L216.055 110.74C215.717 112.319 215.764 113.89 216.11 115.375C221.79 116.491 227.391 112.814 228.609 107.134L242.969 40.0451C243.307 38.466 243.26 36.8949 242.914 35.4101C237.234 34.2946 231.633 37.9711 230.415 43.6509Z" fill="white"/>
<path fill-rule="evenodd" clip-rule="evenodd" d="M234.532 125.619C232.615 125.211 231.382 123.31 231.798 121.393L249.136 40.375C249.544 38.4582 251.446 37.2248 253.362 37.6412C255.279 38.0497 256.513 39.9508 256.096 41.8676L238.758 122.885C238.35 124.802 236.449 126.036 234.532 125.619Z" fill="#9968FD"/>
<path fill-rule="evenodd" clip-rule="evenodd" d="M253.41 37.6412C253.575 38.199 253.614 38.8039 253.48 39.4088L236.142 120.426C235.734 122.343 233.833 123.577 231.916 123.16C231.9 123.16 231.892 123.16 231.877 123.152C232.238 124.354 233.228 125.336 234.54 125.611C236.457 126.02 238.358 124.786 238.766 122.878L256.104 41.8598C256.513 39.9587 255.303 38.0733 253.41 37.6412Z" fill="black"/>
<path fill-rule="evenodd" clip-rule="evenodd" d="M227.029 82.1448C226.04 81.9326 225.395 80.9428 225.608 79.953L232.827 46.2355C233.039 45.2457 234.029 44.6015 235.019 44.8136C236.009 45.0257 236.653 46.0156 236.441 47.0054L229.221 80.7228C229.009 81.7127 228.019 82.3569 227.029 82.1448Z" fill="#7F8C8D"/>
<path fill-rule="evenodd" clip-rule="evenodd" d="M225.466 90.9354C224.476 90.7233 223.832 89.7335 224.044 88.7436L224.304 87.5417C224.516 86.5519 225.505 85.9077 226.495 86.1198C227.485 86.3319 228.129 87.3217 227.917 88.3116L227.658 89.5135C227.446 90.5034 226.456 91.1475 225.466 90.9354Z" fill="#7F8C8D"/>
<path fill-rule="evenodd" clip-rule="evenodd" d="M211.161 76.8578C210.171 76.6457 209.527 75.6558 209.739 74.666L214.696 51.4912C214.908 50.5013 215.898 49.8571 216.887 50.0692C217.877 50.2814 218.522 51.2712 218.309 52.261L213.344 75.4359C213.132 76.4257 212.143 77.0699 211.153 76.8578H211.161Z" fill="#7F8C8D"/>
<path fill-rule="evenodd" clip-rule="evenodd" d="M209.723 85.0514C208.733 84.8393 208.089 83.8495 208.301 82.8596L208.56 81.6577C208.772 80.6678 209.762 80.0236 210.752 80.2357C211.742 80.4479 212.386 81.4377 212.174 82.4275L211.915 83.6295C211.703 84.6193 210.713 85.2635 209.723 85.0514Z" fill="#7F8C8D"/>
<path fill-rule="evenodd" clip-rule="evenodd" d="M380.847 38.3875C382.34 42.614 386.975 44.8372 391.209 43.3446C395.436 41.852 397.659 37.217 396.166 32.9827C394.674 28.7484 390.039 26.533 385.805 28.0256C381.578 29.5182 379.355 34.1532 380.847 38.3875Z" fill="#9968FD"/>
<path fill-rule="evenodd" clip-rule="evenodd" d="M384.673 37.044C385.42 39.1572 387.737 40.2728 389.85 39.5265C391.964 38.7802 393.079 36.4627 392.333 34.3494C391.587 32.2362 389.269 31.1207 387.156 31.867C385.043 32.6133 383.927 34.9308 384.673 37.044Z" fill="white"/>
<path fill-rule="evenodd" clip-rule="evenodd" d="M402.098 114.103C411.069 112.186 416.843 103.269 414.919 94.2979L406.206 53.6044C404.29 44.633 395.373 38.859 386.402 40.7836C377.43 42.7005 371.656 51.6169 373.581 60.5883L382.293 101.282C384.21 110.253 393.126 116.027 402.098 114.103Z" fill="#1D1D1E"/>
<path fill-rule="evenodd" clip-rule="evenodd" d="M406.206 53.6043L414.918 94.2977C415.256 95.8768 415.351 97.4479 415.241 98.9798C408.43 98.0921 402.561 93.0094 401.045 85.9312L392.333 45.2378C391.995 43.6587 391.901 42.0876 392.011 40.5557C398.822 41.4434 404.69 46.5261 406.206 53.6043Z" fill="white"/>
<path fill-rule="evenodd" clip-rule="evenodd" d="M393.323 123.262C399.065 122.029 402.765 116.326 401.532 110.575L387.172 43.4859C385.938 37.7354 380.235 34.0432 374.484 35.2765C368.734 36.5099 365.042 42.2133 366.275 47.9638L380.635 115.053C381.869 120.803 387.572 124.496 393.323 123.262Z" fill="#1D1D1E"/>
<path fill-rule="evenodd" clip-rule="evenodd" d="M387.179 43.4937L401.54 110.583C401.878 112.162 401.831 113.733 401.485 115.218C395.805 116.333 390.204 112.657 388.986 106.977L374.626 39.8878C374.288 38.3088 374.335 36.7376 374.681 35.2529C380.36 34.1373 385.962 37.8139 387.179 43.4937Z" fill="white"/>
<path fill-rule="evenodd" clip-rule="evenodd" d="M383.063 125.462C384.98 125.054 386.213 123.152 385.797 121.236L368.459 40.2179C368.05 38.3011 366.149 37.0677 364.232 37.4841C362.315 37.8926 361.082 39.7937 361.498 41.7105L378.836 122.728C379.245 124.645 381.146 125.878 383.063 125.462Z" fill="#9968FD"/>
<path fill-rule="evenodd" clip-rule="evenodd" d="M364.185 37.4919C364.02 38.0497 363.981 38.6546 364.115 39.2595L381.452 120.277C381.861 122.194 383.762 123.427 385.679 123.011C385.695 123.011 385.702 123.011 385.718 123.003C385.357 124.205 384.367 125.187 383.055 125.462C381.138 125.871 379.237 124.637 378.829 122.728L361.491 41.7105C361.082 39.8094 362.292 37.924 364.185 37.4919Z" fill="black"/>
<path fill-rule="evenodd" clip-rule="evenodd" d="M390.565 81.9875C391.555 81.7754 392.199 80.7856 391.987 79.7957L384.768 46.0783C384.556 45.0885 383.566 44.4443 382.576 44.6564C381.586 44.8685 380.942 45.8584 381.154 46.8482L388.374 80.5656C388.586 81.5555 389.575 82.1996 390.565 81.9875Z" fill="#7F8C8D"/>
<path fill-rule="evenodd" clip-rule="evenodd" d="M392.129 90.7783C393.118 90.5662 393.763 89.5764 393.551 88.5865L393.291 87.3846C393.079 86.3948 392.089 85.7506 391.099 85.9627C390.11 86.1748 389.465 87.1646 389.678 88.1545L389.937 89.3564C390.149 90.3463 391.139 90.9904 392.129 90.7783Z" fill="#7F8C8D"/>
<path fill-rule="evenodd" clip-rule="evenodd" d="M406.434 76.7006C407.424 76.4884 408.068 75.4986 407.856 74.5088L402.899 51.3339C402.687 50.3441 401.697 49.6999 400.707 49.912C399.717 50.1241 399.073 51.114 399.285 52.1038L404.25 75.2786C404.462 76.2685 405.452 76.9127 406.442 76.7006H406.434Z" fill="#7F8C8D"/>
<path fill-rule="evenodd" clip-rule="evenodd" d="M407.872 84.8943C408.862 84.6822 409.506 83.6923 409.294 82.7025L409.035 81.5006C408.822 80.5107 407.833 79.8665 406.843 80.0786C405.853 80.2908 405.209 81.2806 405.421 82.2704L405.68 83.4724C405.892 84.4622 406.882 85.1064 407.872 84.8943Z" fill="#7F8C8D"/>
</g>
<path d="M427.189 176H188.811C181.183 176 175 181.355 175 187.96V320.04C175 326.645 181.183 332 188.811 332H427.189C434.817 332 441 326.645 441 320.04V187.96C441 181.355 434.817 176 427.189 176Z" fill="#0D0D0D"/>
<g filter="url(#filter1_f_55_744)">
<path d="M427.189 176H188.811C181.183 176 175 181.355 175 187.96V320.04C175 326.645 181.183 332 188.811 332H427.189C434.817 332 441 326.645 441 320.04V187.96C441 181.355 434.817 176 427.189 176Z" stroke="url(#paint5_linear_55_744)" stroke-width="8" stroke-miterlimit="22.93"/>
</g>
<path d="M427.189 176H188.811C181.183 176 175 181.355 175 187.96V320.04C175 326.645 181.183 332 188.811 332H427.189C434.817 332 441 326.645 441 320.04V187.96C441 181.355 434.817 176 427.189 176Z" stroke="url(#paint6_linear_55_744)" stroke-width="2" stroke-miterlimit="22.93"/>
<g filter="url(#filter2_f_55_744)">
<rect x="175" y="333" width="266" height="10" rx="5" fill="url(#paint7_linear_55_744)"/>
</g>
<rect x="180" y="335" width="255" height="3" rx="1.5" fill="url(#paint8_linear_55_744)"/>
<rect x="19" y="350" width="584" height="6" rx="3" fill="url(#paint9_linear_55_744)"/>
<path d="M322.108 269.748C320.369 272.351 318.525 274.892 315.717 274.934C312.909 274.997 312.008 273.275 308.823 273.275C305.617 273.275 304.632 274.892 301.971 274.997C299.226 275.102 297.151 272.225 295.391 269.685C291.808 264.498 289.063 254.944 292.751 248.518C294.574 245.326 297.843 243.31 301.384 243.247C304.066 243.205 306.623 245.074 308.278 245.074C309.913 245.074 313.014 242.827 316.262 243.163C317.624 243.226 321.438 243.709 323.889 247.321C323.701 247.447 319.342 250.009 319.384 255.322C319.447 261.663 324.937 263.784 325 263.805C324.937 263.952 324.12 266.829 322.108 269.748ZM310.143 236.15C311.673 234.407 314.208 233.084 316.304 233C316.576 235.457 315.591 237.935 314.125 239.699C312.679 241.483 310.29 242.869 307.943 242.68C307.629 240.266 308.802 237.746 310.143 236.15Z" fill="url(#paint10_linear_55_744)"/>
<defs>
<filter id="filter0_f_55_744" x="0" y="221" width="622" height="232" filterUnits="userSpaceOnUse" color-interpolation-filters="sRGB">
<feFlood flood-opacity="0" result="BackgroundImageFix"/>
<feBlend mode="normal" in="SourceGraphic" in2="BackgroundImageFix" result="shape"/>
<feGaussianBlur stdDeviation="38.5" result="effect1_foregroundBlur_55_744"/>
</filter>
<filter id="filter1_f_55_744" x="162" y="163" width="292" height="182" filterUnits="userSpaceOnUse" color-interpolation-filters="sRGB">
<feFlood flood-opacity="0" result="BackgroundImageFix"/>
<feBlend mode="normal" in="SourceGraphic" in2="BackgroundImageFix" result="shape"/>
<feGaussianBlur stdDeviation="4.5" result="effect1_foregroundBlur_55_744"/>
</filter>
<filter id="filter2_f_55_744" x="171" y="329" width="274" height="18" filterUnits="userSpaceOnUse" color-interpolation-filters="sRGB">
<feFlood flood-opacity="0" result="BackgroundImageFix"/>
<feBlend mode="normal" in="SourceGraphic" in2="BackgroundImageFix" result="shape"/>
<feGaussianBlur stdDeviation="2" result="effect1_foregroundBlur_55_744"/>
</filter>
<linearGradient id="paint0_linear_55_744" x1="275.528" y1="103" x2="353.266" y2="104.57" gradientUnits="userSpaceOnUse">
<stop stop-color="#9A68FE"/>
<stop offset="1" stop-color="#FF23CF"/>
</linearGradient>
<linearGradient id="paint1_linear_55_744" x1="327.012" y1="118.03" x2="374.47" y2="123.783" gradientUnits="userSpaceOnUse">
<stop stop-color="#9A68FE"/>
<stop offset="1" stop-color="#FF23CF"/>
</linearGradient>
<linearGradient id="paint2_linear_55_744" x1="246.442" y1="118.03" x2="293.9" y2="123.783" gradientUnits="userSpaceOnUse">
<stop stop-color="#9A68FE"/>
<stop offset="1" stop-color="#FF23CF"/>
</linearGradient>
<linearGradient id="paint3_linear_55_744" x1="342.841" y1="76.7869" x2="369.669" y2="76.7869" gradientUnits="userSpaceOnUse">
<stop stop-color="#2A2C2A"/>
<stop offset="1" stop-color="#BFBEBE"/>
</linearGradient>
<linearGradient id="paint4_linear_55_744" x1="274.895" y1="76.7869" x2="248.067" y2="76.7869" gradientUnits="userSpaceOnUse">
<stop stop-color="#2A2C2A"/>
<stop offset="1" stop-color="#BFBEBE"/>
</linearGradient>
<linearGradient id="paint5_linear_55_744" x1="187.03" y1="176" x2="441.381" y2="228.568" gradientUnits="userSpaceOnUse">
<stop stop-color="#9A68FE"/>
<stop offset="1" stop-color="#FF23CF"/>
</linearGradient>
<linearGradient id="paint6_linear_55_744" x1="187.03" y1="176" x2="441.381" y2="228.568" gradientUnits="userSpaceOnUse">
<stop stop-color="#9A68FE"/>
<stop offset="1" stop-color="#FF23CF"/>
</linearGradient>
<linearGradient id="paint7_linear_55_744" x1="187.03" y1="333" x2="210.304" y2="408.04" gradientUnits="userSpaceOnUse">
<stop stop-color="#9A68FE"/>
<stop offset="1" stop-color="#FF23CF"/>
</linearGradient>
<linearGradient id="paint8_linear_55_744" x1="191.533" y1="335" x2="193.906" y2="359.447" gradientUnits="userSpaceOnUse">
<stop stop-color="#9A68FE"/>
<stop offset="1" stop-color="#FF23CF"/>
</linearGradient>
<linearGradient id="paint9_linear_55_744" x1="45.4121" y1="350" x2="49.5657" y2="399.003" gradientUnits="userSpaceOnUse">
<stop stop-color="#9A68FE"/>
<stop offset="1" stop-color="#FF23CF"/>
</linearGradient>
<linearGradient id="paint10_linear_55_744" x1="292.538" y1="233" x2="326.114" y2="236.295" gradientUnits="userSpaceOnUse">
<stop stop-color="#9A68FE"/>
<stop offset="1" stop-color="#FF23CF"/>
</linearGradient>
</defs>
</svg>
